<svg xmlns="http://www.w3.org/2000/svg" viewBox="0 0 148.79 62.49"><defs><style>.cls-1{fill:#432918;}.cls-2{fill:none;}</style></defs><g id="Layer_2" data-name="Layer 2"><g id="Layer_1-2" data-name="Layer 1"><path class="cls-1" d="M2.17,2.25H17.38l8.93,19.42L35.25,2.25H50.38L33.15,35.71V59.83H19.43V35.71Z"/><path class="cls-2" d="M2.17,2.25H17.38l8.93,19.42L35.25,2.25H50.38L33.15,35.71V59.83H19.43V35.71Z"/><path class="cls-1" d="M.46,3.4c-.12-.29-.38,0-.46,0C.31,3.79.53,3.35.46,3.4Z"/><polygon class="cls-1" points="3.52 7.59 3.35 7.58 4.01 8.09 3.52 7.59"/><path class="cls-1" d="M5.71,11.86c.33-.68-.88-1.5-1.08-2.36l0-.19-.6-.12A15.1,15.1,0,0,1,5.71,11.86Z"/><path class="cls-1" d="M5.72,14.73c.14-.25.44.4-.2-.57,0,.07,0,.09,0,.13A3.12,3.12,0,0,1,5.72,14.73Z"/><path class="cls-1" d="M5.51,14.29c-.24-.44,0,.38,0,0Z"/><path class="cls-1" d="M6.7,16.3l-.49-.5c-.06.19.18.73,0,.58C6.62,16.93,6.68,16.75,6.7,16.3Z"/><path class="cls-1" d="M7.38,16.66l-.24-.27C7.12,16.47,7.14,16.56,7.38,16.66Z"/><path class="cls-1" d="M6.64,15.83l.5.56c.05-.13.22-.23-.21-.27C7.12,16.1,6.9,16.05,6.64,15.83Z"/><path class="cls-1" d="M6.54,15.42c-.06-.39-.21-.86.28-.36C6.17,14,5.88,14.33,6.54,15.42Z"/><path class="cls-1" d="M6.38,11.79l-.08-.52L5.93,11C6.11,11.12,6.22,11.9,6.38,11.79Z"/><path class="cls-1" d="M8.32,20.12c.14,0,.2-.35.33-.47l-.36-.37C8.33,19.54,8.48,20,8.32,20.12Z"/><path class="cls-1" d="M8.65,19.65l.53.55C8.9,19.61,8.75,19.55,8.65,19.65Z"/><polygon class="cls-1" points="8.03 16.46 7.07 15.59 8.14 16.66 8.03 16.46"/><polygon class="cls-1" points="9.6 22.63 9.14 22.39 9.88 22.84 9.6 22.63"/><path class="cls-1" d="M10.5,24.26c-.36-.17-.18.56-.46.34a3.71,3.71,0,0,0,1,1A2.39,2.39,0,0,1,10.5,24.26Z"/><path class="cls-1" d="M11.58,26a3.14,3.14,0,0,0-.54-.45A2.19,2.19,0,0,0,11.58,26Z"/><path class="cls-1" d="M9.7,21.34a.75.75,0,0,0-.06.68l.19-.42Z"/><path class="cls-1" d="M9.83,21.59h0l.26.57Z"/><path class="cls-1" d="M9.67,21.28l0,.06S9.72,21.28,9.67,21.28Z"/><path class="cls-1" d="M8.62,18.32c.38.29,1,1,.86.08C9.12,18.23,9.19,18.76,8.62,18.32Z"/><path class="cls-1" d="M9.9,20.75,9.62,20c-.08.06-.14.25-.33.1Z"/><polygon class="cls-1" points="10.18 21.04 9.9 20.75 10.01 21.02 10.18 21.04"/><path class="cls-1" d="M11.27,24.69a3.08,3.08,0,0,1,.69.91,8.65,8.65,0,0,0-.52-1.25C11.31,24.35,11,24.27,11.27,24.69Z"/><path class="cls-1" d="M10.6,23.17l.05,0S10.65,23.13,10.6,23.17Z"/><polygon class="cls-1" points="13.84 29.24 13.87 29.16 13.8 29.17 13.84 29.24"/><path class="cls-1" d="M11.46,24.25a.87.87,0,0,0-.45-.58,6.13,6.13,0,0,1,.43.68C11.5,24.35,11.53,24.34,11.46,24.25Z"/><path class="cls-1" d="M12.26,27a5,5,0,0,0-.09-.61C12.14,26.57,12.15,27,12.26,27Z"/><path class="cls-1" d="M10.62,23.37l0,0C10.56,23.47,10.59,23.44,10.62,23.37Z"/><path class="cls-1" d="M10.62,23.37a2.14,2.14,0,0,0,.39.3,3.38,3.38,0,0,0-.36-.45A.66.66,0,0,1,10.62,23.37Z"/><path class="cls-1" d="M16.46,29.29c-.32.1-1-.54-1-1.39-.57-.55-1.32.39-1.56,1.26.14-.05.26-.11.78.48,0-.32-.4-1.71.17-1.27.62.82.27.79.35,1.32.17-.57,1.13.87,1.57.4l-.6-.7C16.22,29.33,16.5,29.55,16.46,29.29Z"/><path class="cls-1" d="M13.22,27.83,13,27.57a3.43,3.43,0,0,1,.1,1.18c.39.4.55.44.66.42l-.67-1.41Z"/><path class="cls-1" d="M12.38,26.3c.44.06.93.66,1.06.07-.45-.82-.56-.44-1-.86.77,1.29-.38-.3-.06.76A5.77,5.77,0,0,1,12,25.6c.08.26.15.51.21.76v0h0c0-.08,0-.11,0,0s0,0,0,0a.38.38,0,0,1,.15,0c.14.43-.05.11-.15,0h-.06L13,27.57A6.48,6.48,0,0,0,12.38,26.3Z"/><path class="cls-1" d="M10.54,18.75c0,.06,0,.07,0,.08S10.62,18.92,10.54,18.75Z"/><path class="cls-1" d="M10.63,19.4a.69.69,0,0,1-.4-.42c0-.32.16-.08.26-.15-.19-.14-.58-.55-.43.13l.1.08c.16.59.12,1.49,0,1.42A2.48,2.48,0,0,0,10.63,19.4Z"/><path class="cls-1" d="M11.61,22.85l.73,1v-.71l-.15.12C11.92,22.62,11.78,22.86,11.61,22.85Z"/><polygon class="cls-1" points="13.74 29.45 13.32 29.48 14.14 29.88 13.74 29.45"/><polygon class="cls-1" points="14.53 30.88 14.21 30.98 14.58 31.27 14.53 30.88"/><path class="cls-1" d="M42.11,13.93l.09-.37A1.58,1.58,0,0,0,42.11,13.93Z"/><path class="cls-1" d="M40.87,16.29l.12.14C41,16.28,40.93,16.2,40.87,16.29Z"/><path class="cls-1" d="M28.8,61.93c.53.32,1.13.8,1.07.42L29.7,62A1.84,1.84,0,0,1,28.8,61.93Z"/><path class="cls-1" d="M33.07,36.78l-.11.15.35.37Z"/><path class="cls-1" d="M31.55,36.35l.23-1,0,0,0,0A5.33,5.33,0,0,0,31.55,36.35Z"/><path class="cls-1" d="M46.36,4.64c-.23.12-.44.25-.63.37A2.82,2.82,0,0,0,46.36,4.64Z"/><path class="cls-1" d="M17.42,45.87A5,5,0,0,0,17.2,47C17.41,46.46,17.73,46,17.42,45.87Z"/><path class="cls-1" d="M45.08,16.64c.05-.23,0-.35,0-.38C45,16.5,45,16.65,45.08,16.64Z"/><path class="cls-1" d="M17.21,48.36c0-.08.05-.16.08-.25A4.58,4.58,0,0,1,17.2,47,1.54,1.54,0,0,0,17.21,48.36Z"/><path class="cls-1" d="M17.43,7.35s0-.08,0-.12S17.39,7.28,17.43,7.35Z"/><path class="cls-1" d="M6.64.64c.16,0,.4,0,.64,0A2.15,2.15,0,0,0,6.64.64Z"/><path class="cls-1" d="M17.13,36.28h0c-.06-.07-.05,0,0,0Z"/><path class="cls-1" d="M17.91,34.63a.25.25,0,0,0,.22,0A.38.38,0,0,1,17.91,34.63Z"/><path class="cls-1" d="M19.48,51.8v0C19.55,51.73,19.54,51.75,19.48,51.8Z"/><path class="cls-1" d="M17.22,36.08a.47.47,0,0,0,0,.16A.35.35,0,0,0,17.22,36.08Z"/><path class="cls-1" d="M17.07,36.16v-.09C17,36.08,17,36.11,17.07,36.16Z"/><path class="cls-1" d="M17.15,36.42a.29.29,0,0,1,0-.16v0l0,0,0,0A.88.88,0,0,1,17.15,36.42Z"/><path class="cls-1" d="M32.16,11.61l-.06.05C32.09,12,32.14,11.89,32.16,11.61Z"/><path class="cls-1" d="M31.45,55.19l0,0v0Z"/><path class="cls-1" d="M31.18,54a1.12,1.12,0,0,1,.3,1.23l1.06-.41Z"/><path class="cls-1" d="M44.94,8.21l-.69.62c0-1.18.52-1.78-.27-1.26,1,.64-1.45,3.07-.49,3.7l-.47.4c.08-.14,0-.2.12-.34-1,.75.36,1.12-.45,2.33-.31.4-.61.64-.58.27l-.26,1.13c-.17.28-.31.11-.14-.16L41,16.45l0,0a7,7,0,0,1,0,1.21c-.34.31,0-.25-.19-.22l-.18,1c-.44.2-.34-.62,0-1.18-1.42.26-.1.83-1.57,2.21l.28-.86c-.84.22-1,.94-1.77,1.65.3-.11,1.83-1.32,1.61-.28a1.68,1.68,0,0,0-.46,1.13c-.37-.18-.53.35-.82,1l-.45-.29c-.2.72.07.79.09,1.29a1.23,1.23,0,0,1-1.27.67c-.67,1.12,1-.5.39.92a6.73,6.73,0,0,0-1.14,2.95c-.51.59-.23-.27-.49-.1l.07.8c-.08.14-.17,0-.22,0-.11.58.46.28.18,1.14.42.49-1.61,1.23-1.52,2.52-.26.17-.23-.27-.45-.29a10.34,10.34,0,0,0-.35,2.68c-.24.21-.61.67-.95,1.06.51-.48.65-.21.7.21.2.36.39.85.57,1.22l.45-.63c.09.39.19.89.29,1.35-.09.16-.28,0-.5-.2,0,.09.09.18.13.25-.2.5-.51.24-.82-.12l.34-.5a4.11,4.11,0,0,0-.51-.45.62.62,0,0,0-.5-.2,2.63,2.63,0,0,1,.15.52c-.09-.09-.17-.15-.23-.11s.07.19.2.42l-.6.32.24.07-.38,1.82a12.67,12.67,0,0,1,1.75,4.49c-.44-.51-.72-.11-1.24-.13.55-.57-.24-1.6-.13-2.67-.05.56-.3.43-.39.29l.5,1.91c-.42,0-.32.41-.49.9.84-.37.56,1.43.82,2.2-.29,0-.58-.14-.51-1.08-.63,1,1,1.35.45,2.37,0-.23,0-.35-.1-.45.25.54.05,1.87-.2,1.55v-.23c-.1,1.54,0,4.68.71,4.91a4.39,4.39,0,0,1-1-.3l2.41,2.74c-.61-.24-2.08.69-2.43-.59a3.59,3.59,0,0,0-.1.64,2.16,2.16,0,0,0,0,.43l0,.25a.69.69,0,0,0,.07.15c.08-.05.89-.53.94-.16-.34.37-.43.41-.51.53a1,1,0,0,1-.44.37c.07,0,.34.07.6.29a1.24,1.24,0,0,1,.47.81c-.14-.17-1-.68-1.05-.86a8.72,8.72,0,0,1,.66,1.17,1.67,1.67,0,0,1-.06.29c.13-.18-.72-.81-1.05-1.08.21.19-.6,0-.74.08.12.07.25.15.4.22-.48-.07-.56.26-1,.61a2.18,2.18,0,0,1-1.64.67c.2-.19.49-1.2-.35-1.32-.38.48-1.7,2.34-3.15,2.71l-.28-.28-1.12.32a22.41,22.41,0,0,1,3.72-2.87c-.63-.22-.18-.33-1.11-.3-.33-.26.51-.4.78-.41l-2.16-.17c.09.57-1.66.57-1.58,1l2.36-.59c.12.57-1.42,1.61-2.84,1.51-.15-.11,0-.36.06-.61a1.8,1.8,0,0,0,.19-.59c-.07.2-.85.38-.86.24a3.35,3.35,0,0,0,.44-.3c-.13-.1-.33,0-.6.19s-.59.27-.68.11l.1-.2a2.1,2.1,0,0,1,.33-.58c.14-.19.23-.3.06-.22-.65.55-2.65,2.49-3.14,2.27,0-.09.18-.83.37-1.52a5.84,5.84,0,0,1,.57-1.52c.26-.3.56,0,.85.13s.58.26.8.09a.48.48,0,0,1-.41-.32c.13-.37.48.16.41-.65-.57-.14.05-1.65-.49-.38-.16-.8.12-.85.1-1.77-.37.29-1.27-.84-1.43-1.63.15,0,.34-.13.42-.22.05-1.62.32-2.49.32-4,.14-.14.31-.87.56-.56a1.66,1.66,0,0,1-.31-.88c.49-.9.07,1,.67.35-.33-.06-.46-1.21-.67-1.87-.52.2-.1,1.53.11,2.2-.71,0-1.46-1.16-1.79-2.74-.17-1.25.46-.54.36-.76.13-2.36-1.24-2-.73-4,.46-.77.91,0,1.23-.2.17,1-.29,1.57-.27,2.26l.22-.85a2.3,2.3,0,0,1,.13,1.38c.41-.66.08-4,.46-5.82a2.26,2.26,0,0,0-.32-.63c-.07,0-.13,0-.15,0l0,0,.07.55c-.19.26-.31,0-.41-.19s-.18-.34-.27-.05l-.08-.16-.36-.29a1.5,1.5,0,0,1-.38-.38,3.35,3.35,0,0,1-.64-1.18l.37-.42c-.12.09.05.77.33,1-.41-.3-.14-1.8-1-1.93l0,.84c-.59-.57-1.51-1.17-1.81-2.1-.25.62.15.17-.06,1,.39-.87,1.1,2.2,1.36,1-.3.94.29,1.21.19,2.3.13-.12.16-.4.42.29a.3.3,0,0,1,.16,0v0s0,0,0,0a.52.52,0,0,0,.06-.15.54.54,0,0,1,.05-.21.87.87,0,0,1,.19.1l.14.07a1.05,1.05,0,0,1,.26.22l.11.35a2.61,2.61,0,0,0,.13.43c-.09.48-.2-.2-.38.06l.3.65c-.38.07-.63,1.28-.85.15l0,1a3.64,3.64,0,0,0-.14,1.94c-.08.48.42,1.21.13.79l.23,1.6h-.09c-.05,1.58.62,3.24-.06,5a5.84,5.84,0,0,1,.11,2l-.33.17c.11.68-.33,2,0,2.34a2.63,2.63,0,0,0-.44,2.08L16.73,56c0,.21,0,.4,0,.6s0,.65,0,.93h.43a32.33,32.33,0,0,0,.27,4.22l.38-.47s0,.09,0,.15a8.51,8.51,0,0,1,2.35.06c.43.05.9.11,1.4.15l.76,0H23c0,.08-.16.1-.3.1A2.67,2.67,0,0,1,22,61.7a4.82,4.82,0,0,0,1.52.28,7.18,7.18,0,0,0,1.29-.19,4.24,4.24,0,0,1,2.46-.09,1.23,1.23,0,0,1,.91,0l-.09,0h.15c.17.07.34.14.53.2a2.35,2.35,0,0,0-.44-.2,6.35,6.35,0,0,0,1.16-.15l.18.41h.1a.7.7,0,0,0,.32,0c.08,0,.11,0,.11-.1s-.13-.27-.3-.42a3.72,3.72,0,0,0,.81-.25,1.28,1.28,0,0,0,1.17.23,2,2,0,0,1,1.45.25c.1-.15.74-.22,1.36-.31A4.8,4.8,0,0,0,34.06,59c.09,0,.13-.1.14.21a4.14,4.14,0,0,0,0-1.85l.52-.2a5.39,5.39,0,0,0-.7-1.25c.32-.63.5-.9.9-.27-.61-1.53-.23-1.24-.84-2.54l.34.06c0-.46-.46-1.21-.19-1.49.64-1,.09-5.15.68-7.82-1,.52.44-1.24-.32-1.35.23-.16.36-.53.56-.1-.22-1.36.37-2.05-.27-3,.23-.15.34.29.48.16,0-.11-.2-.44-.06-.58s.19.2.29.42c0-1.4-.75-1.54-1.43-1.64a1.76,1.76,0,0,0,.21-.86,1,1,0,0,0-.37-.64c.22-.18.45-.34.53.17l.06-.41.23-.36c.1-.18.23-.44.32-.64.19-.42.27-.77.1-.88.19-.07.35-.58.35-.73a19.09,19.09,0,0,0,1.06-2l-.21.22C36,31,36.68,30.81,37,30l0,0c1.33-1.55.2-.87,1.57-2.36l-.41-.09c-.69-.56,1.25-1.31,1.47-2.47l-.39.26c0-.69,1.85-1,2.23-1.51.13-.08,0,.25,0,.44,1.2-1.21-.37-.43.07-1.56.36-.07.52.59.94-.12.39-.25.26-2.53,1.26-3.27-.31.11-.62.23-.51-.35.33-.8,1.82-1.7,1.56-2.71.1-.07.17-.08.22-.06.14-.67.72-2.05.57-2.57,1.52.09,1.28-4,2.41-3.37l.87-1.84.1.11a4.23,4.23,0,0,0,.37-.74,6.68,6.68,0,0,0,.28-.78A3.15,3.15,0,0,0,49.72,6c.28-.35.28-.08.33,0,1.52-2.39,1.76-3,1.71-4.28l.78-.59a.24.24,0,0,1,0-.16c-.52,0-1.23-.14-2.33-.25a15.06,15.06,0,0,0-3.9,0,.6.6,0,0,1,.37-.19,11.72,11.72,0,0,1-4-.2c-1.09-.17-2-.2-2.39.56L39,1.25c1.79.12-.26.66.47.91-.7.09-1.82-.46-1-.54l.13.08c.16-.4-.39-.47-1-.5-.25,0-.71,0-1-.08S36.08,1,36.06.88H34.38l-.72,1.48L33,3.74l-1.08,2c-.72,1.34-1.43,2.65-2.06,4l.72-.08-.51,1c-.26.21-.61.16-.24-.57-.5.24-.31,1.37-.2,1.45-.9,1.35-.39-.87-.61-.43l-.24.63.13-.11a2.32,2.32,0,0,1-.22,1.64c-.37.51-.48.13-.6.34,0,0-.09,0-.17.34l-.3.57-.15.27a1.54,1.54,0,0,0,.53,0c0,.47-.38.75.24.73-.49,0-.85.64-1.17,1.33s-.63,1.53-.7,1.38l0,.11c-.22.3-.51-.34-.78-1,0,.32-.07,1.39-.39.54a2.37,2.37,0,0,0,.12-1.58,1.79,1.79,0,0,1,0-1.33c-.13.36-.3.09-.5-.2a2.68,2.68,0,0,0-.4-.52c-.13-.11-.25-.07-.31.25-.24-.75.37-.22.36-.87-1.19-1.53-1.48-3.9-2.59-6-.15,0-.19.48-.6.12l.16-1.43c-.26-.38-.95,0-.84-1-.06.16-.16.4-.33.14a18.9,18.9,0,0,0-.68-2c-.38-.91-.8-1.83-1.22-2.73L14.92.9c-.82,0-1.64,0-2.46,0A18.24,18.24,0,0,1,7.55.29c.62.28.21.31-.27.32.31.07,0,.37,0,.57L5.39.62c-.35.56-2.08,0-2.28.57l.61-.09c-.82.63,1.14,1.4,1,2.2.92-.71,2.42,1.06,3.92,0,.33.16-.28.26-.11.45.39-.35.85-.42,1.7-.27l-.1.09a17.76,17.76,0,0,1,2.95.13l1.41.17.8.09.4.09c0-.13,0-.26,0-.4a.47.47,0,0,1,.39.28c.67-.6-.84,0-.32-.7a.75.75,0,0,0,.68.4c.12.35.3.7.4,1l.11.35a3,3,0,0,1,.07.37.78.78,0,0,1-.11.58c.37.81.31-.43.68.38l-.13.32.39.07c.19.55,0,.94-.15,1.05a2.66,2.66,0,0,0-.3-.47c.05.81,1,1.9,1,2.17l-.22-.84c1.23,2.11,2.17,4.94,3.61,6.86l.1-.25c.13.19.23.34.32.5a4.45,4.45,0,0,1,.27.53,5.07,5.07,0,0,1,.31.83,11.18,11.18,0,0,0,1,2.34l-.06,0a4.16,4.16,0,0,1,1,1.49c-.19-.14-.1.32,0,.78s.18,1-.07.69c.69,1.05.84,1.19.95,1.17a1.22,1.22,0,0,1,.56-.27l.15,1.08s0,0,0,0A11.85,11.85,0,0,1,27,21.64c-.18.71-.09.8,0,.88s.21.19,0,1.14a8.6,8.6,0,0,0,1.48-3.14c.33-1,.52-1.67,1.15-1.84,0-2-1.35,1.77-1.14.89-.2.08-.16-.38-.06-.88a5.1,5.1,0,0,1,.47-1.36c.17-.34.5-.41.95-.73a3.77,3.77,0,0,0,.75-.72,3.36,3.36,0,0,0,.58-.88c-.07.14,0,.18-.09.33.46-.47.23-1.23.88-1.77-.3-.6.44-.88-.12-1.27l-.49,1.44c.2-.85-.17-1.91.76-3a2.44,2.44,0,0,1,0,.92c.36-.3.22-.78.58-1.09.56.39-.64,1.74-.56,2.79.44-.29.29-1.79.75-1.07-.55-1,.79-1.43.62-2.74l.33.23A2.46,2.46,0,0,1,34,8.84l.22.76c0-1,1.09-1.43,1.23-2.32-.75,1.66-.61.17-1.2.74.23-1.13.6-1.31,1-1.51A2.29,2.29,0,0,0,36,6.09a2.51,2.51,0,0,0,.34-.45,3.1,3.1,0,0,0,.17-.32l.08-.18V5.08s0,0,0,0l0,0,0,.08a1.41,1.41,0,0,1-.25.29c-.17.15-.32.19-.29-.09.34-.55.5-.53.71-.48.06-.23,0-.32-.13-.36s-.28,0-.3-.27c.23.08.21,0,.17-.26s0-.33.21-.4l.16.4c.44.13.45-.08.51-.28s.16-.41,1-.25l-.72.56.89-.14-.19.46a3.64,3.64,0,0,1,2.23-.12c-.22-.29.12-.74,1-.75.58.24-.32.38.87.32-.26.26-.56.58-1.08.2,0,.14-.26.26-.32.39a4.84,4.84,0,0,0,2,.06,1.43,1.43,0,0,1-.47-.1l1.73-.56c.27.15,0,.28-.16.4.33,0,.64-.23,1.06-.27,0,.33-.07.67-.78.83a7.23,7.23,0,0,0,.77-.19,1.58,1.58,0,0,1,.27-.18c0,.15.08.4,0,.52s.18-.06.48-.22.7-.3.69-.17l.35-.15h0c-.15.21-.41.45-.55.61s-.18.26,0,.45a2.14,2.14,0,0,1-.72.11c0,.09.22.12.45.11s.47,0,.4.36a.78.78,0,0,1-.22.41.19.19,0,0,1-.24,0c-.16-.06-.31-.23-.49-.08a3.33,3.33,0,0,1-.92,2.72A5.79,5.79,0,0,1,44.94,8.21Zm-5.73,11.7c0-.26,0-.83.34-.89C39.83,19.49,39.53,19.59,39.21,19.91ZM32.29,38.69c-.14-.18-.07-.47.08-.8A1.75,1.75,0,0,1,32.29,38.69Zm-14.83.83,0,0C17.32,40.11,17.38,39.91,17.46,39.52Zm.18-1.17c-.06-.12-.12-.11-.17-.06.1.08.11.35.08.64C17.66,38.85,17.73,38.7,17.64,38.35ZM28.13,13.81l.19-.16C28.21,14.17,28.18,14,28.13,13.81Z"/><path class="cls-1" d="M31.73,36.43a.31.31,0,0,1,.22-.15C31.88,36.14,31.8,36.13,31.73,36.43Z"/><path class="cls-1" d="M46.48,4.57h0l-.12.08Z"/><path class="cls-1" d="M21.09,56.47c-.06.23-.13.22-.21.3C21,56.74,21.06,56.76,21.09,56.47Z"/><path class="cls-1" d="M15.59,33.69l.44.61a1.18,1.18,0,0,1-.19-.66C15.76,33.7,15.7,33.89,15.59,33.69Z"/><path class="cls-1" d="M14.85,26.75c-.1-.07-.11-.2-.21-.27l-.15.11C14.71,27,15,27.22,14.85,26.75Z"/><path class="cls-1" d="M16.47,32.45c.28-.21,0-.57-.33-1,0,0,0,0,0,.08C15.68,31.6,16.08,32,16.47,32.45Z"/><path class="cls-1" d="M16.07,31.34a2.55,2.55,0,0,1-.23-.43C15.64,30.94,15.89,31.1,16.07,31.34Z"/><path class="cls-1" d="M17.41,36.87c.09-.25-.44-.16-.3-.3C16.68,36.29,17.64,38.23,17.41,36.87Z"/><polygon class="cls-1" points="17.28 31.56 16.99 31.92 17.43 32.02 17.28 31.56"/><path class="cls-1" d="M18.89,35.36l-.26-.78c-.06.05-.15,0-.24-.13C18.63,34.93,18.79,35.44,18.89,35.36Z"/><path class="cls-1" d="M18.39,34.45a1.65,1.65,0,0,0-.37-.57A4.15,4.15,0,0,0,18.39,34.45Z"/><polygon class="cls-1" points="17.92 32.52 17.96 32.78 18.2 33.32 17.92 32.52"/><path class="cls-1" d="M19,44.19l.13.92c.14.09.23-.16.17-.5S19.17,44.05,19,44.19Z"/><path class="cls-1" d="M20.19,41.42c-.09.25-.18.27-.32.41l.52,0Z"/><path class="cls-1" d="M20.31,44.09c.15.09.42,1.33.39.17C20.55,44.17,20.43,43.25,20.31,44.09Z"/><path class="cls-1" d="M19.65,57.79v-.21l-.85.32C19.07,57.88,19.36,57.84,19.65,57.79Z"/><path class="cls-1" d="M29.63,57.55c-1.09-.2-.26.53-1.24.28-.25.2.8.21.54.38C29.58,58,29.93,58.12,29.63,57.55Z"/><path class="cls-1" d="M28.93,58.21l-.33.13A.93.93,0,0,0,28.93,58.21Z"/><polygon class="cls-1" points="4.09 0.18 3.39 0 3.84 0.29 4.09 0.18"/><path class="cls-1" d="M2.75.82,2.59.27,2.17.76C2.33.74,2.63.69,2.75.82Z"/><path class="cls-1" d="M37.34,21.13l.1.1c.17,0,.26-.17.43-.45Z"/><polygon class="cls-1" points="42.04 12.91 41.95 13.05 42.53 13 42.04 12.91"/><path class="cls-1" d="M45.11,5.56c-.17.28-.24.67-.41,1C44.94,5.84,45.7,5.77,45.11,5.56Z"/><path class="cls-1" d="M50.38,2.25H65L84,34.11V2.25H98.69V59.83H84L65.06,28.21V59.83H50.38Z"/><path class="cls-2" d="M50.38,2.25H65L84,34.11V2.25H98.69V59.83H84L65.06,28.21V59.83H50.38Z"/><path class="cls-1" d="M48.33,2.61c0-.46-.32-.3-.39-.36C48,3,48.42,2.59,48.33,2.61Z"/><polygon class="cls-1" points="49.13 10.2 48.99 10.06 49.34 11.18 49.13 10.2"/><path class="cls-1" d="M49.12,17.29c.61-.67-.09-2.57.12-3.83l.14-.21-.49-.57A31.12,31.12,0,0,1,49.12,17.29Z"/><path class="cls-1" d="M47.82,21.07c.24-.23.2.82.08-.88,0,.09,0,.11-.06.16S47.84,20.71,47.82,21.07Z"/><path class="cls-1" d="M47.84,20.35c0-.75-.2.49,0,0Z"/><path class="cls-1" d="M48,23.8l-.21-1c-.14.2-.17,1.08-.27.75C47.61,24.58,47.74,24.38,48,23.8Z"/><path class="cls-1" d="M48.41,24.73l-.09-.51C48.26,24.31,48.24,24.45,48.41,24.73Z"/><path class="cls-1" d="M48.13,23.14l.19,1.08c.1-.14.29-.15-.07-.49C48.43,23.82,48.26,23.6,48.13,23.14Z"/><path class="cls-1" d="M48.23,22.53c.13-.55.21-1.26.42-.28C48.56,20.37,48.14,20.65,48.23,22.53Z"/><path class="cls-1" d="M49.75,17.65l.17-.74-.2-.63C49.82,16.59,49.56,17.7,49.75,17.65Z"/><path class="cls-1" d="M47.66,29.93c.13.06.34-.33.5-.4L48,28.8C47.93,29.17,47.85,29.88,47.66,29.93Z"/><path class="cls-1" d="M48.16,29.53l.22,1.09C48.41,29.64,48.3,29.47,48.16,29.53Z"/><polygon class="cls-1" points="49.08 24.91 48.62 23.12 49.08 25.25 49.08 24.91"/><polygon class="cls-1" points="47.64 34.09 47.35 33.47 47.79 34.57 47.64 34.09"/><path class="cls-1" d="M47.69,36.84c-.24-.46-.41.63-.56.14a7.42,7.42,0,0,0,.44,2A5.21,5.21,0,0,1,47.69,36.84Z"/><path class="cls-1" d="M47.85,39.91a9.05,9.05,0,0,0-.28-1A4.35,4.35,0,0,0,47.85,39.91Z"/><path class="cls-1" d="M48.32,32.47a1.24,1.24,0,0,0-.37.85l.36-.42Z"/><path class="cls-1" d="M48.33,32.88l0,0,0,.92Z"/><path class="cls-1" d="M48.32,32.36v.11S48.37,32.4,48.32,32.36Z"/><path class="cls-1" d="M48.75,27.76c.2.64.42,2,.73.68C49.23,28,49.05,28.72,48.75,27.76Z"/><path class="cls-1" d="M48.77,31.83l.08-1.16c-.09,0-.23.23-.33-.08Z"/><polygon class="cls-1" points="48.89 32.39 48.77 31.83 48.74 32.26 48.89 32.39"/><path class="cls-1" d="M48.19,37.93a6.61,6.61,0,0,1,.19,1.67,19.3,19.3,0,0,0,.11-2C48.38,37.51,48.17,37.23,48.19,37.93Z"/><path class="cls-1" d="M48.29,35.48l0,.11C48.34,35.52,48.35,35.47,48.29,35.48Z"/><polygon class="cls-1" points="48.38 45.67 48.44 45.57 48.38 45.55 48.38 45.67"/><path class="cls-1" d="M48.56,37.49a1.91,1.91,0,0,0-.13-1.07c0,.37.06.76.06,1.18C48.54,37.64,48.57,37.65,48.56,37.49Z"/><path class="cls-1" d="M48,41.61c.07-.26.14-.56.19-.86C48.1,41,47.92,41.52,48,41.61Z"/><path class="cls-1" d="M48.21,35.76l0-.08C48.11,35.85,48.15,35.83,48.21,35.76Z"/><path class="cls-1" d="M48.21,35.76a3.93,3.93,0,0,0,.22.66,7.84,7.84,0,0,0-.12-.83Z"/><path class="cls-1" d="M50.69,47.51c-.33-.09-.64-1.4-.28-2.53-.25-1.1-1.35-.38-2,.59.15,0,.28,0,.48,1.18.18-.4.43-2.54.73-1.57.17,1.51-.12,1.23-.29,2,.41-.63.6,1.92,1.21,1.59l-.21-1.32C50.45,47.39,50.61,47.87,50.69,47.51Z"/><path class="cls-1" d="M48.48,43.39l0-.47A6.5,6.5,0,0,1,48,44.55c.17.78.29.94.4,1l0-2.32Z"/><path class="cls-1" d="M48.44,40.82c.36.36.51,1.49.91.8,0-1.38-.31-1-.46-1.79.09,2.22-.21-.64-.41,1a11,11,0,0,1-.1-1.2c0,.4-.1.78-.17,1.15l0,0h0c0-.1.07-.13,0,0a.06.06,0,0,0,0,0,.33.33,0,0,1,.13.11c-.07.64-.09.1-.13-.11l-.06,0h0l.2,2.22A15.67,15.67,0,0,0,48.44,40.82Z"/><path class="cls-1" d="M50.26,29.63c0,.07-.06.07-.09.07C50.22,29.85,50.25,29.9,50.26,29.63Z"/><path class="cls-1" d="M50,30.55a1.4,1.4,0,0,1-.16-.83c.11-.45.17,0,.29,0-.09-.31-.26-1.11-.43-.11l0,.15a4.54,4.54,0,0,1-.63,1.9A3,3,0,0,0,50,30.55Z"/><path class="cls-1" d="M49.33,35.75l.18,1.85.31-.94-.19,0C49.71,35.65,49.48,35.88,49.33,35.75Z"/><polygon class="cls-1" points="48.2 45.88 47.81 45.63 48.36 46.7 48.2 45.88"/><polygon class="cls-1" points="48.24 48.29 47.91 48.2 48.11 48.84 48.24 48.29"/><path class="cls-1" d="M96.69,33.15l-.09-.55A4.43,4.43,0,0,0,96.69,33.15Z"/><path class="cls-1" d="M96.67,37.1l.16.09C96.74,37,96.68,36.93,96.67,37.1Z"/><path class="cls-1" d="M67.41,36.24c.41,1.29.72,2.75.52,1.67l-.24-1.11C67.63,36.84,67.54,36.61,67.41,36.24Z"/><path class="cls-1" d="M89.08,59.75l-.23-.11-.54.35Z"/><path class="cls-1" d="M89.64,58.23l1,.24A7,7,0,0,0,89.64,58.23Z"/><path class="cls-1" d="M96.3,11.59,95.93,11C95.93,12,96.12,11.51,96.3,11.59Z"/><path class="cls-1" d="M64.61,61.84c1,.12,1.93.18,2.67.21v-.31l-.05.27C65.79,61.8,64.78,61.56,64.61,61.84Z"/><path class="cls-1" d="M100.57,34.7c-.06-.33-.14-.48-.22-.47C100.41,34.58,100.48,34.77,100.57,34.7Z"/><path class="cls-1" d="M67.28,58.41,67.2,59c.06.86.11,1.75.09,2.76A9.05,9.05,0,0,0,67.28,58.41Z"/><path class="cls-1" d="M70.77,16.05a1.27,1.27,0,0,1-.06-.18S70.7,16,70.77,16.05Z"/><path class="cls-1" d="M57,.64c.22,0,.59,0,.93,0A4.52,4.52,0,0,0,57,.64Z"/><path class="cls-1" d="M48.08,59c0-.86,0-.12,0,0Z"/><path class="cls-1" d="M49.53,55.51c0,.11.09.19.18.2A.32.32,0,0,1,49.53,55.51Z"/><path class="cls-1" d="M65,52.57v0C64.94,52.68,65,52.65,65,52.57Z"/><path class="cls-1" d="M48.25,57.65c0,.32-.08.71-.11,1.12C48.17,58.58,48.21,58.24,48.25,57.65Z"/><path class="cls-1" d="M48.08,57.86l0-.77C48.05,57,48,57.09,48.08,57.86Z"/><path class="cls-1" d="M48.1,60.2c0-.5,0-1,0-1.43,0,.18,0,.26-.06.22Z"/><path class="cls-1" d="M85.09,14.49a.76.76,0,0,1,0,.11C85.21,15.11,85.18,14.89,85.09,14.49Z"/><path class="cls-1" d="M74.07,40l0,0,0,.07Z"/><path class="cls-1" d="M75.24,41.39A2.28,2.28,0,0,1,74.05,40l-.59,1.07Z"/><path class="cls-1" d="M96.59,23.69,96.26,25c-.54-1.56-.36-2.69-.82-1.48,1.15.18.12,5,1.26,5.2l-.24.85c0-.25-.06-.29,0-.53-.55,1.66.82,1.23.66,3.36-.09.75-.25,1.26-.39.76L97,34.8c0,.48-.22.37-.2-.11l.1,2.52,0,0a13.48,13.48,0,0,1,.58,1.58c-.17.64-.12-.32-.27-.16l.28,1.4c-.3.57-.58-.59-.54-1.56-1.14,1.31.29,1.16-.38,4l-.15-1.32c-.65.85-.41,1.88-.82,3.37.22-.35,1-3,1.31-1.47a3.63,3.63,0,0,0,.1,1.81c-.4,0-.3.81-.28,1.81l-.54-.07c.16,1.08.43,1,.67,1.63A1.88,1.88,0,0,1,96,49.93c-.09,1.93.67-1.33.77,1a14.68,14.68,0,0,0,.34,4.65c-.19,1.12-.33-.2-.49.21l.22.49c.07.16.14.38.21.42s-.14.07-.2.05a.6.6,0,0,0,.35.3c.13.07.26.18.33.63.29.25.1.64-.1.91-.77-.22-1.27-.45-1.67-.09-.24-.16,0-.33-.06-.54l-.15.07-.08,0-.15,0-.55.1-.75.16c-.43.1-.81.22-1.73.51l-1.57-.35c1.15.41-.32.89-1.61,1.28.41.19.76.37,1,.45l-2,.29c-.25-.09,0-.28.29-.5l-.37.13c-.74-.2-.36-.51.17-.82l.74.34c.51-.33,1-.69.88-1a2.58,2.58,0,0,1-.68.15c.14-.09.22-.17.16-.23s-.28.07-.62.2l-.47-.6-.11.24-1.35-.19L86,58.11l-.17,0-.07,0-.15,0a7,7,0,0,1-.85.46,2.55,2.55,0,0,1-.63-.28,3.84,3.84,0,0,1-.83-.66,17.25,17.25,0,0,1-2-2.3c.77.42.71-.23,1.18-.47a2.38,2.38,0,0,0,.78,1.51c.22.27.47.54.71.84l.32.43a1.64,1.64,0,0,1,.16.29c-.19-.44.09-.46.2-.44-.06,0-.24-.24-.4-.42l-.47-.54-.94-1.08c.4-.16,0-.68-.26-1.4-.44.91-1.56-1.52-2.37-2.37.2-.21.59-.12,1.26,1.12-.25-1.66-1.88-1.21-2.2-2.79.18.29.24.47.43.52-.62-.56-1.45-2.34-1-2.07l.18.29c-1.08-2-3.54-5.94-4.33-5.86a3.23,3.23,0,0,1,1.09-.15l-4.15-2.24c.71,0,1.27-1.93,2.53-.5a6,6,0,0,0-1.23-2c.12.36-.29,1.25-.6.84A4.61,4.61,0,0,0,72,37.36l-.78-2.15c.18.43,0,.64-.3.66A1,1,0,0,1,70,35.3c.16,0,.36-1.25.65-1a8.33,8.33,0,0,0-1.8-1.17c.36.28.22-1.21-.17-2.37.17.65-1.48-2.52-1.93-3.07l.76,1.69c-.94-1.72-1.29-1.64-1.48-1.29s-.27.92-.94-.25a19.63,19.63,0,0,0-1.51-5.08.29.29,0,0,0,0,.12c.24,1.29.82,4.22,1.4,6.8s1.12,4.81,1.31,5.86c-.09-.11-.19-.21-.28-.3.11.61.21,1.16.32,1.66a31,31,0,0,1-1.49-5c-.55-2.37-1.08-5.45-1.38-7.61-.22.7-.33-.62-.3,1.63-.26.12-.4-2.32-.41-3.09l-.17,5.16a11.33,11.33,0,0,1,.56,3,7,7,0,0,0,.48,2.53c-.2-2-.39-4.11-.59-6.48a23.47,23.47,0,0,1,1,4.07,22.47,22.47,0,0,1,.5,4.59c-.11.22-.36-.15-.61-.67a13.16,13.16,0,0,0-.59-1.24,15.23,15.23,0,0,1,.24,3.75L63.24,36a10.07,10.07,0,0,0,.23,2.71A7.84,7.84,0,0,1,63.62,40a2.64,2.64,0,0,1-.17,1c0,.52-.73,1.57-.39,1.66.65-.86,2.65-1,3.14-.46a26.34,26.34,0,0,1-.94,3.35c-.51.87-1.21-1.29-1.65-.56.16,0,.35.51.41.71-.13.55-.48-.23-.41,1,.57.2,0,2.43.49.57a17.16,17.16,0,0,1-.1,2.61c.37-.43,1.27,1.24,1.43,2.41-.15-.07-.34.19-.42.32,0,1.2-.11,2.12-.18,3s-.14,1.71-.14,2.69c-.14.12-.31.83-.56.26.05.16.13.34.19.55a.89.89,0,0,1-.52.13c-1.35-.5,1.08-.08-.2-.68.29.34-.82.46-1.62.67.12.24.6.28,1.11.23a5.14,5.14,0,0,0,1.28-.3l0-.2a1.56,1.56,0,0,1,.38.54c.11.29-.1.58-.72.82a7.54,7.54,0,0,1-1.22.34l-.81.13-.73.12c-1.86.17-.81-.46-1.13-.36-3.49-.13-3,1.24-5.87.73-1.15-.45,0-.9-.31-1.23,1.51-.17,2.33.29,3.35.27L56,60.08a5,5,0,0,1,2-.13,12.57,12.57,0,0,0-3.12-.23c-1.48,0-3.11,0-4.31-.13,0-.33.06-.64.1-.92-.15-.3-.31-1.07-.49-.6l.06.84c-.18.55-.31.23-.41-.14s-.18-.74-.27,0c-.12-.62-.29-1.41-.4-2.26a7.88,7.88,0,0,1-.05-2.19l.52-.3a2.15,2.15,0,0,0-.15,1.5c-.23-.67.7-2.46,0-3.2l-.36,1.13a11.72,11.72,0,0,1-.64-4c-.52.65.05.33-.54,1.34.74-.88,0,3.65.75,2.24-.7,1-.3,1.8-.89,3.16.09,0,.17-.15.22-.11s0,.07,0,.2,0,.26,0,.83a2.05,2.05,0,0,1,.15.42v.14l0-.12c0,.09,0,.09,0,0a2.48,2.48,0,0,1,.26-1c.39.88.38,3.64.58,4.34,0,.12,0,.21,0,.26.18,0,0,.08-.12.13s-.14-.27-.23.11l0,.09,1.52-.28c-.08.19.52.35.85.49s.36.25-1.11.36l2.52,0c.34.05.81.1,1.15.13s.51.06.77.08a5.46,5.46,0,0,0,1.38-.07c.71.08,1.79-.42,1.17-.13l2.36-.23,0,.09c.45,0,.91,0,1.37,0l.69-.06.35,0,.56,0a45.4,45.4,0,0,1,4.55-.08A21.68,21.68,0,0,1,67.2,59c0-.67-.1-1.34-.13-2.09l0-.48V56c0-.28,0-.57,0-.9l.33-.26c-.11-1,.33-3,0-3.45.88-1.09.19-4.89.35-6.66l-.43-.07a30,30,0,0,0-.27-3.9l-.38.09a4,4,0,0,1-.08-.52c0-.19,0-.41,0-.48a2.85,2.85,0,0,1,.11-.65A4,4,0,0,0,66.91,38c.15.27.11.4,0,.47.43,0,.27-.46.09-1.42s-.4-2.28-.09-1.74a2.6,2.6,0,0,1-.08-.65,4.68,4.68,0,0,1,.2.5s0,0,0,0a.93.93,0,0,0,0,.1l.32.93c-.11-.37-.22-.7-.29-.89.08.12.18.2.27.17l.3,1.28s0,0,0,0c.18.59,0-.35-.23-1.35a.52.52,0,0,0,.12-.28c.2,1,.27,1,.37,1.06s.25.22.33,1c.1-.5.77.78,1.31.29,0,.11,0,.26-.13.07a2.32,2.32,0,0,0,.75,1.18c-.11.16-.19.34-.29.51l1.39,1c.22,1,.26,1.41-.56.8,1.69,1.64,1.14,1.46,2.65,2.81l-.34.09c.37.58,1.32,1.3,1.29,1.8.25,1.64,3.84,6.58,5.37,10.28.45-1.16.56,1.8,1.3,1.55-.08.31.09.85-.42.41a8.51,8.51,0,0,1,.56.81l.53,1c.39.73.75,1.41,1.14,2a8.47,8.47,0,0,0,2-.3c.33.24-.76.34-.47.48a3.54,3.54,0,0,1,1.42-.06c.34.14-.5.19-1.08.29.44,0,.87,0,1.18,0a5.29,5.29,0,0,0,.54-.1,1.83,1.83,0,0,0,.7-.33,1.52,1.52,0,0,0,.49-.95,2.47,2.47,0,0,0,2.32-.17c.37.22,1,.45-.31.53.72,0,4.41.32,4.48-.22a2.43,2.43,0,0,0,1.2,0c2,0,2.37.08,4.44,0l-.66-.09a.48.48,0,0,1,.38-.3c-.12-.73.14-1.29.08-2.52l.06.07a8,8,0,0,0,.14-2.43,5.45,5.45,0,0,1,.18-2.07l-.41.16c-.87-.27.51-2.56.18-4.24l-.23.6c-.3-.92,1.18-2.56,1.29-3.49.08-.2.12.32.18.6.51-2.41-.53-.31-.65-2.11.28-.33.72.43.78-.78.23-.61-.93-3.51-.38-5.17-.22.37-.44.73-.61-.11-.08-1.28.83-3.46.14-4.61.06-.17.12-.23.17-.24-.18-1-.3-3.18-.67-3.77,1.4-.9-.68-6.08.61-6.06l-.07-3,.13.08a6,6,0,0,0-.53-3.28c.08-.45.2-.12.27-.09a10.83,10.83,0,0,0-.43-5.45l.41-.24c-.24-.64.66-4.07.17-6.83.05,0,.13.09.19.31,0-.15,0-.27-.06-.45l0-.67c0-.44,0-.9,0-1.37,0-.93.08-1.92.15-2.95C98.93.34,97.27.2,95.84.21h-.47l-.3,0a2.75,2.75,0,0,0-.53.12,1.45,1.45,0,0,0-.77.5l-2,.38c2.65.12-.39.66.7.91-1,.09-2.7-.46-1.42-.54l.2.08c.47-.79-3.29-.28-3.22-.82H85.44l-2.88,0-.1,4.07q-.06,1.51-.12,3c-.08,1.87-.15,3.71-.16,5.52l.62-.56,0,1.7c-.14.45-.48.6-.46-.62-.35.64.3,2,.43,2.08-.25,2.38-.72-.93-.73-.2l0,1,.08-.22a4.55,4.55,0,0,1,.48,2.33c-.12.92-.38.47-.4.84,0,0-.06.12,0,.56l-.05,2.05c.08,0,.16-.2.24-.34l.25-.43a4.66,4.66,0,0,1,.1.71c0,.13,0,.25,0,.33s.11.23.38-.09a4.74,4.74,0,0,0-.5,2.69,9,9,0,0,1-.07,2.3,15,15,0,0,1,.33,2.63c-.17-.26-.38-.63-.6-1,.21.54.77,2.55.1,1.3a10.43,10.43,0,0,0-.85-2.93,7.78,7.78,0,0,1-.78-2.35c.29,1.55-1.06-1.52-.86.32-.2-.43-.15-.55-.09-.7a1.07,1.07,0,0,0,.08-.66,3.21,3.21,0,0,1-.68-.87c-.35-.6-.75-1.34-1.11-2.05a47.12,47.12,0,0,0-2.43-4.42c-.16,0-.06.64-.63.12L74.76,15c-.41-.55-1.06-.1-1.26-1.43,0,.21,0,.54-.31.17a57.32,57.32,0,0,0-3.4-6.11l-1.87-3L67,3.07,65.71.92,63.38.87l-.5,0-.41,0L61.64.75c-1.1-.1-2.2-.25-3.3-.46.93.28.31.31-.4.32.46.07,0,.37.08.57L55.15.62c-.53.56-3.08,0-3.38.57l.91-.09c-1.21.63,1.69,1.4,1.51,2.2,1.36-.71,3.58,1.06,5.8,0,.49.16-.42.26-.16.45a3.7,3.7,0,0,1,2.51-.27l-.15.09h1.25c.27,0,.51,0,.73,0,.33.72,1.17,2.54,2.42,4.94l.19-.46a5.36,5.36,0,0,1,.5,1.38c1,.53-1.21-2.08-.17-1.65C67,9.24,70.19,13,69.79,14.16c.67,1.13.2-.57.87.56l0,.43.45.12c.39.77.35,1.3.18,1.44a4.8,4.8,0,0,0-.48-.66c.32,1.11,1.7,2.65,1.81,3l-.51-1.16c1,1.48,2,3.2,3,4.9l.78,1.26.92,1.45c.78,1.23,1.56,2.38,2.25,3.29l-.12-.57a15,15,0,0,1,1.74,2.83,27.25,27.25,0,0,0,1.91,3.37h-.06a5.62,5.62,0,0,1,1.39,1.83c-.18-.09.14.64.46,1.4S85,39.2,84.75,39c.44.58.71.91.86,1.07a18.77,18.77,0,0,0-.26-2.14c-.11-.62-.26-1.49-.53-3.25a3.52,3.52,0,0,0,.31.35,24.13,24.13,0,0,1-.52-4.06c.14,1,.26,1.05.39,1.05s.27,0,.45,1.39a10.93,10.93,0,0,0,.19-2.58c0-.92-.09-1.81-.16-2.57-.13-1.54-.22-2.48.28-3.28-.87-2.39-.48,3.38-.67,2.14-.14.28-.3-.31-.42-1A10.41,10.41,0,0,1,84.53,24a6.18,6.18,0,0,1,.56-1.75,5.8,5.8,0,0,0,.53-2.6c0,.24.06.26.06.5.22-.92-.3-1.79.06-2.92-.53-.63,0-1.46-.64-1.64l.15,2.25c-.17-1.28-1-2.47-.57-4.57a4.75,4.75,0,0,1,.41,1.22c.2-.62-.13-1.18.07-1.82.67.18.15,2.73.66,4.09.28-.65-.49-2.58.23-1.89-.92-1,.12-2.41-.58-4.07l.4.11a5.31,5.31,0,0,1-.24-1.29l.52.87c-.45-1.34.38-2.59.14-3.87,0,2.69-.48.6-.77,1.74-.27-1.66,0-2.14.3-2.67s.65-.36.55-.92c0,.08,0,.16-.12.2S86,5,86,4.84c.06-.17.15-.33.27-.35a1.39,1.39,0,0,1,.3.17c.28,0,.24-.15.07-.27s-.47-.27-.32-.39c.67.49.3-.2,1.17-.35v.4c2.81.26.74-.85,3.27-.53l-1.07.56L91,3.94l-.27.46A7.8,7.8,0,0,1,94,4.28c-.33-.29.18-.74,1.43-.75.49.24-.25.38.66.32a2.69,2.69,0,0,1-.4.34c-.15.06-.1,0-.57-.14-.08.14-.4.26-.48.39a3.54,3.54,0,0,0,.76.13.85.85,0,0,0,.27,0c.15,0,.33-.08.43-.08-.06,0-.14,0-.17-.1a9.24,9.24,0,0,1,1-.4,2.11,2.11,0,0,1,.17.22c-.15.31-.28.23-.4.21,0,.16.23.2.27.55-.33,0-.67.14-.83,0a.72.72,0,0,1,.18.2,1,1,0,0,1,.1.15l0,.09s0,0,.05.16c-.15.17-.4,1.25-.52.94-.19,1.35.64,3.31.39,5.11a1.73,1.73,0,0,1,.17.66c-.08,1.68-.48,3.17,0,5.17l-.59,1.13c.13,1.56.75-1.53,1,1.07.19,1.84-.51.69-.67,1.34a6.94,6.94,0,0,1,.42,4.2A11.37,11.37,0,0,1,96.59,23.69ZM96.85,43c-.09-.37-.35-1.11-.11-1.39C97.21,42,97,42.34,96.85,43ZM86.24,59a1.77,1.77,0,0,1,1.2.08A3.62,3.62,0,0,1,86.24,59ZM54.15,61.8l0,0C55,61.94,54.73,61.88,54.15,61.8Zm-2.4-.18c-.29.06-.3.12-.21.17a4.94,4.94,0,0,1,1.54-.08A2.29,2.29,0,0,0,51.75,61.62ZM82.35,20l.11-.34C82.57,20.37,82.47,20.16,82.35,20Z"/><path class="cls-1" d="M89.57,58.41a.4.4,0,0,1,.16.22C89.87,58.56,89.88,58.48,89.57,58.41Z"/><path class="cls-1" d="M96.37,11.7v0a.14.14,0,0,0-.08-.06Z"/><path class="cls-1" d="M63.4,45.67a2,2,0,0,1,.21-.69C63.51,45,63.43,45.13,63.4,45.67Z"/><path class="cls-1" d="M47.9,52.7,48,53.81a2.66,2.66,0,0,1,.13-1C48,52.83,47.91,53.05,47.9,52.7Z"/><path class="cls-1" d="M50.42,43.08c-.05-.16,0-.34-.06-.5l-.19,0C50.19,43.31,50.34,43.79,50.42,43.08Z"/><path class="cls-1" d="M49.25,51.67c.34-.08.23-.78.16-1.56a.33.33,0,0,1,0,.14C48.94,50,49.09,50.85,49.25,51.67Z"/><path class="cls-1" d="M49.4,49.93c0-.24,0-.48,0-.71C49.2,49.13,49.35,49.51,49.4,49.93Z"/><path class="cls-1" d="M48.36,61.59c.09-.67-.43,0-.29-.46-.18-.16-.12.5,0,1,1-.15,1.95-.41.32-.32Z"/><polygon class="cls-1" points="50.38 51.05 49.96 51.32 50.3 51.76 50.38 51.05"/><path class="cls-1" d="M50.07,57.23l.12-1.29c-.07,0-.12-.14-.15-.34l0,1.1C50,57,50,57.26,50.07,57.23Z"/><path class="cls-1" d="M50,55.6a3.62,3.62,0,0,0-.07-1C50,54.82,50,55.28,50,55.6Z"/><polygon class="cls-1" points="50.51 52.74 50.42 53.11 50.39 53.98 50.51 52.74"/><path class="cls-1" d="M61.06,60.23l1.41-.12c.11-.15-.29-.24-.79-.18C61.36,60,60.85,60.09,61.06,60.23Z"/><path class="cls-1" d="M57,59.07a1.25,1.25,0,0,1,.59.32l0-.52Z"/><path class="cls-1" d="M60.92,59a3.85,3.85,0,0,1,.81-.26c.19-.08.31-.14-.57-.13C61,58.71,59.67,58.83,60.92,59Z"/><polygon class="cls-1" points="64.84 43.58 64.84 43.92 65.7 43.87 64.84 43.58"/><path class="cls-1" d="M65.07,23.79c-1.55-3,0,1.1-1.36-1.74-.12.19,1.13,2.29.95,2.34C65.25,25,65.77,26.06,65.07,23.79Z"/><path class="cls-1" d="M64.66,24.39a.89.89,0,0,0-.27-.2C64.55,24.36,64.63,24.4,64.66,24.39Z"/><polygon class="cls-1" points="53.23 0.18 52.19 0 52.86 0.29 53.23 0.18"/><path class="cls-1" d="M51.24.82,51,.27l-.62.49C50.62.74,51.07.69,51.24.82Z"/><path class="cls-1" d="M95.75,45.84l.13.08c.14-.16.15-.4.17-.89Z"/><polygon class="cls-1" points="96.16 31.85 96.14 32.09 96.64 31.64 96.16 31.85"/><path class="cls-1" d="M95.52,20.1c0,.48.09,1,.07,1.53C95.5,20.58,96.14,20,95.52,20.1Z"/><path class="cls-1" d="M98.69,2.25H147V16.47h-16.2V59.83H114.9V16.47H98.69Z"/><path class="cls-2" d="M98.69,2.25H147V16.47h-16.2V59.83H114.9V16.47H98.69Z"/><path class="cls-1" d="M96.64,2.49c0-.31-.32-.2-.39-.24C96.33,2.77,96.73,2.48,96.64,2.49Z"/><polygon class="cls-1" points="97.44 7.65 97.3 7.56 97.65 8.32 97.44 7.65"/><path class="cls-1" d="M97.44,12.48c.6-.46-.1-1.75.11-2.61l.14-.14-.48-.39A15.93,15.93,0,0,1,97.44,12.48Z"/><path class="cls-1" d="M96.13,16.5c.24-.41.21.87.08-1.1l-.06.22C96.15,15.8,96.15,16.06,96.13,16.5Z"/><path class="cls-1" d="M96.15,15.62c0-.91-.2.68,0,0Z"/><path class="cls-1" d="M97.06,18.88l-.92.14-.07-.34a3.53,3.53,0,0,0-.1.51c.32.06.73.1.38.17C97.75,19.24,97.54,19.1,97.06,18.88Z"/><path class="cls-1" d="M98.45,18.44l-.62.09S98,18.6,98.45,18.44Z"/><path class="cls-1" d="M96.45,18.71l1.38-.18c-.09-.1.07-.3-.61.06C97.47,18.41,97.09,18.59,96.45,18.71Z"/><path class="cls-1" d="M96.54,17.92c.13-.75.21-1.53.42-.65C96.88,15.37,96.45,15.81,96.54,17.92Z"/><path class="cls-1" d="M98.06,12.73l.18-.51L98,11.79C98.13,12,97.87,12.76,98.06,12.73Z"/><path class="cls-1" d="M103.31,19.19c0-.13-.23-.34-.28-.51l-.49.15C102.79,18.92,103.28,19,103.31,19.19Z"/><path class="cls-1" d="M103,18.68l.74-.22C103.11,18.44,103,18.54,103,18.68Z"/><path class="cls-1" d="M99.07,17.77l-2.14.46v0c.89-.16,1.72-.31,2.47-.47Z"/><polygon class="cls-1" points="106.14 19.2 105.72 19.5 106.46 19.05 106.14 19.2"/><path class="cls-1" d="M108,19.15c-.31.25.43.42.1.57a3.66,3.66,0,0,0,1.33-.44A2.45,2.45,0,0,1,108,19.15Z"/><path class="cls-1" d="M110.1,19a3.93,3.93,0,0,0-.66.28A2.34,2.34,0,0,0,110.1,19Z"/><path class="cls-1" d="M105,18.53a.83.83,0,0,0,.59.36l-.29-.36Z"/><path class="cls-1" d="M105.32,18.52h0l.62,0Z"/><path class="cls-1" d="M105,18.53H105S105,18.48,105,18.53Z"/><path class="cls-1" d="M101.77,18.1c.56-.21,1.38-.42.53-.73C102,17.62,102.54,17.79,101.77,18.1Z"/><path class="cls-1" d="M104.6,18.07l-.79-.08c0,.1.16.24,0,.34Z"/><polygon class="cls-1" points="104.98 17.96 104.6 18.07 104.89 18.11 104.98 17.96"/><path class="cls-1" d="M108.75,18.66a3.12,3.12,0,0,1,1.13-.19,8.88,8.88,0,0,0-1.35-.11C108.47,18.47,108.27,18.67,108.75,18.66Z"/><path class="cls-1" d="M107.08,18.56l.08,0S107.07,18.5,107.08,18.56Z"/><polygon class="cls-1" points="112.56 18.47 112.58 18.4 112.53 18.47 112.56 18.47"/><path class="cls-1" d="M108.45,18.29a.93.93,0,0,0-.73.13,5.13,5.13,0,0,1,.81-.06C108.56,18.31,108.56,18.27,108.45,18.29Z"/><path class="cls-1" d="M111.25,18.83a5.57,5.57,0,0,0-.58-.2C110.84,18.75,111.19,18.92,111.25,18.83Z"/><path class="cls-1" d="M107.27,18.64l0,0C107.33,18.73,107.32,18.7,107.27,18.64Z"/><path class="cls-1" d="M107.27,18.64a1.88,1.88,0,0,0,.45-.22,3.63,3.63,0,0,0-.56.12Z"/><path class="cls-1" d="M115.21,16.56a.23.23,0,0,1-.33-.07,1.65,1.65,0,0,1-1.32,0c-.9.25-.75,1.35-1,2,.12-.14.17-.28.78-.47,0-.1-.15-.2-.27-.32s-.21-.26.13-.41c.84-.16.64.06.71.24l-.06.14c.21-.36.36-.28.54-.12s.37.39.68.09l-.21-.76C115,16.68,115.12,16.9,115.21,16.56Z"/><path class="cls-1" d="M112,18.37l-.14,0c.13.06.21.19.22.45a2.58,2.58,0,0,0,.46-.39l-.6,0Z"/><path class="cls-1" d="M110.71,18.41c.25-.36,1-.52.55-.91-.94,0-.66.3-1.22.46,1.52-.09-.43.2.66.41a6.52,6.52,0,0,1-.82.1c.28,0,.54.1.79.16l0,0h0c-.07-.05-.09-.08,0-.05h0a.91.91,0,0,1,.07-.14c.44.08.07.1-.07.14s0,0,0,.06h0a7.44,7.44,0,0,0,1.22-.2.78.78,0,0,0-.27,0Z"/><path class="cls-1" d="M103.11,16.59a.09.09,0,0,1,0,.08C103.25,16.63,103.29,16.6,103.11,16.59Z"/><path class="cls-1" d="M103.73,16.81a.75.75,0,0,1-.56.16c-.31-.11,0-.18,0-.3-.21.1-.75.26-.08.44l.11-.05c.61.13,1.4.58,1.29.63A2.53,2.53,0,0,0,103.73,16.81Z"/><path class="cls-1" d="M107.26,17.52l1.27-.18-.65-.32,0,.19C107.2,17.14,107.35,17.37,107.26,17.52Z"/><path class="cls-1" d="M112.47,18.65l-.33.38a4.36,4.36,0,0,1,.67-.54Z"/><path class="cls-1" d="M112.76,18.91l-.33.23a.65.65,0,0,1,.2,0Z"/><path class="cls-1" d="M128.79,25.61l-.1-.37A1.44,1.44,0,0,0,128.79,25.61Z"/><path class="cls-1" d="M128.76,28.29l.17.07C128.84,28.24,128.77,28.18,128.76,28.29Z"/><path class="cls-1" d="M112.8,58.36c-.31,1-.8,2.42-.42,2l.36-.52A5.33,5.33,0,0,1,112.8,58.36Z"/><path class="cls-1" d="M130.7,50.3l-.11.16.35.36Z"/><path class="cls-1" d="M129.19,49.92l.24-.71A3,3,0,0,0,129.19,49.92Z"/><path class="cls-1" d="M136.31,14.07l.44-.37C136.07,13.7,136.37,13.89,136.31,14.07Z"/><path class="cls-1" d="M112.9,34.17a4.62,4.62,0,0,0-.23,1.16C112.88,34.77,113.2,34.32,112.9,34.17Z"/><path class="cls-1" d="M132.67,26.67c-.07-.23-.14-.33-.22-.32C132.51,26.58,132.58,26.71,132.67,26.67Z"/><path class="cls-1" d="M112.68,36.68c0-.08,0-.16.08-.25a4.71,4.71,0,0,1-.09-1.1A1.56,1.56,0,0,0,112.68,36.68Z"/><path class="cls-1" d="M118.7,4.33l-.12,0S118.62,4.34,118.7,4.33Z"/><path class="cls-1" d="M103.2.64c.15,0,.4,0,.64,0A2.15,2.15,0,0,0,103.2.64Z"/><path class="cls-1" d="M112.6,24c0-.35,0-.06,0,0Z"/><path class="cls-1" d="M114.05,22.27a.22.22,0,0,0,.18.14A.26.26,0,0,1,114.05,22.27Z"/><path class="cls-1" d="M115,40.14v0C115,40.07,115,40.09,115,40.14Z"/><path class="cls-1" d="M112.77,23.44a2.47,2.47,0,0,0-.11.45A3.16,3.16,0,0,0,112.77,23.44Z"/><path class="cls-1" d="M112.59,23.51l0-.3C112.57,23.16,112.53,23.2,112.59,23.51Z"/><path class="cls-1" d="M112.62,24.45a3.36,3.36,0,0,1,0-.56c0,.07,0,.09-.06.08Z"/><path class="cls-1" d="M145.89,3.49l0-.08-.06,0c-.12.05-.11.06,0,0Z"/><path class="cls-1" d="M121.78,58.13l0,0h.05Z"/><path class="cls-1" d="M123,57.86a1.13,1.13,0,0,1-1.24.3l.42,1.06Z"/><path class="cls-1" d="M128.68,18.83l-.16.71-.05.19,0,.11-.08.22a2,2,0,0,1-.17-.42l-.12-.63-.15-.93c-.08-.43-.14-.46-.38.31.29.12.44.58.52,1.18,0,.19,0,.23,0,.33l0,.29,0,.63c0,.85.05,1.71.63,1.77l-.24.58c0-.17-.06-.2-.05-.36-.55,1.12.83.84.67,2.28-.09.51-.26.86-.39.52l.28,1.12c0,.33-.22.25-.2-.07l.09,1.71h0a7.32,7.32,0,0,1,.57,1.07c-.16.44-.12-.22-.26-.11l.28.95c-.3.39-.59-.4-.55-1.05-1.14.89.29.79-.38,2.7l-.14-.9c-.65.58-.42,1.28-.82,2.3.21-.24,1-2,1.31-1a1.71,1.71,0,0,0,.1,1.23c-.41,0-.31.55-.29,1.23l-.54-.05c.16.74.44.68.68,1.11a1.23,1.23,0,0,1-.83,1.18c-.08,1.32.67-.9.78.65a6.78,6.78,0,0,0,.33,3.17c-.18.76-.33-.14-.48.14l.43.67c0,.17-.14.12-.21.09.17.57.54,0,.69.94.59.24-.87,1.84-.2,3-.15.28-.33-.13-.54,0a10.54,10.54,0,0,0,.92,2.55l-.35,1.07c.4-.79.88.22,1.27,1.09a6.49,6.49,0,0,0,.45-.67l.29,1.4c-.09.16-.27,0-.5-.21l.13.26c-.2.5-.51.24-.81-.12l.33-.5c-.32-.35-.69-.67-1-.6a1.32,1.32,0,0,1,.14.46c-.09-.09-.17-.15-.22-.1s.06.19.2.42l-.6.32.24.07L129,52.86a13,13,0,0,1,1.75,4.51c-.44-.58-.72-.23-1.25-.39.56-.15-.23-1.39-.12-2.42-.06.56-.31.44-.39.3l.25,1,.12.48a2.68,2.68,0,0,0,.13.4c-.43-.05-.32.19-.5.37.83,0,.58,1,.81,1.74l0,0a1.5,1.5,0,0,1-.25-.29,1.12,1.12,0,0,1-.21-.77c-.26,0-.14.25.06.61s.1.71-.53.4c.15,0,.27,0,.23-.11-.09.12-.42.14-.68.09s-.44-.16-.37-.29h.13l-.38,0h-.59c-.51,0-1.06,0-1.57.08-1,.1-1.85.3-2,.66a4.06,4.06,0,0,1,.3-1l-2.76,2.41c.24-.61-.69-2.08.59-2.43a2.78,2.78,0,0,0-1.6,0c.25.09.63.89.29,1a7.59,7.59,0,0,0-1.82-1c.39.14-.07,1.1-.6,1.07.07-.14,0-1,.14-1.05a4.46,4.46,0,0,1-1.17,1c.36-.18.35-.81.37-1.08,0,.17-.47,0-.74.06a.08.08,0,0,0,0-.06l-.06.14a.65.65,0,0,0,.09.16h-.25c-.07-.26-.4-.2-.71-.31s-.59-.38-.57-1.1c.19.21,1.2.1,1.32-.34-.48-.34-2.33-1.7-2.71-3.16l.28-.28-.32-1.12a22.18,22.18,0,0,1,2.87,3.74c.22-.63.33-.18.3-1.11.26-.34.4.51.41.78l.17-2.18c-.57.1-.57-1.67-1-1.58l.59,2.36c-.57.1-1.61-1.36-1.51-2.91.22-.39,1,.3,1.2.26a2.82,2.82,0,0,1-.24-1.61l.31.66c.21-.86-.76-1.4-.21-2.44,0-.35.73-1.06.39-1.12a3.64,3.64,0,0,1-3.13.3,13.35,13.35,0,0,1,.93-2.28c.51-.58,1.21.89,1.65.39-.16,0-.35-.35-.41-.49.13-.37.48.16.41-.65-.57-.14.05-1.66-.48-.39-.17-.79.11-.84.09-1.78-.37.3-1.27-.84-1.43-1.64.15,0,.34-.13.42-.22.06-1.63.32-2.5.32-4,.14-.14.31-.87.56-.56a1.76,1.76,0,0,1-.31-.89c.49-.91.07,1.05.67.36-.33-.06-.46-1.22-.67-1.89-.51.21-.1,1.55.11,2.22-.71,0-1.46-1.16-1.79-2.75-.17-1.27.46-.55.36-.77.13-2.38-1.24-2-.73-4,.46-.78.91,0,1.23-.2.18,1-.28,1.58-.27,2.27l.22-.86a2.35,2.35,0,0,1,.13,1.39c.41-.65.08-4,.46-5.84-.16-.32-.31-.89-.5-.62l.07.58c-.37.53-.51-1.09-.68-.36a5.08,5.08,0,0,1-.45-2.74l.51-.21c-.15,0-.3.72-.15,1-.23-.46.7-1.68,0-2.18l-.36.76c-.07-.19-.15-.4-.24-.61l-.12-.33a1.32,1.32,0,0,0-.12-.26c-.15-.23-.25-.37-.17-.62-.25.21-.24.21-.23.25s0,.09-.31.26c.19-.08.28-.09.32,0a.17.17,0,0,1,0,.13V20c0,.57,0,1.1.39.62-.69.71-.29,1.23-.88,2.15.17,0,.32-.33.24.49a.9.9,0,0,1,.15.18v.05l0,0s0,0,0,0a1,1,0,0,1,.26-.41c.4.4.38,1.7.59,2.13-.08.49-.2-.2-.38.06l.3.66c-.38.06-.63,1.28-.85.14l0,1a3.53,3.53,0,0,0-.13,1.94c-.09.49.42,1.22.12.8l.23,1.61-.09,0c0,1.58.63,3.26-.06,5.07a5.93,5.93,0,0,1,.11,2l-.33.17c.11.69-.33,2.06,0,2.36-.88.74-.19,3.32-.35,4.53l.43,0a14.09,14.09,0,0,0,.27,2.66l.38-.06c.31.88-.27,2.28-.23,3.68-.15-.09-.11-.45,0-.7-.85,1.68.62,3.54,0,5.06a1.23,1.23,0,0,1,.08.54,2.84,2.84,0,0,1-.09.66.32.32,0,0,0,0-.14v.24c-.07.28-.14.58-.2.91a5.9,5.9,0,0,0,.2-.77,15.82,15.82,0,0,0,.15,1.77l-.41.53,0,.16c-.15.82.19.41.49-.15a2,2,0,0,0,.25.66,1.57,1.57,0,0,0-.26.93c.6,0,1.41-.24,1.58.22a10.19,10.19,0,0,1,2-.34,7,7,0,0,0,1.11-.23.63.63,0,0,0,.49-.4c0,.09.14.14-.09.14a2.3,2.3,0,0,0,1.4,0l.21.52,1.06-.69c.64.31.91.49.27.89,1.54-.61,1.25-.23,2.56-.84l-.07.34c.47,0,1.22-.46,1.5-.19a5.22,5.22,0,0,0,2.17.34c1.36,0,3.07,0,4.76.07a30,30,0,0,1,.28-3.39c-.49.25-.38-.16-.25-.7s.31-1-.07-1.11c.23-.15.36-.53.56-.09-.23-1.38.37-2.07-.27-3,.23-.15.34.3.48.16-.05-.11-.21-.44-.07-.58s.2.2.3.42c0-1.4-.76-1.55-1.43-1.65a1.22,1.22,0,0,0-.17-1.58c.22-.24.45-.66.53.21,0-.49.33-3-.21-3,.13-.16,0-.69,0-.82a17.24,17.24,0,0,0,0-2.27l-.08.3c-.65-.43-.15-.9-.23-1.77l.07,0c.47-2-.23-.86.31-2.83l-.4.11c-.87-.19.51-1.75.18-2.89l-.24.41c-.29-.62,1.19-1.75,1.3-2.37.07-.14.12.21.17.4.52-1.64-.53-.21-.65-1.43.29-.23.73.29.78-.54.23-.41-.93-2.38-.38-3.51-.22.25-.44.5-.6-.07-.08-.87.83-2.36.13-3.15.06-.11.12-.15.18-.15-.18-.67-.3-2.17-.68-2.57,1.4-.6-.68-4.17.61-4.09l-.07-1.09.13.11a1.43,1.43,0,0,0-.05-.65c.14-.1.14-.28.2-.47.25.09.18.21.22.27a2.72,2.72,0,0,0,1.13.12l.1,0,.18,0,.38-.12c.27-.09.59-.21,1-.37l.17.41c.43-.24,2.76.66,4.64.17a.33.33,0,0,1-.21.19,9.47,9.47,0,0,1,3.42.21c.1,0,.36,0,.56.05l.63,0a7.83,7.83,0,0,0,1.1,0c.65-.07,1.07-.25,1.08-.63l1.12-.27-.11-.65a3.54,3.54,0,0,1-.05.49c-.93-.11-.57-.33-.54-.54s-.22-.4-.3-.3l-.08,0h0a1.46,1.46,0,0,1,.22-.91c.14-.17.29-.16.32.38l-.07.1c.4.51.47-.15.5-.93s.05-1.6.32-1.55V12.18l0-1.32.14-2.6.16-2.57,0-1.84,0-2c-.2.35-.41.67-.61,1l0-1.62a1.61,1.61,0,0,1,.12-.33c0-.08,0-.18.24-.24s.11.29.1.77a1.81,1.81,0,0,0,.07-.94,5.07,5.07,0,0,0-1.65.5c-1-.13-.76-.31-.2-.46s1.36-.27,1-.28l-1.11,0,.2.07a6.56,6.56,0,0,1-2.57.49c-.87-.12-.49-.38-.75-.4,0,0-.09-.07-.38,0L141.78.39l.58.49c-.65.24-1.37,0-.7.53-1-.85-5.45-.31-6-.57a6.89,6.89,0,0,1-2.91.3c.27.11.44.65-.52.59.35-1.13-1.75-.49-2.52-1.31.69.54-2.72.14-1.63.9-.8-.09,0-.42-.66-.69-1.9.44-4.18-.28-6.53-.13,0,.14.36.37-.15.59L119.46.35c-.47.07-.43.86-1.28.34.12.13.3.31,0,.36-4.6-.72-9.39.59-14.06-.76.63.28.21.31-.27.32.31.07,0,.37,0,.57l-2-.56c-.36.56-2.1,0-2.3.57l.62-.09c-.83.63,1.15,1.4,1,2.2.92-.71,2.43,1.06,3.94,0,.33.16-.29.26-.11.45.39-.35.85-.42,1.71-.27l-.1.09a46,46,0,0,1,6.15.48l-.2-.4a2.77,2.77,0,0,1,1,.28c.66-.6-1.64,0-1-.7.77.81,4.1,0,4.62.94.9,0-.26-.46.64-.46l.23.25.23-.32c.59,0,.88.36.91.58a2.68,2.68,0,0,0-.56.07c.76.3,2.14-.1,2.4,0l-.86-.16c2.45-.23,5.43.1,7.79-.41l-.18-.19c1.8-.35,1.44.21,3.42.05l-.07,0a3.22,3.22,0,0,1,1.47-.26c-.5.22.94.43.28.68,2-.38,1-.3,2.26-1l.29.31A2.16,2.16,0,0,1,137,2.88c-.81.27.63.48-.28.83,2.08.69,3.08-.69,4,.31.95-.86-1.79-.48-1.26-.66-.45-.29.79-.65,1.44-.56s1.12,1.1,2.79,1.09c-.17,0-.18.06-.34,0a1,1,0,0,0,.42.06l.24-.08c.16-.06.37-.1.46.08a.61.61,0,0,1,.5-.26c.12,0,.23,0,.55-.37l-1.06.15a7.79,7.79,0,0,1,1.92-.66,2.16,2.16,0,0,1-.08.9.87.87,0,0,1-.41-.27c-.2.43.13.44-.08.86-.4.16-.37-.18-.39-.53a1.64,1.64,0,0,0-.85.26c0,.21.63-.16.65-.07s-.08.12-.2.21l-.12.1.08-.07c.41-.26.37,0,.31.27s-.13.46.22.69l-.4,0a1.08,1.08,0,0,1,.14.15.29.29,0,0,1,.07.12,1.13,1.13,0,0,1,0,.25,3.43,3.43,0,0,0-.26-.27,1.72,1.72,0,0,0-.26-.1.25.25,0,0,1,.11.12,1.83,1.83,0,0,1,0,.33,3,3,0,0,1-.13.66,2.47,2.47,0,0,0-.15,1.31c0-1.84.48-.41.78-1.19.53,2.26-1.05,1.3-.86,3.83-.06-.34.24-1.28.43-.75a4.32,4.32,0,0,1-.45,1.42c.08,1.68.41-.26.66.45-.49.58.2.83.35,1.56h-.4c-.26.86.84.46.53,1.38a5.24,5.24,0,0,0-.57-.69l.15.5-.46-.4a1.49,1.49,0,0,1,.24.62,2.06,2.06,0,0,1-.54-.12c.29.29.45.74-.1.75-.4-.24,0-.38-.56-.32.14-.26.11-.58.47-.2a2.44,2.44,0,0,0-.06-.39.41.41,0,0,0-.37-.13.42.42,0,0,0-.15,0,.32.32,0,0,1-.15,0h-.19l.26,0c.09,0,.07,0,.1.07s-.18.09-.32.14l-.44.14-.87.28c-.27-.15,0-.28.16-.4a7.23,7.23,0,0,1-1.11.27c.13-.33.1-.67.83-.83l-1.66.37c-.11-.14-.85-.4-.63-.52-.92-.19-2.26.64-3.48.39a.9.9,0,0,1-.45.17c-.57,0-1.11-.16-1.68-.21h-.67c-.25,0-.51,0-.77,0a8.88,8.88,0,0,0-1.55.19c-.54-.19-1.12-.39-1.75-.59-.93.07-.26.25.18.45s.71.41-.56.52h0c.18,2.06-.51.28-.68.89.15.66.38,1.51.51,2.34a8.94,8.94,0,0,1,.1,1.27,5.37,5.37,0,0,1-.05.62,2.25,2.25,0,0,1-.13.42,1.69,1.69,0,0,1-.06-.55C128.69,19.39,128.7,19.12,128.68,18.83Zm.26,13.46c-.08-.25-.35-.76-.11-.94C129.3,31.64,129.08,31.86,128.94,32.29Zm1,19.94c-.13-.19-.07-.48.09-.81A1.69,1.69,0,0,1,129.92,52.23Zm-17-24.45,0,0C112.79,28.37,112.86,28.17,112.93,27.78Zm.18-1.18c-.06-.12-.11-.11-.17-.06.1.08.11.35.08.65C113.13,27.11,113.2,27,113.11,26.6Zm30.37-26,.23.11C143.2.84,143.34.73,143.48.61Z"/><path class="cls-1" d="M129.37,50a.39.39,0,0,1,.22-.11C129.52,49.76,129.44,49.76,129.37,50Z"/><path class="cls-1" d="M136.23,14.14h0a.1.1,0,0,0,0-.08Z"/><path class="cls-1" d="M116.56,44.84a1.09,1.09,0,0,1-.21.47C116.45,45.32,116.53,45.21,116.56,44.84Z"/><path class="cls-1" d="M112.42,20.36l.1.76a1.25,1.25,0,0,1,.14-.68C112.56,20.46,112.42,20.6,112.42,20.36Z"/><path class="cls-1" d="M112.26,16.43c-.12.05-.24,0-.35.06v.18C112.35,16.66,112.73,16.51,112.26,16.43Z"/><path class="cls-1" d="M113.77,19.68c.34,0,.23-.4.16-.74,0,0,0,0,0,.06C113.45,19.07,113.61,19.32,113.77,19.68Z"/><path class="cls-1" d="M113.92,18.85a1.19,1.19,0,0,1,0-.33C113.72,18.58,113.87,18.67,113.92,18.85Z"/><path class="cls-1" d="M112.88,25.11c.09-.25-.44-.16-.3-.3C112.15,24.53,113.11,26.48,112.88,25.11Z"/><path class="cls-1" d="M114.9,19.24c-.14.08-.28.16-.43.23a3.79,3.79,0,0,1,.35.25Z"/><path class="cls-1" d="M114.59,23.41l.11-.84c-.07,0-.11-.1-.14-.23C114.55,22.86,114.46,23.43,114.59,23.41Z"/><path class="cls-1" d="M114.56,22.34a1.69,1.69,0,0,0-.07-.68A3.64,3.64,0,0,0,114.56,22.34Z"/><polygon class="cls-1" points="115.02 20.39 114.94 20.64 114.91 21.24 115.02 20.39"/><path class="cls-1" d="M114.51,32.48l.12.92c.14.1.23-.15.17-.5S114.65,32.34,114.51,32.48Z"/><path class="cls-1" d="M115.66,29.7c-.08.25-.18.26-.32.4l.53,0Z"/><path class="cls-1" d="M115.79,32.38c.14.09.41,1.34.38.17C116,32.46,115.9,31.54,115.79,32.38Z"/><polygon class="cls-1" points="115.12 46.26 115.12 46.03 114.26 46.06 115.12 46.26"/><path class="cls-1" d="M117.18,57.15c.2-.41-.53.15-.28-.31-.2-.08-.2.4-.38.35C116.73,57.43,116.61,57.6,117.18,57.15Z"/><path class="cls-1" d="M116.52,57.19l-.13-.13A.31.31,0,0,0,116.52,57.19Z"/><polygon class="cls-1" points="100.63 0.18 99.93 0 100.38 0.29 100.63 0.18"/><path class="cls-1" d="M99.28.82,99.12.27l-.43.49C98.85.74,99.16.69,99.28.82Z"/><path class="cls-1" d="M127.84,34.24l.13.06c.14-.11.15-.28.18-.6Z"/><polygon class="cls-1" points="128.25 24.72 128.24 24.89 128.73 24.58 128.25 24.72"/><path class="cls-1" d="M127.62,13.83c0,.63.09,1.46.07,2.08C127.6,14.42,128.24,14.22,127.62,13.83Z"/></g></g></svg>