<svg xmlns="http://www.w3.org/2000/svg" viewBox="0 0 204.74 105.24"><defs><style>.cls-1{fill:#1d1d1b;}.cls-2{fill:#f6f6f6;}.cls-3{fill:none;}.cls-4{fill:#fff;}</style></defs><g id="Layer_2" data-name="Layer 2"><g id="Layer_1-2" data-name="Layer 1"><rect class="cls-1" width="204.74" height="105.24"/><path class="cls-2" d="M47.67,16.49H59.16l6.75,14.68,6.76-14.68H84.11l-13,25.3V60H60.71V41.79Z"/><path class="cls-3" d="M47.67,16.49H59.16l6.75,14.68,6.76-14.68H84.11l-13,25.3V60H60.71V41.79Z"/><path class="cls-2" d="M46.64,17.22c-.09-.21-.24,0-.29,0C46.57,17.49,46.69,17.19,46.64,17.22Z"/><polygon class="cls-2" points="48.85 20.45 48.74 20.43 49.2 20.83 48.85 20.45"/><path class="cls-2" d="M50.51,23.67c.17-.47-.65-1.14-.83-1.77l0-.14-.39-.12A13.15,13.15,0,0,1,50.51,23.67Z"/><path class="cls-2" d="M50.69,25.75c.08-.17.3.31-.16-.42v.09A2,2,0,0,1,50.69,25.75Z"/><path class="cls-2" d="M50.53,25.42c-.18-.34,0,.27,0,0Z"/><path class="cls-2" d="M51.41,27l-.34-.39c0,.13.16.53,0,.41C51.4,27.4,51.43,27.27,51.41,27Z"/><path class="cls-2" d="M51.87,27.25,51.7,27C51.69,27.1,51.71,27.16,51.87,27.25Z"/><path class="cls-2" d="M51.35,26.6l.35.44c0-.09.12-.15-.15-.21C51.67,26.82,51.52,26.77,51.35,26.6Z"/><path class="cls-2" d="M51.25,26.3c-.06-.29-.18-.64.17-.25C50.93,25.22,50.77,25.47,51.25,26.3Z"/><path class="cls-2" d="M50.93,23.66l-.08-.38L50.6,23C50.72,23.16,50.84,23.73,50.93,23.66Z"/><path class="cls-2" d="M52.68,29.82c.08,0,.11-.25.18-.33l-.25-.29C52.65,29.4,52.77,29.74,52.68,29.82Z"/><path class="cls-2" d="M52.86,29.49l.37.43C53,29.48,52.92,29.42,52.86,29.49Z"/><polygon class="cls-2" points="52.27 27.14 51.6 26.46 52.35 27.3 52.27 27.14"/><polygon class="cls-2" points="53.65 31.7 53.34 31.51 53.84 31.88 53.65 31.7"/><path class="cls-2" d="M54.32,32.94c-.24-.14-.08.4-.27.22a3.26,3.26,0,0,0,.69.77A2.21,2.21,0,0,1,54.32,32.94Z"/><path class="cls-2" d="M55.12,34.29a3.36,3.36,0,0,0-.38-.36A1.86,1.86,0,0,0,55.12,34.29Z"/><path class="cls-2" d="M53.63,30.78a.66.66,0,0,0,0,.49l.1-.29Z"/><path class="cls-2" d="M53.73,31h0l.2.42Z"/><path class="cls-2" d="M53.61,30.73l0,.05S53.64,30.74,53.61,30.73Z"/><path class="cls-2" d="M52.76,28.53c.26.23.69.77.55.1C53.07,28.49,53.15,28.88,52.76,28.53Z"/><path class="cls-2" d="M53.73,30.37l-.23-.55s-.07.17-.2.05Z"/><polygon class="cls-2" points="53.92 30.59 53.73 30.37 53.81 30.57 53.92 30.59"/><path class="cls-2" d="M54.84,33.3a2.89,2.89,0,0,1,.49.7,6,6,0,0,0-.41-.93C54.84,33.06,54.67,33,54.84,33.3Z"/><path class="cls-2" d="M54.32,32.16l0,0S54.35,32.14,54.32,32.16Z"/><polygon class="cls-2" points="56.75 36.76 56.77 36.7 56.73 36.7 56.75 36.76"/><path class="cls-2" d="M54.93,33a.73.73,0,0,0-.32-.45,4.2,4.2,0,0,1,.31.52S55,33.07,54.93,33Z"/><path class="cls-2" d="M55.61,35c0-.14-.06-.29-.1-.45C55.51,34.72,55.54,35,55.61,35Z"/><path class="cls-2" d="M54.34,32.31l0,0C54.31,32.37,54.33,32.35,54.34,32.31Z"/><path class="cls-2" d="M54.34,32.31a1.94,1.94,0,0,0,.27.24,2.45,2.45,0,0,0-.26-.35A.2.2,0,0,1,54.34,32.31Z"/><path class="cls-2" d="M58.43,37c-.2,0-.67-.45-.74-1.06-.4-.44-.82.2-.92.81.08,0,.15-.07.53.4,0-.23-.37-1.27,0-.92.45.64.23.6.31,1,.07-.4.77.71,1,.39L58.23,37C58.28,37,58.47,37.14,58.43,37Z"/><path class="cls-2" d="M56.27,35.7l-.13-.2a2.8,2.8,0,0,1,.14.86c.27.31.37.35.45.34l-.52-1.06Z"/><path class="cls-2" d="M55.65,34.54c.28.07.63.54.68.11-.34-.62-.39-.35-.67-.68.57,1-.26-.24,0,.55a4.59,4.59,0,0,1-.34-.52q.11.3.18.57v0h0c0-.06,0-.08,0,0l0,0h.1c.11.31,0,.07-.1,0h0l.63,1A6.68,6.68,0,0,0,55.65,34.54Z"/><path class="cls-2" d="M54,29s0,0,0,.05S54.07,29.08,54,29Z"/><path class="cls-2" d="M54.11,29.43a.6.6,0,0,1-.28-.33c0-.23.09,0,.15-.09-.12-.12-.4-.43-.26.07l.06.06a2,2,0,0,1,.11,1A1.8,1.8,0,0,0,54.11,29.43Z"/><path class="cls-2" d="M54.94,32l.53.79,0-.51-.09.07C55.12,31.84,55.05,32,54.94,32Z"/><polygon class="cls-2" points="56.7 36.91 56.44 36.9 56.98 37.24 56.7 36.91"/><polygon class="cls-2" points="57.3 37.99 57.09 38.04 57.35 38.27 57.3 37.99"/><path class="cls-2" d="M78.13,25.46l.07-.27A1.8,1.8,0,0,0,78.13,25.46Z"/><path class="cls-2" d="M77.19,27.25l.07.09C77.25,27.23,77.23,27.18,77.19,27.25Z"/><path class="cls-2" d="M67.79,61.29c.41.19.86.48.81.26l-.12-.23A1.7,1.7,0,0,1,67.79,61.29Z"/><path class="cls-2" d="M71,42.59l-.06.12.21.27Z"/><path class="cls-2" d="M70.12,42.3l.14-.71v0l0,0A5.51,5.51,0,0,0,70.12,42.3Z"/><path class="cls-2" d="M81.65,17.94a4.27,4.27,0,0,0-.38.22C81.35,18.16,81.48,18.05,81.65,17.94Z"/><path class="cls-2" d="M59.5,49.46a4.18,4.18,0,0,0-.14.87C59.49,49.91,59.68,49.57,59.5,49.46Z"/><path class="cls-2" d="M79.86,27.24c0-.17,0-.25,0-.27C79.8,27.14,79.79,27.25,79.86,27.24Z"/><path class="cls-2" d="M59.36,51.35l.06-.19a4.26,4.26,0,0,1-.06-.83A1.49,1.49,0,0,0,59.36,51.35Z"/><path class="cls-2" d="M59.48,20.22s0-.07,0-.09S59.45,20.17,59.48,20.22Z"/><path class="cls-2" d="M51.05,15.52a3.33,3.33,0,0,1,.48,0A1.36,1.36,0,0,0,51.05,15.52Z"/><path class="cls-2" d="M59.32,42.13h0c0-.06,0,0,0,0Z"/><path class="cls-2" d="M59.68,40.91s.09.06.14,0A.21.21,0,0,1,59.68,40.91Z"/><path class="cls-2" d="M60.75,54v0C60.79,53.89,60.78,53.91,60.75,54Z"/><path class="cls-2" d="M59.36,42a.57.57,0,0,0,0,.12A.31.31,0,0,0,59.36,42Z"/><path class="cls-2" d="M59.27,42s0,0,0-.12,0,0,0,0S59.24,42,59.27,42Z"/><path class="cls-2" d="M59.33,42.24a.5.5,0,0,1,0-.12v0h0Z"/><path class="cls-2" d="M70.19,23.49l0,.05C70.12,23.81,70.15,23.7,70.19,23.49Z"/><path class="cls-2" d="M70.06,56.51v0Z"/><path class="cls-2" d="M69.89,55.57a1,1,0,0,1,.18.93l.64-.31Z"/><path class="cls-2" d="M80.28,21.14l-.48.49c.07-.85.44-1.31-.1-.89.58.4-1.11,2.31-.53,2.71l-.33.32c.06-.11,0-.15.1-.25-.68.59.16.78-.43,1.71-.22.31-.43.5-.38.23l-.24.83c-.12.21-.2.1-.08-.11l-.54,1.17h0a6.36,6.36,0,0,1-.06.87c-.24.25,0-.18-.11-.14l-.17.71c-.3.17-.18-.43.07-.86-.93.28-.12.61-1.14,1.7l.23-.64c-.55.21-.66.74-1.23,1.31.2-.11,1.25-1.08,1.05-.31a1.61,1.61,0,0,0-.37.85c-.22-.11-.35.28-.57.74l-.28-.18c-.17.54,0,.57,0,.93a.92.92,0,0,1-.85.56c-.49.85.68-.42.2.65a6.23,6.23,0,0,0-.91,2.2c-.36.46-.13-.18-.31,0v.57c-.06.11-.11,0-.14,0-.11.43.27.18,0,.82.24.33-1.1,1-1.12,1.92-.17.14-.13-.18-.27-.18a9.46,9.46,0,0,0-.38,2,3.4,3.4,0,0,0-.29.33l-.36.45c.35-.37.42-.18.42.13s.24.62.34.9l.28-.49.17,1c0,.13-.16,0-.3-.15l.08.2c-.12.37-.31.18-.49-.09l.2-.38c-.2-.26-.42-.5-.61-.45a1.44,1.44,0,0,1,.09.35c-.06-.07-.11-.12-.14-.08s0,.14.12.31l-.36.24.14.06L70,44.51A11.09,11.09,0,0,1,71,47.91c-.27-.39-.43-.08-.75-.1.33-.43-.14-1.21-.08-2,0,.42-.18.33-.23.22l.3,1.44c-.26,0-.19.31-.3.69.51-.29.34,1.07.5,1.66-.17,0-.35-.11-.31-.82-.38.79.6,1,.27,1.79,0-.17,0-.27-.06-.34.15.41,0,1.41-.12,1.18v-.18c-.06,1.16,0,3.53.43,3.71a2.05,2.05,0,0,1-.61-.22L71.54,57c-.37-.19-1.26.51-1.47-.45a2.51,2.51,0,0,0,0,1.2c.06-.19.54-.47.58-.21-.42.69-.23.56-.58.93.08-.12.67.26.65.67-.09-.11-.58-.37-.64-.49a5.59,5.59,0,0,1,.4.78.76.76,0,0,1-.09.18c.13-.11-.42-.49-.63-.65.13.11-.45,0-.57,0l.27.14a.74.74,0,0,0-.45.08,3,3,0,0,0-.5.28,1.83,1.83,0,0,1-1.24.41c.15-.11.37-.73-.26-.8a5.25,5.25,0,0,1-2.39,1.64l-.21-.16-.84.19A15.9,15.9,0,0,1,66.39,59c-.47-.13-.13-.2-.84-.18-.25-.16.39-.24.59-.25l-1.63-.11c.07.35-1.26.35-1.19.64l1.77-.36c.08.34-1,1-2.18.91-.3-.13.22-.61.19-.72a.53.53,0,0,1-.23.08l-.19,0-.1,0c-.15,0-.31,0-.32,0a1.83,1.83,0,0,0,.29-.18c-.11-.06-.24,0-.42.12s-.41.16-.5.06l.06-.13c0-.2.44-.66.24-.55-.4.32-1.61,1.48-1.9,1.25,0-.07.1-.61.22-1.1a4,4,0,0,1,.34-1c.31-.44.74.66,1,.28-.09,0-.21-.26-.25-.36.08-.28.3.12.25-.49-.35-.1,0-1.25-.29-.29-.1-.6.07-.64.05-1.34-.22.22-.76-.63-.86-1.23.09,0,.2-.1.26-.16,0-1.23.19-1.89.19-3,.08-.1.18-.65.33-.42a1.61,1.61,0,0,1-.18-.67c.3-.68,0,.79.41.27-.21-.05-.28-.91-.41-1.42-.31.16-.06,1.16.07,1.67-.44,0-.89-.88-1.09-2.07-.1-1,.28-.41.22-.58.08-1.78-.75-1.52-.44-3,.27-.58.55,0,.74-.15a8,8,0,0,1-.16,1.71l.13-.65a2.18,2.18,0,0,1,.08,1c.25-.5,0-3,.28-4.39a2.27,2.27,0,0,0-.19-.49s-.09,0-.1,0h0l0,.42c-.11.2-.19,0-.25-.16s-.11-.26-.16,0l0-.13a3.32,3.32,0,0,1-1-1.45l.21-.28c-.07,0,.08.56.27.72-.28-.24-.2-1.31-.74-1.46l.08.61a5.3,5.3,0,0,1-1.29-1.63c-.12.44.11.13,0,.76.19-.61.83,1.66.92.81-.13.66.27.89.27,1.68.08-.07.06-.31.3.25,0,0,.1.06.12,0h0s0,0,0,0,0-.26,0-.32a1.16,1.16,0,0,1,.25.2.94.94,0,0,1,.18.17l.06.27a1.38,1.38,0,0,0,.08.37c-.05.37-.12-.15-.23.05l.18.49c-.23.05-.38,1-.51.11v.77a3.35,3.35,0,0,0-.09,1.46c0,.36.26.92.08.6l.14,1.21h-.06c0,1.19.38,2.45,0,3.81a5.59,5.59,0,0,1,.06,1.49l-.2.13c.07.51-.2,1.54,0,1.76-.53.56-.12,2.5-.21,3.41l.26,0a30.2,30.2,0,0,0,.16,3.18l.23-.3,0,.12a8.29,8.29,0,0,1,1.78,0l1.08.09a7,7,0,0,0,.78,0c-.07.09-.34.06-.53,0,1.26.52,2.66-.37,3.8,0a1.14,1.14,0,0,1,.69,0h.05l.39.12a1.92,1.92,0,0,0-.33-.12,6.71,6.71,0,0,0,.88-.09l.14.24h.07c.32.09.26-.12.09-.3a2,2,0,0,0,.43-.15c.15.2.52.16.84.13a1.69,1.69,0,0,1,1,.16A3.23,3.23,0,0,1,72,61a3.53,3.53,0,0,0-.41-1.7c.06,0,.09-.1.09.14a3.81,3.81,0,0,0,0-1.39l.31-.15-.42-.8c.19-.48.3-.68.54-.2-.37-1.16-.14-.94-.5-1.93l.2.05c0-.35-.28-.91-.11-1.12.38-.79,0-3.9.41-5.92-.6.39.26-.94-.2-1,.14-.12.22-.4.35-.07-.14-1,.22-1.55-.17-2.26.14-.12.21.22.29.11s-.12-.32,0-.43.12.15.18.31c0-1.05-.46-1.16-.86-1.23a1,1,0,0,0-.11-1.17c.14-.13.28-.3.32.14,0-.11,0-.19,0-.34s.1-.15.18-.3a4.81,4.81,0,0,0,.26-.5c.14-.32.22-.58.12-.64a1.12,1.12,0,0,0,.26-.55,17,17,0,0,0,.8-1.52l-.15.18c-.2-.47.23-.64.49-1.24l0,0c.94-1.2.17-.64,1.14-1.8l-.26,0c-.4-.37.88-1,1.09-1.88l-.26.21c.05-.5,1.24-.84,1.51-1.23.09-.07,0,.18,0,.32.84-1-.22-.29.14-1.14.23-.07.29.4.6-.14.27-.21.32-1.85,1-2.45-.2.11-.4.21-.3-.21.26-.61,1.26-1.35,1.16-2.06.07-.06.11-.07.14-.06a7.57,7.57,0,0,0,.52-1.9c1,0,1.06-2.95,1.75-2.58l.67-1.39,0,.07a2.94,2.94,0,0,0,.5-1.69c.19-.25.16,0,.19,0,1.08-1.76,1.27-2.21,1.4-3.3l.48-.38a.3.3,0,0,1,0-.13c-.38,0-1-.09-1.82-.16-.43,0-.92-.06-1.43-.06l-.77,0a4.77,4.77,0,0,0-.67.07s0-.08.17-.11c-1.62.29-3.81-.71-4.39.22l-1,.22c1.35.08-.2.4.35.56-.53,0-1.37-.28-.72-.33l.1.05c.22-.48-1.59-.17-1.8-.5H72.14l-.54,1.12-.46.93-.8,1.54c-.53,1-1,2-1.53,3l.46-.1-.38.78c-.17.17-.39.15-.12-.4-.33.2-.27,1-.21,1.07-.64,1-.19-.62-.36-.28L68,23.8l.08-.09a2,2,0,0,1-.23,1.21c-.26.4-.31.12-.4.29,0,0-.06,0-.13.25l-.49,1,.46-.27c-.07.5-.45.93.07.61a1.5,1.5,0,0,0-.3.27,2,2,0,0,0-.23.27,5.4,5.4,0,0,0-.39.72c-.24.51-.48,1.13-.53,1.06l0,.08c-.16.11-.38-.37-.59-.88,0,.2,0,.82-.29.2.44-.69-.22-1.18,0-1.79-.09.6-.93-1.82-1-.89-.2-.57.22-.14.17-.62-.83-1.19-1.15-2.93-2-4.49-.09,0-.09.34-.37.05l0-1c-.19-.3-.61-.08-.59-.79,0,.12-.08.29-.2.09q-.24-.75-.54-1.47l-.4-.91-.47-1c-2,0-3,.08-4.28.06a16.65,16.65,0,0,1-3.71-.39c.48.17.16.19-.2.2.23,0,0,.22,0,.34L50.1,15.5c-.27.34-1.57,0-1.73.35l.47-.06c-.62.38.86.85.77,1.34.7-.43,1.83.64,3,0,.25.1-.21.16-.08.27a1.64,1.64,0,0,1,1.28-.16l-.07.06a17.06,17.06,0,0,1,2.23.07L57,17.5l.62.06.31,0,.16,0a2,2,0,0,0,0-.24.4.4,0,0,1,.32.17c.45-.37-.64,0-.31-.43a.7.7,0,0,0,.55.24l.35.86c.16.42.26.79.14,1,.28.61.17-.29.45.32l-.06.22.25.08c.15.41.07.69,0,.76a2.32,2.32,0,0,0-.22-.36,9,9,0,0,0,.76,1.64l-.18-.63c.89,1.61,1.65,3.73,2.66,5.21l.05-.17c.79,1.2.25.84,1.24,2.76L64,29a4.49,4.49,0,0,1,.73,1.21c-.29-.31.32,1.31,0,.88.52.86.63,1,.72,1a.77.77,0,0,1,.41,0l.12.71h0a9,9,0,0,1,.54-1.89c-.13.49-.07.51,0,.53s.17,0,0,.7a7.93,7.93,0,0,0,1.12-2.38c.25-.74.4-1.18.87-1.49,0-1.22-1,1.51-.86.91-.15.11-.12-.18,0-.52a4.17,4.17,0,0,1,.35-1c.26-.52,1-.51,1.5-1.67-.06.12,0,.14-.08.25.32-.37.22-.91.66-1.34-.15-.42.33-.67,0-.92l-.4,1.08a4.71,4.71,0,0,1,.66-2.26,1.92,1.92,0,0,1,0,.66c.24-.23.18-.58.43-.82.33.25-.51,1.3-.52,2.07.3-.24.29-1.33.54-.82-.3-.69.58-1.09.55-2l.19.15a2.45,2.45,0,0,1,.14-.66l.1.54c0-.74.77-1.1.91-1.76-.57,1.25-.39.16-.8.61.42-1.68,1-.62,1.68-2.4-.08.25-.54.82-.47.41.1-.16.22-.33.34-.49s.1-.11.13-.11h.1c0-.16,0-.22-.07-.23s-.18,0-.19-.15c.15,0,.15,0,.13-.2a.29.29,0,0,1,.19-.24l.08.24a.44.44,0,0,0,.33,0,.33.33,0,0,0,.21-.16c.07-.12.13-.24.78-.15l-.55.34.68-.08L75,17.8a3.31,3.31,0,0,1,1.68-.08c-.17-.17.09-.45.73-.46.43.15-.24.24.66.2a.63.63,0,0,1-.82.12c0,.09-.2.16-.24.24a4.52,4.52,0,0,0,1.5,0,1.58,1.58,0,0,1-.36-.06l1.31-.34c.21.09,0,.16-.12.24.27,0,.45-.14.84-.17-.1.2-.08.41-.63.51l1.25-.23a.26.26,0,0,1,.18.32c0,.06.12,0,.31-.13s.46-.18.48-.11L82,17.8h0c-.11.16-.28.32-.37.43a.3.3,0,0,0-.06.37c-.16.05-.27,0-.43,0-.29.74.76-.49.28.75-.33.89-.44.17-.68.42a3.09,3.09,0,0,1-.75,2A4.62,4.62,0,0,1,80.28,21.14ZM75.91,30c0-.2.08-.61.27-.67C76.33,29.63,76.13,29.72,75.91,30ZM70.56,44a.79.79,0,0,1,0-.61A1.66,1.66,0,0,1,70.56,44Zm-11,.62v0C59.44,45.11,59.47,45,59.52,44.66Zm.11-.88c0-.09-.07-.08-.11-.05s.07.27,0,.49C59.64,44.16,59.68,44,59.63,43.78Zm7.88-18.45.13-.12C67.55,25.59,67.53,25.46,67.51,25.33Z"/><path class="cls-2" d="M70.22,42.34a.29.29,0,0,1,.14-.08C70.32,42.14,70.27,42.18,70.22,42.34Z"/><path class="cls-2" d="M81.73,17.9h0l-.08.05Z"/><path class="cls-2" d="M61.72,57.47a.88.88,0,0,1-.13.35C61.65,57.83,61.7,57.75,61.72,57.47Z"/><path class="cls-2" d="M58.14,40.08l.32.48a1.18,1.18,0,0,1-.16-.49S58.23,40.24,58.14,40.08Z"/><path class="cls-2" d="M57.25,35c-.07-.06-.09-.16-.15-.22l-.09.08C57.17,35.19,57.37,35.36,57.25,35Z"/><path class="cls-2" d="M58.63,39.24c.16-.13-.06-.42-.28-.75,0,0,0,0,0,.06C58.07,38.58,58.35,38.91,58.63,39.24Z"/><path class="cls-2" d="M58.3,38.41a3.24,3.24,0,0,1-.17-.32C58,38.1,58.18,38.23,58.3,38.41Z"/><path class="cls-2" d="M59.49,42.66c0-.19-.27-.12-.18-.23C59,42.22,59.63,43.69,59.49,42.66Z"/><polygon class="cls-2" points="59.09 38.64 58.93 38.89 59.21 38.99 59.09 38.64"/><path class="cls-2" d="M60.36,41.51l-.23-.59s-.09,0-.15-.11C60.15,41.16,60.3,41.57,60.36,41.51Z"/><path class="cls-2" d="M60,40.81a1.52,1.52,0,0,0-.28-.44A3.46,3.46,0,0,0,60,40.81Z"/><polygon class="cls-2" points="59.56 39.38 59.59 39.57 59.78 39.98 59.56 39.38"/><path class="cls-2" d="M60.47,48.2l.08.69c.09.07.14-.12.1-.38S60.56,48.09,60.47,48.2Z"/><path class="cls-2" d="M61.18,46.1a.67.67,0,0,1-.2.31l.32,0Z"/><path class="cls-2" d="M61.25,48.12c.09.07.25,1,.23.13C61.4,48.18,61.32,47.48,61.25,48.12Z"/><path class="cls-2" d="M60.85,58.51v-.17l-.52.12A3.17,3.17,0,0,0,60.85,58.51Z"/><path class="cls-2" d="M68.42,58.64c-.82-.13-.19.32-.93.16-.2.13.6.13.4.24C68.39,58.91,68.65,59,68.42,58.64Z"/><path class="cls-2" d="M67.89,59a1.77,1.77,0,0,0-.25.08Z"/><polygon class="cls-2" points="49.12 15.24 48.59 15.13 48.93 15.3 49.12 15.24"/><path class="cls-2" d="M48.11,15.62,48,15.29l-.31.3C47.78,15.58,48,15.55,48.11,15.62Z"/><path class="cls-2" d="M74.65,31l0,.08c.11,0,.18-.14.3-.36Z"/><polygon class="cls-2" points="78.14 24.72 78.08 24.83 78.45 24.76 78.14 24.72"/><path class="cls-2" d="M80.55,19.21c-.13.21-.2.5-.32.71C80.42,19.42,80.91,19.32,80.55,19.21Z"/><path class="cls-2" d="M84.11,16.49h11l14.38,24.08V16.49h11.12V60H109.51l-14.3-23.9V60H84.11Z"/><path class="cls-3" d="M84.11,16.49h11l14.38,24.08V16.49h11.12V60H109.51l-14.3-23.9V60H84.11Z"/><path class="cls-2" d="M82.86,16.76c0-.34-.19-.22-.23-.27C82.68,17.07,82.92,16.75,82.86,16.76Z"/><polygon class="cls-2" points="83.35 22.5 83.26 22.4 83.48 23.24 83.35 22.5"/><path class="cls-2" d="M83.35,27.86c.36-.51-.06-1.94.07-2.9l.08-.16-.29-.43A32.05,32.05,0,0,1,83.35,27.86Z"/><path class="cls-2" d="M82.56,30.72c.14-.18.12.62,0-.67l0,.12C82.57,30.29,82.57,30.45,82.56,30.72Z"/><path class="cls-2" d="M82.57,30.17c0-.56-.12.37,0,0Z"/><path class="cls-2" d="M82.65,32.78,82.52,32c-.08.15-.1.82-.16.57C82.43,33.37,82.51,33.22,82.65,32.78Z"/><path class="cls-2" d="M82.91,33.49l0-.39C82.83,33.17,82.81,33.27,82.91,33.49Z"/><path class="cls-2" d="M82.75,32.28l.11.82c.06-.11.18-.12,0-.37C82.93,32.79,82.82,32.63,82.75,32.28Z"/><path class="cls-2" d="M82.8,31.82c.08-.42.13-.95.26-.21C83,30.19,82.75,30.4,82.8,31.82Z"/><path class="cls-2" d="M83.72,28.13l.11-.55-.12-.49C83.77,27.34,83.61,28.17,83.72,28.13Z"/><path class="cls-2" d="M82.46,37.42c.08,0,.21-.25.31-.31l-.09-.55C82.62,36.84,82.57,37.38,82.46,37.42Z"/><path class="cls-2" d="M82.77,37.11l.13.82C82.91,37.2,82.85,37.06,82.77,37.11Z"/><polygon class="cls-2" points="83.32 33.62 83.04 32.27 83.32 33.88 83.32 33.62"/><polygon class="cls-2" points="82.45 40.56 82.27 40.09 82.54 40.92 82.45 40.56"/><path class="cls-2" d="M82.48,42.64c-.15-.35-.25.47-.34.11a6.2,6.2,0,0,0,.27,1.48A4.64,4.64,0,0,1,82.48,42.64Z"/><path class="cls-2" d="M82.57,45c0-.23-.1-.47-.16-.73A3.66,3.66,0,0,0,82.57,45Z"/><path class="cls-2" d="M82.86,39.33a1.08,1.08,0,0,0-.22.65l.22-.32Z"/><path class="cls-2" d="M82.86,39.65h0l0,.7Z"/><path class="cls-2" d="M82.86,39.25v.08S82.89,39.28,82.86,39.25Z"/><path class="cls-2" d="M83.12,35.78c.12.48.25,1.49.44.51C83.41,35.94,83.31,36.5,83.12,35.78Z"/><path class="cls-2" d="M83.13,38.85l.05-.87c-.05,0-.14.17-.2-.07Z"/><polygon class="cls-2" points="83.2 39.28 83.13 38.85 83.12 39.17 83.2 39.28"/><path class="cls-2" d="M82.78,43.47a6.71,6.71,0,0,1,.12,1.25c0-.5.06-1,.06-1.51C82.89,43.15,82.77,42.93,82.78,43.47Z"/><path class="cls-2" d="M82.84,41.61v.08S82.88,41.6,82.84,41.61Z"/><polygon class="cls-2" points="82.89 49.31 82.94 49.24 82.9 49.22 82.89 49.31"/><path class="cls-2" d="M83,43.13a1.63,1.63,0,0,0-.08-.81,8.45,8.45,0,0,1,0,.89S83,43.25,83,43.13Z"/><path class="cls-2" d="M82.68,46.24c0-.19.08-.42.12-.65C82.73,45.78,82.62,46.17,82.68,46.24Z"/><path class="cls-2" d="M82.79,41.82v-.06C82.73,41.89,82.76,41.87,82.79,41.82Z"/><path class="cls-2" d="M82.79,41.82a5.16,5.16,0,0,0,.13.5,5.51,5.51,0,0,0-.07-.63A.39.39,0,0,1,82.79,41.82Z"/><path class="cls-2" d="M84.3,50.7c-.2-.07-.39-1.05-.17-1.91-.16-.83-.82-.29-1.2.45.09,0,.17,0,.29.89.12-.31.26-1.92.45-1.19a2.63,2.63,0,0,1-.18,1.49c.25-.47.37,1.46.74,1.21l-.13-1C84.15,50.62,84.25,51,84.3,50.7Z"/><path class="cls-2" d="M83,47.59l0-.35a6,6,0,0,1-.27,1.23c.09.59.17.71.24.75l0-1.75Z"/><path class="cls-2" d="M82.93,45.64c.22.28.31,1.13.55.61,0-1-.18-.73-.28-1.35.06,1.68-.12-.49-.25.73,0-.33,0-.63,0-.91,0,.3-.06.6-.1.87v0h0c0-.08,0-.1,0,0a.06.06,0,0,0,0,0s.05,0,.08.07c-.05.49-.06.08-.08-.07l0,0h0l.12,1.69C83,46.88,83,46.43,82.93,45.64Z"/><path class="cls-2" d="M84,37.19c0,.05,0,.05-.06.05S84,37.39,84,37.19Z"/><path class="cls-2" d="M83.9,37.88a1.2,1.2,0,0,1-.09-.62c.06-.35.1,0,.17,0,0-.24-.15-.84-.26-.08l0,.12a4.11,4.11,0,0,1-.38,1.43A2.23,2.23,0,0,0,83.9,37.88Z"/><path class="cls-2" d="M83.47,41.81l.11,1.4.19-.71-.11,0C83.7,41.74,83.56,41.91,83.47,41.81Z"/><polygon class="cls-2" points="82.79 49.47 82.55 49.28 82.88 50.09 82.79 49.47"/><polygon class="cls-2" points="82.81 51.29 82.61 51.23 82.73 51.71 82.81 51.29"/><path class="cls-2" d="M119.41,39.85l0-.42A2.51,2.51,0,0,0,119.41,39.85Z"/><path class="cls-2" d="M119.4,42.83l.1.07C119.44,42.77,119.4,42.71,119.4,42.83Z"/><path class="cls-2" d="M96.67,41.05c.26.8.42,1.64.32,1l-.12-.64C96.82,41.43,96.76,41.28,96.67,41.05Z"/><path class="cls-2" d="M113.36,60l-.17-.07-.41.21Z"/><path class="cls-2" d="M113.79,59.05l.79.14A5.07,5.07,0,0,0,113.79,59.05Z"/><path class="cls-2" d="M119.18,23.55l-.23-.48C119,23.82,119.07,23.49,119.18,23.55Z"/><path class="cls-2" d="M94.56,61.23c.77.08,1.44.12,2,.13v-.23l0,.21C95.46,61.21,94.74,61.06,94.56,61.23Z"/><path class="cls-2" d="M121.77,41c0-.25-.09-.36-.14-.35C121.67,40.93,121.71,41.08,121.77,41Z"/><path class="cls-2" d="M96.55,58.61l0,.44c0,.64.07,1.31,0,2.08A8.16,8.16,0,0,0,96.55,58.61Z"/><path class="cls-2" d="M99.79,26.76l-.05-.13S99.74,26.69,99.79,26.76Z"/><path class="cls-2" d="M89.12,15.52c.17,0,.44,0,.7,0A2.88,2.88,0,0,0,89.12,15.52Z"/><path class="cls-2" d="M82.72,59c0-.66,0-.1,0,0Z"/><path class="cls-2" d="M83.59,56.75c0,.08.06.14.11.15A.25.25,0,0,1,83.59,56.75Z"/><path class="cls-2" d="M95.17,54.53v0C95.13,54.61,95.14,54.59,95.17,54.53Z"/><path class="cls-2" d="M82.82,58.05c0,.24,0,.52-.07.83C82.77,58.74,82.79,58.48,82.82,58.05Z"/><path class="cls-2" d="M82.71,58.18l0-.39S82.67,57.72,82.71,58.18Z"/><path class="cls-2" d="M82.73,60c0-.37,0-.73,0-1.07,0,.13,0,.19,0,.16Z"/><path class="cls-2" d="M110.18,25.74l0,.08C110.25,26.21,110.23,26,110.18,25.74Z"/><path class="cls-2" d="M101.79,45.12l0,0,0,0Z"/><path class="cls-2" d="M102.65,46.23a2.09,2.09,0,0,1-.86-1.09l-.32.73Z"/><path class="cls-2" d="M119.35,32.7l-.2,1c-.33-1.18-.21-2-.49-1.12.69.14.07,3.79.76,3.93l-.15.64c0-.18,0-.21,0-.39-.34,1.25.5.93.4,2.54-.05.56-.15.95-.24.57l.18,1.25c0,.36-.14.27-.13-.09l.06,1.91,0,0a11.66,11.66,0,0,1,.35,1.19c-.1.49-.07-.24-.16-.11l.17,1.05c-.18.43-.36-.44-.33-1.17-.7,1,.17.87-.23,3l-.09-1c-.39.64-.25,1.42-.5,2.54.13-.26.62-2.25.79-1.11a3.52,3.52,0,0,0,.07,1.37c-.25,0-.19.61-.18,1.37l-.32-.06c.09.82.26.76.41,1.24,0,.91-.29,1.1-.5,1.31-.06,1.46.4-1,.46.72a13.62,13.62,0,0,0,.21,3.52c-.11.84-.2-.15-.29.15l.26.75c0,.19-.09.13-.13.1.05.33.13.3.21.33s.16.1.21.43c.17.15,0,.47-.07.7a6.41,6.41,0,0,0-.7-.15,1,1,0,0,0-.59.1c-.3-.1.15-.2,0-.33a19,19,0,0,0-2.84.56l-1.18-.22c.87.25-.24.54-1.22.78.31.12.58.22.75.27l-1.55.17c-.19,0,0-.16.22-.3l-.28.08c-.56-.12-.27-.31.13-.49l.56.2c.38-.2.74-.42.66-.61a2.26,2.26,0,0,1-.51.09c.1-.06.17-.1.12-.14s-.22,0-.47.12l-.35-.36-.09.14-2-.22c-.16.08-.36.18-.61.28a3.45,3.45,0,0,1-1.06-.87,14.72,14.72,0,0,1-1.43-1.78c.53.35.44-.12.73-.25a2.32,2.32,0,0,0,.6,1.13l.52.65.25.35.11.19.06.11c-.06-.13-.13-.34-.08-.36s.11,0,.17,0l-1.36-1.67c.25-.09-.06-.49-.26-1-.22.62-1.11-1.19-1.69-1.86.12-.13.38,0,.89.89-.27-1.2-1.29-1-1.6-2.14.14.22.19.35.31.39-.44-.44-1.09-1.77-.79-1.54l.14.22c-.83-1.51-2.68-4.49-3.19-4.49a2,2,0,0,1,.7,0l-2.83-1.88c.46,0,.69-1.3,1.6-.19a5.72,5.72,0,0,0-.92-1.52c.09.27-.11.88-.34.57a12.28,12.28,0,0,0-.53-2c.13.38-.58.35-1-.31.14.06.42-.44.65-.16a13.53,13.53,0,0,0-1.51-1.4c.31.3.29-.47,0-1.21.1.39-1.12-1.89-1.47-2.36l.54,1.16c-.7-1.26-1-1.39-1.21-1.31s-.31.32-.81-.55a9.54,9.54,0,0,0-1-3.13.77.77,0,0,0,0,.1c.15.84.5,2.74.85,4.38s.68,3,.79,3.72a.53.53,0,0,0-.17-.08c.07.4.13.77.2,1.09a13.88,13.88,0,0,1-.9-3c-.34-1.49-.66-3.53-.84-5-.14.65-.2-.3-.19,1.4-.15.23-.24-1.55-.25-2.12l-.1,4c.35.45.35,3.57.63,3.62L94,36.41a12.74,12.74,0,0,1,.61,2.53,17,17,0,0,1,.3,3.2c-.07.22-.22.08-.37-.18a6.06,6.06,0,0,0-.35-.62,10.07,10.07,0,0,1,.14,1.43l0,.71a1,1,0,0,1,0,.32l-.09-.37,0-.19L94.1,43v.45a1.66,1.66,0,0,0,0,.32c0,.21.08.41.12.62a2.63,2.63,0,0,1,0,1.42c0,.4-.44,1.19-.24,1.26.4-.65,1.61-.78,1.9-.35a20.78,20.78,0,0,1-.57,2.54c-.3.65-.73-1-1-.43.09,0,.21.39.24.54-.08.41-.29-.17-.24.73.34.15,0,1.84.29.43a15.33,15.33,0,0,1-.06,2c.23-.33.77.93.87,1.82-.09-.06-.2.14-.26.24,0,.91-.06,1.6-.1,2.28S95,58.18,95,58.9c-.08.12-.19.68-.34.28l.12.39a.91.91,0,0,1-.41.07c-.95-.3.82,0,0-.4.14.2-.64.27-1.39.4.25.29,1.43.09,1.88,0l0-.15a.84.84,0,0,1,.23.35c0,.18-.16.35-.67.5a6.6,6.6,0,0,1-1,.2c-.37.06-.68.12-1,.16-1.41.1-.61-.28-.85-.22-2.64-.08-2.25.75-4.44.44-.87-.27,0-.54-.23-.74a17.32,17.32,0,0,1,2.53.16l-1-.13a4.69,4.69,0,0,1,1.55-.08A12.09,12.09,0,0,0,87.55,60c-1.12,0-2.39,0-3.29-.08,0-.24,0-.47,0-.68s-.18-.86-.29-.53l0,.65c-.11.38-.18.12-.24-.17s-.11-.59-.17-.06a12.43,12.43,0,0,1-.27-3.25l.31-.23a2.1,2.1,0,0,0-.09,1.14c-.14-.51.43-1.87,0-2.42l-.22.85a10.89,10.89,0,0,1-.39-3c-.31.49,0,.25-.33,1,.45-.67,0,2.75.45,1.69-.42.78-.17,1.36-.53,2.39.1,0,.2-.37.14.54a1.23,1.23,0,0,1,.1.2v0s0,0,0,0a1.3,1.3,0,0,1,.16-.46,1.83,1.83,0,0,1,.14.49c0,.27.06.64.08,1,0,.68.07,1.35.13,1.63v.19c.14,0,0,.05-.08.08s-.08-.23-.13,0V61l1.11-.17c0,.11.45.21.72.29s.31.16-.79.23h1.91a7.24,7.24,0,0,0,2.16.08c.54.05,1.36-.26.89-.08l1.78-.14,0,.06c.68,0,1.37,0,2.08-.09l.73,0,.84,0c.57,0,1.14,0,1.75,0,0-.68.08-1.35.17-2.09a17.65,17.65,0,0,1-.06-2.59l.2-.2c-.07-.76.2-2.28,0-2.61.53-.82.12-3.7.21-5l-.26,0a27,27,0,0,0-.16-3l-.23.07a7,7,0,0,1,0-1.83l0-.54c0-.14,0-.19.05-.28a2.7,2.7,0,0,0,0-.49.3.3,0,0,1,0,.34c.26-.25.16-.49,0-1.12s-.24-1.5,0-1.27a1.61,1.61,0,0,1,0-.44,3,3,0,0,1,.14.33s0,0,0,0l0,.07.21.6c-.07-.23-.14-.44-.19-.57a.46.46,0,0,0,.23.21l.16.75s0,0,0,0c.11.36,0-.17-.1-.76a.17.17,0,0,0,.13-.07c.1.55.16.59.24.68s.2.22.21.65c.06-.11.22.09.42.29a3.31,3.31,0,0,0,.34.3c.1.06.3.23.41.22,0,0,0,.18-.12-.05a4.66,4.66,0,0,0,.82,1.33l-.15.36,1,.79c.21.71.26,1-.31.54,1.2,1.28.83,1.12,1.9,2.18l-.21,0c.27.44.93,1,.95,1.38.27,1.19,2.91,5,4.14,7.72.21-.81.48,1.33.94,1.19,0,.22.12.62-.24.27a8.52,8.52,0,0,1,.73,1.19c.31.55.58,1.06.87,1.51a6.61,6.61,0,0,0,1.45-.18c.27.14-.55.21-.32.29l.52-.06a.77.77,0,0,1,.4,0c.07.05,0,.08-.09.1a.77.77,0,0,1-.2,0l-.35,0h.69l.41-.06a1.68,1.68,0,0,0,.53-.2.92.92,0,0,0,.37-.58,2.29,2.29,0,0,0,1.75-.1c.28.13.74.27-.23.32.54,0,3.33.19,3.38-.13a2.32,2.32,0,0,0,.91,0l1.5,0c.45,0,.9,0,1.69,0l-.49-.05a.51.51,0,0,1,.33-.19c-.07-.53.09-1,.05-1.91l0,0c.07-.75.1-1,.11-1.24a2.54,2.54,0,0,0,0-.46,5.25,5.25,0,0,1,.11-1.56l-.24.11c-.53-.2.31-1.94.1-3.21l-.14.46c-.18-.69.72-1.94.79-2.63,0-.16.07.24.11.45.31-1.83-.33-.24-.4-1.6.17-.25.44.33.47-.59.14-.46-.56-2.65-.23-3.9-.13.27-.26.55-.36-.09,0-1,.5-2.61.08-3.49,0-.12.07-.17.1-.17a17.05,17.05,0,0,0-.41-2.85c.85-.69-.41-4.6.37-4.59l0-2.27.08.06a5.44,5.44,0,0,0-.32-2.48c0-.34.12-.09.17-.07a10.15,10.15,0,0,0-.27-4.11l.25-.19c-.14-.48.4-3.07.11-5.16,0,0,.07.07.11.23,0-.21,0-.43-.05-.66v-1c0-.7,0-1.44.08-2.21l-1.81-.1-.89,0h-.65a2,2,0,0,0-1.45.4l-1.55.22c2,.08-.3.4.52.56-.78,0-2-.28-1.06-.33l.15.05c.35-.48-2.49-.17-2.44-.5l-3.88,0-.06,3-.08,2.13c-.05,1.4-.09,2.79-.1,4.16l.38-.42,0,1.29c-.09.33-.3.45-.28-.47a2.32,2.32,0,0,0,.26,1.57c-.15,1.8-.44-.7-.45-.15l0,.75,0-.17a4.15,4.15,0,0,1,.29,1.76c-.07.7-.23.36-.24.64,0,0,0,.09,0,.42l0,1.62.3-.65c.15.72,0,1.53.32.78a4.47,4.47,0,0,0-.25,1.42c0,.46-.06.83-.06,1.27a9.28,9.28,0,0,1,0,1.78,10.55,10.55,0,0,1,.2,1.82c-.13-.21-.29-.48-.45-.77.14.35.49,1.58,0,.67a5.47,5.47,0,0,0-.53-1.8,4.45,4.45,0,0,1-.51-1.49c.14.88-.82-1.21-.78-.24-.28-.57.17-.22.08-.67-1.31-1.68-2.23-4.08-3.64-6.28-.1,0,0,.46-.4.05l-.32-1.41c-.3-.42-.69-.15-.9-1.11,0,.15,0,.38-.2.1a52.35,52.35,0,0,0-2.59-4.6l-1.41-2.27-.69-1.14-.92-1.54-1.71,0-1.25-.07c-.83-.06-1.67-.15-2.49-.28.7.17.23.19-.31.2.35,0,0,.22.06.34l-2.17-.34c-.39.34-2.33,0-2.55.35l.69-.06c-.92.38,1.28.85,1.14,1.34,1-.43,2.7.64,4.38,0,.37.1-.31.16-.12.27a3.46,3.46,0,0,1,1.9-.16l-.11.06H94.1l.55,0,.27.55.47.93,1.21,2.33.09-.32a4.72,4.72,0,0,1,.41,1c.7.45-.91-1.57-.22-1.2,0,1,2.33,3.92,2.15,4.7.51.86.09-.39.6.47v.3l.3.12c.31.57.31.95.21,1a4.2,4.2,0,0,0-.35-.51,19.18,19.18,0,0,0,1.37,2.3l-.41-.87c.76,1.13,1.52,2.43,2.29,3.71.38.64.77,1.27,1.17,1.88s.73,1.08,1.35,2l-.06-.34a14.39,14.39,0,0,1,1.32,2.17,24,24,0,0,0,1.43,2.5l-.06,0a7.06,7.06,0,0,1,1.1,1.53c-.15-.13.07.37.3.88s.46,1,.22.79c.35.48.56.76.69.92-.06-.81-.1-1.07-.16-1.49L110,40.52l.19.09a16.9,16.9,0,0,1-.31-2.78c.08.7.15.65.23.58s.17-.13.28.81a18.29,18.29,0,0,0,0-3.91,12,12,0,0,1-.06-1.4,2.37,2.37,0,0,1,.06-.57,1.67,1.67,0,0,1,.16-.4c-.26-.52-.33,0-.35.54,0,.76,0,1.6,0,1.18-.17.54-.39-1.33-.34-1.91,0-.74.67-1.26.66-3.11,0,.19,0,.2,0,.38.13-.69-.19-1.35,0-2.2-.32-.48,0-1.11-.38-1.24l.09,1.69a9.89,9.89,0,0,1-.35-3.45,4.31,4.31,0,0,1,.25.92c.12-.46-.08-.89,0-1.37.41.14.09,2.06.4,3.09.17-.49-.29-1.95.14-1.43-.55-.74.07-1.82-.35-3.08l.24.09a5,5,0,0,1-.15-1l.32.66c-.27-1,.23-1.95.09-2.93,0,2-.29.46-.47,1.32a3,3,0,0,1,.18-2c0-.1.09-.2.14-.32l.06-.19c0-.08,0-.15.06-.15A.46.46,0,0,0,111,18c0,.08-.15.35-.26.11s.09-.27.17-.3a1.24,1.24,0,0,1,.2.1c.22,0,.2-.09.09-.16s-.32-.16-.18-.24c.44.3.17-.12,1.14-.21v.24c2.12.16.56-.51,2.47-.32l-.8.34,1-.08-.2.28a7.15,7.15,0,0,1,2.48-.08c-.24-.17.14-.45,1.08-.46.32.08.23.14.23.17s0,0,.12,0h.39c-.1.08-.15.17-.26.21a1.17,1.17,0,0,1-.71-.09c-.06.09-.3.16-.36.24a4.6,4.6,0,0,0,.57.08h.55l.32,0a.3.3,0,0,1-.14-.06,5.07,5.07,0,0,1,.7-.24,1.45,1.45,0,0,1,.1.18c-.09.22-.17.13-.24.11s.14.17.16.45c-.2,0-.41,0-.5-.11a.83.83,0,0,1,.11.17l0,.07s0,0,0,.14l0,.46c-.08.12-.24.94-.31.7-.12,1,.39,2.51.23,3.86a1.46,1.46,0,0,1,.11.5,15.9,15.9,0,0,0,0,3.91l-.36.86c.08,1.18.45-1.16.59.81.12,1.39-.31.52-.41,1a6.4,6.4,0,0,1,.26,3.17A11.24,11.24,0,0,1,119.35,32.7Zm.16,14.58c-.05-.29-.21-.85-.07-1.06C119.73,46.55,119.59,46.79,119.51,47.28Zm-8.29,12.21a1.61,1.61,0,0,1,.9.06A3.17,3.17,0,0,1,111.22,59.49ZM87,61.21h0C87.62,61.3,87.39,61.26,87,61.21Zm-1.55-.11c-.21,0-.21.07-.13.11a1.76,1.76,0,0,1,.44-.06h.58a.43.43,0,0,0-.21-.07A4,4,0,0,0,85.41,61.1Zm23.11-31.23.06-.25C108.65,30.19,108.59,30,108.52,29.87Z"/><path class="cls-2" d="M113.73,59.16a.21.21,0,0,1,.12.13C114,59.25,114,59.2,113.73,59.16Z"/><path class="cls-2" d="M119.22,23.64v-.05l0,0Z"/><path class="cls-2" d="M94.2,49.31a1.79,1.79,0,0,1,.13-.52C94.27,48.78,94.22,48.9,94.2,49.31Z"/><path class="cls-2" d="M82.61,54.63l.06.83a2.59,2.59,0,0,1,.08-.75C82.69,54.73,82.61,54.89,82.61,54.63Z"/><path class="cls-2" d="M84.13,47.35c0-.12,0-.26,0-.38L84,47C84,47.53,84.08,47.89,84.13,47.35Z"/><path class="cls-2" d="M83.43,53.85c.2-.07.13-.59.09-1.18v.11C83.23,52.6,83.33,53.23,83.43,53.85Z"/><path class="cls-2" d="M83.52,52.54a5.09,5.09,0,0,1,0-.55C83.4,51.92,83.49,52.21,83.52,52.54Z"/><path class="cls-2" d="M82.89,61.05c0-.5-.27-.06-.18-.4-.11-.14-.08.36,0,.78.75-.1,1.42-.25.2-.2Z"/><polygon class="cls-2" points="84.11 53.38 83.85 53.59 84.06 53.91 84.11 53.38"/><path class="cls-2" d="M83.92,58l.07-.94s-.07-.1-.09-.25C83.9,57.4,83.84,58,83.92,58Z"/><path class="cls-2" d="M83.9,56.82a3.23,3.23,0,0,0,0-.75A7.27,7.27,0,0,0,83.9,56.82Z"/><polygon class="cls-2" points="84.19 54.66 84.13 54.94 84.11 55.6 84.19 54.66"/><path class="cls-2" d="M92.18,60.26l1-.08c.1-.08-.18-.14-.56-.1S92,60.17,92.18,60.26Z"/><path class="cls-2" d="M89.09,59.56a1.12,1.12,0,0,1,.45.19l0-.32Z"/><path class="cls-2" d="M92.07,59.48c.1-.09,1.49-.25.19-.23C92.16,59.34,91.13,59.41,92.07,59.48Z"/><polygon class="cls-2" points="95.07 47.73 95.08 47.99 95.6 47.95 95.07 47.73"/><path class="cls-2" d="M95.55,34c-1.14-2.14,0,.55-1.07-1.46-.12,0,.83,1.63.67,1.56C95.62,34.65,96,35.42,95.55,34Z"/><path class="cls-2" d="M95.15,34.1l-.23-.22C95.05,34,95.11,34.09,95.15,34.1Z"/><polygon class="cls-2" points="86.26 15.24 85.48 15.13 85.98 15.3 86.26 15.24"/><path class="cls-2" d="M84.76,15.62l-.18-.33-.47.3A1.73,1.73,0,0,1,84.76,15.62Z"/><path class="cls-2" d="M118.84,49.44l.08.06c.09-.12.09-.3.11-.67Z"/><polygon class="cls-2" points="119.09 38.86 119.08 39.05 119.38 38.71 119.09 38.86"/><path class="cls-2" d="M118.71,30c0,.36.05.79,0,1.15C118.69,30.35,119.08,29.89,118.71,30Z"/><path class="cls-2" d="M120.63,16.49h36.51V27.24H144.89V60h-12V27.24H120.63Z"/><path class="cls-3" d="M120.63,16.49h36.51V27.24H144.89V60h-12V27.24H120.63Z"/><path class="cls-2" d="M119.38,16.68c0-.24-.19-.16-.23-.19C119.2,16.88,119.44,16.67,119.38,16.68Z"/><polygon class="cls-2" points="119.87 20.58 119.78 20.51 120 21.08 119.87 20.58"/><path class="cls-2" d="M119.87,24.23c.36-.35-.06-1.33.07-2l.08-.1-.29-.3A15,15,0,0,1,119.87,24.23Z"/><path class="cls-2" d="M119.08,26.88c.14-.28.12.69,0-.82l0,.16Z"/><path class="cls-2" d="M119.08,26.22c0-.69-.11.48,0,0Z"/><path class="cls-2" d="M119.75,28.7l-.67.08,0-.26a1.49,1.49,0,0,0-.06.37c.25,0,.56.06.31.1C120.33,28.92,120.15,28.84,119.75,28.7Z"/><path class="cls-2" d="M120.74,28.43l-.46.06S120.44,28.53,120.74,28.43Z"/><path class="cls-2" d="M119.27,28.6l1-.11c-.08-.06,0-.18-.45,0C120,28.42,119.73,28.53,119.27,28.6Z"/><path class="cls-2" d="M119.32,28c.08-.55.13-1.13.26-.44C119.53,26.14,119.27,26.41,119.32,28Z"/><path class="cls-2" d="M120.24,24.41l.11-.38-.12-.33C120.29,23.87,120.13,24.43,120.24,24.41Z"/><path class="cls-2" d="M124.12,28.89c0-.08-.17-.21-.21-.31l-.37.09C123.73,28.72,124.09,28.77,124.12,28.89Z"/><path class="cls-2" d="M123.91,28.58l.56-.13C124,28.43,123.88,28.5,123.91,28.58Z"/><polygon class="cls-2" points="121.11 28.03 119.56 28.3 119.56 28.29 119.56 28.3 121.36 28.02 121.11 28.03"/><polygon class="cls-2" points="126.25 28.9 125.94 29.08 126.5 28.81 126.25 28.9"/><path class="cls-2" d="M127.67,28.87c-.23.15.32.25.07.34a3.24,3.24,0,0,0,1-.27A2.16,2.16,0,0,1,127.67,28.87Z"/><path class="cls-2" d="M129.25,28.77a4.23,4.23,0,0,0-.5.17A1.65,1.65,0,0,0,129.25,28.77Z"/><path class="cls-2" d="M125.42,28.49a.65.65,0,0,0,.44.22l-.22-.22Z"/><path class="cls-2" d="M125.63,28.48h.49Z"/><path class="cls-2" d="M125.37,28.49h0S125.39,28.46,125.37,28.49Z"/><path class="cls-2" d="M123,28.23c.33-.13,1-.26.35-.44C123.12,27.94,123.5,28,123,28.23Z"/><path class="cls-2" d="M125.09,28.21l-.59-.05c0,.06.12.14,0,.21Z"/><polygon class="cls-2" points="125.38 28.14 125.09 28.21 125.31 28.23 125.38 28.14"/><path class="cls-2" d="M128.23,28.57a2.88,2.88,0,0,1,.86-.12,8.91,8.91,0,0,0-1-.07C128,28.45,127.87,28.58,128.23,28.57Z"/><path class="cls-2" d="M127,28.51H127S127,28.47,127,28.51Z"/><polygon class="cls-2" points="131.41 28.45 131.41 28.41 131.38 28.45 131.41 28.45"/><path class="cls-2" d="M128,28.34a.92.92,0,0,0-.55.08l.61,0S128.09,28.33,128,28.34Z"/><path class="cls-2" d="M130.12,28.67l-.44-.12C129.81,28.62,130.07,28.73,130.12,28.67Z"/><path class="cls-2" d="M127.11,28.56h0C127.16,28.61,127.15,28.59,127.11,28.56Z"/><path class="cls-2" d="M127.11,28.56a2.18,2.18,0,0,0,.34-.14,2.41,2.41,0,0,0-.42.08A.16.16,0,0,1,127.11,28.56Z"/><path class="cls-2" d="M133.07,27.35c-.08,0-.15,0-.2-.1a1.48,1.48,0,0,1-1,0c-.65.15-.37.82-.46,1.19.07-.09.09-.17.52-.29,0-.11-.64-.26-.21-.44.61-.09.49,0,.57.15l0,.09c.12-.23.21-.15.32,0s.23.36.41.18l-.13-.61C132.92,27.41,133,27.6,133.07,27.35Z"/><path class="cls-2" d="M131,28.39l-.16,0c.17,0,.14,0,.2.09a.39.39,0,0,1,.1.18,1.23,1.23,0,0,0,.28-.24l-.45,0Z"/><path class="cls-2" d="M129.71,28.42c.19-.22.77-.32.42-.56-.71,0-.5.19-.92.28,1.14-.05-.33.13.49.25a4.65,4.65,0,0,1-.61.06l.59.1h0c-.05,0-.07,0,0,0h0a.22.22,0,0,1,.05-.08c.33,0,.06.06-.05.08s0,0,0,0h0l1.15-.12A6.33,6.33,0,0,0,129.71,28.42Z"/><path class="cls-2" d="M124,27.31s0,0,0,.05S124.1,27.32,124,27.31Z"/><path class="cls-2" d="M124.43,27.45a.65.65,0,0,1-.42.09c-.23-.06,0-.1,0-.18s-.57.16-.06.27l.08,0c.46.07,1.06.35,1,.38A1.52,1.52,0,0,0,124.43,27.45Z"/><path class="cls-2" d="M127.11,27.88l1-.11-.48-.19,0,.11C127.06,27.65,127.17,27.79,127.11,27.88Z"/><path class="cls-2" d="M131.37,28.56l-.19.23a2.55,2.55,0,0,1,.42-.32Z"/><path class="cls-2" d="M131.58,28.77l-.2.12h.12Z"/><path class="cls-2" d="M143.67,34.15l0-.28A1.18,1.18,0,0,0,143.67,34.15Z"/><path class="cls-2" d="M143.66,36.18l.1,0C143.7,36.13,143.66,36.1,143.66,36.18Z"/><path class="cls-2" d="M131.6,58.59c-.18.68-.48,1.71-.25,1.49l.22-.34A5.23,5.23,0,0,1,131.6,58.59Z"/><path class="cls-2" d="M144.84,52.81l-.07.12.21.28Z"/><path class="cls-2" d="M143.92,52.53l.14-.54A2.39,2.39,0,0,0,143.92,52.53Z"/><path class="cls-2" d="M149.06,25.79l.33-.23C148.88,25.56,149.11,25.68,149.06,25.79Z"/><path class="cls-2" d="M131.66,40.62a4.8,4.8,0,0,0-.13.88C131.66,41.07,131.85,40.73,131.66,40.62Z"/><path class="cls-2" d="M146,35c0-.17-.09-.25-.14-.24C145.93,34.88,146,35,146,35Z"/><path class="cls-2" d="M131.53,42.52l.05-.19a4.36,4.36,0,0,1-.05-.83A1.43,1.43,0,0,0,131.53,42.52Z"/><path class="cls-2" d="M135.75,17.75l-.09,0S135.69,17.76,135.75,17.75Z"/><path class="cls-2" d="M124,15.52a3.55,3.55,0,0,1,.49,0A1.42,1.42,0,0,0,124,15.52Z"/><path class="cls-2" d="M131.48,32.91c0-.27,0,0,0,0Z"/><path class="cls-2" d="M132.36,31.63c0,.05.06.1.11.1A.22.22,0,0,1,132.36,31.63Z"/><path class="cls-2" d="M132.91,45.14v0C133,45.08,133,45.09,132.91,45.14Z"/><path class="cls-2" d="M131.59,32.51a2.53,2.53,0,0,0-.07.34A2.61,2.61,0,0,0,131.59,32.51Z"/><path class="cls-2" d="M131.48,32.56l0-.23S131.44,32.33,131.48,32.56Z"/><path class="cls-2" d="M131.5,33.27a1.91,1.91,0,0,1,0-.42s0,.07,0,.06Z"/><path class="cls-2" d="M156.47,17.26l0-.05,0,0c-.08,0-.08,0,0,0Z"/><path class="cls-2" d="M138.08,59h0Z"/><path class="cls-2" d="M139,58.82a1,1,0,0,1-.93.19l.31.64Z"/><path class="cls-2" d="M143.61,29.29l-.2.66a4.85,4.85,0,0,1-.18-.54l0-.23,0-.29c-.05-.32-.09-.33-.23.29.69.12.07,2.58.76,2.68l-.15.44c0-.12,0-.14,0-.27-.34.85.5.63.4,1.73,0,.38-.15.65-.24.39l.18.85c0,.25-.14.19-.13-.06l.06,1.3h0a5.35,5.35,0,0,1,.35.81c-.1.33-.07-.17-.16-.08l.17.72c-.18.29-.36-.31-.33-.8-.7.67.17.59-.23,2l-.09-.68c-.39.44-.25,1-.5,1.74.13-.19.62-1.54.79-.76a1.65,1.65,0,0,0,.07.93c-.25,0-.19.42-.18.93l-.32,0c.09.56.26.52.41.84a1,1,0,0,1-.5.9c-.05,1,.4-.69.46.49a6.35,6.35,0,0,0,.21,2.39c-.11.58-.2-.1-.29.1l.26.52c0,.12-.09.08-.13.06.1.43.33,0,.42.71.36.19-.53,1.4-.12,2.24-.09.2-.2-.1-.33,0a9.27,9.27,0,0,0,.56,1.93l-.22.81c.25-.59.54.16.78.82a5.5,5.5,0,0,0,.27-.51l.18,1.06c-.06.13-.17,0-.31-.15l.08.19c-.12.38-.31.18-.49-.09l.2-.38c-.2-.26-.42-.5-.61-.45a1.09,1.09,0,0,1,.09.35c-.06-.07-.1-.11-.14-.08s0,.14.12.32l-.36.24.15.06-.23,1.38a11.45,11.45,0,0,1,1.05,3.42c-.26-.39-.43-.08-.75-.11.34-.42-.14-1.22-.07-2,0,.43-.19.34-.24.23l.3,1.45c-.26-.07-.19.41-.3.49.5-.09.35.67.49,1.2h0a.68.68,0,0,1-.14-.18.85.85,0,0,1-.13-.54c-.16.07-.08.2,0,.45s0,.43-.46.24c.12,0,.2,0,.19-.07-.19.15-.94,0-.77-.12h.11l-.94,0c-.39,0-.8,0-1.19,0-.76.06-1.4.18-1.49.4a2.33,2.33,0,0,1,.23-.61l-2.09,1.46c.19-.37-.52-1.26.45-1.47a2.58,2.58,0,0,0-1.21,0c.19,0,.47.54.21.57a6.07,6.07,0,0,0-1.37-.58c.29.08,0,.67-.48.65.07-.09,0-.58.13-.64-.17.1-.4.19-.53.29a3.94,3.94,0,0,1-.45.29c.25-.11.14-.49.12-.65,0,.1-.36,0-.55,0,0,0,0,0,0,0l0,.1.09.1a.61.61,0,0,0-.19,0c-.08-.39-.8-.12-.78-1.27.12.15.73.37.81-.26a5.48,5.48,0,0,1-1.65-2.41l.17-.21-.19-.85A17.84,17.84,0,0,1,133.87,57c.13-.47.2-.13.18-.84.16-.25.24.39.25.59l.1-1.64c-.34.07-.34-1.26-.63-1.2l.36,1.79c-.35.07-1-1-.92-2.2.14-.3.61.22.73.19a2.46,2.46,0,0,1-.14-1.21l.18.49c.13-.65-.46-1.06-.13-1.84,0-.27.44-.8.24-.85a1.82,1.82,0,0,1-1.9.23,13.1,13.1,0,0,1,.57-1.72c.31-.44.73.67,1,.29-.1,0-.21-.26-.25-.37.08-.28.29.12.25-.49-.35-.11,0-1.26-.3-.29-.1-.61.08-.64.06-1.35-.23.22-.77-.64-.87-1.24.09,0,.21-.1.26-.16,0-1.24.19-1.9.19-3,.09-.11.19-.66.34-.42a1.64,1.64,0,0,1-.19-.68c.3-.68.05.79.41.27-.2,0-.28-.92-.41-1.42-.31.15-.06,1.17.07,1.67-.43,0-.88-.88-1.08-2.08-.11-1,.28-.41.22-.58.07-1.79-.76-1.53-.45-3,.28-.59.55,0,.75-.16a9.71,9.71,0,0,1-.16,1.73l.13-.65a2.16,2.16,0,0,1,.08,1c.24-.5,0-3,.27-4.42-.09-.25-.19-.67-.3-.47l0,.44c-.22.4-.3-.83-.41-.27a4.79,4.79,0,0,1-.27-2.08l.31-.15c-.09,0-.19.54-.09.77-.14-.34.42-1.27,0-1.65l-.21.58a6.15,6.15,0,0,1-.4-1.65c-.31.21,0,.1-.32.31.45-.48,0,1.86.45,1.13-.42.54-.18.93-.53,1.63.1,0,.19-.25.14.36a.67.67,0,0,1,.09.14v0s0,0,0,0a.8.8,0,0,1,.16-.31c.24.31.23,1.29.35,1.62-.05.36-.12-.16-.23,0l.19.5c-.23,0-.38,1-.52.11v.77a3.24,3.24,0,0,0-.08,1.47c-.05.37.25.92.07.61l.14,1.21h0c0,1.2.38,2.47,0,3.84a5.57,5.57,0,0,1,.07,1.5l-.2.13c.07.51-.2,1.55,0,1.77-.54.56-.12,2.52-.22,3.43l.26,0a12.66,12.66,0,0,0,.17,2l.23-.05a19.77,19.77,0,0,1-.14,2.79c-.09-.07-.07-.34,0-.53-.51,1.27.38,2.67,0,3.82a1.11,1.11,0,0,1,0,.7.15.15,0,0,0,0-.07V58a6.14,6.14,0,0,0-.13.61,4.21,4.21,0,0,0,.13-.55,12.17,12.17,0,0,0,.09,1.36l-.25.34v.12c-.09.6.12.34.3,0a2.15,2.15,0,0,0,.15.53,1.28,1.28,0,0,0-.16.66c.45,0,1-.14,1.23.14a8,8,0,0,1,1.49-.21,2.7,2.7,0,0,0,.65-.14c.16-.06.29-.13.33-.24,0,0,.11.08-.07.08a2.23,2.23,0,0,0,1.06,0l.16.31.8-.42c.48.19.68.3.2.55,1.17-.38.95-.14,1.94-.51l0,.2c.35,0,.92-.28,1.13-.11a5.07,5.07,0,0,0,1.64.2l3.38,0c0-.89.07-1.77.17-2.59-.15.13-.21.1-.22,0a1.42,1.42,0,0,1,.07-.43c.09-.29.19-.65,0-.69.14-.12.22-.4.34-.07-.14-1,.22-1.56-.17-2.28.14-.11.21.23.29.12s-.12-.33,0-.44.12.15.18.32c0-1.06-.45-1.17-.86-1.25a1.12,1.12,0,0,0-.1-1.19c.13-.19.27-.5.32.16,0-.37.19-2.26-.13-2.3a1.09,1.09,0,0,0,0-.62c0-.83,0-.9,0-1.72l0,.23c-.4-.32-.09-.68-.14-1.34l0,0c.29-1.51-.13-.65.19-2.14l-.24.08c-.53-.14.31-1.32.1-2.18l-.14.31c-.18-.47.72-1.32.79-1.8,0-.1.07.17.11.31.31-1.24-.33-.16-.4-1.08.17-.18.44.22.47-.41.14-.31-.56-1.8-.23-2.65-.13.18-.26.37-.36-.06-.05-.66.5-1.78.08-2.37,0-.09.07-.12.1-.12a8.14,8.14,0,0,0-.41-1.94c.85-.47-.41-3.13.37-3.12l0-.61,0-.42.08.07a1.26,1.26,0,0,0,0-.48c.12-.06.15-.18.22-.29.18,0,.11.12.13.16a3.62,3.62,0,0,0,2.31-.26l.12.25c.33-.14,2.09.4,3.51.11a.24.24,0,0,1-.15.11,9.39,9.39,0,0,1,2.58.12l.59.06c.31,0,.59,0,.84,0,.5,0,.85-.15.91-.38l.89-.16-.07-.48a2.76,2.76,0,0,1,0,.38c-.68-.06-.38-.2-.33-.33s-.13-.27-.18-.18h0a1.62,1.62,0,0,1,.14-.72c.08-.15.17-.16.19.24l0,.09c.48.69.17-2.15.5-1.89,0-1.34,0-2.67.11-4s.14-2.27.15-4.54l-.37.64,0-1.22a1.55,1.55,0,0,1,.07-.23s0-.11.15-.15a1.63,1.63,0,0,1,.05.6,1.53,1.53,0,0,0,0-.7,4,4,0,0,0-1.18.3c-.8-.07-.62-.18-.22-.27s1-.17.69-.17l-.83,0,.16,0c-.37.07-.57.15-.81.21l-.42.07a5.56,5.56,0,0,1-.58,0c-.47-.07-.24-.23-.43-.24,0,0-.06,0-.28,0l-1.11,0,.44.29c-.48.15-1,0-.52.32-.75-.51-4.12-.18-4.58-.34a6.47,6.47,0,0,1-2.2.18c.21.06.33.39-.39.35.27-.68-1.32-.29-1.91-.79.53.33-2.05.08-1.23.55-.6-.06,0-.26-.49-.42-1.44.27-3.17-.17-4.94-.08,0,.09.27.23-.11.36l-.94-.45c-.35,0-.32.52-1,.21.09.07.22.19,0,.22-3.47-.44-7.1.35-10.63-.47.48.17.16.19-.2.2.23,0,0,.22,0,.34l-1.48-.34c-.27.34-1.58,0-1.74.35l.47-.06c-.62.38.87.85.78,1.34.7-.43,1.84.64,3,0,.25.1-.22.16-.08.27a1.66,1.66,0,0,1,1.29-.16l-.08.06a38.9,38.9,0,0,1,4.65.29l-.15-.24a2.29,2.29,0,0,1,.74.17c.5-.37-1.24,0-.78-.43.59.49,3.1,0,3.5.57.67,0-.2-.28.48-.28l.18.15.17-.19c.44,0,.66.22.68.35a2,2,0,0,0-.42,0,9,9,0,0,0,1.82,0l-.65-.09c1.84-.14,4.1.06,5.88-.25l-.13-.12c1.36-.21,1.09.13,2.58,0l-.05,0a2.92,2.92,0,0,1,1.11-.16c-.38.13.71.26.21.41,1.48-.23.73-.18,1.71-.61l.22.19a1.9,1.9,0,0,1,1.11-.31c-.61.17.48.29-.21.51,1.57.41,2.33-.42,3.05.19.72-.53-1.36-.3-1-.41-.33-.17.6-.39,1.09-.34s.85.67,2.11.66c-.12,0-.13,0-.26,0a1.55,1.55,0,0,0,.71,0c.19,0,.29-.05.41.05.3-.31.33,0,.69-.38l-.78.09a5.8,5.8,0,0,1,1.36-.4,1.86,1.86,0,0,1-.06.67c-.08,0-.18-.18-.24-.27-.12.3.07.35-.05.64-.24.07-.22-.19-.24-.46a1.23,1.23,0,0,0-.6.16c0,.13.45-.1.48,0s-.05.07-.12.13l-.07.06,0,0c.24-.14.22.07.18.24a.6.6,0,0,0,.14.59l-.25-.05a2,2,0,0,1,.15.66l-.32-.45c.27.69-.23,1.33-.08,2,0-1.38.29-.31.47-.9.32,1.72-.64,1-.52,2.9,0-.26.14-1,.26-.56a3.7,3.7,0,0,1-.28,1.07c.06,1.26.25-.2.4.34-.29.43.12.62.22,1.18H156c0,.36,0,.6,0,.61a.35.35,0,0,0,.17.12c.12.06.24.15.14.51a2.31,2.31,0,0,0-.34-.44l.09.35-.28-.22a1.16,1.16,0,0,1,.15.43,1.8,1.8,0,0,1-.39-.07c.17.17.23.44-.19.45-.14-.07-.11-.13-.11-.17s0,0,0,0h-.35a2.58,2.58,0,0,1,.3-.2c.05,0,.1,0,.22.08a.89.89,0,0,0,0-.23.31.31,0,0,0-.27-.09l-.7.05a1.16,1.16,0,0,1,.35.06l-1.31.34c-.21-.09-.05-.17.12-.24a7.28,7.28,0,0,1-.85.16c.1-.2.08-.41.64-.5l-1.26.22c-.08-.09-.64-.24-.48-.31-.69-.12-1.7.39-2.63.23a.67.67,0,0,1-.34.11c-.43,0-.84-.1-1.26-.13l-.33,0h-.41a9.91,9.91,0,0,0-1.21.12c-.37-.12-.78-.24-1.22-.36-.72,0-.24.15.06.27s.47.25-.5.32h0c.11,1.53-.31.29-.41.77.09.48.23,1.09.31,1.7a3,3,0,0,1,0,1.45A5.23,5.23,0,0,1,143.61,29.29Zm.16,9.91c-.05-.19-.21-.57-.07-.71C144,38.71,143.85,38.87,143.77,39.2Zm.59,15.07a.76.76,0,0,1,.06-.61A1.47,1.47,0,0,1,144.36,54.27ZM131.69,35.79v0C131.6,36.24,131.64,36.09,131.69,35.79Zm.1-.89c0-.09-.07-.08-.1,0a.83.83,0,0,1,.05.49C131.8,35.28,131.85,35.17,131.79,34.9Zm22.69-19.4.18.06C154.27,15.64,154.38,15.57,154.48,15.5Z"/><path class="cls-2" d="M144,52.56a.2.2,0,0,1,.13-.08C144.12,52.41,144.07,52.4,144,52.56Z"/><path class="cls-2" d="M149,25.83h0a.05.05,0,0,0,0,0Z"/><path class="cls-2" d="M133.88,48.68a1,1,0,0,1-.12.36C133.82,49.05,133.87,49,133.88,48.68Z"/><path class="cls-2" d="M131.37,30.18l.07.57a1.25,1.25,0,0,1,.08-.51C131.46,30.25,131.38,30.36,131.37,30.18Z"/><path class="cls-2" d="M130.88,27.22c-.09,0-.18,0-.26,0l0,.11C131,27.36,131.24,27.26,130.88,27.22Z"/><path class="cls-2" d="M132.19,29.66c.21,0,.14-.47.1-.7V29C132,29,132.1,29.16,132.19,29.66Z"/><path class="cls-2" d="M132.28,28.9a1.13,1.13,0,0,1,0-.26C132.16,28.66,132.26,28.75,132.28,28.9Z"/><path class="cls-2" d="M131.65,33.77c.06-.19-.26-.12-.18-.22C131.21,33.33,131.79,34.81,131.65,33.77Z"/><polygon class="cls-2" points="132.88 29.33 132.62 29.48 132.83 29.7 132.88 29.33"/><path class="cls-2" d="M132.69,32.49l.07-.64s-.07-.07-.09-.17C132.66,32.07,132.61,32.5,132.69,32.49Z"/><path class="cls-2" d="M132.67,31.68a1.58,1.58,0,0,0,0-.52A3.56,3.56,0,0,0,132.67,31.68Z"/><polygon class="cls-2" points="132.95 30.21 132.9 30.39 132.88 30.84 132.95 30.21"/><path class="cls-2" d="M132.64,39.34l.07.7c.09.07.14-.12.11-.38S132.72,39.24,132.64,39.34Z"/><path class="cls-2" d="M133.34,37.24c-.05.19-.11.2-.19.31l.31,0Z"/><path class="cls-2" d="M133.41,39.27c.09.07.26,1,.24.13C133.56,39.33,133.49,38.63,133.41,39.27Z"/><polygon class="cls-2" points="133.01 49.76 133.01 49.58 132.49 49.61 133.01 49.76"/><path class="cls-2" d="M134.26,58.33c.12-.28-.32,0-.17-.28-.12-.08-.12.27-.23.21C134,58.48,133.92,58.59,134.26,58.33Z"/><path class="cls-2" d="M133.86,58.26l-.08-.12C133.81,58.22,133.84,58.25,133.86,58.26Z"/><polygon class="cls-2" points="122.09 15.24 121.56 15.13 121.9 15.3 122.09 15.24"/><path class="cls-2" d="M121.07,15.62l-.12-.33-.32.3C120.75,15.58,121,15.55,121.07,15.62Z"/><path class="cls-2" d="M143.1,40.68l.08,0c.09-.09.09-.21.11-.46Z"/><polygon class="cls-2" points="143.35 33.48 143.34 33.6 143.64 33.37 143.35 33.48"/><path class="cls-2" d="M143,25.72c0,.48.05,1.09,0,1.56C143,26.17,143.34,25.92,143,25.72Z"/><path class="cls-4" d="M68.88,82.78v-8.9H67.19v-.45h1.69V68.2a5.71,5.71,0,0,1,.72-3.35,2.5,2.5,0,0,1,2.14-.94,3.05,3.05,0,0,1,.52.05,5.08,5.08,0,0,1,.52.15l-.23.35a1.27,1.27,0,0,0-.33-.12,1.55,1.55,0,0,0-.45,0,2,2,0,0,0-1.8.83,5.61,5.61,0,0,0-.57,3v5.33h3.38v.45H69.4v8.9Z"/><path class="cls-4" d="M79.26,82.93a5.09,5.09,0,0,1-2.55-.65,5,5,0,0,1-1.83-1.74,4.55,4.55,0,0,1-.69-2.47,4.83,4.83,0,0,1,.7-2.67,4.61,4.61,0,0,1,1.86-1.67,5.76,5.76,0,0,1,2.59-.57,5,5,0,0,1,2.79.83A4.92,4.92,0,0,1,84,76.15l0,.32.13-3.11h.39v9.42h-.5V79.56l.08.35a4.24,4.24,0,0,1-.73,1.2,4.79,4.79,0,0,1-1.09,1,5,5,0,0,1-1.37.63A5.37,5.37,0,0,1,79.26,82.93Zm0-.42A5,5,0,0,0,81.63,82a4.47,4.47,0,0,0,1.66-1.51,4.07,4.07,0,0,0,.65-2.18v-1a4.32,4.32,0,0,0-.87-1.85,4.93,4.93,0,0,0-1.64-1.32,4.63,4.63,0,0,0-2.12-.5,5.06,5.06,0,0,0-2.33.55,4.22,4.22,0,0,0-1.66,1.56A4.43,4.43,0,0,0,74.71,78a4.18,4.18,0,0,0,.62,2.26A4.69,4.69,0,0,0,77,81.91,4.52,4.52,0,0,0,79.31,82.51Z"/><path class="cls-4" d="M91.2,83a5.72,5.72,0,0,1-1.6-.26,3,3,0,0,1-1.44-.94l.31-.3a2.73,2.73,0,0,0,1.12.78,4.16,4.16,0,0,0,1.61.3,3.79,3.79,0,0,0,1.21-.2,2.17,2.17,0,0,0,1-.69,2,2,0,0,0,.39-1.31,1.62,1.62,0,0,0-.41-1.18,2.68,2.68,0,0,0-1.06-.67c-.42-.16-.87-.32-1.33-.47a6.71,6.71,0,0,1-1.7-.82,1.79,1.79,0,0,1-.72-1.59,2.17,2.17,0,0,1,.37-1.32,2.39,2.39,0,0,1,1-.8,3.28,3.28,0,0,1,1.31-.28,4.63,4.63,0,0,1,1.35.25,3.23,3.23,0,0,1,1.32.85l-.28.32a2.52,2.52,0,0,0-1.15-.74,4,4,0,0,0-1.22-.23,2.65,2.65,0,0,0-1,.19,2.12,2.12,0,0,0-.88.61,1.64,1.64,0,0,0-.36,1.1,1.49,1.49,0,0,0,.31,1,2.15,2.15,0,0,0,.82.62,10.58,10.58,0,0,0,1.08.44l1.41.52a3.25,3.25,0,0,1,1.15.76,1.86,1.86,0,0,1,.46,1.34,2.86,2.86,0,0,1-.35,1.43,2.46,2.46,0,0,1-1,1A3.68,3.68,0,0,1,91.2,83Z"/><path class="cls-4" d="M98,82.78V64h.5V76l0-.32a4.1,4.1,0,0,1,1.63-1.77,4.81,4.81,0,0,1,2.64-.73A3.07,3.07,0,0,1,105,74a2.73,2.73,0,0,1,.84,2v6.8h-.52V76a2.37,2.37,0,0,0-.69-1.69,2.67,2.67,0,0,0-1.88-.73,4.44,4.44,0,0,0-2,.48,4.09,4.09,0,0,0-1.54,1.34,3.23,3.23,0,0,0-.58,1.89v5.46Z"/><path class="cls-4" d="M110.24,70.39a.5.5,0,0,1,.17-.38.6.6,0,0,1,.43-.17.54.54,0,0,1,.4.17.47.47,0,0,1,.17.38.5.5,0,0,1-.17.39.54.54,0,0,1-.4.16.59.59,0,0,1-.43-.16A.54.54,0,0,1,110.24,70.39Zm.31,3h.52v9.42h-.52Z"/><path class="cls-4" d="M114.79,78a4.59,4.59,0,0,1,.69-2.46,5.11,5.11,0,0,1,4.44-2.45,5.21,5.21,0,0,1,2.6.66,5.07,5.07,0,0,1,1.86,1.79,4.77,4.77,0,0,1,0,4.94,5,5,0,0,1-1.86,1.76,5.31,5.31,0,0,1-2.6.65,5.21,5.21,0,0,1-2.59-.64,5,5,0,0,1-1.85-1.73A4.63,4.63,0,0,1,114.79,78Zm.52,0a4.26,4.26,0,0,0,.62,2.26,4.5,4.5,0,0,0,1.66,1.61,4.62,4.62,0,0,0,2.33.6,4.52,4.52,0,0,0,2.31-.6,4.69,4.69,0,0,0,1.67-1.61,4.37,4.37,0,0,0,0-4.49,4.8,4.8,0,0,0-1.67-1.62,4.53,4.53,0,0,0-2.31-.61,4.39,4.39,0,0,0-2.37.65,4.85,4.85,0,0,0-1.64,1.67A4.18,4.18,0,0,0,115.31,78Z"/><path class="cls-4" d="M129.18,73.36l.1,3-.07-.35a3.71,3.71,0,0,1,1.62-2.11,5,5,0,0,1,2.69-.76,3.05,3.05,0,0,1,2.2.79,2.74,2.74,0,0,1,.85,2v6.8h-.52V76a2.46,2.46,0,0,0-.69-1.69,2.67,2.67,0,0,0-1.89-.73,4.55,4.55,0,0,0-2,.46,4,4,0,0,0-1.54,1.29,3.33,3.33,0,0,0-.58,2v5.46h-.52V73.36Z"/></g></g></svg>