<svg xmlns="http://www.w3.org/2000/svg" viewBox="0 0 130.97 130.97"><defs><style>.cls-1{fill:#fff;}.cls-2{fill:#432918;}.cls-3{fill:none;}</style></defs><g id="Layer_2" data-name="Layer 2"><g id="Layer_1-2" data-name="Layer 1"><circle class="cls-1" cx="65.48" cy="65.48" r="65.48"/><path class="cls-2" d="M10.18,48.09h11l6.46,14,6.46-14H45L32.57,72.28V89.71H22.65V72.28Z"/><path class="cls-3" d="M10.18,48.09h11l6.46,14,6.46-14H45L32.57,72.28V89.71H22.65V72.28Z"/><path class="cls-2" d="M9,48.88c-.08-.2-.26,0-.31,0C8.94,49.16,9.08,48.85,9,48.88Z"/><polygon class="cls-2" points="11.21 51.93 11.09 51.92 11.56 52.29 11.21 51.93"/><path class="cls-2" d="M12.79,55c.22-.48-.63-1.08-.78-1.7l0-.13-.42-.1A11.16,11.16,0,0,1,12.79,55Z"/><path class="cls-2" d="M12.86,57.06c.09-.18.3.29-.15-.41v.09C12.74,56.8,12.79,56.9,12.86,57.06Z"/><path class="cls-2" d="M12.71,56.74c-.18-.32,0,.27,0,0Z"/><path class="cls-2" d="M13.56,58.19l-.35-.36c0,.13.14.52,0,.41C13.51,58.65,13.55,58.51,13.56,58.19Z"/><path class="cls-2" d="M14,58.46l-.17-.19C13.85,58.33,13.87,58.39,14,58.46Z"/><path class="cls-2" d="M13.51,57.86l.35.41c0-.09.14-.16-.15-.2C13.84,58.06,13.69,58,13.51,57.86Z"/><path class="cls-2" d="M13.43,57.56c0-.28-.16-.61.19-.25C13.15,56.52,13,56.77,13.43,57.56Z"/><path class="cls-2" d="M13.25,55l-.06-.38-.26-.21C13.06,54.49,13.15,55.05,13.25,55Z"/><path class="cls-2" d="M14.74,61c.09,0,.13-.25.22-.33l-.25-.27C14.74,60.54,14.85,60.87,14.74,61Z"/><path class="cls-2" d="M15,60.62l.37.4C15.13,60.59,15,60.55,15,60.62Z"/><polygon class="cls-2" points="14.47 58.33 13.79 57.7 14.55 58.48 14.47 58.33"/><polygon class="cls-2" points="15.66 62.76 15.35 62.58 15.86 62.92 15.66 62.76"/><path class="cls-2" d="M16.31,63.94c-.25-.12-.11.4-.31.24a3,3,0,0,0,.71.71A1.81,1.81,0,0,1,16.31,63.94Z"/><path class="cls-2" d="M17.09,65.23a3.25,3.25,0,0,0-.38-.34A1.78,1.78,0,0,0,17.09,65.23Z"/><path class="cls-2" d="M15.71,61.85a.58.58,0,0,0,0,.48L15.8,62Z"/><path class="cls-2" d="M15.8,62h0l.2.4Z"/><path class="cls-2" d="M15.69,61.8l0,.05S15.72,61.8,15.69,61.8Z"/><path class="cls-2" d="M14.91,59.67c.27.22.7.73.59.07C15.25,59.62,15.31,60,14.91,59.67Z"/><path class="cls-2" d="M15.84,61.43l-.21-.53c-.05,0-.09.18-.22.07Z"/><polygon class="cls-2" points="16.03 61.64 15.84 61.43 15.91 61.63 16.03 61.64"/><path class="cls-2" d="M16.85,64.26a2.23,2.23,0,0,1,.49.66A5.92,5.92,0,0,0,17,64C16.87,64,16.69,64,16.85,64.26Z"/><path class="cls-2" d="M16.36,63.17l0,0S16.4,63.14,16.36,63.17Z"/><polygon class="cls-2" points="18.7 67.56 18.72 67.5 18.67 67.51 18.7 67.56"/><path class="cls-2" d="M17,64a.71.71,0,0,0-.32-.43c.1.15.2.31.3.49C17,64,17,64,17,64Z"/><path class="cls-2" d="M17.57,65.91a4,4,0,0,0-.07-.44C17.49,65.62,17.5,65.9,17.57,65.91Z"/><path class="cls-2" d="M16.38,63.31l0,0C16.34,63.38,16.36,63.36,16.38,63.31Z"/><path class="cls-2" d="M16.38,63.31a1.13,1.13,0,0,0,.28.22,3,3,0,0,0-.26-.32A.36.36,0,0,1,16.38,63.31Z"/><path class="cls-2" d="M20.5,67.64c-.22.07-.7-.4-.74-1-.39-.4-.89.26-1,.87.09,0,.17-.08.55.36,0-.23-.32-1.23.08-.91.44.6.21.58.27,1,.11-.4.79.65,1.09.32l-.43-.51S20.53,67.83,20.5,67.64Z"/><path class="cls-2" d="M18.25,66.54l-.13-.19a2.57,2.57,0,0,1,.09.85c.27.29.38.32.46.31l-.49-1Z"/><path class="cls-2" d="M17.65,65.44c.3,0,.64.48.72.06-.32-.59-.4-.32-.67-.63.55.94-.27-.22,0,.55a3.89,3.89,0,0,1-.33-.5c.06.19.12.38.16.55v0h0c0-.06,0-.08,0,0v0h.1c.1.3,0,.07-.1,0h0l.62.9A5.7,5.7,0,0,0,17.65,65.44Z"/><path class="cls-2" d="M16.24,60s0,0,0,0S16.29,60.14,16.24,60Z"/><path class="cls-2" d="M16.31,60.48a.53.53,0,0,1-.28-.31c0-.23.11-.05.17-.1-.13-.1-.4-.4-.29.09l.07.05a1.86,1.86,0,0,1,.05,1A1.87,1.87,0,0,0,16.31,60.48Z"/><path class="cls-2" d="M17.05,63l.52.75,0-.51-.1.08C17.25,62.8,17.17,63,17.05,63Z"/><polygon class="cls-2" points="18.64 67.71 18.35 67.72 18.92 68.02 18.64 67.71"/><polygon class="cls-2" points="19.2 68.74 18.98 68.81 19.25 69.02 19.2 68.74"/><path class="cls-2" d="M39.13,56.58l.07-.27A2.17,2.17,0,0,0,39.13,56.58Z"/><path class="cls-2" d="M38.24,58.29l.07.09C38.3,58.27,38.28,58.22,38.24,58.29Z"/><path class="cls-2" d="M29.42,91.13c.39.21.83.54.78.28l-.12-.24A1.53,1.53,0,0,1,29.42,91.13Z"/><path class="cls-2" d="M32.52,73.05l-.08.11.24.26Z"/><path class="cls-2" d="M31.49,72.75l.16-.7v0A3.34,3.34,0,0,0,31.49,72.75Z"/><path class="cls-2" d="M42.3,49.71a4.41,4.41,0,0,0-.43.25A1.62,1.62,0,0,0,42.3,49.71Z"/><path class="cls-2" d="M21.3,79.62a3.33,3.33,0,0,0-.15.83C21.29,80.05,21.51,79.72,21.3,79.62Z"/><path class="cls-2" d="M41.12,58.46c0-.17,0-.25,0-.28C41.05,58.35,41.05,58.46,41.12,58.46Z"/><path class="cls-2" d="M21.15,81.42a1.27,1.27,0,0,0,.06-.18,3.85,3.85,0,0,1-.06-.79A1.21,1.21,0,0,0,21.15,81.42Z"/><path class="cls-2" d="M21.3,51.74s0-.06,0-.09S21.27,51.69,21.3,51.74Z"/><path class="cls-2" d="M13.42,47a3,3,0,0,1,.45,0A1.2,1.2,0,0,0,13.42,47Z"/><path class="cls-2" d="M21.1,72.66h0c0-.06,0,0,0,0Z"/><path class="cls-2" d="M21.59,71.47a.16.16,0,0,0,.16,0A.2.2,0,0,1,21.59,71.47Z"/><path class="cls-2" d="M22.69,83.91v0C22.74,83.85,22.73,83.87,22.69,83.91Z"/><path class="cls-2" d="M21.16,72.52a.61.61,0,0,0,0,.11A.14.14,0,0,0,21.16,72.52Z"/><path class="cls-2" d="M21.06,72.57v-.06C21,72.51,21,72.54,21.06,72.57Z"/><path class="cls-2" d="M21.12,72.76a.15.15,0,0,1,0-.11v0s0,0,0,0h0Z"/><path class="cls-2" d="M31.81,54.83l0,0C31.76,55.14,31.79,55,31.81,54.83Z"/><polygon class="cls-2" points="31.43 86.36 31.44 86.38 31.45 86.35 31.43 86.36"/><path class="cls-2" d="M31.24,85.46a.87.87,0,0,1,.21.89l.71-.3Z"/><path class="cls-2" d="M41.18,52.44l-.48.46c0-.84.38-1.27-.17-.89.65.43-1.05,2.21-.4,2.65L39.8,55c.06-.1,0-.14.09-.24-.7.55.22.79-.36,1.66-.21.3-.43.47-.4.21l-.2.81c-.12.2-.21.09-.09-.12l-.51,1.13,0,0a6.17,6.17,0,0,1,0,.86c-.25.23,0-.17-.13-.15l-.14.69c-.31.16-.22-.43,0-.84-1,.22-.09.59-1.12,1.61l.21-.62c-.58.17-.67.69-1.25,1.21.21-.08,1.28-1,1.12-.23a1.34,1.34,0,0,0-.35.82c-.24-.13-.36.25-.57.69l-.31-.19c-.15.51,0,.56,0,.91a.86.86,0,0,1-.88.5c-.49.82.7-.37.25.66a5.24,5.24,0,0,0-.84,2.12c-.36.43-.15-.19-.34-.06l0,.56c-.06.11-.12,0-.15,0-.09.42.31.2.1.82.28.34-1.13.91-1.09,1.82-.18.13-.15-.18-.31-.19a8.29,8.29,0,0,0-.29,1.91c-.16.15-.42.47-.66.76.35-.35.44-.16.47.14s.27.61.39.88l.3-.46.19,1c-.06.12-.18,0-.33-.15l.08.19c-.13.35-.34.17-.54-.09l.22-.36c-.22-.23-.47-.5-.68-.46a1.71,1.71,0,0,1,.1.36c-.06-.06-.11-.11-.15-.08s0,.14.13.31l-.4.23.16,0-.25,1.31a9.64,9.64,0,0,1,1.17,3.25c-.29-.37-.48-.08-.84-.1.38-.4-.15-1.15-.08-1.92,0,.4-.21.31-.26.21l.34,1.38c-.29,0-.22.29-.34.65.57-.27.38,1,.55,1.59-.19,0-.38-.1-.34-.79-.43.76.67,1,.31,1.72,0-.17,0-.26-.07-.32.17.39,0,1.34-.14,1.12V81.5c-.07,1.11,0,3.38.48,3.54a2.61,2.61,0,0,1-.68-.21l1.63,2c-.42-.18-1.41.49-1.64-.43a2.08,2.08,0,0,0,0,1.14c.05-.16.6-.44.64-.19-.24.35-.3.34-.35.44a.82.82,0,0,1-.3.29c.09-.1.74.36.72.74-.09-.12-.64-.44-.71-.57a5.87,5.87,0,0,1,.45.81.76.76,0,0,1-.06.2c.1-.12-.48-.55-.71-.73.14.13-.43,0-.53.06l.28.14c-.56-.09-.83.91-2,.87.15-.13.36-.81-.24-.89a5.28,5.28,0,0,1-2.29,1.83l-.2-.19-.81.21a16.28,16.28,0,0,1,2.69-1.93c-.45-.15-.12-.22-.8-.21-.23-.17.37-.26.57-.28L26.28,88c.07.38-1.19.39-1.14.7l1.7-.39c.08.38-1,1.09-2.07,1-.19-.15.16-.68.17-.81a1.09,1.09,0,0,1-.36.16c-.14,0-.29,0-.3,0a2.77,2.77,0,0,0,.31-.21c-.1-.07-.24,0-.42.13s-.42.18-.49.07l.06-.13c0-.19.49-.7.27-.56-.44.37-1.79,1.67-2.12,1.49,0-.07.12-.59.25-1.08a3.79,3.79,0,0,1,.38-1.06c.17-.21.38-.06.58.11s.39.22.53.12c-.1,0-.23-.2-.27-.3.09-.27.32.11.28-.48-.39-.1,0-1.19-.33-.27-.11-.58.08-.61.06-1.28-.25.21-.85-.61-1-1.18.09,0,.22-.09.28-.15,0-1.18.21-1.81.22-2.9.09-.1.2-.63.37-.4a1.32,1.32,0,0,1-.21-.64c.34-.65.05.75.46.25-.23,0-.31-.87-.45-1.35-.35.15-.07,1.11.07,1.59-.48,0-1-.83-1.21-2-.12-.91.31-.4.24-.55.09-1.71-.84-1.46-.49-2.87.31-.56.61,0,.83-.15.12.74-.19,1.13-.18,1.63l.15-.61a1.84,1.84,0,0,1,.09,1c.27-.47.05-2.87.3-4.2a1.54,1.54,0,0,0-.21-.46c-.05,0-.09,0-.1,0s0,0,0,0l0,.39c-.24.33-.34-.63-.45-.17l-.06-.12a2.75,2.75,0,0,1-1-1.36l.24-.29c-.08.06.05.55.25.7-.29-.22-.13-1.29-.71-1.4l0,.6a4.3,4.3,0,0,1-1.28-1.53c-.16.44.11.12,0,.75.25-.61.79,1.59.95.74-.19.66.22.87.17,1.64.1-.07.09-.3.31.24h.11v0h0s0-.22,0-.28a1.26,1.26,0,0,1,.42.3l.08.26a2.66,2.66,0,0,0,.08.33c-.05.34-.13-.15-.25,0l.2.47c-.25,0-.42.92-.57.11l0,.73a2.71,2.71,0,0,0-.09,1.4c-.05.34.28.87.08.57l.16,1.16h-.06c0,1.13.42,2.34,0,3.64a4.37,4.37,0,0,1,.07,1.42l-.22.13c.08.49-.22,1.47,0,1.68a2,2,0,0,0-.3,1.51l.06,1a6.3,6.3,0,0,1,0,1l.29,0A27,27,0,0,0,21.3,91l.26-.32,0,.11a6.53,6.53,0,0,1,1.7,0l1,.1.55,0h.36c0,.05-.11.07-.21.06h-.15l-.23,0c.28.07.38.12.55.15a2.32,2.32,0,0,0,.46,0,6.07,6.07,0,0,0,.94-.13A3.25,3.25,0,0,1,28.34,91,.92.92,0,0,1,29,91h.05l.37.14a2,2,0,0,0-.31-.14,5.08,5.08,0,0,0,.84-.1l.13.28h.07c.31.1.25-.13.08-.34.13,0,.4-.1.54-.16.2.22.52.18.83.15a1.43,1.43,0,0,1,1,.17,2.9,2.9,0,0,1,1-.21,3.37,3.37,0,0,0-.45-1.69c.07,0,.1-.08.1.14a3.14,3.14,0,0,0,0-1.33l.34-.17a1.7,1.7,0,0,0-.23-.45l-.24-.38c.22-.46.34-.65.61-.19-.41-1.11-.16-.9-.57-1.84l.23,0c0-.33-.31-.87-.12-1.07.42-.76.06-3.73.45-5.66-.66.38.3-.9-.21-1,.15-.12.24-.39.38-.07-.16-1,.25-1.48-.19-2.16.16-.12.23.21.33.11s-.14-.32,0-.42.14.14.21.3c0-1-.52-1.11-1-1.18.22-.49.18-.81-.11-1.09.15-.14.3-.26.35.11l0-.29.17-.26c.09-.16.17-.33.24-.48s.2-.56.09-.63c.13,0,.25-.42.25-.53.38-.69.44-.73.77-1.44l-.15.16c-.25-.47.2-.61.44-1.19l0,0c.93-1.13.14-.62,1.11-1.71l-.28-.06c-.46-.38.89-1,1.06-1.78l-.27.19c0-.49,1.28-.75,1.55-1.12.09-.06,0,.18,0,.32.85-.89-.25-.3.08-1.12.24-.06.34.41.64-.1.27-.19.23-1.81.93-2.36-.22.09-.43.18-.34-.24.24-.58,1.27-1.24,1.11-2,.08,0,.12-.06.16,0a7.07,7.07,0,0,0,.44-1.84c1,0,.95-2.85,1.72-2.45l.63-1.32.06.07a3.54,3.54,0,0,0,.42-1,2.33,2.33,0,0,0,.1-.8c.2-.26.18-.05.22,0,1.08-1.72,1.25-2.13,1.27-3.12l.53-.4s0-.06,0-.12c-.37,0-.9-.1-1.7-.17a11.63,11.63,0,0,0-2.82,0s.08-.09.25-.13a6.73,6.73,0,0,1-.88.06,4.36,4.36,0,0,1-.62,0c-.42,0-.84-.12-1.23-.17-.79-.11-1.46-.13-1.74.38l-1,.26c1.3.08-.19.44.34.61-.51.07-1.31-.31-.69-.36l.1,0c.12-.27-.29-.31-.71-.34l-.32,0a2.17,2.17,0,0,1-.38,0c-.22,0-.38-.07-.39-.16H33.5L33,48.24l-.48,1-.78,1.46c-.52,1-1,1.92-1.48,2.88l.5-.08-.37.75c-.18.16-.42.13-.16-.4-.34.18-.23,1-.16,1-.64,1-.25-.62-.41-.3l-.17.45.09-.08a1.74,1.74,0,0,1-.18,1.18c-.26.37-.33.1-.42.26,0,0-.06,0-.12.24l-.24.47-.11.21,0,.1a.59.59,0,0,0,.4-.09c0,.41-.28.58.15.52-.35.08-.61.52-.84,1s-.46,1.09-.51,1v.07c-.16.19-.37-.27-.57-.77,0,.22,0,.94-.28.33a1.45,1.45,0,0,0,.09-1.06,1.17,1.17,0,0,1,0-.9c-.1.21-.19.08-.38-.24s-.45-.75-.53-.28c-.18-.55.25-.16.23-.63-.84-1.11-1.08-2.8-1.87-4.29-.11,0-.13.33-.41.07l.08-1c-.18-.28-.65,0-.59-.73,0,.11-.1.28-.23.09a13.82,13.82,0,0,0-.49-1.41c-.25-.58-.57-1.3-.87-1.93l-2.39,0c-.59,0-1.19,0-1.78,0a13.8,13.8,0,0,1-3.55-.43c.45.19.15.21-.2.22.23,0,0,.25,0,.38L12.51,47c-.26.38-1.51,0-1.65.39l.44-.07c-.59.43.83.95.74,1.5.66-.49,1.75.71,2.83,0,.24.11-.2.18-.07.3.27-.23.6-.28,1.22-.18L16,49a13.81,13.81,0,0,1,2.13.09l1,.12.59.06a2.93,2.93,0,0,1,.33.06,1.22,1.22,0,0,0,0-.27.36.36,0,0,1,.29.19c.47-.41-.61,0-.26-.48a.57.57,0,0,0,.51.27c.09.26.22.51.29.74.15.41.23.77.09,1,.27.59.21-.3.47.29l-.08.22.27.06c.14.4,0,.68-.09.75a1.36,1.36,0,0,0-.21-.34c.05.58.7,1.37.72,1.57l-.16-.61a54.25,54.25,0,0,0,2.59,5l.06-.17a3.72,3.72,0,0,1,.38.63,3.79,3.79,0,0,1,.21.58,8.32,8.32,0,0,0,.71,1.69l0,0a3.16,3.16,0,0,1,.7,1.1c-.28-.25.3,1.35,0,1,.49.78.6.89.68.89a.74.74,0,0,1,.4-.13l.12.74h0A8.52,8.52,0,0,1,28.14,62c-.13.5-.06.55,0,.6s.16.1,0,.77a6.5,6.5,0,0,0,1.07-2.27c.24-.73.38-1.18.83-1.36,0-1.36-1,1.33-.82.72-.14.07-.12-.24,0-.59a3.42,3.42,0,0,1,.34-1c.2-.41,1.11-.62,1.57-1.66,0,.11,0,.14-.06.24.32-.34.18-.88.63-1.28-.19-.42.32-.63-.06-.9l-.36,1c.15-.62-.08-1.37.58-2.19a1.75,1.75,0,0,1,0,.65c.25-.21.16-.56.42-.78.37.27-.47,1.25-.44,2,.31-.21.23-1.28.54-.77-.37-.7.56-1,.47-2l.22.17a1.87,1.87,0,0,1,.12-.64l.14.53c0-.72.76-1,.88-1.68-.55,1.2-.42.13-.83.56.34-1.61,1.05-.61,1.65-2.21,0,.14-.52.74-.46.32l.16-.23c0-.07.13-.18.15-.17a.26.26,0,0,1,.21,0c0-.16,0-.22-.08-.25s-.2,0-.21-.17c.16,0,.15,0,.12-.19s0-.22.16-.27l.11.27c.32.09.31-.05.4-.19s.13-.27.75-.17l-.53.38.65-.1-.13.32a2.83,2.83,0,0,1,1.6-.09c-.16-.19.09-.5.7-.5.41.16-.23.26.63.22-.2.17-.41.39-.78.13,0,.09-.2.18-.24.26a3.55,3.55,0,0,0,1.44,0,1.09,1.09,0,0,1-.34-.06l1.25-.38c.2.1,0,.18-.11.27a6.15,6.15,0,0,1,.8-.18c-.1.22-.08.45-.6.56.37-.09.9-.17.92-.25,0,.09.09.26,0,.35s.13-.05.34-.15.48-.2.48-.11a.87.87,0,0,1,.24-.1s0,0,0,0-.29.32-.39.44a.23.23,0,0,0,0,.33,1.6,1.6,0,0,1-.47.05c0,.06.14.1.29.1s.32,0,.23.32c-.3.86-.46.14-.7.37a2.6,2.6,0,0,1-.69,2A4.35,4.35,0,0,1,41.18,52.44ZM37,60.9c0-.19,0-.6.25-.64C37.46,60.59,37.25,60.66,37,60.9ZM32,74.43c-.09-.13,0-.34.06-.58A1.34,1.34,0,0,1,32,74.43ZM21.33,75v0C21.23,75.46,21.27,75.31,21.33,75Zm.12-.85c0-.08-.08-.08-.12,0s.07.25.06.47C21.46,74.55,21.51,74.44,21.45,74.18ZM29,56.48l.14-.12C29.06,56.73,29,56.61,29,56.48Z"/><path class="cls-2" d="M31.61,72.81a.29.29,0,0,1,.15-.11C31.71,72.6,31.66,72.59,31.61,72.81Z"/><path class="cls-2" d="M42.39,49.66h0l-.08.05Z"/><path class="cls-2" d="M23.78,87.28c0,.18-.09.26-.15.29S23.76,87.57,23.78,87.28Z"/><path class="cls-2" d="M20,70.76l.31.45a1.06,1.06,0,0,1-.15-.48S20.07,70.91,20,70.76Z"/><path class="cls-2" d="M19.34,65.8c-.06,0-.08-.14-.14-.2l-.11.08C19.26,66,19.46,66.14,19.34,65.8Z"/><path class="cls-2" d="M20.57,69.9c.18-.15,0-.41-.25-.73l0,.06C20,69.28,20.29,69.59,20.57,69.9Z"/><path class="cls-2" d="M20.27,69.09a2.91,2.91,0,0,1-.17-.3C20,68.81,20.14,68.92,20.27,69.09Z"/><path class="cls-2" d="M21.29,73.11c.06-.18-.29-.11-.2-.21C20.8,72.7,21.45,74.1,21.29,73.11Z"/><polygon class="cls-2" points="21.1 69.27 20.91 69.53 21.21 69.61 21.1 69.27"/><path class="cls-2" d="M22.28,72l-.2-.56s-.1,0-.16-.1C22.09,71.7,22.22,72.08,22.28,72Z"/><path class="cls-2" d="M21.92,71.36a1.32,1.32,0,0,0-.26-.42A3,3,0,0,0,21.92,71.36Z"/><polygon class="cls-2" points="21.56 69.97 21.59 70.16 21.77 70.55 21.56 69.97"/><path class="cls-2" d="M22.39,78.4l.08.67c.1.06.16-.12.12-.36S22.48,78.3,22.39,78.4Z"/><path class="cls-2" d="M23.17,76.41a.61.61,0,0,1-.22.29l.36,0Z"/><path class="cls-2" d="M23.25,78.33c.1.07.29,1,.26.13C23.42,78.39,23.33,77.73,23.25,78.33Z"/><path class="cls-2" d="M22.81,88.24v-.15l-.58.19A3.9,3.9,0,0,0,22.81,88.24Z"/><path class="cls-2" d="M30,88.17c-.79-.14-.19.36-.9.18-.18.14.58.15.39.26C30,88.47,30.24,88.55,30,88.17Z"/><path class="cls-2" d="M29.52,88.61l-.24.09A.58.58,0,0,0,29.52,88.61Z"/><polygon class="cls-2" points="11.57 46.7 11.07 46.57 11.39 46.77 11.57 46.7"/><path class="cls-2" d="M10.6,47.13l-.12-.37-.3.33C10.3,47.07,10.52,47,10.6,47.13Z"/><path class="cls-2" d="M35.73,61.8l.06.07c.12,0,.18-.12.3-.33Z"/><polygon class="cls-2" points="39.1 55.85 39.04 55.95 39.44 55.91 39.1 55.85"/><path class="cls-2" d="M41.35,50.56c-.12.2-.18.48-.3.68C41.23,50.76,41.75,50.69,41.35,50.56Z"/><path class="cls-2" d="M45,48.09H55.56l13.75,23v-23H79.94V89.71H69.31L55.63,66.86V89.71H45Z"/><path class="cls-3" d="M45,48.09H55.56l13.75,23v-23H79.94V89.71H69.31L55.63,66.86V89.71H45Z"/><path class="cls-2" d="M43.64,48.35c0-.33-.22-.21-.26-.26C43.43,48.65,43.7,48.34,43.64,48.35Z"/><polygon class="cls-2" points="44.18 53.84 44.08 53.74 44.32 54.55 44.18 53.84"/><path class="cls-2" d="M44.18,59c.4-.48-.07-1.85.07-2.77l.1-.15L44,55.63A25.61,25.61,0,0,1,44.18,59Z"/><path class="cls-2" d="M43.3,61.7c.15-.17.13.59,0-.64a.34.34,0,0,1,0,.12A4.3,4.3,0,0,1,43.3,61.7Z"/><path class="cls-2" d="M43.3,61.18c0-.54-.13.35,0,0Z"/><path class="cls-2" d="M43.4,63.67,43.25,63c-.09.15-.11.78-.18.54C43.15,64.23,43.24,64.08,43.4,63.67Z"/><path class="cls-2" d="M43.69,64.34,43.63,64C43.59,64,43.58,64.14,43.69,64.34Z"/><path class="cls-2" d="M43.51,63.19l.12.78c.07-.1.2-.11,0-.35C43.71,63.68,43.59,63.53,43.51,63.19Z"/><path class="cls-2" d="M43.57,62.75c.09-.4.14-.91.28-.2C43.8,61.19,43.51,61.39,43.57,62.75Z"/><path class="cls-2" d="M44.6,59.23l.12-.54-.14-.46C44.65,58.46,44.47,59.26,44.6,59.23Z"/><path class="cls-2" d="M43.18,68.1c.09,0,.24-.24.35-.29l-.1-.53C43.37,67.55,43.31,68.06,43.18,68.1Z"/><path class="cls-2" d="M43.53,67.81l.14.78C43.69,67.89,43.62,67.76,43.53,67.81Z"/><polygon class="cls-2" points="44.14 64.47 43.83 63.18 44.15 64.72 44.14 64.47"/><polygon class="cls-2" points="43.17 71.1 42.97 70.66 43.28 71.45 43.17 71.1"/><path class="cls-2" d="M43.21,73.09c-.17-.33-.28.46-.38.11a5.73,5.73,0,0,0,.3,1.42A3.72,3.72,0,0,1,43.21,73.09Z"/><path class="cls-2" d="M43.31,75.31a7.07,7.07,0,0,0-.18-.69A2.93,2.93,0,0,0,43.31,75.31Z"/><path class="cls-2" d="M43.63,69.93a1,1,0,0,0-.25.62l.25-.31Z"/><path class="cls-2" d="M43.64,70.23h0l0,.67Z"/><path class="cls-2" d="M43.63,69.85v.08S43.66,69.88,43.63,69.85Z"/><path class="cls-2" d="M43.92,66.53c.14.46.29,1.43.49.49C44.25,66.69,44.13,67.23,43.92,66.53Z"/><path class="cls-2" d="M43.94,69.47l.05-.83c-.06,0-.15.16-.22-.07Z"/><polygon class="cls-2" points="44.02 69.88 43.94 69.47 43.92 69.78 44.02 69.88"/><path class="cls-2" d="M43.54,73.88a4.51,4.51,0,0,1,.13,1.2,13.9,13.9,0,0,0,.08-1.44C43.67,73.58,43.53,73.37,43.54,73.88Z"/><path class="cls-2" d="M43.61,72.11v.08S43.65,72.1,43.61,72.11Z"/><polygon class="cls-2" points="43.67 79.47 43.72 79.4 43.67 79.38 43.67 79.47"/><path class="cls-2" d="M43.79,73.56a1.36,1.36,0,0,0-.09-.77c0,.26,0,.55,0,.85C43.78,73.67,43.8,73.68,43.79,73.56Z"/><path class="cls-2" d="M43.43,76.54c0-.19.09-.4.13-.62C43.48,76.1,43.36,76.47,43.43,76.54Z"/><path class="cls-2" d="M43.56,72.31l0,0C43.49,72.37,43.52,72.36,43.56,72.31Z"/><path class="cls-2" d="M43.56,72.31a3,3,0,0,0,.14.48,4.61,4.61,0,0,0-.08-.6A.45.45,0,0,1,43.56,72.31Z"/><path class="cls-2" d="M45.23,80.8c-.22-.06-.43-1-.19-1.82-.17-.8-.91-.28-1.32.42.09,0,.18,0,.32.85.12-.29.29-1.83.49-1.13.12,1.09-.08.89-.2,1.42.28-.45.41,1.39.82,1.16l-.14-1C45.07,80.72,45.18,81.07,45.23,80.8Z"/><path class="cls-2" d="M43.74,77.83l0-.34a4.65,4.65,0,0,1-.31,1.17c.11.57.2.69.27.72l0-1.67Z"/><path class="cls-2" d="M43.71,76c.25.27.35,1.09.62.59,0-1-.21-.7-.32-1.3.06,1.61-.13-.46-.27.7,0-.31-.06-.6-.07-.87,0,.29-.06.57-.11.84l0,0h0c0-.07.05-.09,0,0a0,0,0,0,0,0,0,.28.28,0,0,1,.09.07c-.05.47-.07.08-.09-.07l0,0h0l.13,1.61A12.47,12.47,0,0,0,43.71,76Z"/><path class="cls-2" d="M44.94,67.88c0,.05,0,.05-.06.05S44.94,68.08,44.94,67.88Z"/><path class="cls-2" d="M44.79,68.55a1.12,1.12,0,0,1-.1-.6c.07-.33.11,0,.19,0-.06-.23-.17-.8-.29-.08l0,.11a3.3,3.3,0,0,1-.42,1.37A2.07,2.07,0,0,0,44.79,68.55Z"/><path class="cls-2" d="M44.31,72.3l.12,1.34.22-.68-.13,0C44.57,72.23,44.41,72.4,44.31,72.3Z"/><polygon class="cls-2" points="43.55 79.63 43.29 79.45 43.66 80.22 43.55 79.63"/><polygon class="cls-2" points="43.58 81.37 43.35 81.3 43.49 81.76 43.58 81.37"/><path class="cls-2" d="M78.59,70.42,78.52,70A1.72,1.72,0,0,0,78.59,70.42Z"/><path class="cls-2" d="M78.57,73.28l.11.07C78.62,73.21,78.58,73.16,78.57,73.28Z"/><path class="cls-2" d="M57.24,72.3c.28.88.48,1.85.35,1.14l-.16-.74S57.33,72.55,57.24,72.3Z"/><path class="cls-2" d="M73,89.65l-.16-.07-.39.23Z"/><path class="cls-2" d="M73.4,88.63l.76.16A4.38,4.38,0,0,0,73.4,88.63Z"/><path class="cls-2" d="M78.32,54.84l-.25-.46C78.07,55.1,78.2,54.78,78.32,54.84Z"/><path class="cls-2" d="M55.21,91.06c.75.09,1.39.13,1.92.15V91l0,.2C56.06,91,55.35,90.87,55.21,91.06Z"/><path class="cls-2" d="M81.21,71.55c0-.24-.09-.35-.15-.34C81.1,71.46,81.15,71.6,81.21,71.55Z"/><path class="cls-2" d="M57.14,88.58l-.06.41c0,.62.07,1.26.06,2A7.12,7.12,0,0,0,57.14,88.58Z"/><path class="cls-2" d="M59.84,58l0-.12S59.79,58,59.84,58Z"/><path class="cls-2" d="M49.81,47a6.75,6.75,0,0,1,.68,0A2.72,2.72,0,0,0,49.81,47Z"/><path class="cls-2" d="M43.47,89c0-.62,0-.09,0,0Z"/><path class="cls-2" d="M44.45,86.58c0,.08.06.14.12.15A.23.23,0,0,1,44.45,86.58Z"/><path class="cls-2" d="M55.6,84.46v0C55.55,84.54,55.56,84.52,55.6,84.46Z"/><path class="cls-2" d="M43.58,88c0,.23,0,.51-.07.81C43.53,88.7,43.55,88.45,43.58,88Z"/><path class="cls-2" d="M43.47,88.17l0-.55C43.45,87.54,43.42,87.62,43.47,88.17Z"/><path class="cls-2" d="M43.49,89.86c0-.35,0-.7,0-1,0,.13,0,.18,0,.15Z"/><path class="cls-2" d="M70.06,56.94,70,57C70.13,57.39,70.12,57.23,70.06,56.94Z"/><path class="cls-2" d="M62.07,75.38l0,0,0,.05Z"/><path class="cls-2" d="M62.91,76.43a1.78,1.78,0,0,1-.85-1l-.38.75Z"/><path class="cls-2" d="M78.52,63.59l-.23.93c-.36-1.12-.24-1.93-.55-1.06.78.13.08,3.62.85,3.75l-.16.62c0-.18,0-.21,0-.38-.37,1.2.56.89.45,2.43-.06.54-.17.91-.26.54l.19,1.2c0,.35-.15.26-.14-.08l.06,1.82h0a10.75,10.75,0,0,1,.39,1.13c-.11.47-.08-.23-.18-.11l.19,1c-.2.41-.4-.42-.37-1.12-.77.94.2.84-.25,2.87l-.1-.95c-.44.61-.28,1.36-.56,2.43.15-.25.69-2.15.89-1.06a2.76,2.76,0,0,0,.07,1.31c-.28,0-.21.58-.19,1.31l-.37,0c.11.78.29.72.46,1.17,0,.88-.32,1.06-.56,1.26-.06,1.4.45-1,.52.69a11,11,0,0,0,.23,3.36c-.13.81-.22-.14-.33.15l.29.72c0,.13-.09.06-.14.06.11.29.36,0,.46.65.2.16.07.45-.06.65-.55-.14-.9-.3-1.21-.06-.16-.1.06-.22,0-.36l-.13,0-.24,0-.4.07-.54.11c-.31.07-.59.15-1.25.35l-1.13-.24c.83.27-.24.6-1.17.86.3.13.55.25.72.31l-1.49.19c-.17-.06,0-.18.22-.34l-.27.09c-.54-.13-.26-.34.12-.55l.54.23c.36-.22.71-.47.63-.68A2,2,0,0,1,73,89c.1-.06.16-.12.12-.15s-.21,0-.45.13l-.34-.41-.08.17-1-.13-.49-.07-.22,0-.11,0a4.25,4.25,0,0,1-.61.31,6.65,6.65,0,0,1-2.44-2.4c.53.32.47-.15.79-.3a1.88,1.88,0,0,0,.57,1.08l.51.61.24.34a1.27,1.27,0,0,1,.13.22.31.31,0,0,1,0-.29s.12,0,.16,0c-.39-.43-.88-1-1.31-1.53.27-.11,0-.48-.21-1-.28.64-1.11-1.11-1.68-1.73.13-.15.4-.08.88.82-.2-1.18-1.31-.9-1.56-2,.13.21.17.34.31.38-.45-.41-1.06-1.69-.74-1.49l.13.21c-.79-1.45-2.56-4.29-3.11-4.26a2.43,2.43,0,0,1,.75-.08l-2.9-1.67c.49,0,.83-1.35,1.73-.31a4.67,4.67,0,0,0-.89-1.44c.09.25-.17.87-.39.58a6,6,0,0,0-.15-.93l-.12-.37-.35-1c.12.3,0,.4-.25.37a.89.89,0,0,1-.66-.49c.11,0,.3-.74.52-.52a8.17,8.17,0,0,0-1.35-1c.27.23.19-.74-.08-1.53.12.43-1.07-1.82-1.39-2.24L57.47,68c-.68-1.23-.95-1.23-1.1-1s-.23.55-.71-.29a12.35,12.35,0,0,0-1-3.45.78.78,0,0,0,0,.09c.17.89.56,2.91,1,4.68s.76,3.28.88,4a1.41,1.41,0,0,0-.18-.17L56.47,73a19.64,19.64,0,0,1-1-3.35c-.38-1.61-.74-3.75-.94-5.26-.15.55-.22-.39-.2,1.23-.18.13-.27-1.61-.28-2.16l-.11,3.76c.38.63.38,3.62.7,3.82l-.4-4.58a15,15,0,0,1,.68,2.77,15.37,15.37,0,0,1,.34,3.23c-.07.18-.24,0-.41-.38a7,7,0,0,0-.4-.8,11.83,11.83,0,0,1,.16,2.67l-.2-1.14a6.56,6.56,0,0,0,.15,1.91,2.42,2.42,0,0,1,0,1.41c0,.38-.49,1.13-.27,1.2A1.71,1.71,0,0,1,56.4,77a20.94,20.94,0,0,1-.63,2.42c-.35.63-.82-.93-1.12-.4.11,0,.24.37.28.51-.09.4-.32-.17-.28.7.39.14,0,1.76.33.41a14,14,0,0,1-.06,1.89c.25-.32.85.89,1,1.74-.1,0-.22.14-.28.23,0,.87-.07,1.53-.12,2.19l-.07,1c0,.31,0,.62,0,1-.09.1-.21.62-.37.22l.12.39a.71.71,0,0,1-.38.08c-1-.33.78-.05-.11-.45.19.22-.62.31-1.2.45.17.32,1.35.1,1.73-.05l0-.14a1.1,1.1,0,0,1,.26.37c.06.2-.1.39-.56.56a6.59,6.59,0,0,1-.9.22l-1.08.17c-1.34.12-.58-.31-.81-.24-2.52-.08-2.15.84-4.25.49-.83-.3,0-.61-.22-.83A16.68,16.68,0,0,1,50,90l-.91-.14a3.84,3.84,0,0,1,1.48-.09c-.59-.25-3.65-.1-5.38-.24,0-.24,0-.46.06-.67s-.21-.79-.33-.46L45,89c-.12.38-.21.15-.27-.12s-.13-.55-.18,0l-.14-.76-.13-.83a5.54,5.54,0,0,1,0-1.59l.35-.21a1.64,1.64,0,0,0-.1,1.08c-.16-.48.47-1.78,0-2.31l-.24.81a9,9,0,0,1-.44-2.88c-.34.47,0,.24-.36,1,.5-.64,0,2.64.51,1.62-.47.75-.2,1.3-.6,2.28.11,0,.22-.4.16.56a1.41,1.41,0,0,1,.1.31V88l0-.08c0,.06,0,.06,0,0a3.86,3.86,0,0,1,.09-.43.38.38,0,0,1,.09-.17,1,1,0,0,1,.09.2c0,.13,0,.26.06.41s.07.61.09.93a12.88,12.88,0,0,0,.15,1.53l0,.19c.13,0,0,0-.08.08s-.09-.2-.15.07v.07L45,90.61c0,.13.39.24.64.33s.27.17-.79.25h1.82c.65.07.88.12,1.29.14a3.85,3.85,0,0,0,1,0c.52.06,1.3-.28.85-.08l1.71-.16,0,.06c.32,0,.65,0,1,0L53.6,91c1.09-.06,2.12-.1,3.29-.06a15.41,15.41,0,0,1,.19-2c0-.48-.07-1-.09-1.49a8.27,8.27,0,0,1,0-1.2l.22-.18c-.08-.73.22-2.19,0-2.5.6-.79.13-3.53.24-4.81l-.29,0A23,23,0,0,0,57,75.94l-.25.06a3.3,3.3,0,0,1-.06-.8c0-.13,0-.33,0-.42l.05-.25a3,3,0,0,0,.14-.89c.1.17.08.27,0,.33.29-.08.18-.37.06-1s-.27-1.57-.06-1.24a1.56,1.56,0,0,1-.06-.45,3.27,3.27,0,0,1,.14.34s0,0,0,0l0,.07.23.64c-.08-.25-.16-.48-.21-.61a.29.29,0,0,0,.21.15l.19.86h0c.12.4,0-.23-.15-.9a.22.22,0,0,0,.1-.15c.13.64.18.66.26.72s.18.18.23.71c.08-.3.56.61,1,.38,0,.06,0,.16-.09,0A3.61,3.61,0,0,0,59,74a1.92,1.92,0,0,0,.41.52l-.19.37,1,.72c.17.7.21,1-.37.56,1.19,1.19.81,1.06,1.88,2l-.23.06c.26.43.93,1,.93,1.31.2,1.17,2.77,4.76,3.9,7.41.29-.81.43,1.3.93,1.13,0,.22.08.61-.28.28.16.21.28.4.4.59l.35.64c.29.53.55,1,.83,1.45a6.39,6.39,0,0,0,1.41-.2c.24.16-.55.23-.33.32a2.76,2.76,0,0,1,1,0c.06.05,0,.08-.1.11l-.64.09h.79l.39-.07a1.29,1.29,0,0,0,.5-.22,1,1,0,0,0,.36-.64,1.89,1.89,0,0,0,1.68-.12c.26.15.7.31-.23.36.52,0,3.18.22,3.24-.15a1.78,1.78,0,0,0,.86,0l1.55,0c.43,0,.86,0,1.61,0l-.47-.06a.38.38,0,0,1,.28-.21c-.08-.51.1-.93.06-1.82l0,.05.09-.83,0-.44a1.68,1.68,0,0,0,0-.44,4.38,4.38,0,0,1,.12-1.5l-.27.12c-.59-.2.35-1.86.12-3.07l-.15.44c-.2-.67.8-1.86.87-2.53,0-.14.08.23.12.44.35-1.75-.36-.23-.44-1.53.19-.24.49.31.53-.57.15-.43-.63-2.53-.26-3.73-.15.27-.3.53-.41-.08,0-.92.56-2.5.09-3.33,0-.12.08-.17.12-.17a13.81,13.81,0,0,0-.46-2.73c1-.65-.45-4.39.42-4.38l0-2.17.09,0a4.51,4.51,0,0,0-.36-2.37c.06-.32.14-.09.18-.06a8.33,8.33,0,0,0-.29-3.94l.28-.17c-.16-.47.44-2.94.12-4.94,0,0,.08.06.12.22A11.67,11.67,0,0,1,81.05,49c0-.68.06-1.39.1-2.13-1.13-.08-2.34-.17-3.37-.16a1.78,1.78,0,0,0-1.4.44l-1.48.26c1.92.08-.28.44.5.61-.75.07-1.94-.31-1-.36l.15,0c.34-.53-2.38-.19-2.33-.55H70.43l-2.08,0-.07,2.95-.08,2.1c-.06,1.35-.1,2.68-.11,4l.42-.41,0,1.23c-.09.32-.32.43-.31-.44A1.94,1.94,0,0,0,68.46,58c-.17,1.72-.48-.67-.49-.14l0,.72,0-.17a3.51,3.51,0,0,1,.33,1.69c-.09.67-.26.34-.28.61,0,0,0,.08,0,.4l0,1.55.32-.62c.17.69,0,1.46.36.74a3.64,3.64,0,0,0-.28,1,8.33,8.33,0,0,0-.06,1.15,8,8,0,0,1,0,1.68,10.72,10.72,0,0,1,.21,1.85c-.12-.19-.27-.46-.42-.74.14.37.52,1.74,0,.84a7.23,7.23,0,0,0-.58-2,4.92,4.92,0,0,1-.54-1.6c.19,1-.77-1.12-.66.08-.27-.57.11-.38,0-.87A10.18,10.18,0,0,1,65,61.83a35.14,35.14,0,0,0-1.77-3.19c-.1,0,0,.46-.42.07l-.25-1.38c-.29-.4-.72-.1-.89-1,0,.16,0,.38-.21.12A43.37,43.37,0,0,0,59,52l-1.36-2.17L57,48.73l-.91-1.53-1.69,0c-.44,0-.81,0-1.22-.08-.8-.07-1.59-.17-2.38-.31.67.19.22.21-.29.22.33,0,0,.25.06.38L48.47,47c-.38.38-2.23,0-2.44.39l.65-.07c-.87.43,1.23.95,1.1,1.5,1-.49,2.58.71,4.19,0,.35.11-.3.18-.12.3A2.89,2.89,0,0,1,53.66,49l-.1.06A14.08,14.08,0,0,1,55,49c.09.18.17.36.25.53l0,.13.12.23.23.47c.31.64.66,1.35,1.13,2.24l.12-.33a3.82,3.82,0,0,1,.37,1c.72.4-.87-1.5-.15-1.18,0,1,2.23,3.75,2,4.54.48.82.12-.39.61.42l0,.31.31.09c.29.55.27.93.16,1a5,5,0,0,0-.35-.49,16,16,0,0,0,1.31,2.2l-.37-.84c.73,1.07,1.45,2.32,2.19,3.54.37.61.74,1.22,1.12,1.8l.79,1.2c.28.41.55.79.8,1.13l-.08-.38a11.1,11.1,0,0,1,1.26,2,20.93,20.93,0,0,0,1.37,2.42l0,0a4.86,4.86,0,0,1,1,1.37c-.13-.08.09.43.32,1s.46,1.06.24.87c.33.43.52.68.64.81a12,12,0,0,0-.18-1.51l-.36-2.25.21.2a17.48,17.48,0,0,1-.35-2.84c.1.71.18.71.26.69s.19,0,.31.93a14.57,14.57,0,0,0,0-3.73,4.27,4.27,0,0,1,.19-2.42c-.59-1.58-.33,2.53-.45,1.66-.1.22-.21-.17-.29-.66a7,7,0,0,1-.09-1.47,1.83,1.83,0,0,1,.12-.6l.26-.57a4.47,4.47,0,0,0,.35-1.88c0,.17,0,.19,0,.36.15-.66-.2-1.3,0-2.11-.35-.45,0-1.05-.43-1.19l.11,1.63a8.2,8.2,0,0,1-.39-3.3,3.65,3.65,0,0,1,.28.88c.13-.45-.09-.86,0-1.32.46.14.1,2,.45,3,.19-.47-.33-1.86.16-1.37-.62-.71.08-1.74-.4-2.94l.27.08a3.85,3.85,0,0,1-.16-.93l.35.63c-.3-1,.26-1.87.1-2.8,0,2-.33.44-.52,1.26a2.48,2.48,0,0,1,.2-1.93l.15-.3.14-.12a.35.35,0,0,0,.08-.36c0,.09-.16.32-.28.07,0-.12.1-.24.18-.26a1,1,0,0,1,.21.11c.2,0,.18-.1.06-.18s-.33-.18-.21-.26c.24.16.28.13.36,0s.09-.1.16-.15a.3.3,0,0,1,.14-.08l.27-.05v.27c2,.18.54-.57,2.37-.36l-.77.38,1-.1-.2.32a6.18,6.18,0,0,1,2.38-.09c-.24-.19.13-.5,1-.5.17,0,.2.07.2.1a.21.21,0,0,1,0,.08s0,.06.36,0c-.11.08-.2.18-.27.22a.14.14,0,0,1-.14,0,1,1,0,0,1-.37-.11c-.06.09-.29.18-.35.26a2.09,2.09,0,0,0,1.17,0s-.11,0-.13-.06a4.88,4.88,0,0,1,.71-.27,1.11,1.11,0,0,1,.11.16c-.1.22-.18.16-.27.14s.16.15.18.41c-.22,0-.45.07-.56,0a.39.39,0,0,1,.13.15l.06.12a.24.24,0,0,1,0,.07l0,.22c-.09.12-.26.9-.35.67-.13,1,.44,2.4.26,3.69a1.12,1.12,0,0,1,.12.48,13.32,13.32,0,0,0,0,3.74l-.4.82c.09,1.13.51-1.11.66.77.13,1.33-.34.5-.46,1a5.26,5.26,0,0,1,.29,3A8.21,8.21,0,0,1,78.52,63.59Zm.17,13.94c0-.27-.23-.81-.07-1C78.93,76.83,78.78,77.07,78.69,77.53ZM70.94,89.12a1.39,1.39,0,0,1,.86.06A2.92,2.92,0,0,1,70.94,89.12ZM47.75,91l0,0C48.38,91.13,48.17,91.09,47.75,91Zm-1.65-.12c-.21,0-.21.08-.14.11a3.66,3.66,0,0,1,1.1,0A1.76,1.76,0,0,0,46.1,90.92Zm22.1-30,.08-.25C68.36,61.19,68.28,61,68.2,60.89Z"/><path class="cls-2" d="M73.34,88.75a.24.24,0,0,1,.12.15C73.57,88.85,73.57,88.8,73.34,88.75Z"/><path class="cls-2" d="M78.37,54.93v0a.1.1,0,0,0-.05,0Z"/><path class="cls-2" d="M54.51,79.47a1.55,1.55,0,0,1,.14-.49C54.59,79,54.53,79.08,54.51,79.47Z"/><path class="cls-2" d="M43.35,84.55l.07.81a2.4,2.4,0,0,1,.09-.73C43.45,84.65,43.35,84.8,43.35,84.55Z"/><path class="cls-2" d="M45.05,77.6c0-.12,0-.25,0-.36l-.13,0C44.89,77.77,45,78.12,45.05,77.6Z"/><path class="cls-2" d="M44.26,83.81c.23-.06.15-.56.11-1.12v.09C44.05,82.62,44.16,83.22,44.26,83.81Z"/><path class="cls-2" d="M44.36,82.56a4.51,4.51,0,0,1,0-.52C44.23,82,44.33,82.25,44.36,82.56Z"/><path class="cls-2" d="M43.66,90.89c.06-.48-.29,0-.2-.36-.12-.12-.08.36,0,.75.73-.11,1.39-.28.21-.22Z"/><polygon class="cls-2" points="45.02 83.36 44.74 83.56 44.97 83.87 45.02 83.36"/><path class="cls-2" d="M44.81,87.82l.08-.93s-.07-.1-.09-.24A4.24,4.24,0,0,0,44.81,87.82Z"/><path class="cls-2" d="M44.8,86.65a2.91,2.91,0,0,0,0-.72A4.93,4.93,0,0,0,44.8,86.65Z"/><polygon class="cls-2" points="45.11 84.58 45.05 84.85 45.03 85.48 45.11 84.58"/><path class="cls-2" d="M52.74,90l1-.09c.09-.09-.2-.15-.56-.12S52.59,89.88,52.74,90Z"/><path class="cls-2" d="M49.78,89.19a1,1,0,0,1,.44.22l0-.35Z"/><path class="cls-2" d="M52.64,89.11c.09-.1,1.42-.28.18-.26C52.72,89,51.74,89,52.64,89.11Z"/><polygon class="cls-2" points="55.48 77.96 55.49 78.21 56.07 78.17 55.48 77.96"/><path class="cls-2" d="M55.75,64.05c-1.11-2.13,0,.7-1-1.31-.09.11.81,1.63.67,1.63C55.86,64.82,56.23,65.6,55.75,64.05Z"/><path class="cls-2" d="M55.42,64.37a1.4,1.4,0,0,0-.2-.17C55.34,64.34,55.39,64.37,55.42,64.37Z"/><polygon class="cls-2" points="47.08 46.7 46.33 46.57 46.82 46.77 47.08 46.7"/><path class="cls-2" d="M45.65,47.13l-.18-.37-.44.33A1.17,1.17,0,0,1,45.65,47.13Z"/><path class="cls-2" d="M78,79.6l.09.05c.09-.11.1-.29.12-.64Z"/><polygon class="cls-2" points="78.22 69.48 78.22 69.66 78.55 69.33 78.22 69.48"/><path class="cls-2" d="M77.8,61c0,.34.06.75,0,1.1C77.78,61.34,78.21,60.9,77.8,61Z"/><path class="cls-2" d="M79.94,48.09h34.91V58.37H103.13V89.71H91.65V58.37H79.94Z"/><path class="cls-3" d="M79.94,48.09h34.91V58.37H103.13V89.71H91.65V58.37H79.94Z"/><path class="cls-2" d="M78.55,48.27c0-.23-.22-.15-.26-.18C78.34,48.47,78.61,48.26,78.55,48.27Z"/><polygon class="cls-2" points="79.09 52 79 51.93 79.24 52.48 79.09 52"/><path class="cls-2" d="M79.09,55.49c.41-.33-.07-1.27.08-1.89l.09-.1-.33-.28A11.16,11.16,0,0,1,79.09,55.49Z"/><path class="cls-2" d="M78.21,58.27c.16-.28.14.64.05-.79l0,.16C78.22,57.77,78.22,58,78.21,58.27Z"/><path class="cls-2" d="M78.22,57.64c0-.66-.13.48,0,0Z"/><path class="cls-2" d="M78.87,60l-.65.09,0-.25a2.23,2.23,0,0,0-.07.37c.23,0,.53.06.28.11C79.39,60.24,79.23,60.15,78.87,60Z"/><path class="cls-2" d="M79.86,59.7l-.45.06S79.56,59.81,79.86,59.7Z"/><path class="cls-2" d="M78.42,59.88l1-.12c-.07-.07,0-.2-.44.05C79.15,59.68,78.88,59.81,78.42,59.88Z"/><path class="cls-2" d="M78.48,59.32c.09-.54.15-1.1.29-.46C78.71,57.49,78.43,57.79,78.48,59.32Z"/><path class="cls-2" d="M79.51,55.67l.12-.37L79.49,55C79.56,55.15,79.38,55.69,79.51,55.67Z"/><path class="cls-2" d="M83.28,60.21c0-.09-.17-.23-.2-.34l-.36.1C82.9,60,83.25,60.08,83.28,60.21Z"/><path class="cls-2" d="M83.08,59.87l.53-.15C83.13,59.7,83.05,59.77,83.08,59.87Z"/><polygon class="cls-2" points="80.27 59.25 78.75 59.56 78.75 59.54 78.75 59.56 80.51 59.24 80.27 59.25"/><polygon class="cls-2" points="85.32 60.22 85.01 60.42 85.55 60.12 85.32 60.22"/><path class="cls-2" d="M86.67,60.18c-.22.17.31.28.07.39a3.15,3.15,0,0,0,1-.3A1.85,1.85,0,0,1,86.67,60.18Z"/><path class="cls-2" d="M88.18,60.08a2.89,2.89,0,0,0-.47.19A1.86,1.86,0,0,0,88.18,60.08Z"/><path class="cls-2" d="M84.52,59.76a.59.59,0,0,0,.42.25l-.21-.25Z"/><path class="cls-2" d="M84.73,59.76h0l.46,0Z"/><path class="cls-2" d="M84.47,59.76h0S84.49,59.73,84.47,59.76Z"/><path class="cls-2" d="M82.21,59.47c.31-.14,1-.28.33-.49C82.32,59.15,82.68,59.26,82.21,59.47Z"/><path class="cls-2" d="M84.21,59.46l-.57-.06c0,.06.11.16,0,.23Z"/><polygon class="cls-2" points="84.49 59.38 84.21 59.45 84.42 59.48 84.49 59.38"/><path class="cls-2" d="M87.21,59.85a2.61,2.61,0,0,1,.82-.13,6.55,6.55,0,0,0-1-.07C87,59.72,86.86,59.86,87.21,59.85Z"/><path class="cls-2" d="M86,59.78h.06S86,59.74,86,59.78Z"/><polygon class="cls-2" points="90.05 59.72 90.06 59.68 90.03 59.72 90.05 59.72"/><path class="cls-2" d="M87,59.6a.68.68,0,0,0-.53.09,3.73,3.73,0,0,1,.59,0S87.07,59.59,87,59.6Z"/><path class="cls-2" d="M89,60a2.71,2.71,0,0,0-.43-.14C88.72,59.91,89,60,89,60Z"/><path class="cls-2" d="M86.14,59.84h0C86.18,59.9,86.17,59.87,86.14,59.84Z"/><path class="cls-2" d="M86.14,59.84a1.91,1.91,0,0,0,.32-.15,2.18,2.18,0,0,0-.4.08A.27.27,0,0,1,86.14,59.84Z"/><path class="cls-2" d="M91.86,58.45a.15.15,0,0,1-.22-.07,1.23,1.23,0,0,1-1,0c-.65.17-.49.91-.63,1.33.09-.1.12-.19.54-.33.05-.12-.57-.28-.13-.49.6-.1.47,0,.52.16l0,.1c.14-.24.24-.18.36-.06s.25.3.46.1l-.14-.56C91.7,58.53,91.8,58.69,91.86,58.45Z"/><path class="cls-2" d="M89.64,59.65l-.1,0c.1,0,.16.13.18.31a1.89,1.89,0,0,0,.31-.27l-.43,0Z"/><path class="cls-2" d="M88.63,59.68c.18-.24.73-.35.39-.61-.68,0-.47.2-.88.31,1.1-.06-.31.14.48.27a3.36,3.36,0,0,1-.59.07l.56.11h0s-.06-.05,0,0h0a.14.14,0,0,1,0-.1c.31,0,.05.07,0,.1s0,0,0,0h0l.55-.07a2.29,2.29,0,0,0,.42-.07l-.08,0h-.21Z"/><path class="cls-2" d="M83.13,58.45a.06.06,0,0,1,0,.06C83.23,58.48,83.26,58.46,83.13,58.45Z"/><path class="cls-2" d="M83.58,58.6a.6.6,0,0,1-.41.11c-.22-.08,0-.12,0-.2s-.54.17,0,.29l.07,0c.44.08,1,.39.93.42A1.66,1.66,0,0,0,83.58,58.6Z"/><path class="cls-2" d="M86.13,59.08l.92-.12-.47-.21,0,.12C86.09,58.82,86.2,59,86.13,59.08Z"/><path class="cls-2" d="M90,59.84l-.22.26a3,3,0,0,1,.45-.36Z"/><path class="cls-2" d="M90.21,60l-.23.14h.14Z"/><path class="cls-2" d="M101.78,65l-.06-.27A1.91,1.91,0,0,0,101.78,65Z"/><path class="cls-2" d="M101.77,66.92l.11,0C101.82,66.87,101.77,66.84,101.77,66.92Z"/><path class="cls-2" d="M90.23,88.54c-.21.69-.54,1.72-.28,1.47l.25-.36A4,4,0,0,1,90.23,88.54Z"/><path class="cls-2" d="M103.08,82.82l-.08.11.24.27Z"/><path class="cls-2" d="M102.05,82.55l.16-.52A3.74,3.74,0,0,0,102.05,82.55Z"/><path class="cls-2" d="M107.13,56.75l.31-.25C107,56.5,107.17,56.63,107.13,56.75Z"/><path class="cls-2" d="M90.3,71.16a3.48,3.48,0,0,0-.15.84C90.29,71.6,90.5,71.27,90.3,71.16Z"/><path class="cls-2" d="M104.41,65.74c0-.17-.1-.24-.16-.23C104.3,65.68,104.34,65.77,104.41,65.74Z"/><path class="cls-2" d="M90.15,73l.06-.18a3.38,3.38,0,0,1-.06-.8A1.2,1.2,0,0,0,90.15,73Z"/><path class="cls-2" d="M94.4,49.5s-.07,0-.09,0S94.34,49.51,94.4,49.5Z"/><path class="cls-2" d="M83.2,47a3.1,3.1,0,0,1,.46,0A1.25,1.25,0,0,0,83.2,47Z"/><path class="cls-2" d="M90.1,63.79c0-.25,0,0,0,0Z"/><path class="cls-2" d="M91.08,62.57a.15.15,0,0,0,.12.1A.2.2,0,0,1,91.08,62.57Z"/><path class="cls-2" d="M91.69,75.48v0C91.74,75.43,91.73,75.44,91.69,75.48Z"/><path class="cls-2" d="M90.21,63.41a2.21,2.21,0,0,0-.07.32A2.09,2.09,0,0,0,90.21,63.41Z"/><path class="cls-2" d="M90.09,63.46l0-.22S90.05,63.24,90.09,63.46Z"/><path class="cls-2" d="M90.11,64.14a2.63,2.63,0,0,1,0-.41c0,.05,0,.07,0,.06Z"/><path class="cls-2" d="M114.1,48.94l0-.06,0,0c-.08,0-.08,0,0,0Z"/><polygon class="cls-2" points="96.63 88.56 96.6 88.57 96.63 88.58 96.63 88.56"/><path class="cls-2" d="M97.53,88.38a.88.88,0,0,1-.9.2l.3.71Z"/><path class="cls-2" d="M101.71,60.17a4.2,4.2,0,0,1-.11.47l-.11.32a2,2,0,0,1-.12-.27s0-.08,0-.14l0-.21-.1-.67c0-.31-.1-.33-.25.24a.47.47,0,0,1,.22.28c.06.12.1.4.13.47a5.44,5.44,0,0,1,.07.86c0,.61,0,1.23.43,1.27l-.16.42c0-.12,0-.14,0-.26-.38.82.55.61.44,1.65-.05.37-.17.62-.26.38l.19.81c0,.24-.15.18-.13-.06L101.9,67h0a5.68,5.68,0,0,1,.39.78c-.12.31-.09-.16-.18-.08l.18.69c-.2.28-.39-.29-.36-.77-.77.64.19.57-.26,2l-.1-.65c-.44.42-.28.92-.55,1.66.14-.18.69-1.47.88-.73a1.36,1.36,0,0,0,.07.89c-.27,0-.21.4-.19.89l-.36,0c.1.53.29.49.45.8a.9.9,0,0,1-.56.86c-.05.94.46-.66.53.46A5.33,5.33,0,0,0,102,76c-.12.55-.22-.1-.32.1l.29.49c0,.12-.1.08-.14.06.11.41.36,0,.46.68.4.18-.59,1.34-.13,2.14-.11.2-.23-.1-.37,0a8,8,0,0,0,.62,1.85l-.24.77c.28-.57.6.16.87.79a4.08,4.08,0,0,0,.3-.49l.2,1c-.06.13-.19,0-.34-.14l.09.18c-.14.37-.35.18-.55-.08l.22-.37c-.22-.24-.46-.48-.68-.43a1.06,1.06,0,0,1,.1.34c-.06-.07-.11-.11-.15-.08s0,.14.14.3l-.41.23.16.06-.25,1.32a9.78,9.78,0,0,1,1.18,3.26c-.3-.39-.49-.13-.84-.22a.25.25,0,0,0,.13-.24,2.77,2.77,0,0,0-.06-.46,3.63,3.63,0,0,1-.16-1.11c0,.41-.2.32-.26.21l.34,1.39c-.29,0-.22.16-.34.29.56,0,.39.7.54,1.23h0a.87.87,0,0,1-.16-.2.73.73,0,0,1-.14-.54c-.18,0-.1.19,0,.44s0,.48-.4.26c.11,0,.2,0,.17-.07-.15.17-.89,0-.75-.13h.1a11.35,11.35,0,0,0-1.9,0c-.73.07-1.34.2-1.42.45a2.56,2.56,0,0,1,.21-.69l-2,1.64c.17-.42-.5-1.41.43-1.65a2.15,2.15,0,0,0-1.16,0c.18.06.45.6.2.64a5.33,5.33,0,0,0-1.31-.64c.28.09,0,.74-.46.72.07-.1,0-.64.13-.71-.22.1-.24.21-.4.32a4.43,4.43,0,0,1-.48.32c.26-.12.22-.55.22-.73,0,.11-.34,0-.53,0a.43.43,0,0,0,0,0l0,.11.07.1a.57.57,0,0,0-.18,0c-.09-.35-.89,0-.86-1.08.13.13.81.18.89-.25a5.36,5.36,0,0,1-1.83-2.29l.19-.21-.21-.81a16.38,16.38,0,0,1,1.93,2.7c.15-.45.23-.12.21-.8.17-.24.27.37.28.57L93.35,85c-.38.07-.39-1.2-.7-1.14L93,85.54c-.38.07-1.08-1-1-2.11.16-.28.68.22.81.19a2.19,2.19,0,0,1-.16-1.16l.21.48c.14-.63-.51-1-.14-1.77,0-.25.49-.77.26-.81a2.31,2.31,0,0,1-2.11.22,10,10,0,0,1,.63-1.65c.34-.42.82.64,1.11.28-.1,0-.23-.25-.27-.35.09-.27.32.11.27-.47-.39-.1,0-1.2-.33-.28-.11-.58.08-.61.07-1.29-.25.22-.86-.61-1-1.18.1,0,.23-.1.29-.16,0-1.18.21-1.81.21-2.91.1-.1.21-.63.38-.41a1.32,1.32,0,0,1-.21-.64c.33-.66.05.76.45.25-.22,0-.31-.87-.45-1.36-.35.15-.07,1.12.08,1.6-.49,0-1-.84-1.21-2-.12-.92.31-.4.24-.56.09-1.72-.84-1.46-.49-2.89.3-.56.61,0,.83-.15.12.75-.2,1.15-.18,1.65l.14-.62a1.79,1.79,0,0,1,.09,1c.28-.47.05-2.9.31-4.22-.1-.24-.21-.64-.33-.45l0,.42c-.25.38-.34-.79-.46-.26a4,4,0,0,1-.3-2l.35-.15c-.11,0-.21.52-.11.74-.15-.33.48-1.21,0-1.58l-.24.56c-.09-.28-.23-.6-.33-.93s-.16-.29-.11-.47c-.34.25,0,.09-.36.34.12,0,.18,0,.21,0s0,.05,0,.1v.3c0,.42,0,.8.26.46-.47.51-.2.88-.6,1.55.12,0,.22-.24.17.35l.1.13v0s0,0,0,0a.67.67,0,0,1,.17-.3c.27.29.26,1.22.4,1.54-.06.35-.13-.15-.26,0l.21.48c-.26,0-.43.93-.58.1V66a2.76,2.76,0,0,0-.09,1.41c-.06.35.28.88.08.58l.16,1.16h-.06c0,1.14.42,2.36,0,3.67a4.71,4.71,0,0,1,.07,1.43l-.22.12c.07.5-.22,1.49,0,1.7-.6.54-.13,2.41-.24,3.28l.29,0a10.64,10.64,0,0,0,.18,1.92l.26,0c.21.65-.19,1.65-.16,2.67-.1-.07-.07-.33,0-.51-.58,1.21.42,2.56,0,3.66a1.3,1.3,0,0,1,0,.78.37.37,0,0,0,0-.11v.18c-.05.2-.1.41-.14.64a3.94,3.94,0,0,0,.14-.54,10.84,10.84,0,0,0,.1,1.28l-.27.37v.12c-.1.58.13.3.34-.09a1.46,1.46,0,0,0,.17.49,1.1,1.1,0,0,0-.18.66c.43,0,1-.17,1.15.15.46-.23,2.59-.17,2.54-.66,0,.06.11.09-.06.1a1.82,1.82,0,0,0,1,0l.15.35.77-.47c.46.21.65.34.19.61,1.12-.42.91-.16,1.85-.57l0,.23c.34,0,.88-.31,1.08-.13a4,4,0,0,0,1.57.23l3.37,0a23.42,23.42,0,0,1,.19-2.45c-.34.19-.26-.1-.17-.5.05-.24.1-.36.11-.49s0-.22-.16-.24c.16-.11.24-.39.38-.07-.15-1,.25-1.49-.18-2.18.15-.11.23.22.32.11s-.14-.31,0-.41.13.14.2.3c0-1-.51-1.12-1-1.19a.92.92,0,0,0-.11-1.14c.15-.18.3-.48.36.15,0-.35.21-2.17-.15-2.2a.85.85,0,0,0,0-.59,13,13,0,0,0,0-1.65l0,.22c-.44-.31-.1-.65-.16-1.28l0,0c.32-1.44-.15-.62.21-2l-.27.08c-.59-.13.34-1.26.12-2.09l-.16.3c-.2-.45.8-1.26.87-1.71.06-.1.09.15.12.29.35-1.19-.35-.15-.44-1,.2-.16.49.21.53-.38.16-.3-.63-1.73-.26-2.54-.14.18-.29.35-.41-.06-.05-.63.57-1.7.1-2.27,0-.08.08-.11.11-.11a7.06,7.06,0,0,0-.45-1.85c.94-.45-.46-3,.41-3l0-.83.09.07a.89.89,0,0,0,0-.46c.11-.07.12-.2.17-.32.18.06.13.14.15.18a2,2,0,0,0,.82.08A5.68,5.68,0,0,0,106.6,59l.12.28c.32-.16,2,.44,3.36.11a.22.22,0,0,1-.15.13,7.39,7.39,0,0,1,2.47.14l.31,0,.45,0a6.76,6.76,0,0,0,.8,0c.48,0,.79-.17.81-.43l.83-.17-.08-.47q0,.24,0,.36c-.67-.08-.4-.23-.37-.37s-.15-.28-.2-.2l-.06,0h0a1.15,1.15,0,0,1,.15-.67c.09-.13.19-.13.22.26l-.06.08c.27.35.32-.14.35-.7s0-1.16.21-1.14c0-1.33,0-2.56.13-3.81l.1-1.86,0-1.25,0-1.41c-.14.24-.28.46-.41.67l0-1.17a1.55,1.55,0,0,1,.08-.23c0-.06,0-.12.16-.17s.07.22.07.57a1.33,1.33,0,0,0,0-.68,3.68,3.68,0,0,0-1.16.34c-.76-.09-.57-.21-.17-.31s1-.18.68-.19l-.8,0,.15,0a4.83,4.83,0,0,1-1.83.33c-.35,0-.34-.1-.38-.16s0-.1-.11-.11-.06,0-.27,0l-1.06,0,.43.33c-.47.16-1,0-.51.36-.71-.58-3.93-.21-4.37-.39a5.33,5.33,0,0,1-2.11.21c.2.07.32.44-.37.39.25-.76-1.26-.33-1.82-.88.5.36-2,.09-1.18.61-.58-.07,0-.29-.47-.47-1.38.3-3-.19-4.72-.09,0,.1.25.25-.11.4l-.9-.5c-.33,0-.3.58-.92.23.09.09.22.21,0,.24-3.32-.48-6.78.4-10.16-.51.46.19.16.21-.19.22.22,0,0,.25,0,.38L82.28,47c-.25.38-1.51,0-1.66.39l.45-.07c-.6.43.83.95.74,1.5.67-.49,1.76.71,2.85,0,.24.11-.2.18-.07.3A1.4,1.4,0,0,1,85.82,49l-.07.06a35.92,35.92,0,0,1,4.44.33l-.14-.27a1.89,1.89,0,0,1,.7.19c.49-.41-1.18,0-.74-.48.56.55,3,0,3.34.64.65,0-.19-.32.46-.31l.17.17.17-.22c.42,0,.63.25.65.39a1.9,1.9,0,0,0-.4,0c.55.2,1.55-.07,1.74,0l-.63-.11a52.28,52.28,0,0,0,5.63-.28L101,49c1.3-.24,1,.14,2.47,0l0,0a2.51,2.51,0,0,1,1.06-.18c-.36.15.68.29.21.46,1.41-.26.7-.2,1.63-.68l.21.22a1.6,1.6,0,0,1,1.06-.35c-.58.18.46.32-.2.56,1.5.46,2.23-.47,2.91.21.69-.58-1.29-.32-.91-.45-.32-.19.57-.44,1-.38s.81.75,2,.74c-.12,0-.13,0-.25,0a.9.9,0,0,0,.56,0,.27.27,0,0,1,.34.06c.34-.36.32,0,.72-.43l-.76.1a6.3,6.3,0,0,1,1.36-.45,1.58,1.58,0,0,1-.06.65c-.09,0-.21-.14-.27-.21-.14.3.09.32,0,.61-.27.11-.25-.14-.27-.39a1.1,1.1,0,0,0-.6.17c0,.14.45-.11.47,0a.58.58,0,0,1-.14.14l-.08.06.06,0c.27-.18.24,0,.2.2s-.08.33.15.51h-.27l.1.11a.83.83,0,0,1,.06.35c-.11-.11-.23-.34-.35-.37.3.55-.26,1.24-.1,1.85,0-1.33.33-.3.53-.86.36,1.64-.71.94-.58,2.77,0-.24.16-.93.29-.54a3.24,3.24,0,0,1-.3,1c0,1.22.27-.18.44.33-.33.42.13.6.24,1.13h-.28l0,.22v.08a.18.18,0,0,0,0,.11.44.44,0,0,0,.18.15c.14.07.27.18.16.5a3.11,3.11,0,0,0-.38-.47l.1.35-.31-.26a1,1,0,0,1,.16.43,1.12,1.12,0,0,1-.38-.08c.19.2.29.5-.11.51-.28-.16,0-.26-.39-.22.11-.17.11-.39.35-.13a2.45,2.45,0,0,0,0-.27c-.26-.18-.21,0-.73,0a1,1,0,0,1,.34.07l-1.26.38c-.19-.1,0-.19.12-.27a6.35,6.35,0,0,1-.81.18c.1-.22.08-.45.61-.56l-1.2.25c-.08-.1-.62-.27-.46-.35-.66-.13-1.63.43-2.51.26a.68.68,0,0,1-.33.12c-.41,0-.8-.11-1.21-.14a6.56,6.56,0,0,0-.93,0,6.32,6.32,0,0,0-1.14.13c-.37-.13-.78-.27-1.23-.4-.67,0-.2.17.11.3s.49.28-.43.36h0c.12,1.47-.34.22-.45.67.1.47.25,1.08.34,1.67a6.84,6.84,0,0,1,.07.91,1.91,1.91,0,0,1-.12.67A4.44,4.44,0,0,1,101.71,60.17Zm.18,9.64c-.06-.19-.24-.55-.08-.69C102.13,69.33,102,69.49,101.89,69.81Zm.66,14.41a.64.64,0,0,1,.06-.59A1.4,1.4,0,0,1,102.55,84.22ZM90.32,66.54l0,0C90.23,67,90.27,66.83,90.32,66.54Zm.12-.85c0-.08-.07-.08-.11,0s.07.25,0,.47C90.45,66.06,90.5,66,90.44,65.69ZM112.31,47l.17.07C112.1,47.14,112.21,47.07,112.31,47Z"/><path class="cls-2" d="M102.17,82.58a.37.37,0,0,1,.15-.08C102.28,82.43,102.22,82.43,102.17,82.58Z"/><path class="cls-2" d="M107.07,56.8h0l0,0Z"/><path class="cls-2" d="M92.77,78.87a.79.79,0,0,1-.14.34C92.7,79.22,92.76,79.14,92.77,78.87Z"/><path class="cls-2" d="M90,61.19l.08.54a.89.89,0,0,1,.09-.49C90.07,61.25,90,61.36,90,61.19Z"/><path class="cls-2" d="M89.74,58.34c-.08,0-.17,0-.25,0l0,.13C89.82,58.5,90.09,58.4,89.74,58.34Z"/><path class="cls-2" d="M90.89,60.68c.23-.07.15-.32.11-.57v0C90.67,60.2,90.78,60.33,90.89,60.68Z"/><path class="cls-2" d="M91,60.05a1,1,0,0,1,0-.25C90.85,59.84,91,59.91,91,60.05Z"/><path class="cls-2" d="M90.29,64.61c.06-.18-.3-.11-.2-.21C89.79,64.2,90.44,65.61,90.29,64.61Z"/><path class="cls-2" d="M91.65,60.37l-.29.15a1.43,1.43,0,0,1,.23.2Z"/><path class="cls-2" d="M91.44,63.39l.08-.61s-.08-.07-.1-.17C91.41,63,91.36,63.4,91.44,63.39Z"/><path class="cls-2" d="M91.42,62.61a1.19,1.19,0,0,0,0-.49C91.38,62.23,91.39,62.46,91.42,62.61Z"/><polygon class="cls-2" points="91.74 61.21 91.68 61.39 91.66 61.82 91.74 61.21"/><path class="cls-2" d="M91.39,69.94l.08.67c.1.07.15-.11.12-.36S91.48,69.84,91.39,69.94Z"/><path class="cls-2" d="M92.17,67.93c-.06.18-.13.19-.22.29l.35,0Z"/><path class="cls-2" d="M92.25,69.87c.1.07.28,1,.26.12C92.41,69.93,92.33,69.26,92.25,69.87Z"/><polygon class="cls-2" points="91.8 79.9 91.8 79.73 91.22 79.76 91.8 79.9"/><path class="cls-2" d="M93.19,87.88c.14-.29-.36.08-.18-.24-.14-.07-.15.28-.26.23C92.89,88.06,92.81,88.18,93.19,87.88Z"/><path class="cls-2" d="M92.75,87.87l-.09-.1C92.69,87.84,92.72,87.86,92.75,87.87Z"/><polygon class="cls-2" points="81.34 46.7 80.83 46.57 81.16 46.77 81.34 46.7"/><path class="cls-2" d="M80.36,47.13l-.12-.37-.3.33C80.05,47.07,80.28,47,80.36,47.13Z"/><path class="cls-2" d="M101.14,71.22l.09,0c.1-.07.1-.19.12-.43Z"/><polygon class="cls-2" points="101.42 64.34 101.41 64.45 101.75 64.23 101.42 64.34"/><path class="cls-2" d="M101,56.61c0,.46.06,1.06.05,1.5C101,57,101.41,56.86,101,56.61Z"/></g></g></svg>