<svg xmlns="http://www.w3.org/2000/svg" viewBox="0 0 77.98 32.64"><defs><style>.cls-1{fill:#936037;}.cls-2{fill:none;}</style></defs><g id="Layer_2" data-name="Layer 2"><g id="Layer_1-2" data-name="Layer 1"><path class="cls-1" d="M1.06,1.1h8l4.69,10.2L18.43,1.1h8l-9,17.57V31.33h-7.2V18.67Z"/><path class="cls-2" d="M1.06,1.1h8l4.69,10.2L18.43,1.1h8l-9,17.57V31.33h-7.2V18.67Z"/><path class="cls-1" d="M.23,1.68c-.06-.15-.19,0-.23,0C.16,1.88.26,1.65.23,1.68Z"/><polygon class="cls-1" points="1.81 3.89 1.73 3.88 2.06 4.15 1.81 3.89"/><path class="cls-1" d="M3,6.13c.16-.35-.46-.79-.57-1.24l0-.09-.31-.07A7.94,7.94,0,0,1,3,6.13Z"/><path class="cls-1" d="M3,7.61c.06-.12.22.22-.11-.29v.06Z"/><path class="cls-1" d="M2.9,7.38c-.13-.23,0,.2,0,0Z"/><path class="cls-1" d="M3.52,8.44l-.25-.26c0,.09.1.38,0,.3C3.49,8.77,3.51,8.67,3.52,8.44Z"/><path class="cls-1" d="M3.86,8.64,3.74,8.5S3.74,8.58,3.86,8.64Z"/><path class="cls-1" d="M3.48,8.2l.26.3c0-.07.1-.12-.11-.15C3.72,8.34,3.61,8.31,3.48,8.2Z"/><path class="cls-1" d="M3.42,8c0-.2-.11-.44.14-.18C3.22,7.23,3.08,7.41,3.42,8Z"/><path class="cls-1" d="M3.29,6.1l0-.27-.19-.16C3.15,5.75,3.22,6.16,3.29,6.1Z"/><path class="cls-1" d="M4.38,10.44c.06,0,.09-.18.15-.24L4.35,10C4.37,10.14,4.45,10.39,4.38,10.44Z"/><path class="cls-1" d="M4.53,10.2l.28.3C4.66,10.18,4.58,10.15,4.53,10.2Z"/><polygon class="cls-1" points="4.18 8.54 3.69 8.08 4.24 8.65 4.18 8.54"/><polygon class="cls-1" points="5.05 11.76 4.82 11.63 5.19 11.88 5.05 11.76"/><path class="cls-1" d="M5.52,12.62c-.18-.09-.08.29-.23.17a2.14,2.14,0,0,0,.52.52A1.29,1.29,0,0,1,5.52,12.62Z"/><path class="cls-1" d="M6.08,13.55a2.18,2.18,0,0,0-.27-.24A1.05,1.05,0,0,0,6.08,13.55Z"/><path class="cls-1" d="M5.08,11.1a.42.42,0,0,0,0,.35l.09-.22Z"/><path class="cls-1" d="M5.15,11.22h0l.14.3Z"/><path class="cls-1" d="M5.06,11.06l0,0S5.09,11.06,5.06,11.06Z"/><path class="cls-1" d="M4.5,9.51c.19.16.5.53.43.06C4.75,9.48,4.79,9.75,4.5,9.51Z"/><path class="cls-1" d="M5.17,10.79,5,10.41s-.06.12-.16.05Z"/><polygon class="cls-1" points="5.32 10.95 5.17 10.79 5.23 10.93 5.32 10.95"/><path class="cls-1" d="M5.91,12.85a1.61,1.61,0,0,1,.35.48A4.22,4.22,0,0,0,6,12.68C5.92,12.67,5.79,12.63,5.91,12.85Z"/><path class="cls-1" d="M5.55,12.05l0,0S5.58,12,5.55,12.05Z"/><polygon class="cls-1" points="7.25 15.24 7.26 15.2 7.23 15.21 7.25 15.24"/><path class="cls-1" d="M6,12.63a.49.49,0,0,0-.23-.31,3.79,3.79,0,0,1,.22.36S6,12.67,6,12.63Z"/><path class="cls-1" d="M6.43,14.05c0-.1,0-.21,0-.32C6.37,13.83,6.38,14,6.43,14.05Z"/><path class="cls-1" d="M5.56,12.16v0C5.54,12.21,5.55,12.19,5.56,12.16Z"/><path class="cls-1" d="M5.56,12.16a1.46,1.46,0,0,0,.21.16,2.51,2.51,0,0,0-.19-.24A.19.19,0,0,1,5.56,12.16Z"/><path class="cls-1" d="M8.56,15.3c-.16,0-.51-.29-.53-.73-.29-.29-.66.18-.77.63.07,0,.13,0,.4.26,0-.17-.22-.89.07-.66.32.44.15.42.19.69.08-.29.58.47.79.23l-.31-.37S8.58,15.44,8.56,15.3Z"/><path class="cls-1" d="M6.92,14.5l-.09-.13A1.76,1.76,0,0,1,6.9,15c.2.21.28.23.33.23l-.35-.74Z"/><path class="cls-1" d="M6.49,13.7c.22,0,.47.36.53.05-.24-.43-.29-.24-.5-.46.4.68-.19-.16,0,.4-.1-.13-.17-.25-.24-.36a3.57,3.57,0,0,1,.12.4v0h0s0,0,0,0h.09c.07.22,0,.06-.08,0h0l.45.66A3.45,3.45,0,0,0,6.49,13.7Z"/><path class="cls-1" d="M5.46,9.76a.06.06,0,0,1,0,.05S5.5,9.85,5.46,9.76Z"/><path class="cls-1" d="M5.52,10.1a.4.4,0,0,1-.21-.22c0-.17.08,0,.13-.07-.1-.08-.3-.3-.21.06l0,0c.09.31.08.77,0,.74A1.41,1.41,0,0,0,5.52,10.1Z"/><path class="cls-1" d="M6.05,11.9l.38.55v-.37l-.08.06C6.2,11.79,6.14,11.91,6.05,11.9Z"/><polygon class="cls-1" points="7.21 15.35 7 15.36 7.41 15.58 7.21 15.35"/><polygon class="cls-1" points="7.62 16.1 7.46 16.15 7.65 16.3 7.62 16.1"/><path class="cls-1" d="M22.09,7.27l.05-.19A1.08,1.08,0,0,0,22.09,7.27Z"/><path class="cls-1" d="M21.44,8.51l.06.07C21.49,8.5,21.47,8.46,21.44,8.51Z"/><path class="cls-1" d="M15,32.37c.28.15.6.39.57.2l-.09-.18A1.22,1.22,0,0,1,15,32.37Z"/><path class="cls-1" d="M17.29,19.23l-.06.08.18.19Z"/><path class="cls-1" d="M16.55,19l.11-.51v0A2.23,2.23,0,0,0,16.55,19Z"/><path class="cls-1" d="M24.4,2.28l-.31.18A1.23,1.23,0,0,0,24.4,2.28Z"/><path class="cls-1" d="M9.14,24a2.73,2.73,0,0,0-.11.61C9.14,24.32,9.29,24.08,9.14,24Z"/><path class="cls-1" d="M23.54,8.63c0-.12,0-.18,0-.2C23.49,8.56,23.49,8.63,23.54,8.63Z"/><path class="cls-1" d="M9,25.31l.05-.13A2.52,2.52,0,0,1,9,24.61.89.89,0,0,0,9,25.31Z"/><path class="cls-1" d="M9.14,3.75s0,0,0-.06S9.12,3.72,9.14,3.75Z"/><path class="cls-1" d="M3.41.31h.34A1.36,1.36,0,0,0,3.41.31Z"/><path class="cls-1" d="M9,19H9s0,0,0,0Z"/><path class="cls-1" d="M9.35,18.09s.08,0,.11,0A.14.14,0,0,1,9.35,18.09Z"/><path class="cls-1" d="M10.15,27.12h0C10.19,27.08,10.18,27.09,10.15,27.12Z"/><path class="cls-1" d="M9,18.84a.29.29,0,0,0,0,.09A.14.14,0,0,0,9,18.84Z"/><path class="cls-1" d="M9,18.89v-.05S8.92,18.86,9,18.89Z"/><path class="cls-1" d="M9,19a.11.11,0,0,1,0-.08H9Z"/><path class="cls-1" d="M16.78,6l0,0C16.74,6.23,16.76,6.15,16.78,6Z"/><polygon class="cls-1" points="16.5 28.9 16.5 28.92 16.51 28.89 16.5 28.9"/><path class="cls-1" d="M16.36,28.25a.6.6,0,0,1,.15.64l.52-.21Z"/><path class="cls-1" d="M23.58,4.26l-.35.34c0-.62.28-.93-.12-.65.47.31-.76,1.61-.29,1.92l-.24.21c0-.07,0-.1.06-.17-.51.4.16.57-.25,1.21-.16.21-.32.34-.3.15L22,7.85c-.09.15-.16.07-.07-.08l-.37.82h0a3.21,3.21,0,0,1,0,.62c-.17.17,0-.13-.09-.11l-.1.51c-.22.11-.16-.32,0-.62-.71.16-.06.44-.81,1.17l.15-.45c-.42.13-.48.5-.9.88.15-.06.93-.71.81-.17a1,1,0,0,0-.25.6c-.18-.09-.27.18-.42.5l-.22-.14c-.11.38,0,.41,0,.67a.66.66,0,0,1-.65.36c-.35.59.51-.27.19.47a3.76,3.76,0,0,0-.61,1.55c-.26.31-.11-.14-.25-.05l0,.41c0,.08-.09,0-.11,0-.06.3.22.14.07.59.2.24-.82.66-.79,1.32-.13.1-.11-.13-.22-.14a5.73,5.73,0,0,0-.21,1.39,6.25,6.25,0,0,0-.48.55c.25-.25.32-.11.34.1s.19.45.28.64l.22-.33.14.71c0,.09-.13,0-.24-.11l.06.14c-.1.26-.25.12-.4-.06l.16-.27c-.16-.17-.34-.36-.49-.33a1,1,0,0,1,.07.26s-.08-.08-.11,0,0,.1.1.22l-.29.16.11,0-.18,1a7,7,0,0,1,.85,2.35c-.21-.26-.35-.05-.61-.07.28-.29-.11-.84-.06-1.4,0,.29-.15.23-.19.16l.25,1c-.21,0-.16.21-.25.47.42-.2.28.75.41,1.16-.14,0-.28-.08-.25-.57-.31.54.49.7.22,1.24,0-.12,0-.18,0-.23.12.28,0,1-.1.81v-.12c-.05.81,0,2.45.35,2.57a1.76,1.76,0,0,1-.5-.15l1.19,1.44c-.3-.13-1,.36-1.2-.31a1.52,1.52,0,0,0,0,.82c0-.11.43-.32.46-.13a3.7,3.7,0,0,1-.25.31.66.66,0,0,1-.21.22c.06-.08.53.25.52.53-.07-.08-.47-.32-.52-.41a4.44,4.44,0,0,1,.33.59.39.39,0,0,1-.05.14c.08-.08-.34-.39-.51-.52.1.09-.31,0-.39,0l.2.11c-.4-.07-.6.66-1.41.63.1-.09.26-.59-.18-.65a3.86,3.86,0,0,1-1.66,1.33l-.15-.13-.58.15a11.65,11.65,0,0,1,2-1.41c-.33-.11-.09-.16-.58-.15-.18-.12.26-.19.41-.2l-1.14-.08c.05.28-.87.28-.83.51l1.24-.29c.05.28-.73.79-1.51.74-.14-.11.12-.49.13-.58-.1.09-.46.18-.48.11l.22-.15c-.07-.05-.17,0-.31.1s-.3.13-.35.05l0-.1c0-.14.36-.5.2-.41-.32.27-1.3,1.22-1.54,1.09,0-.05.09-.43.18-.79a2.69,2.69,0,0,1,.28-.77c.12-.15.27,0,.42.08s.28.16.39.09c-.08,0-.17-.14-.2-.22s.23.08.2-.34c-.28-.08,0-.87-.24-.21-.08-.41.06-.44.05-.92-.19.15-.63-.44-.71-.86.08,0,.17-.07.21-.11,0-.85.16-1.31.16-2.1.07-.08.15-.46.27-.3a.88.88,0,0,1-.15-.46c.24-.47,0,.55.33.18-.16,0-.23-.63-.33-1-.25.11,0,.81.05,1.16-.35,0-.71-.61-.87-1.44-.09-.66.22-.28.17-.4.06-1.24-.61-1.05-.35-2.08.22-.41.44,0,.6-.11.08.54-.14.82-.13,1.19l.1-.45a1.26,1.26,0,0,1,.07.72c.2-.34,0-2.08.22-3.05a1.3,1.3,0,0,0-.15-.33s-.07,0-.08,0h0l0,.29c-.18.24-.25-.46-.33-.13l0-.09a2,2,0,0,1-.72-1l.18-.21c-.06,0,0,.4.18.5-.21-.16-.1-.93-.51-1l0,.44a3.21,3.21,0,0,1-.93-1.12c-.12.32.07.09,0,.55.18-.45.58,1.15.69.53-.13.49.16.64.13,1.2.06-.05.06-.23.22.17H9s0-.16.05-.2a1,1,0,0,1,.3.22l0,.18a1.37,1.37,0,0,0,.07.24c0,.26-.1-.1-.19,0l.15.34c-.19,0-.31.67-.42.07v.54a2,2,0,0,0-.06,1c-.05.25.2.64.06.42l.11.84H9.1a7.62,7.62,0,0,1,0,2.65,3.55,3.55,0,0,1,.05,1L9,26.3c0,.36-.16,1.08,0,1.23a1.5,1.5,0,0,0-.22,1.09l.05.69a5.53,5.53,0,0,1,0,.71L9,30a18.85,18.85,0,0,0,.13,2.22L9.33,32l0,.08a5.14,5.14,0,0,1,1.23,0l.74.07.4,0H12c-.07.07-.17,0-.42,0,1,.42,1.88-.3,2.7,0a.71.71,0,0,1,.48,0h0l.27.1a.64.64,0,0,0-.23-.1,4.1,4.1,0,0,0,.61-.08l.1.2h.05c.22.07.18-.1.06-.25A3.43,3.43,0,0,0,16,32a.66.66,0,0,0,.6.11,1.07,1.07,0,0,1,.75.13,2,2,0,0,1,.73-.16,2.41,2.41,0,0,0-.33-1.22c.05,0,.07-.06.07.1a2.44,2.44,0,0,0,0-1l.25-.12a4,4,0,0,0-.34-.6c.15-.34.24-.48.44-.14-.3-.81-.12-.66-.41-1.34l.16,0c0-.24-.23-.63-.09-.78.31-.55,0-2.7.33-4.11-.48.27.22-.65-.15-.71.11-.08.17-.27.27,0-.11-.71.18-1.07-.13-1.57.11-.08.17.16.23.08s-.1-.22,0-.3.1.11.15.22c0-.73-.37-.8-.7-.86.15-.36.13-.58-.09-.79.11-.1.23-.19.26.08l0-.21.12-.19a3.91,3.91,0,0,0,.18-.35c.1-.22.14-.4.06-.45.1,0,.18-.31.19-.39a10.48,10.48,0,0,0,.55-1.05l-.11.12c-.18-.34.15-.45.33-.87l0,0c.68-.82.11-.45.81-1.24l-.2,0c-.34-.28.64-.69.77-1.29l-.2.13c0-.35.93-.54,1.13-.81.07,0,0,.13,0,.23.62-.64-.18-.21.06-.81.18,0,.25.3.47-.07.19-.14.16-1.32.67-1.72-.16.07-.31.13-.25-.17s.93-.9.81-1.42c.06,0,.09-.05.12,0a4.85,4.85,0,0,0,.31-1.34c.76,0,.7-2.07,1.25-1.77l.46-1,.05.06a2.52,2.52,0,0,0,.3-.72A1.72,1.72,0,0,0,26,3.1c.15-.18.14,0,.16,0,.79-1.24.91-1.55.93-2.26l.38-.3a.23.23,0,0,1,0-.09A9.91,9.91,0,0,1,26.22.32a8.83,8.83,0,0,0-2,0,.34.34,0,0,1,.18-.09c-.2,0-.45,0-.63,0l-.46,0c-.3,0-.61-.08-.89-.12-.58-.08-1.06-.09-1.26.28l-.73.18c.94.06-.14.33.25.45-.37.05-1-.22-.5-.26l.07,0c.08-.19-.21-.22-.52-.24l-.23,0-.28,0c-.16,0-.28-.05-.28-.12H18l-.72,1.48L16.71,3c-.37.7-.74,1.39-1.07,2.09L16,5l-.27.55c-.13.11-.31.09-.11-.3-.26.14-.18.72-.12.76-.47.71-.18-.45-.3-.22l-.13.33.07,0a1.28,1.28,0,0,1-.13.85c-.19.27-.24.07-.3.19s-.05,0-.09.17l-.18.34-.12.23a.45.45,0,0,0,.3-.06c0,.29-.21.41.11.37-.26.06-.44.38-.61.74s-.33.8-.37.73v0c-.12.14-.27-.2-.41-.56,0,.16,0,.68-.21.24a1,1,0,0,0,.07-.77.86.86,0,0,1,0-.65c-.07.15-.13.06-.27-.18s-.33-.54-.39-.2c-.13-.4.18-.11.17-.46A26.67,26.67,0,0,1,11.32,4c-.08,0-.09.25-.3.06l.06-.74c-.13-.21-.47,0-.43-.54,0,.08-.07.21-.16.07-.1-.35-.23-.69-.36-1S9.71.86,9.5.4L7.76.44,6.47.46A10.25,10.25,0,0,1,3.89.14C4.22.28,4,.3,3.75.3c.16,0,0,.18,0,.28l-1-.27c-.19.27-1.1,0-1.2.28l.32,0c-.43.31.6.69.54,1.08.48-.35,1.26.52,2.05,0,.18.08-.15.13,0,.22a1,1,0,0,1,.89-.13l-.06,0a10.49,10.49,0,0,1,1.55.06l.74.09L8,2a2.35,2.35,0,0,1,.24,0,.67.67,0,0,0,0-.2A.26.26,0,0,1,8.42,2c.34-.3-.44,0-.18-.34a.43.43,0,0,0,.36.19c.07.19.16.37.21.54s.17.56.07.7c.19.43.15-.22.34.21l-.06.16.2,0c.1.29,0,.5-.06.55a1.75,1.75,0,0,0-.16-.25c0,.42.51,1,.53,1.14l-.12-.44a39.71,39.71,0,0,0,1.88,3.61l0-.13a3.54,3.54,0,0,1,.28.46,3.18,3.18,0,0,1,.15.43A6,6,0,0,0,12.42,10l0,0a2.35,2.35,0,0,1,.51.8c-.2-.18.22,1,0,.72.36.57.44.65.5.65a.45.45,0,0,1,.29-.1l.08.54h0a6.78,6.78,0,0,1,.37-1.4c-.2.76.23.06,0,1a4.65,4.65,0,0,0,.78-1.65c.17-.53.28-.85.61-1,0-1-.71,1-.6.53-.19.08,0-.84.21-1.14s.81-.44,1.15-1.2c0,.08,0,.1-.05.18.23-.25.13-.64.46-.93-.14-.31.23-.47,0-.66l-.27.75c.11-.44-.06-1,.42-1.59a1.24,1.24,0,0,1,0,.48c.18-.16.11-.41.3-.57.27.19-.34.91-.32,1.45.23-.15.17-.93.39-.56-.26-.51.41-.75.34-1.43l.17.12a1.25,1.25,0,0,1,.08-.47l.1.39c0-.52.56-.76.64-1.22-.39.87-.3.1-.6.4.24-1.16.76-.43,1.2-1.6,0,.1-.38.54-.34.23A1.27,1.27,0,0,1,19,2.45a.2.2,0,0,1,.15,0c.08-.26-.17-.1-.21-.31.12,0,.11,0,.09-.13a.22.22,0,0,1,.12-.2l.07.2c.24.06.23,0,.29-.14s.1-.2.55-.12L19.65,2l.47-.07-.1.23a2,2,0,0,1,1.17-.06c-.12-.14.06-.36.5-.37s-.17.19.46.16c-.14.13-.3.28-.57.1,0,.06-.14.12-.17.19a2.69,2.69,0,0,0,1.05,0,.79.79,0,0,1-.25,0l.91-.27c.14.07,0,.13-.08.19A5.91,5.91,0,0,1,23.62,2c-.07.16-.06.33-.44.4.27-.06.66-.12.67-.18s.06.2,0,.26.09,0,.24-.11.35-.14.36-.08a.54.54,0,0,1,.17-.07h0c-.08.11-.21.23-.28.32s-.09.13,0,.23a.88.88,0,0,1-.35,0c0,.05.11.08.21.08s.24,0,.17.23c-.21.62-.33.1-.51.27a1.9,1.9,0,0,1-.49,1.42A3.75,3.75,0,0,1,23.58,4.26Zm-3,6.14c0-.13,0-.43.18-.46C20.88,10.18,20.73,10.23,20.57,10.4ZM16.9,20.24a.49.49,0,0,1,.05-.43A1,1,0,0,1,16.9,20.24Zm-7.74.43h0C9.09,21,9.12,20.88,9.16,20.67Zm.09-.61c0-.07-.06-.06-.09,0a.48.48,0,0,1,0,.34C9.26,20.32,9.29,20.24,9.25,20.06ZM14.74,7.2l.1-.09C14.78,7.38,14.77,7.29,14.74,7.2Z"/><path class="cls-1" d="M16.63,19.06a.14.14,0,0,1,.11-.08C16.71,18.91,16.67,18.9,16.63,19.06Z"/><polygon class="cls-1" points="24.46 2.24 24.46 2.24 24.4 2.28 24.46 2.24"/><path class="cls-1" d="M10.94,29.57a.35.35,0,0,1-.1.21C10.89,29.77,10.93,29.78,10.94,29.57Z"/><path class="cls-1" d="M8.19,17.57l.22.32a.69.69,0,0,1-.1-.34S8.25,17.68,8.19,17.57Z"/><path class="cls-1" d="M7.72,14s-.06-.11-.11-.15l-.07.06C7.66,14.09,7.8,14.21,7.72,14Z"/><path class="cls-1" d="M8.61,16.94c.13-.1,0-.3-.18-.53l0,.05C8.2,16.49,8.41,16.72,8.61,16.94Z"/><path class="cls-1" d="M8.39,16.36a1.67,1.67,0,0,1-.12-.23C8.17,16.15,8.3,16.24,8.39,16.36Z"/><path class="cls-1" d="M9.14,19.28c0-.13-.22-.08-.15-.16C8.77,19,9.25,20,9.14,19.28Z"/><polygon class="cls-1" points="9 16.49 8.86 16.67 9.08 16.73 9 16.49"/><path class="cls-1" d="M9.86,18.48l-.15-.41s-.07,0-.12-.07C9.71,18.25,9.81,18.52,9.86,18.48Z"/><path class="cls-1" d="M9.59,18a1,1,0,0,0-.19-.3A2.86,2.86,0,0,0,9.59,18Z"/><polygon class="cls-1" points="9.33 17 9.35 17.13 9.48 17.41 9.33 17"/><path class="cls-1" d="M9.93,23.12l.06.48c.07,0,.12-.08.09-.26S10,23.05,9.93,23.12Z"/><path class="cls-1" d="M10.5,21.67c0,.13-.09.14-.16.21l.26,0Z"/><path class="cls-1" d="M10.56,23.07c.07.05.2.7.19.09C10.68,23.11,10.62,22.63,10.56,23.07Z"/><path class="cls-1" d="M10.23,30.27v-.11l-.42.14A3,3,0,0,0,10.23,30.27Z"/><path class="cls-1" d="M15.48,30.22c-.57-.11-.14.26-.65.13-.13.1.42.1.28.19C15.46,30.43,15.64,30.49,15.48,30.22Z"/><path class="cls-1" d="M15.11,30.54l-.17.06A.44.44,0,0,0,15.11,30.54Z"/><polygon class="cls-1" points="2.07 0.09 1.71 0 1.94 0.14 2.07 0.09"/><path class="cls-1" d="M1.37.4,1.28.13,1.06.38C1.15.36,1.31.34,1.37.4Z"/><path class="cls-1" d="M19.62,11.06l.05,0c.08,0,.13-.09.22-.23Z"/><polygon class="cls-1" points="22.07 6.74 22.03 6.81 22.32 6.78 22.07 6.74"/><path class="cls-1" d="M23.7,2.89c-.08.15-.13.35-.21.5C23.62,3,24,3,23.7,2.89Z"/><path class="cls-1" d="M26.38,1.1H34L44,17.83V1.1h7.73V31.33H44l-9.93-16.6v16.6h-7.7Z"/><path class="cls-2" d="M26.38,1.1H34L44,17.83V1.1h7.73V31.33H44l-9.93-16.6v16.6h-7.7Z"/><path class="cls-1" d="M25.37,1.29c0-.24-.16-.15-.19-.19C25.22,1.51,25.41,1.28,25.37,1.29Z"/><polygon class="cls-1" points="25.76 5.28 25.69 5.21 25.86 5.79 25.76 5.28"/><path class="cls-1" d="M25.76,9c.29-.35-.05-1.35.06-2l.06-.11-.24-.3A18,18,0,0,1,25.76,9Z"/><path class="cls-1" d="M25.12,11c.11-.13.1.43,0-.47l0,.09C25.13,10.69,25.13,10.8,25.12,11Z"/><path class="cls-1" d="M25.13,10.61c0-.4-.1.25,0,0Z"/><path class="cls-1" d="M25.19,12.42l-.1-.52c-.07.11-.08.57-.13.4C25,12.83,25.08,12.72,25.19,12.42Z"/><path class="cls-1" d="M25.41,12.91l-.05-.27S25.33,12.76,25.41,12.91Z"/><path class="cls-1" d="M25.27,12.07l.09.57c.05-.07.15-.08,0-.26C25.42,12.43,25.33,12.31,25.27,12.07Z"/><path class="cls-1" d="M25.32,11.75c.06-.29.1-.66.2-.14C25.48,10.62,25.28,10.76,25.32,11.75Z"/><path class="cls-1" d="M26.06,9.19l.09-.39-.1-.33C26.1,8.64,26,9.21,26.06,9.19Z"/><path class="cls-1" d="M25,15.64c.06,0,.17-.18.25-.22L25.21,15C25.17,15.24,25.13,15.61,25,15.64Z"/><path class="cls-1" d="M25.29,15.42l.1.58C25.41,15.49,25.36,15.39,25.29,15.42Z"/><polygon class="cls-1" points="25.73 13 25.51 12.06 25.74 13.18 25.73 13"/><polygon class="cls-1" points="25.03 17.82 24.89 17.49 25.11 18.07 25.03 17.82"/><path class="cls-1" d="M25.06,19.26c-.12-.24-.21.33-.28.08a3.82,3.82,0,0,0,.22,1A2.7,2.7,0,0,1,25.06,19.26Z"/><path class="cls-1" d="M25.13,20.88c0-.16-.08-.33-.13-.51A1.91,1.91,0,0,0,25.13,20.88Z"/><path class="cls-1" d="M25.36,17a.78.78,0,0,0-.18.45l.18-.23Z"/><path class="cls-1" d="M25.37,17.18h0v.49Z"/><path class="cls-1" d="M25.36,16.91V17S25.39,16.93,25.36,16.91Z"/><path class="cls-1" d="M25.57,14.5c.1.33.21,1,.36.35C25.81,14.61,25.72,15,25.57,14.5Z"/><path class="cls-1" d="M25.59,16.63l0-.6c-.05,0-.12.12-.17-.05Z"/><polygon class="cls-1" points="25.64 16.93 25.59 16.63 25.57 16.86 25.64 16.93"/><path class="cls-1" d="M25.3,19.84a3.88,3.88,0,0,1,.09.87,9.37,9.37,0,0,0,.06-1.05C25.39,19.62,25.29,19.47,25.3,19.84Z"/><path class="cls-1" d="M25.35,18.55v.06S25.38,18.54,25.35,18.55Z"/><polygon class="cls-1" points="25.39 23.9 25.42 23.85 25.39 23.83 25.39 23.9"/><path class="cls-1" d="M25.48,19.61a1.18,1.18,0,0,0-.06-.57c0,.2,0,.4,0,.62C25.47,19.69,25.49,19.69,25.48,19.61Z"/><path class="cls-1" d="M25.21,21.77a4.57,4.57,0,0,0,.1-.46C25.26,21.45,25.17,21.72,25.21,21.77Z"/><path class="cls-1" d="M25.31,18.69v0C25.26,18.74,25.28,18.73,25.31,18.69Z"/><path class="cls-1" d="M25.31,18.69a1.6,1.6,0,0,0,.11.35c0-.16,0-.31-.06-.43Z"/><path class="cls-1" d="M26.53,24.86c-.17,0-.32-.73-.14-1.32-.13-.58-.66-.2-1,.31.08,0,.14,0,.24.61.09-.21.21-1.33.36-.82.08.79-.06.65-.15,1,.21-.33.3,1,.6.83l-.11-.69C26.41,24.8,26.48,25.06,26.53,24.86Z"/><path class="cls-1" d="M25.44,22.7l0-.24a3.44,3.44,0,0,1-.22.85c.08.41.14.5.19.52l0-1.21Z"/><path class="cls-1" d="M25.42,21.35c.18.19.25.78.45.42,0-.72-.15-.51-.23-.94,0,1.17-.1-.33-.2.51,0-.23,0-.44-.05-.63,0,.21-.05.41-.08.6v0h0c0-.05,0-.06,0,0v0a.18.18,0,0,1,.07.05c0,.34-.05,0-.07-.05l0,0h0l.1,1.17A9.85,9.85,0,0,0,25.42,21.35Z"/><path class="cls-1" d="M26.31,15.48s0,0,0,0S26.31,15.62,26.31,15.48Z"/><path class="cls-1" d="M26.21,16a.71.71,0,0,1-.08-.43c.05-.24.08,0,.14,0,0-.17-.13-.59-.21-.06l0,.08a2.28,2.28,0,0,1-.31,1A1.56,1.56,0,0,0,26.21,16Z"/><path class="cls-1" d="M25.86,18.69l.09,1,.15-.49-.09,0C26,18.64,25.93,18.76,25.86,18.69Z"/><polygon class="cls-1" points="25.3 24.01 25.11 23.88 25.38 24.44 25.3 24.01"/><polygon class="cls-1" points="25.32 25.27 25.16 25.23 25.26 25.56 25.32 25.27"/><path class="cls-1" d="M50.75,17.32l0-.28A2.6,2.6,0,0,0,50.75,17.32Z"/><path class="cls-1" d="M50.74,19.4l.08.05C50.78,19.35,50.75,19.31,50.74,19.4Z"/><path class="cls-1" d="M35.25,18.69c.2.64.34,1.34.25.82L35.39,19S35.31,18.87,35.25,18.69Z"/><path class="cls-1" d="M46.69,31.29l-.12-.05-.28.17Z"/><path class="cls-1" d="M47,30.55l.55.12A2.92,2.92,0,0,0,47,30.55Z"/><path class="cls-1" d="M50.56,6l-.18-.34C50.38,6.19,50.47,6,50.56,6Z"/><path class="cls-1" d="M33.77,32.32c.55.06,1,.09,1.4.1v-.16l0,.14C34.39,32.3,33.87,32.18,33.77,32.32Z"/><path class="cls-1" d="M52.66,18.14c0-.17-.07-.25-.11-.24C52.58,18.08,52.62,18.18,52.66,18.14Z"/><path class="cls-1" d="M35.17,30.51l0,.3c0,.45,0,.92,0,1.45A4.87,4.87,0,0,0,35.17,30.51Z"/><path class="cls-1" d="M37.14,8.31l0-.09S37.1,8.26,37.14,8.31Z"/><path class="cls-1" d="M29.85.31h.49A2.82,2.82,0,0,0,29.85.31Z"/><path class="cls-1" d="M25.25,30.81c0-.45,0-.06,0,0Z"/><path class="cls-1" d="M26,29.06c0,.06,0,.1.08.11A.15.15,0,0,1,26,29.06Z"/><path class="cls-1" d="M34.05,27.52v0Z"/><path class="cls-1" d="M25.33,30.11c0,.17,0,.37,0,.59C25.29,30.6,25.31,30.42,25.33,30.11Z"/><path class="cls-1" d="M25.24,30.22l0-.4C25.23,29.76,25.21,29.81,25.24,30.22Z"/><path class="cls-1" d="M25.26,31.45a6.15,6.15,0,0,1,0-.75c0,.09,0,.14,0,.11Z"/><path class="cls-1" d="M44.56,7.53l0,.06C44.61,7.86,44.6,7.74,44.56,7.53Z"/><polygon class="cls-1" points="38.76 20.93 38.74 20.91 38.75 20.94 38.76 20.93"/><path class="cls-1" d="M39.37,21.69a1.31,1.31,0,0,1-.62-.75l-.28.54Z"/><path class="cls-1" d="M50.7,12.36l-.16.68c-.26-.82-.17-1.41-.4-.77.56.09.06,2.63.62,2.72l-.12.45c0-.13,0-.15,0-.28-.27.87.41.65.33,1.77-.05.39-.13.66-.2.39l.14.87c0,.26-.11.19-.09-.06l0,1.33h0a8,8,0,0,1,.29.82c-.08.34-.06-.16-.13-.08l.13.74c-.14.29-.28-.31-.26-.82-.56.68.14.61-.19,2.09l-.07-.7c-.32.45-.2,1-.4,1.77.1-.18.5-1.56.64-.77a2.14,2.14,0,0,0,.05.95c-.2,0-.15.43-.14.95l-.27,0c.08.56.22.52.33.85a1,1,0,0,1-.4.91c0,1,.33-.7.38.5a8.34,8.34,0,0,0,.16,2.44c-.09.59-.16-.1-.23.11l.21.53c0,.09-.07,0-.1,0,.08.21.26,0,.33.47.14.12.05.33,0,.48-.39-.11-.65-.22-.87-.05-.12-.07,0-.16,0-.26l-.09,0-.18,0-.29.05-.39.08a7.12,7.12,0,0,0-.91.25l-.82-.17c.6.19-.17.43-.85.62.22.1.4.18.52.22l-1.08.14c-.13,0,0-.13.16-.24l-.2.06c-.39-.09-.19-.25.09-.4l.39.17c.27-.16.52-.34.46-.5a1.67,1.67,0,0,1-.35.08c.07-.05.11-.09.08-.11s-.15,0-.33.09l-.24-.29-.06.12-.71-.1a4.73,4.73,0,0,1-.59-.09,3.46,3.46,0,0,1-.44.23,4.86,4.86,0,0,1-1.78-1.75c.39.23.35-.11.58-.22a1.38,1.38,0,0,0,.41.79l.37.45c.06.07.12.16.18.24a1.29,1.29,0,0,1,.09.16c-.11-.24,0-.24.09-.22L43.38,29c.2-.08,0-.35-.15-.73-.2.47-.8-.8-1.22-1.26.1-.1.29-.05.64.6-.15-.86-.95-.65-1.13-1.47.09.15.12.25.22.27-.32-.3-.76-1.23-.54-1.08l.1.15c-.57-1-1.86-3.12-2.26-3.09a1.82,1.82,0,0,1,.55-.06l-2.11-1.21c.35,0,.6-1,1.26-.22a3.39,3.39,0,0,0-.65-1.06c.06.19-.13.64-.29.43a3,3,0,0,0-.11-.68l-.08-.27-.26-.71c.17.41-.42.34-.66-.09.09,0,.22-.54.38-.38a6.08,6.08,0,0,0-1-.73c.2.17.14-.53-.05-1.11.08.32-.78-1.32-1-1.62l.39.86c-.49-.89-.68-.9-.8-.75s-.16.39-.51-.22a9,9,0,0,0-.75-2.5s0,0,0,.06c.12.65.4,2.12.68,3.4s.56,2.38.65,2.91a1.49,1.49,0,0,0-.14-.12l.16.83A14.22,14.22,0,0,1,34,16.74c-.27-1.18-.53-2.73-.68-3.83-.11.4-.16-.28-.15.9-.13.09-.19-1.17-.2-1.58L32.85,15c.28.45.28,2.63.51,2.77l-.29-3.32a10.32,10.32,0,0,1,.49,2,11.07,11.07,0,0,1,.25,2.35c-.05.12-.18,0-.3-.28a4.92,4.92,0,0,0-.29-.58,8,8,0,0,1,.12,1.94L33.19,19a5.2,5.2,0,0,0,.11,1.39,1.69,1.69,0,0,1,0,1c0,.28-.36.82-.19.87.32-.45,1.3-.54,1.54-.24a15,15,0,0,1-.46,1.76c-.25.46-.6-.68-.81-.29.08,0,.17.27.2.37-.07.29-.24-.12-.2.51.28.1,0,1.28.24.3a9.48,9.48,0,0,1,0,1.37c.18-.23.62.65.7,1.26-.07,0-.16.1-.21.17,0,.63,0,1.12-.08,1.59s-.07.91-.07,1.42c-.07.07-.15.45-.27.16l.09.28a.52.52,0,0,1-.28.06c-.69-.24.57,0-.08-.33.14.16-.45.23-.88.33.13.24,1,.07,1.26,0l0-.11a.78.78,0,0,1,.19.27c.05.14-.07.28-.41.4a4,4,0,0,1-.65.17l-.78.12c-1,.09-.42-.22-.59-.17-1.84-.07-1.56.61-3.09.35-.6-.22,0-.44-.16-.6a11.55,11.55,0,0,1,1.76.13l-.66-.1a2.72,2.72,0,0,1,1.07-.07c-.42-.18-2.65-.07-3.91-.17,0-.18,0-.34.05-.48s-.15-.58-.24-.34l0,.45c-.18.6-.25-.82-.33-.12-.06-.31-.15-.79-.2-1.15a4,4,0,0,1,0-1.15l.25-.16c-.08,0-.15.55-.07.79-.12-.36.34-1.3,0-1.68l-.18.59a6.61,6.61,0,0,1-.32-2.1c-.25.34,0,.17-.26.71.36-.47,0,1.91.37,1.17-.34.55-.15.94-.44,1.66.09,0,.16-.29.12.41a.63.63,0,0,1,.07.22v0s0,0,0,0,0-.24.06-.31a.31.31,0,0,1,.07-.12.77.77,0,0,1,.06.15l0,.29c0,.21.05.45.07.68a8.44,8.44,0,0,0,.11,1.11l0,.14c.1,0,0,0-.06.06s-.07-.15-.11,0v.05l.79-.14c-.11.19,1.39.31-.1.42h1.32c.47,0,.64.09.93.1a3.18,3.18,0,0,0,.72,0c.38,0,.94-.2.62-.06l1.24-.11v0c.49,0,.91,0,1.49-.08.79,0,1.55-.07,2.39,0a12.33,12.33,0,0,1,.14-1.43l-.06-1.08a5.13,5.13,0,0,1,0-.87l.16-.13c-.06-.53.16-1.59,0-1.82.44-.57.1-2.57.17-3.5l-.21,0a14,14,0,0,0-.13-2.05l-.18.05a2.61,2.61,0,0,1-.05-.58c0-.1,0-.25,0-.31l0-.18a2.46,2.46,0,0,0,.11-.65c.07.12,0,.2,0,.24.21-.06.13-.27,0-.75s-.19-1.15,0-.91a1.07,1.07,0,0,1,0-.33c0,.06.06.15.1.25a0,0,0,0,0,0,0l0,0,.17.47-.15-.45c0,.07.09.12.15.11l.14.63h0c.09.29,0-.16-.11-.64a.23.23,0,0,0,.08-.12c.09.47.13.48.18.53s.14.13.17.51c.06-.22.41.45.72.27,0,0,0,.13-.08,0a2,2,0,0,0,.46.73l-.13.27.71.52c.12.51.15.73-.27.41.87.86.59.77,1.36,1.48l-.16,0c.19.31.68.69.67.95.15.86,2,3.46,2.84,5.39.2-.59.31.94.67.82,0,.16.06.44-.2.2.11.15.21.3.29.43l.26.46c.21.39.39.74.6,1.06a4.13,4.13,0,0,0,1-.15c.17.12-.4.17-.24.24a1.76,1.76,0,0,1,.72,0s0,.05-.08.08l-.46.06.58,0,.28-.05a1.17,1.17,0,0,0,.37-.16.69.69,0,0,0,.25-.47,1.34,1.34,0,0,0,1.22-.08c.19.11.51.22-.16.26.38,0,2.31.16,2.35-.11a1.34,1.34,0,0,0,.63,0l1.12,0h1.17l-.34-.05a.28.28,0,0,1,.21-.15c-.06-.37.07-.68,0-1.32l0,0,.06-.6,0-.32a1,1,0,0,0,0-.32,3.32,3.32,0,0,1,.09-1.09l-.2.09c-.42-.14.26-1.35.09-2.23l-.11.32c-.15-.49.58-1.35.63-1.83,0-.11.06.16.09.31.25-1.27-.26-.16-.32-1.11.14-.17.36.23.38-.41.12-.32-.45-1.84-.18-2.71-.11.19-.22.38-.3-.06,0-.67.41-1.82.07-2.42,0-.09.05-.12.08-.12a10.86,10.86,0,0,0-.33-2c.69-.48-.33-3.2.3-3.19l0-1.58.06,0a3.35,3.35,0,0,0-.26-1.72c0-.23.1-.06.13,0a6.06,6.06,0,0,0-.21-2.86l.2-.13a25.82,25.82,0,0,0,.09-3.59.29.29,0,0,1,.09.16,8.65,8.65,0,0,1,0-1.24c0-.49,0-1,.07-1.55-.83,0-1.7-.12-2.45-.12a1.29,1.29,0,0,0-1,.33L48.08.61c1.39.06-.21.33.36.45C47.9,1.11,47,.84,47.7.8l.11,0c.24-.38-1.73-.13-1.7-.4l-2.79,0,0,2.14-.06,1.52c0,1-.07,1.95-.08,2.9l.3-.3v.9c-.08.23-.24.31-.23-.33a1.4,1.4,0,0,0,.21,1.09c-.12,1.25-.35-.49-.36-.1l0,.52,0-.12a2.63,2.63,0,0,1,.24,1.23c-.06.48-.19.24-.2.44,0,0,0,.06,0,.29l0,1.13.24-.46c.12.5,0,1.06.26.54a3.64,3.64,0,0,0-.25,1.54,5,5,0,0,1,0,1.22,7.94,7.94,0,0,1,.16,1.34c-.09-.14-.2-.33-.31-.54.1.27.38,1.26,0,.61a4.84,4.84,0,0,0-.42-1.44,3.73,3.73,0,0,1-.39-1.17c.14.75-.56-.81-.48.06-.2-.41.08-.27,0-.63a7.3,7.3,0,0,1-1-1.71A24.31,24.31,0,0,0,39.6,8.77c-.07,0,0,.33-.31.05l-.17-1c-.22-.29-.53-.07-.65-.76,0,.11,0,.28-.16.09a30.74,30.74,0,0,0-1.79-3.21l-1-1.57-.48-.79L34.4.45l-1.23,0L32.29.37A17.27,17.27,0,0,1,30.55.14c.49.14.17.16-.21.16.25,0,0,.18.05.28L28.88.31c-.28.27-1.62,0-1.78.28l.48,0c-.63.31.89.69.8,1.08.71-.35,1.87.52,3,0,.26.08-.22.13-.08.22a2,2,0,0,1,1.31-.13l-.07,0c.65,0,.8,0,1.06,0l.47,1c.24.46.5,1,.83,1.63L35,4.16a2.78,2.78,0,0,1,.26.72c.52.29-.63-1.09-.1-.86,0,.72,1.61,2.73,1.43,3.3.35.6.09-.29.44.31v.22l.23.07c.21.4.19.67.11.74a3.79,3.79,0,0,0-.25-.35,10.58,10.58,0,0,0,1,1.59l-.27-.6c.53.78,1.06,1.68,1.59,2.57.27.44.54.88.82,1.3l.57.87c.2.3.39.58.58.83l-.06-.28a8,8,0,0,1,.92,1.49,15.27,15.27,0,0,0,1,1.76h0a3.15,3.15,0,0,1,.74,1c-.21-.15.7,1.58.41,1.33.24.31.38.49.47.59-.09-1.13-.13-.9-.4-2.74a1.1,1.1,0,0,0,.16.15,12,12,0,0,1-.26-2.07c.07.52.13.52.19.51s.14,0,.22.67a10.26,10.26,0,0,0,0-2.71,3.11,3.11,0,0,1,.13-1.75c-.42-1.15-.23,1.83-.32,1.2-.07.17-.15-.12-.21-.47a6,6,0,0,1-.07-1.08c0-.63.55-.9.54-2.21,0,.13,0,.13,0,.26.1-.48-.15-.94,0-1.53-.26-.33,0-.77-.32-.86l.08,1.18a5.91,5.91,0,0,1-.28-2.4,2.87,2.87,0,0,1,.2.64c.09-.32-.07-.62,0-1,.33.1.07,1.44.32,2.15.14-.34-.23-1.35.12-1-.45-.52.06-1.27-.29-2.14l.2.06A3.12,3.12,0,0,1,44.82,5l.26.46c-.22-.7.19-1.36.07-2,0,1.41-.24.31-.38.91a1.86,1.86,0,0,1,.14-1.4L45,2.7a.76.76,0,0,0,.09-.09.28.28,0,0,0,.07-.27c0,.07-.12.23-.21.06s.07-.18.13-.2l.15.09c.15,0,.13-.07.05-.14S45.07,2,45.16,2c.35.24.11-.09.67-.17V2c1.48.13.4-.42,1.72-.26L47,2l.69-.07-.14.23a4.4,4.4,0,0,1,1.73-.06c-.17-.14.1-.36.75-.37.23.06.12.11.14.14s0,0,.26,0a2.61,2.61,0,0,1-.2.17.13.13,0,0,1-.09,0A.8.8,0,0,1,49.85,2c0,.06-.2.12-.24.19a1.56,1.56,0,0,0,.84,0s-.08,0-.09,0A3.5,3.5,0,0,1,50.87,2a.44.44,0,0,1,.08.11c-.07.16-.13.12-.19.1s.11.11.13.3c-.16,0-.33,0-.41,0a.35.35,0,0,1,.09.11l0,.08a.42.42,0,0,1,0,.06l0,.16c-.07.08-.19.65-.25.49-.09.71.32,1.74.19,2.68a.84.84,0,0,1,.08.34,9.87,9.87,0,0,0,0,2.72l-.29.59c.07.82.37-.8.48.57.09,1-.25.36-.33.7a4,4,0,0,1,.21,2.2A5.43,5.43,0,0,1,50.7,12.36Zm.13,10.12c0-.19-.17-.58,0-.73C51,22,50.9,22.15,50.83,22.48ZM45.2,30.91a1,1,0,0,1,.63,0A2,2,0,0,1,45.2,30.91ZM28.35,32.3h0C28.81,32.37,28.66,32.34,28.35,32.3Zm-1.2-.09c-.15,0-.15.06-.1.09a2.5,2.5,0,0,1,.8,0C27.75,32.2,27.59,32.17,27.15,32.21ZM43.21,10.4l.06-.18C43.32,10.62,43.27,10.51,43.21,10.4Z"/><path class="cls-1" d="M47,30.64a.18.18,0,0,1,.08.1C47.11,30.71,47.11,30.67,47,30.64Z"/><path class="cls-1" d="M50.6,6.07V6s0,0,0,0Z"/><path class="cls-1" d="M33.27,23.9a1.07,1.07,0,0,1,.1-.36S33.28,23.61,33.27,23.9Z"/><path class="cls-1" d="M25.16,27.59l.05.58a1.59,1.59,0,0,1,.06-.52S25.16,27.77,25.16,27.59Z"/><path class="cls-1" d="M26.39,22.54c0-.09,0-.18,0-.27l-.1,0C26.28,22.66,26.35,22.91,26.39,22.54Z"/><path class="cls-1" d="M25.82,27.05c.17-.05.11-.41.08-.82v.07C25.67,26.18,25.74,26.62,25.82,27.05Z"/><path class="cls-1" d="M25.89,26.14c0-.13,0-.26,0-.38S25.87,25.91,25.89,26.14Z"/><path class="cls-1" d="M25.38,32.19c.05-.35-.21,0-.14-.26-.09-.08-.06.26,0,.54.53-.07,1-.2.15-.15Z"/><polygon class="cls-1" points="26.37 26.72 26.17 26.87 26.33 27.09 26.37 26.72"/><path class="cls-1" d="M26.22,30l.06-.67s-.06-.08-.07-.18C26.2,29.5,26.16,30,26.22,30Z"/><path class="cls-1" d="M26.21,29.11a1.92,1.92,0,0,0,0-.52C26.18,28.7,26.18,29,26.21,29.11Z"/><polygon class="cls-1" points="26.44 27.61 26.39 27.8 26.38 28.26 26.44 27.61"/><path class="cls-1" d="M32,31.53l.73-.06c.07-.07-.14-.12-.4-.09S31.87,31.46,32,31.53Z"/><path class="cls-1" d="M29.83,31a.68.68,0,0,1,.32.16l0-.26Z"/><path class="cls-1" d="M31.9,30.9c.08-.07,1-.21.14-.19C32,30.78,31.25,30.84,31.9,30.9Z"/><polygon class="cls-1" points="33.97 22.8 33.98 22.98 34.4 22.95 33.97 22.8"/><path class="cls-1" d="M34.16,12.69c-.8-1.54,0,.52-.72-.94-.07.07.59,1.18.49,1.18C34.24,13.25,34.51,13.82,34.16,12.69Z"/><path class="cls-1" d="M33.93,12.93a.58.58,0,0,0-.15-.13C33.87,12.9,33.91,12.93,33.93,12.93Z"/><polygon class="cls-1" points="27.87 0.09 27.33 0 27.68 0.14 27.87 0.09"/><path class="cls-1" d="M26.83.4,26.7.13l-.32.25A.85.85,0,0,1,26.83.4Z"/><path class="cls-1" d="M50.29,24l.06,0c.07-.08.08-.21.09-.46Z"/><polygon class="cls-1" points="50.49 16.64 50.49 16.77 50.73 16.53 50.49 16.64"/><path class="cls-1" d="M50.18,10.48c0,.25,0,.54,0,.8C50.17,10.73,50.48,10.41,50.18,10.48Z"/><path class="cls-1" d="M51.74,1.1H77.09V8.57h-8.5V31.33H60.24V8.57h-8.5Z"/><path class="cls-2" d="M51.74,1.1H77.09V8.57h-8.5V31.33H60.24V8.57h-8.5Z"/><path class="cls-1" d="M50.73,1.23c0-.16-.16-.1-.19-.13C50.58,1.38,50.77,1.22,50.73,1.23Z"/><polygon class="cls-1" points="51.12 3.94 51.05 3.89 51.23 4.29 51.12 3.94"/><path class="cls-1" d="M51.12,6.48c.3-.24,0-.92.06-1.37L51.24,5,51,4.83A9.16,9.16,0,0,1,51.12,6.48Z"/><path class="cls-1" d="M50.48,8.5c.12-.21.1.46,0-.58l0,.12Z"/><path class="cls-1" d="M50.49,8c0-.48-.1.35,0,0Z"/><path class="cls-1" d="M51,9.75l-.47.07,0-.18a1.33,1.33,0,0,0-.05.26c.17,0,.39,0,.21.09C51.34,9.93,51.22,9.86,51,9.75Z"/><path class="cls-1" d="M51.68,9.54l-.33,0S51.46,9.62,51.68,9.54Z"/><path class="cls-1" d="M50.63,9.67l.72-.09c-.05-.05,0-.14-.31,0C51.16,9.52,51,9.61,50.63,9.67Z"/><path class="cls-1" d="M50.68,9.26c.06-.39.1-.8.21-.33C50.85,7.93,50.64,8.15,50.68,9.26Z"/><path class="cls-1" d="M51.43,6.6l.08-.26-.1-.23C51.46,6.23,51.33,6.62,51.43,6.6Z"/><path class="cls-1" d="M54.16,9.9c0-.06-.12-.16-.14-.24l-.26.07C53.89,9.77,54.14,9.81,54.16,9.9Z"/><path class="cls-1" d="M54,9.66l.38-.11C54.06,9.54,54,9.59,54,9.66Z"/><polygon class="cls-1" points="51.98 9.21 50.87 9.43 50.87 9.42 50.87 9.43 52.15 9.2 51.98 9.21"/><polygon class="cls-1" points="55.64 9.91 55.42 10.06 55.82 9.84 55.64 9.91"/><path class="cls-1" d="M56.63,9.89c-.16.12.22.2,0,.27a2.12,2.12,0,0,0,.7-.21A1.43,1.43,0,0,1,56.63,9.89Z"/><path class="cls-1" d="M57.73,9.81a2,2,0,0,0-.35.14A1.28,1.28,0,0,0,57.73,9.81Z"/><path class="cls-1" d="M55.07,9.58a.39.39,0,0,0,.3.18l-.15-.18Z"/><path class="cls-1" d="M55.21,9.58h0Z"/><path class="cls-1" d="M55,9.58h0S55,9.56,55,9.58Z"/><path class="cls-1" d="M53.39,9.37c.22-.1.7-.21.24-.36C53.46,9.13,53.73,9.22,53.39,9.37Z"/><path class="cls-1" d="M54.84,9.36l-.41,0s.08.11,0,.16Z"/><polygon class="cls-1" points="55.04 9.3 54.84 9.36 54.99 9.37 55.04 9.3"/><path class="cls-1" d="M57,9.65a1.59,1.59,0,0,1,.59-.1,4.24,4.24,0,0,0-.71-.05C56.87,9.55,56.77,9.65,57,9.65Z"/><path class="cls-1" d="M56.14,9.6h0S56.14,9.57,56.14,9.6Z"/><polygon class="cls-1" points="59.08 9.55 59.09 9.52 59.07 9.55 59.08 9.55"/><path class="cls-1" d="M56.86,9.46a.5.5,0,0,0-.38.07,2.77,2.77,0,0,1,.42,0S56.92,9.45,56.86,9.46Z"/><path class="cls-1" d="M58.33,9.73a2.26,2.26,0,0,0-.31-.1C58.11,9.69,58.3,9.77,58.33,9.73Z"/><path class="cls-1" d="M56.24,9.63h0C56.27,9.68,56.27,9.66,56.24,9.63Z"/><path class="cls-1" d="M56.24,9.63a1,1,0,0,0,.24-.1,1.33,1.33,0,0,0-.3.06Z"/><path class="cls-1" d="M60.4,8.63c-.06,0-.12,0-.17-.05a.9.9,0,0,1-.69,0c-.46.13-.35.67-.45,1,.06-.07.08-.14.39-.24,0-.09-.41-.21-.09-.35s.34,0,.38.11l0,.08c.21-.4.3.27.6,0l-.11-.4C60.28,8.68,60.35,8.8,60.4,8.63Z"/><path class="cls-1" d="M58.78,9.5l-.07,0a.24.24,0,0,1,.13.22,1.34,1.34,0,0,0,.23-.19l-.32,0Z"/><path class="cls-1" d="M58.05,9.52c.13-.18.53-.25.28-.44-.49,0-.34.14-.63.22.79,0-.23.1.34.2a3.8,3.8,0,0,1-.43.05l.41.08h0s0,0,0,0h0a.25.25,0,0,1,0-.07c.23,0,0,.05,0,.07v0h0l.4,0a1.59,1.59,0,0,0,.31-.05A3.13,3.13,0,0,0,58.05,9.52Z"/><path class="cls-1" d="M54.05,8.63a0,0,0,0,1,0,0C54.13,8.65,54.15,8.63,54.05,8.63Z"/><path class="cls-1" d="M54.38,8.74a.42.42,0,0,1-.29.07c-.17-.05,0-.08,0-.14s-.4.13,0,.21l.05,0c.32.06.74.28.68.31A1.18,1.18,0,0,0,54.38,8.74Z"/><path class="cls-1" d="M56.24,9.08,56.9,9l-.34-.16,0,.09C56.2,8.9,56.28,9,56.24,9.08Z"/><path class="cls-1" d="M59,9.64l-.16.19a2.39,2.39,0,0,1,.33-.27Z"/><path class="cls-1" d="M59.2,9.78,59,9.89h.1Z"/><path class="cls-1" d="M67.6,13.37l0-.2A1.73,1.73,0,0,0,67.6,13.37Z"/><path class="cls-1" d="M67.59,14.78l.08,0C67.63,14.75,67.6,14.72,67.59,14.78Z"/><path class="cls-1" d="M59.21,30.49c-.15.49-.39,1.24-.2,1.06l.18-.26A3.42,3.42,0,0,1,59.21,30.49Z"/><path class="cls-1" d="M68.55,26.33l-.06.08.17.19Z"/><path class="cls-1" d="M67.8,26.13l.12-.37A1.77,1.77,0,0,0,67.8,26.13Z"/><path class="cls-1" d="M71.49,7.39l.22-.18C71.36,7.21,71.52,7.3,71.49,7.39Z"/><path class="cls-1" d="M59.26,17.86a2.83,2.83,0,0,0-.11.61C59.26,18.18,59.41,17.94,59.26,17.86Z"/><path class="cls-1" d="M69.51,13.92c0-.12-.07-.17-.11-.16S69.47,14,69.51,13.92Z"/><path class="cls-1" d="M59.15,19.18l.05-.13a2.61,2.61,0,0,1-.05-.58A.92.92,0,0,0,59.15,19.18Z"/><path class="cls-1" d="M62.24,2.13l-.06,0S62.2,2.13,62.24,2.13Z"/><path class="cls-1" d="M54.1.31h.34A1.36,1.36,0,0,0,54.1.31Z"/><path class="cls-1" d="M59.12,12.5c0-.18,0,0,0,0Z"/><path class="cls-1" d="M59.83,11.62a.11.11,0,0,0,.08.07S59.84,11.65,59.83,11.62Z"/><path class="cls-1" d="M60.27,21h0C60.31,21,60.3,21,60.27,21Z"/><path class="cls-1" d="M59.2,12.23a1.55,1.55,0,0,0-.05.23A1.82,1.82,0,0,0,59.2,12.23Z"/><path class="cls-1" d="M59.11,12.27l0-.16S59.08,12.1,59.11,12.27Z"/><path class="cls-1" d="M59.13,12.76a1,1,0,0,1,0-.3s0,0,0,0Z"/><path class="cls-1" d="M76.55,1.72l0,0,0,0c-.06,0-.06,0,0,0Z"/><polygon class="cls-1" points="63.86 30.5 63.84 30.51 63.86 30.52 63.86 30.5"/><path class="cls-1" d="M64.51,30.37a.63.63,0,0,1-.65.14l.22.52Z"/><path class="cls-1" d="M67.55,9.88a3,3,0,0,1-.16.57,3,3,0,0,1-.21-.94c0-.22-.08-.23-.19.18.14,0,.21.35.25.54a3.84,3.84,0,0,1,.06.62c0,.45,0,.9.31.93l-.12.3c0-.08,0-.1,0-.18-.27.59.4.44.32,1.2,0,.26-.12.45-.19.27l.14.59c0,.17-.11.13-.1,0l0,.9h0a4.25,4.25,0,0,1,.29.56c-.09.23-.06-.11-.13,0l.13.5c-.14.2-.29-.21-.26-.56-.57.47.14.42-.19,1.42l-.07-.47c-.32.3-.21.67-.4,1.2.1-.12.5-1.06.64-.52a.9.9,0,0,0,0,.65c-.2,0-.15.28-.14.64l-.27,0c.08.38.21.35.33.58a.63.63,0,0,1-.4.62c0,.69.33-.48.38.34a3.92,3.92,0,0,0,.16,1.66c-.09.4-.16-.07-.23.07l.21.36c0,.09-.07.06-.11,0,.09.3.27,0,.34.5.29.13-.43,1-.09,1.55-.08.14-.17-.07-.27,0a6.1,6.1,0,0,0,.45,1.35l-.17.56c.2-.42.43.11.63.57.09-.15.18-.27.22-.35l.14.73c0,.09-.14,0-.25-.11l.07.14c-.1.26-.25.13-.4-.06l.16-.27c-.16-.18-.34-.35-.49-.31a.87.87,0,0,1,.07.24c0-.05-.08-.08-.11-.06s0,.11.1.23l-.3.16.12,0-.19,1A7.09,7.09,0,0,1,68.55,30c-.22-.28-.35-.09-.61-.16a.17.17,0,0,0,.1-.17,1.47,1.47,0,0,0-.05-.34,2.58,2.58,0,0,1-.11-.8c0,.29-.15.23-.19.15l.24,1c-.21,0-.15.12-.24.21.4,0,.28.51.39.89h0A.47.47,0,0,1,68,30.7a.51.51,0,0,1-.1-.4c-.13,0-.07.14,0,.32s0,.35-.29.2c.08,0,.14,0,.13-.06-.12.13-.65,0-.55-.09h.07a9.85,9.85,0,0,0-1.38,0c-.53,0-1,.15-1,.32a1.8,1.8,0,0,1,.15-.49L63.53,31.7c.12-.3-.37-1,.31-1.19a1.68,1.68,0,0,0-.84,0c.13.05.33.44.15.47a4.09,4.09,0,0,0-1-.47c.2.06,0,.54-.33.52,0-.07,0-.46.09-.51a5.06,5.06,0,0,1-.64.46c.19-.08.16-.39.16-.52,0,.08-.25,0-.38,0a0,0,0,0,1,0,0l0,.07a.22.22,0,0,0,.05.08H61c-.07-.25-.65,0-.63-.78.09.1.59.13.65-.18A3.78,3.78,0,0,1,59.66,28l.13-.14-.15-.59a11.75,11.75,0,0,1,1.41,2c.1-.33.16-.09.14-.58.13-.18.2.26.21.41l.08-1.15c-.28.06-.28-.87-.51-.83l.29,1.25c-.28.05-.79-.72-.75-1.53.12-.21.5.15.59.13a1.57,1.57,0,0,1-.11-.84l.15.34c.1-.45-.37-.73-.11-1.28,0-.18.36-.55.2-.59a1.66,1.66,0,0,1-1.54.16,7,7,0,0,1,.46-1.19c.25-.31.59.46.81.2-.08,0-.17-.18-.2-.25s.23.08.2-.35c-.28-.07,0-.87-.24-.2-.08-.42.06-.45,0-.94-.18.16-.62-.44-.7-.86.08,0,.17-.07.21-.11,0-.86.16-1.32.16-2.12.07-.07.15-.46.27-.29a.92.92,0,0,1-.15-.47c.24-.48,0,.55.33.19-.17,0-.23-.64-.33-1-.25.11,0,.81.05,1.16-.35,0-.71-.61-.87-1.44-.09-.67.22-.29.17-.41.06-1.24-.61-1.06-.35-2.09.22-.42.44,0,.6-.11.08.54-.14.83-.13,1.19l.1-.45a1.29,1.29,0,0,1,.07.73c.2-.34,0-2.11.22-3.07-.07-.17-.15-.46-.24-.32l0,.3c-.18.28-.25-.57-.33-.19a2.81,2.81,0,0,1-.23-1.44l.26-.11c-.08,0-.15.38-.08.54-.11-.24.35-.88,0-1.14l-.18.4-.24-.67c-.07-.16-.12-.21-.08-.35-.25.18,0,.07-.26.25.09,0,.13,0,.16,0a.15.15,0,0,1,0,.07v.23c0,.3,0,.58.19.32-.34.37-.15.65-.44,1.13.09,0,.16-.17.12.26a.2.2,0,0,1,.07.09v0s0,0,0,0a.49.49,0,0,1,.13-.22c.19.21.19.89.28,1.12s-.09-.1-.18,0l.15.35c-.19,0-.31.67-.42.07v.54a2.12,2.12,0,0,0-.07,1c0,.26.21.64.06.42l.12.85h-.05a7.74,7.74,0,0,1,0,2.67,3.6,3.6,0,0,1,0,1l-.16.09c0,.36-.16,1.08,0,1.23-.43.39-.09,1.75-.17,2.38l.21,0a8.17,8.17,0,0,0,.13,1.39l.19,0a10.78,10.78,0,0,1-.11,1.93c-.07-.05-.06-.23,0-.37-.42.88.3,1.86,0,2.66a1,1,0,0,1,0,.57.19.19,0,0,0,0-.08V30l-.1.47a1.94,1.94,0,0,0,.1-.4,8.77,8.77,0,0,0,.08.93l-.2.27v.08c-.07.43.1.23.25-.06a1.07,1.07,0,0,0,.12.36.85.85,0,0,0-.13.48c.31,0,.73-.12.84.11.33-.17,1.87-.13,1.84-.48,0,0,.08.07,0,.07a1.29,1.29,0,0,0,.73,0l.11.25.56-.34c.33.16.47.25.14.44.81-.3.66-.11,1.34-.41l0,.17c.25,0,.64-.23.79-.1a2.94,2.94,0,0,0,1.14.17l2.45,0a14.32,14.32,0,0,1,.13-1.78c-.24.14-.19-.08-.12-.37s.15-.48,0-.53c.12-.08.18-.27.28-.05-.11-.72.18-1.08-.13-1.58.11-.08.16.16.23.08s-.1-.22,0-.3.1.11.14.22c0-.74-.37-.81-.7-.86A.67.67,0,0,0,69,26c.11-.13.22-.35.26.11,0-.26.16-1.57-.1-1.6.06-.08,0-.36,0-.43,0-.58,0-.63,0-1.19l0,.15c-.32-.22-.08-.47-.11-.93l0,0c.23-1.05-.11-.46.15-1.49l-.2.06c-.42-.1.25-.92.09-1.52l-.11.22c-.15-.33.58-.92.63-1.25,0-.07.06.11.09.21.25-.86-.26-.11-.32-.75.14-.12.36.15.38-.28.11-.22-.45-1.25-.19-1.84-.1.13-.21.26-.29,0,0-.46.41-1.24.07-1.65,0-.06.05-.08.08-.08a5.34,5.34,0,0,0-.33-1.35c.68-.32-.33-2.18.3-2.17l0-.61.07.06a.78.78,0,0,0,0-.34c.08,0,.09-.14.12-.23s.09.1.11.13a1.39,1.39,0,0,0,.59.06A3.78,3.78,0,0,0,71.11,9l.08.2c.23-.12,1.46.33,2.44.09a.17.17,0,0,1-.11.09,5.49,5.49,0,0,1,1.8.1l.23,0h.32a3.65,3.65,0,0,0,.58,0c.35,0,.57-.12.59-.31l.6-.13-.06-.34a1.42,1.42,0,0,1,0,.26c-.48,0-.29-.16-.27-.27s-.1-.2-.14-.14h0c0-.37.23-.84.27-.31l0,.06c.39.5.14-1.39.4-1.33,0-1,0-1.86.1-2.77l.07-1.35L78,2l0-1a5.66,5.66,0,0,1-.31.48l0-.84.06-.17s0-.09.12-.12a.87.87,0,0,1,0,.41.93.93,0,0,0,0-.49,2.91,2.91,0,0,0-.85.24C76.55.43,76.69.34,77,.27s.7-.14.5-.14l-.59,0,.11,0a3.64,3.64,0,0,1-1.33.24c-.43-.06-.2-.19-.35-.2,0,0,0,0-.2,0l-.77,0,.31.24c-.34.12-.72,0-.37.26C73.77.27,71.43.54,71.12.41a3.81,3.81,0,0,1-1.53.15c.14,0,.23.32-.27.29C69.5.29,68.4.61,68,.21c.37.26-1.42.06-.85.44-.42-.05,0-.21-.35-.34C65.8.53,64.6.17,63.36.24c0,.08.19.19-.07.3L62.64.17c-.25,0-.23.42-.67.17.06.06.15.15,0,.18C59.55.16,57,.81,54.58.14c.33.14.11.16-.14.16.16,0,0,.18,0,.28l-1-.27c-.19.27-1.1,0-1.21.28l.33,0c-.43.31.6.69.54,1.08.48-.35,1.27.52,2.07,0,.17.08-.15.13-.06.22a1,1,0,0,1,.9-.13l0,0A25.23,25.23,0,0,1,59.18,2l-.1-.2a1.39,1.39,0,0,1,.51.14c.35-.3-.86,0-.54-.34.41.39,2.16,0,2.43.46.47,0-.14-.23.33-.23l.13.12.12-.15c.3,0,.46.17.47.28a1.55,1.55,0,0,0-.29,0,5.07,5.07,0,0,0,1.26,0l-.45-.07c1.28-.12,2.85.05,4.09-.2l-.1-.1c.95-.17.76.1,1.8,0l0,0a1.86,1.86,0,0,1,.77-.13c-.26.11.5.21.15.33,1-.18.51-.14,1.19-.49l.15.16a1.15,1.15,0,0,1,.77-.26c-.42.14.33.24-.14.41,1.08.34,1.61-.34,2.11.15.5-.42-.94-.23-.66-.32-.24-.14.41-.32.75-.28s.59.55,1.47.54c-.09,0-.09,0-.18,0,.38.1.48-.15.65,0,.25-.25.23,0,.53-.31l-.55.08a4.08,4.08,0,0,1,1-.33,1.16,1.16,0,0,1,0,.47c-.07,0-.15-.1-.2-.15-.1.22.06.23,0,.44s-.18-.1-.19-.28a.72.72,0,0,0-.43.12c0,.11.32-.08.34,0a.37.37,0,0,1-.11.1l-.05.05,0,0c.19-.13.17,0,.15.15s-.06.24.1.37h-.19l.07.08a.8.8,0,0,1,.05.26c-.09-.09-.17-.25-.26-.27.22.4-.19.9-.07,1.34,0-1,.24-.21.38-.62.26,1.19-.51.68-.42,2,0-.18.12-.67.21-.39a2.39,2.39,0,0,1-.22.74c0,.88.2-.14.32.24-.24.3.1.43.18.82h-.2a.71.71,0,0,0,0,.22.11.11,0,0,0,0,.08.45.45,0,0,0,.13.1c.1.06.2.13.12.37a2,2,0,0,0-.28-.34l.07.25L76,7.31a.7.7,0,0,1,.11.32,1.59,1.59,0,0,1-.28-.06c.15.14.22.36-.07.37s0-.19-.29-.16c.08-.13.08-.28.26-.1a1.11,1.11,0,0,0,0-.19c-.19-.14-.15,0-.53,0a.79.79,0,0,1,.25,0l-.91.27c-.15-.07,0-.13.08-.19a5.91,5.91,0,0,1-.58.13c.07-.16,0-.33.43-.41l-.87.18c-.05-.07-.44-.19-.33-.25-.48-.09-1.18.32-1.82.19a.49.49,0,0,1-.24.08c-.3,0-.58-.07-.88-.1a6.62,6.62,0,0,0-.68,0,7.64,7.64,0,0,0-.82.1L68,7.21c-.49,0-.15.12.08.22s.36.2-.31.26h0c.08,1.07-.25.16-.33.49.07.34.18.78.24,1.21a2.89,2.89,0,0,1,0,.66,1.11,1.11,0,0,1-.09.48A3.72,3.72,0,0,1,67.55,9.88Zm.13,7c0-.14-.17-.4-.05-.5C67.86,16.53,67.75,16.65,67.68,16.88Zm.48,10.46a.5.5,0,0,1,0-.42A.9.9,0,0,1,68.16,27.34ZM59.28,14.51h0C59.21,14.82,59.24,14.71,59.28,14.51Zm.09-.62c0-.06-.06-.06-.09,0s.06.18,0,.34C59.37,14.15,59.41,14.07,59.37,13.89ZM75.25.3l.12,0C75.1.41,75.18.36,75.25.3Z"/><path class="cls-1" d="M67.89,26.16A.17.17,0,0,1,68,26.1C68,26.05,67.92,26.05,67.89,26.16Z"/><path class="cls-1" d="M71.44,7.43h0s0,0,0,0Z"/><path class="cls-1" d="M61.06,23.46a.78.78,0,0,1-.1.25S61.05,23.66,61.06,23.46Z"/><path class="cls-1" d="M59,10.61l0,.4a.81.81,0,0,1,.06-.36S59,10.74,59,10.61Z"/><path class="cls-1" d="M58.86,8.55c-.06,0-.13,0-.18,0v.09C58.91,8.66,59.11,8.59,58.86,8.55Z"/><path class="cls-1" d="M59.69,10.25c.17-.06.11-.23.08-.42v0C59.54,9.9,59.61,10,59.69,10.25Z"/><path class="cls-1" d="M59.76,9.79a1.08,1.08,0,0,1,0-.18C59.67,9.64,59.74,9.69,59.76,9.79Z"/><path class="cls-1" d="M59.25,13.11c0-.14-.21-.09-.14-.16C58.89,12.8,59.37,13.82,59.25,13.11Z"/><path class="cls-1" d="M60.24,10l-.2.11.16.15Z"/><path class="cls-1" d="M60.09,12.21l.06-.44s-.06,0-.07-.12C60.07,11.92,60,12.22,60.09,12.21Z"/><path class="cls-1" d="M60.08,11.65a.94.94,0,0,0,0-.36A2.63,2.63,0,0,0,60.08,11.65Z"/><polygon class="cls-1" points="60.31 10.63 60.26 10.76 60.25 11.07 60.31 10.63"/><path class="cls-1" d="M60.05,17l.06.48c.07.05.12-.08.09-.26S60.12,16.9,60.05,17Z"/><path class="cls-1" d="M60.62,15.51c0,.13-.09.14-.16.22h.26Z"/><path class="cls-1" d="M60.68,16.92c.07,0,.2.71.19.09C60.8,17,60.74,16.48,60.68,16.92Z"/><polygon class="cls-1" points="60.35 24.21 60.35 24.09 59.93 24.11 60.35 24.21"/><path class="cls-1" d="M61.36,30c.1-.21-.26.06-.13-.18-.1,0-.1.2-.19.17C61.15,30.14,61.09,30.22,61.36,30Z"/><path class="cls-1" d="M61,30,61,29.93A.14.14,0,0,0,61,30Z"/><polygon class="cls-1" points="52.75 0.09 52.38 0 52.62 0.14 52.75 0.09"/><path class="cls-1" d="M52.05.4,52,.13l-.22.25A.41.41,0,0,1,52.05.4Z"/><path class="cls-1" d="M67.14,17.9l.06,0c.07-.06.08-.14.09-.32Z"/><polygon class="cls-1" points="67.34 12.9 67.33 12.99 67.58 12.83 67.34 12.9"/><path class="cls-1" d="M67,7.29c0,.33,0,.77,0,1.09C67,7.6,67.33,7.47,67,7.29Z"/></g></g></svg>