<svg xmlns="http://www.w3.org/2000/svg" viewBox="0 0 115.21 115.21"><defs><style>.cls-1{fill:#f6babf;}.cls-2{fill:#f6f6f6;}.cls-3{fill:none;}</style></defs><g id="Layer_2" data-name="Layer 2"><g id="Layer_1-2" data-name="Layer 1"><circle class="cls-1" cx="57.61" cy="57.61" r="57.61"/><path class="cls-2" d="M9,42.3h9.67L24.3,54.66,30,42.3h9.62l-11,21.28V78.92H19.93V63.58Z"/><path class="cls-3" d="M9,42.3h9.67L24.3,54.66,30,42.3h9.62l-11,21.28V78.92H19.93V63.58Z"/><path class="cls-2" d="M7.94,43c-.07-.18-.23,0-.27,0C7.86,43.24,8,43,7.94,43Z"/><polygon class="cls-2" points="9.86 45.68 9.76 45.67 10.16 46 9.86 45.68"/><path class="cls-2" d="M11.25,48.39c.19-.42-.55-1-.69-1.49l0-.12-.37-.09A9.39,9.39,0,0,1,11.25,48.39Z"/><path class="cls-2" d="M11.31,50.19c.08-.15.27.26-.13-.36v.08C11.21,50,11.25,50.05,11.31,50.19Z"/><path class="cls-2" d="M11.18,49.91c-.16-.28,0,.24,0,0Z"/><path class="cls-2" d="M11.93,51.19l-.31-.32c0,.12.13.46,0,.37C11.89,51.59,11.92,51.47,11.93,51.19Z"/><path class="cls-2" d="M12.34,51.43l-.14-.17C12.18,51.31,12.2,51.37,12.34,51.43Z"/><path class="cls-2" d="M11.88,50.9l.32.36c0-.08.12-.14-.14-.17C12.17,51.07,12,51,11.88,50.9Z"/><path class="cls-2" d="M11.81,50.64c0-.25-.13-.54.17-.22C11.57,49.72,11.4,49.94,11.81,50.64Z"/><path class="cls-2" d="M11.65,48.36,11.6,48l-.23-.19C11.49,47.94,11.56,48.43,11.65,48.36Z"/><path class="cls-2" d="M13,53.62c.08,0,.11-.22.19-.29l-.22-.24C13,53.26,13.06,53.55,13,53.62Z"/><path class="cls-2" d="M13.16,53.33l.33.35C13.31,53.3,13.22,53.26,13.16,53.33Z"/><polygon class="cls-2" points="12.73 51.31 12.13 50.76 12.8 51.44 12.73 51.31"/><polygon class="cls-2" points="13.78 55.21 13.5 55.05 13.95 55.35 13.78 55.21"/><path class="cls-2" d="M14.35,56.25c-.22-.11-.1.35-.27.21a2.43,2.43,0,0,0,.62.62A1.55,1.55,0,0,1,14.35,56.25Z"/><path class="cls-2" d="M15,57.38c-.1-.1-.21-.19-.34-.3A1.43,1.43,0,0,0,15,57.38Z"/><path class="cls-2" d="M13.82,54.41a.48.48,0,0,0,0,.42l.11-.26Z"/><path class="cls-2" d="M13.9,54.56h0l.17.36Z"/><path class="cls-2" d="M13.8,54.36l0,0S13.83,54.37,13.8,54.36Z"/><path class="cls-2" d="M13.12,52.49c.23.19.61.64.52.06C13.42,52.45,13.47,52.78,13.12,52.49Z"/><path class="cls-2" d="M13.93,54l-.18-.46c-.05,0-.08.15-.2.05Z"/><polygon class="cls-2" points="14.1 54.22 13.93 54.04 14 54.21 14.1 54.22"/><path class="cls-2" d="M14.82,56.53a1.83,1.83,0,0,1,.43.58,5.48,5.48,0,0,0-.33-.79C14.84,56.32,14.68,56.26,14.82,56.53Z"/><path class="cls-2" d="M14.39,55.57l0,0S14.42,55.54,14.39,55.57Z"/><polygon class="cls-2" points="16.45 59.43 16.46 59.38 16.43 59.38 16.45 59.43"/><path class="cls-2" d="M14.93,56.26a.61.61,0,0,0-.28-.38c.09.14.18.28.27.44C15,56.32,15,56.32,14.93,56.26Z"/><path class="cls-2" d="M15.46,58a2.79,2.79,0,0,0-.07-.38C15.38,57.72,15.39,58,15.46,58Z"/><path class="cls-2" d="M14.41,55.69l0,0C14.37,55.75,14.39,55.73,14.41,55.69Z"/><path class="cls-2" d="M14.41,55.69a.84.84,0,0,0,.24.19,3.42,3.42,0,0,0-.22-.28S14.42,55.67,14.41,55.69Z"/><path class="cls-2" d="M18,59.5c-.19.06-.61-.35-.64-.88-.35-.36-.79.22-.93.76.09,0,.16-.07.49.31,0-.2-.28-1.08.07-.79.39.53.19.5.24.83.09-.35.7.57.95.28l-.37-.45S18.06,59.67,18,59.5Z"/><path class="cls-2" d="M16.05,58.54l-.11-.17a2.23,2.23,0,0,1,.08.74c.24.26.34.28.41.27L16,58.49Z"/><path class="cls-2" d="M15.52,57.56c.27,0,.57.43.64.06-.28-.52-.35-.29-.59-.56.48.83-.24-.19,0,.48a4.65,4.65,0,0,1-.29-.43,3.32,3.32,0,0,1,.14.49v0h0s0-.07,0,0h0a.27.27,0,0,1,.09,0c.09.27,0,.07-.09,0h0l.54.8A4.89,4.89,0,0,0,15.52,57.56Z"/><path class="cls-2" d="M14.28,52.8a0,0,0,0,1,0,.05C14.31,52.89,14.33,52.9,14.28,52.8Z"/><path class="cls-2" d="M14.35,53.21a.49.49,0,0,1-.25-.28c0-.2.09,0,.15-.08-.11-.1-.35-.36-.25.07l.06,0a1.67,1.67,0,0,1,0,.89A1.5,1.5,0,0,0,14.35,53.21Z"/><path class="cls-2" d="M15,55.38l.46.66,0-.44-.09.07C15.18,55.24,15.1,55.39,15,55.38Z"/><polygon class="cls-2" points="16.39 59.56 16.14 59.57 16.64 59.83 16.39 59.56"/><polygon class="cls-2" points="16.89 60.47 16.7 60.53 16.93 60.71 16.89 60.47"/><path class="cls-2" d="M34.42,49.77l.06-.23C34.45,49.65,34.43,49.72,34.42,49.77Z"/><path class="cls-2" d="M33.64,51.27l.06.09C33.69,51.26,33.67,51.21,33.64,51.27Z"/><path class="cls-2" d="M25.88,80.16c.35.19.73.48.69.25l-.11-.21A1.19,1.19,0,0,1,25.88,80.16Z"/><path class="cls-2" d="M28.6,64.26l-.06.1.21.23Z"/><path class="cls-2" d="M27.7,64l.14-.62h0A3.7,3.7,0,0,0,27.7,64Z"/><path class="cls-2" d="M37.21,43.73a3.28,3.28,0,0,0-.37.22A2,2,0,0,0,37.21,43.73Z"/><path class="cls-2" d="M18.74,70a2.82,2.82,0,0,0-.13.73C18.73,70.42,18.92,70.13,18.74,70Z"/><path class="cls-2" d="M36.17,51.42q0-.21,0-.24C36.11,51.33,36.11,51.43,36.17,51.42Z"/><path class="cls-2" d="M18.61,71.62l.05-.15a2.63,2.63,0,0,1-.05-.7A1,1,0,0,0,18.61,71.62Z"/><path class="cls-2" d="M18.74,45.52a.25.25,0,0,1,0-.08S18.71,45.47,18.74,45.52Z"/><path class="cls-2" d="M11.8,41.35l.4,0A1.51,1.51,0,0,0,11.8,41.35Z"/><path class="cls-2" d="M18.56,63.92h0s0,0,0,0Z"/><path class="cls-2" d="M19,62.87a.13.13,0,0,0,.13,0A.14.14,0,0,1,19,62.87Z"/><path class="cls-2" d="M20,73.81v0C20,73.76,20,73.77,20,73.81Z"/><path class="cls-2" d="M18.61,63.79a.44.44,0,0,0,0,.1A.16.16,0,0,0,18.61,63.79Z"/><path class="cls-2" d="M18.52,63.84v-.06S18.46,63.81,18.52,63.84Z"/><path class="cls-2" d="M18.57,64a.3.3,0,0,1,0-.1v0h0Z"/><path class="cls-2" d="M28,48.24l0,0C27.93,48.51,28,48.41,28,48.24Z"/><polygon class="cls-2" points="27.64 75.97 27.65 75.99 27.66 75.96 27.64 75.97"/><path class="cls-2" d="M27.48,75.18a.75.75,0,0,1,.18.78l.63-.26Z"/><path class="cls-2" d="M36.23,46.13l-.43.41c0-.75.34-1.12-.14-.79.57.38-.93,2-.36,2.33l-.29.26c.05-.09,0-.12.08-.21-.62.48.19.69-.31,1.46-.19.26-.38.41-.36.18l-.17.71c-.11.18-.19.08-.08-.1l-.45,1h0a4.7,4.7,0,0,1,0,.75c-.22.2,0-.15-.11-.13l-.13.61c-.27.14-.19-.38,0-.74-.86.19-.08.52-1,1.42l.18-.55c-.51.15-.59.61-1.1,1.07.19-.08,1.13-.87,1-.21a1.18,1.18,0,0,0-.3.72c-.22-.11-.32.22-.5.61l-.28-.17c-.13.46,0,.5,0,.81a.8.8,0,0,1-.78.44c-.42.71.62-.33.22.57a4.53,4.53,0,0,0-.73,1.87c-.32.38-.14-.17-.3,0l0,.49c-.05.09-.11,0-.13,0-.08.37.27.18.09.72.24.3-1,.8-1,1.6-.16.12-.14-.16-.27-.17a6.4,6.4,0,0,0-.25,1.69,7.85,7.85,0,0,0-.59.67c.31-.31.39-.15.42.12s.23.53.33.77l.27-.4.17.85c-.05.11-.16,0-.29-.12l.07.16c-.12.32-.3.15-.48-.07l.2-.32c-.2-.21-.41-.44-.6-.41a1.5,1.5,0,0,1,.09.32c-.06-.06-.1-.09-.14-.07s0,.13.12.27l-.35.2.14,0-.23,1.15a8.54,8.54,0,0,1,1,2.86c-.26-.32-.43-.07-.74-.09.33-.35-.14-1-.07-1.69,0,.35-.18.27-.24.18l.3,1.22c-.25,0-.19.25-.29.57.5-.24.33.91.49,1.4-.17,0-.34-.09-.3-.69-.38.66.59.86.27,1.51,0-.15,0-.23-.07-.28.15.34,0,1.18-.11,1v-.15c-.06,1,0,3,.42,3.12a2.41,2.41,0,0,1-.6-.19l1.44,1.74c-.37-.15-1.24.44-1.45-.37a1.88,1.88,0,0,0,0,1c0-.14.53-.39.56-.17-.2.31-.26.3-.3.39a.76.76,0,0,1-.26.25c.08-.09.65.32.63.66-.08-.11-.56-.39-.62-.51a5.85,5.85,0,0,1,.39.72,1.09,1.09,0,0,1-.05.17c.09-.1-.42-.48-.62-.64.12.11-.39,0-.48,0l.25.13c-.49-.09-.73.79-1.72.76.13-.11.32-.71-.22-.78a4.71,4.71,0,0,1-2,1.61l-.18-.17-.71.19A13.76,13.76,0,0,1,24.7,78c-.39-.14-.11-.2-.7-.18-.21-.16.32-.24.5-.25l-1.38-.1c.06.34-1.05.34-1,.62l1.49-.35c.07.34-.87,1-1.82.9-.17-.14.14-.6.15-.71-.12.11-.55.22-.58.14l.27-.18c-.09-.06-.21,0-.37.11s-.37.16-.43.06l.05-.12c0-.17.44-.61.24-.49-.39.33-1.58,1.47-1.86,1.32,0-.07.1-.53.21-1a3.8,3.8,0,0,1,.34-.93c.15-.19.33,0,.51.1s.34.19.47.1c-.09,0-.2-.17-.24-.26s.28.09.24-.42c-.34-.09,0-1-.29-.24-.09-.51.07-.54.06-1.13-.22.19-.75-.53-.85-1,.09,0,.2-.09.25-.14,0-1,.19-1.58.19-2.55.08-.08.18-.55.33-.35a1.11,1.11,0,0,1-.18-.56c.29-.58,0,.66.4.22-.2,0-.28-.76-.4-1.19-.31.13-.06,1,.06,1.4-.42,0-.86-.73-1.06-1.74-.1-.8.28-.34.22-.48.07-1.5-.74-1.28-.44-2.52.27-.5.54,0,.73-.14.1.65-.17,1-.16,1.44l.13-.54a1.55,1.55,0,0,1,.08.88c.24-.42.05-2.53.27-3.7a1.24,1.24,0,0,0-.19-.4s-.08,0-.09,0v0l0,.34c-.21.29-.3-.55-.4-.15l0-.11a2.37,2.37,0,0,1-.86-1.19l.21-.26c-.07.06.05.49.22.62-.25-.19-.12-1.13-.62-1.23l0,.53a3.83,3.83,0,0,1-1.12-1.35c-.14.39.09.11,0,.66.22-.54.7,1.4.83.65-.16.59.2.77.16,1.45.08-.07.08-.27.27.2h.1s0,0,0,0,0-.19.05-.24a1.36,1.36,0,0,1,.37.27l.06.22a2,2,0,0,0,.08.29c-.05.31-.12-.13-.23,0l.18.41c-.22,0-.37.81-.5.09v.65a2.28,2.28,0,0,0-.08,1.23c-.05.31.25.77.07.51l.14,1h-.06c0,1,.38,2.06,0,3.21a3.61,3.61,0,0,1,.06,1.24l-.19.11c.06.44-.2,1.3,0,1.49a1.76,1.76,0,0,0-.26,1.32l.06.84a8.08,8.08,0,0,1,0,.86l.25,0A22.67,22.67,0,0,0,18.74,80l.23-.28,0,.1a6.27,6.27,0,0,1,1.49,0l.9.09.48,0h.32s-.1,0-.19,0h-.13l-.2,0c.24.06.33.1.48.13a2.73,2.73,0,0,0,.41,0,5.76,5.76,0,0,0,.82-.11,2.78,2.78,0,0,1,1.56,0,.82.82,0,0,1,.58,0h0l.33.12A1.31,1.31,0,0,0,25.6,80a3.69,3.69,0,0,0,.74-.09l.12.25h.06c.27.09.22-.12.08-.3a4.75,4.75,0,0,0,.46-.14.86.86,0,0,0,.74.13,1.3,1.3,0,0,1,.91.15,2.38,2.38,0,0,1,.87-.18,2.85,2.85,0,0,0-.39-1.49c.06,0,.08-.07.09.13a2.77,2.77,0,0,0,0-1.18,1.77,1.77,0,0,0,.31-.15,5.12,5.12,0,0,0-.41-.72c.19-.41.29-.58.53-.17-.36-1-.14-.79-.5-1.62l.2,0c0-.3-.27-.77-.11-1,.38-.66.05-3.28.4-5-.58.33.27-.79-.19-.86.14-.1.22-.34.34-.06-.14-.87.22-1.31-.16-1.9.14-.1.2.18.28.09s-.12-.27,0-.36.12.12.18.26c0-.88-.45-1-.85-1,.19-.43.16-.71-.1-1,.13-.12.27-.22.32.1l0-.26.15-.23a4.11,4.11,0,0,0,.21-.42c.12-.26.18-.48.08-.55.11,0,.22-.37.22-.46a14.07,14.07,0,0,0,.67-1.27l-.13.14c-.22-.41.18-.54.39-1.05l0,0c.83-1,.13-.55,1-1.51l-.24-.05c-.41-.34.78-.84.93-1.57l-.24.17c0-.43,1.13-.66,1.37-1,.08-.06,0,.15,0,.28.75-.79-.21-.27.07-1,.22,0,.3.36.57-.09.24-.16.2-1.59.81-2.07-.18.08-.37.16-.29-.21s1.12-1.09,1-1.72c.06,0,.1-.06.13,0a6,6,0,0,0,.39-1.62c.92,0,.84-2.51,1.51-2.15l.56-1.17,0,.07a2.82,2.82,0,0,0,.37-.88,1.93,1.93,0,0,0,.09-.7c.17-.22.16,0,.19,0,1-1.51,1.1-1.87,1.12-2.74l.46-.36a.43.43,0,0,1,0-.1c-.32,0-.79-.08-1.5-.15a10.25,10.25,0,0,0-2.47,0,.44.44,0,0,1,.22-.11,5.3,5.3,0,0,1-.77.06,5.07,5.07,0,0,1-.55,0c-.37,0-.74-.1-1.09-.15-.69-.09-1.28-.11-1.52.34l-.88.22c1.14.07-.17.39.3.55-.45.05-1.16-.28-.61-.32l.09,0c.1-.23-.26-.28-.63-.3l-.28,0-.33,0c-.2,0-.34-.07-.35-.15H29.47l-.46.94-.42.85-.68,1.29c-.46.85-.91,1.68-1.3,2.53L27,47l-.33.66c-.15.13-.36.11-.13-.36-.31.16-.21.87-.14.92-.57.86-.23-.54-.36-.26l-.16.39.08-.06a1.57,1.57,0,0,1-.15,1c-.24.33-.29.09-.37.22s-.06,0-.11.22l-.21.41-.1.19,0,.09a.58.58,0,0,0,.36-.08c0,.36-.25.5.14.45-.32.08-.54.46-.75.9s-.4,1-.45.88v.07c-.14.16-.32-.25-.49-.69,0,.2,0,.83-.25.29a1.25,1.25,0,0,0,.08-.93,1,1,0,0,1,0-.79c-.09.18-.16.07-.33-.21s-.4-.66-.47-.25c-.16-.48.22-.13.2-.55-.74-1-.95-2.47-1.65-3.78-.09,0-.11.3-.36.07l.08-.9c-.16-.25-.58,0-.52-.64,0,.1-.09.24-.2.08a11.44,11.44,0,0,0-.44-1.24c-.21-.52-.5-1.14-.76-1.7l-2.11,0c-.52,0-1,0-1.56,0a12.23,12.23,0,0,1-3.12-.38c.39.17.13.19-.18.19.2,0,0,.22,0,.34L11,41.34c-.22.33-1.32,0-1.45.34l.39-.06c-.52.38.73.83.65,1.31.59-.42,1.54.63,2.49,0,.21.09-.18.15-.06.26a1.21,1.21,0,0,1,1.07-.16l-.06.06a11.93,11.93,0,0,1,1.87.07l.9.1.52.06.29,0a.89.89,0,0,0,0-.23.28.28,0,0,1,.25.16c.42-.36-.53,0-.22-.42a.5.5,0,0,0,.44.24c.08.22.2.45.26.65.14.36.21.68.08.86.24.51.18-.27.42.25l-.08.19.24,0c.12.35,0,.6-.08.67a1.33,1.33,0,0,0-.18-.3c0,.5.62,1.2.63,1.37l-.14-.53a47.45,47.45,0,0,0,2.28,4.37l0-.15a2.8,2.8,0,0,1,.33.55,3.74,3.74,0,0,1,.19.52,8,8,0,0,0,.62,1.48l0,0a3,3,0,0,1,.62,1c-.25-.22.26,1.19,0,.88.44.68.53.78.6.78a.64.64,0,0,1,.35-.12l.1.66a0,0,0,0,0,0,0,7.94,7.94,0,0,1,.46-1.69c-.12.44-.06.48,0,.53s.13.08,0,.67a5.67,5.67,0,0,0,.94-2c.21-.64.33-1,.73-1.19,0-1.2-.85,1.17-.73.63-.23.1,0-1,.27-1.37s1-.55,1.38-1.46c0,.1,0,.12-.06.21.29-.3.17-.77.56-1.12-.17-.38.28-.56-.05-.8l-.32.91c.14-.54-.07-1.2.51-1.92a1.59,1.59,0,0,1,0,.58c.22-.19.15-.5.37-.7.33.24-.41,1.11-.38,1.77.27-.19.2-1.13.47-.68-.32-.62.49-.92.41-1.74l.2.14a1.62,1.62,0,0,1,.1-.56l.12.47c0-.63.68-.91.78-1.48-.48,1.06-.37.12-.73.49.3-1.41.93-.53,1.45-1.94,0,.12-.46.65-.41.28a1.93,1.93,0,0,1,.28-.35.25.25,0,0,1,.19,0c0-.14,0-.2-.08-.22s-.17,0-.18-.16c.14,0,.13,0,.11-.16s0-.2.14-.24l.09.24c.29.08.28-.05.35-.17s.12-.24.66-.15l-.46.34.57-.09-.12.28a2.36,2.36,0,0,1,1.41-.08c-.14-.17.08-.44.62-.44.36.14-.21.23.55.19-.17.15-.36.34-.69.12,0,.08-.17.15-.2.23a3.18,3.18,0,0,0,1.26,0,.9.9,0,0,1-.3,0l1.1-.34c.18.09,0,.17-.1.24a5.52,5.52,0,0,1,.71-.16c-.09.2-.07.4-.53.49.33-.07.8-.14.81-.22,0,.09.08.24,0,.31s.12,0,.3-.13.42-.17.42-.1l.21-.09h0c-.1.13-.25.28-.34.38s-.11.16,0,.29a1.27,1.27,0,0,1-.42,0s.13.08.26.09.29,0,.2.28c-.26.75-.4.12-.61.32A2.29,2.29,0,0,1,36,46.73,4.06,4.06,0,0,1,36.23,46.13Zm-3.66,7.44c0-.17,0-.52.22-.56C33,53.3,32.77,53.36,32.57,53.57ZM28.14,65.48a.58.58,0,0,1,.05-.52A1.2,1.2,0,0,1,28.14,65.48ZM18.76,66v0C18.68,66.38,18.71,66.25,18.76,66Zm.11-.74c0-.08-.07-.07-.11,0s.07.22,0,.41C18.88,65.58,18.92,65.48,18.87,65.26Zm6.65-15.57.12-.11C25.57,49.91,25.55,49.8,25.52,49.69Z"/><path class="cls-2" d="M27.81,64.05a.2.2,0,0,1,.13-.1C27.9,63.87,27.85,63.86,27.81,64.05Z"/><polygon class="cls-2" points="37.29 43.69 37.28 43.68 37.21 43.73 37.29 43.69"/><path class="cls-2" d="M20.92,76.77c0,.16-.08.24-.13.26S20.9,77,20.92,76.77Z"/><path class="cls-2" d="M17.58,62.25l.27.39a1,1,0,0,1-.12-.42C17.68,62.26,17.65,62.38,17.58,62.25Z"/><path class="cls-2" d="M17,57.89c-.06,0-.07-.13-.13-.18l-.09.07C16.94,58,17.11,58.18,17,57.89Z"/><path class="cls-2" d="M18.09,61.49c.17-.13,0-.36-.22-.64l0,0C17.6,60.94,17.85,61.21,18.09,61.49Z"/><path class="cls-2" d="M17.83,60.78a1.82,1.82,0,0,1-.15-.27C17.57,60.53,17.72,60.63,17.83,60.78Z"/><path class="cls-2" d="M18.73,64.32c.05-.16-.26-.1-.18-.19C18.29,64,18.87,65.18,18.73,64.32Z"/><polygon class="cls-2" points="18.57 60.94 18.4 61.16 18.66 61.23 18.57 60.94"/><path class="cls-2" d="M19.6,63.35l-.17-.49s-.09,0-.15-.09C19.43,63.07,19.54,63.4,19.6,63.35Z"/><path class="cls-2" d="M19.28,62.77a1.06,1.06,0,0,0-.23-.36A3.44,3.44,0,0,0,19.28,62.77Z"/><polygon class="cls-2" points="18.97 61.55 18.99 61.72 19.15 62.06 18.97 61.55"/><path class="cls-2" d="M19.7,69l.07.58c.08.06.14-.1.1-.31S19.78,68.88,19.7,69Z"/><path class="cls-2" d="M20.38,67.21c-.05.16-.11.17-.19.26l.31,0Z"/><path class="cls-2" d="M20.46,68.91c.08.06.24.84.22.11C20.6,69,20.53,68.37,20.46,68.91Z"/><path class="cls-2" d="M20.06,77.63v-.14l-.51.17A4.36,4.36,0,0,0,20.06,77.63Z"/><path class="cls-2" d="M26.41,77.56c-.69-.12-.16.32-.78.16-.17.12.51.13.34.23C26.39,77.83,26.6,77.9,26.41,77.56Z"/><path class="cls-2" d="M26,78l-.21.08A.82.82,0,0,0,26,78Z"/><polygon class="cls-2" points="10.18 41.08 9.73 40.97 10.02 41.14 10.18 41.08"/><path class="cls-2" d="M9.33,41.46l-.11-.33L9,41.42C9.06,41.41,9.25,41.38,9.33,41.46Z"/><path class="cls-2" d="M31.43,54.36l.05.07c.11,0,.16-.11.27-.29Z"/><polygon class="cls-2" points="34.4 49.13 34.34 49.22 34.69 49.18 34.4 49.13"/><path class="cls-2" d="M36.37,44.47c-.1.18-.16.43-.26.6C36.27,44.65,36.72,44.59,36.37,44.47Z"/><path class="cls-2" d="M39.61,42.3h9.26L61,62.56V42.3h9.35V78.92H61l-12-20.11V78.92H39.61Z"/><path class="cls-3" d="M39.61,42.3h9.26L61,62.56V42.3h9.35V78.92H61l-12-20.11V78.92H39.61Z"/><path class="cls-2" d="M38.39,42.54c0-.3-.19-.19-.23-.24C38.2,42.79,38.44,42.52,38.39,42.54Z"/><polygon class="cls-2" points="38.86 47.36 38.78 47.27 38.99 47.98 38.86 47.36"/><path class="cls-2" d="M38.86,51.87c.36-.43-.06-1.64.07-2.44L39,49.3l-.29-.36A20.93,20.93,0,0,1,38.86,51.87Z"/><path class="cls-2" d="M38.09,54.27c.14-.14.12.52,0-.56l0,.1A3.4,3.4,0,0,1,38.09,54.27Z"/><path class="cls-2" d="M38.09,53.81c0-.47-.11.32,0,0Z"/><path class="cls-2" d="M38.17,56l-.12-.63c-.08.13-.1.69-.16.48C38,56.51,38,56.37,38.17,56Z"/><path class="cls-2" d="M38.44,56.6l-.06-.32S38.34,56.42,38.44,56.6Z"/><path class="cls-2" d="M38.27,55.59l.11.69c.06-.09.18-.1,0-.32C38.45,56,38.35,55.88,38.27,55.59Z"/><path class="cls-2" d="M38.33,55.2c.07-.35.12-.8.25-.18C38.53,53.83,38.28,54,38.33,55.2Z"/><path class="cls-2" d="M39.23,52.1l.1-.47-.11-.41C39.27,51.43,39.12,52.13,39.23,52.1Z"/><path class="cls-2" d="M38,59.91c.07,0,.2-.21.3-.26l-.09-.46C38.15,59.42,38.1,59.87,38,59.91Z"/><path class="cls-2" d="M38.29,59.65l.13.69C38.44,59.72,38.37,59.61,38.29,59.65Z"/><polygon class="cls-2" points="38.83 56.71 38.56 55.58 38.84 56.93 38.83 56.71"/><polygon class="cls-2" points="37.98 62.55 37.8 62.16 38.07 62.85 37.98 62.55"/><path class="cls-2" d="M38,64.3c-.15-.29-.25.4-.34.09a4.91,4.91,0,0,0,.27,1.25A3.3,3.3,0,0,1,38,64.3Z"/><path class="cls-2" d="M38.1,66.25a6.18,6.18,0,0,0-.16-.61A2.75,2.75,0,0,0,38.1,66.25Z"/><path class="cls-2" d="M38.38,61.52a.88.88,0,0,0-.22.54l.22-.27Z"/><path class="cls-2" d="M38.39,61.78h0v.59Z"/><path class="cls-2" d="M38.38,61.45v.07S38.41,61.48,38.38,61.45Z"/><path class="cls-2" d="M38.64,58.53c.12.4.25,1.25.43.43C38.92,58.67,38.82,59.14,38.64,58.53Z"/><path class="cls-2" d="M38.65,61.11l.05-.73c-.06,0-.14.14-.2-.06Z"/><polygon class="cls-2" points="38.72 61.47 38.65 61.11 38.63 61.38 38.72 61.47"/><path class="cls-2" d="M38.3,65a4.35,4.35,0,0,1,.12,1.06c0-.42.06-.85.06-1.27C38.42,64.72,38.29,64.54,38.3,65Z"/><path class="cls-2" d="M38.36,63.43v.07S38.4,63.42,38.36,63.43Z"/><polygon class="cls-2" points="38.42 69.91 38.46 69.85 38.42 69.83 38.42 69.91"/><path class="cls-2" d="M38.52,64.71a1.38,1.38,0,0,0-.07-.68q0,.34,0,.75S38.53,64.81,38.52,64.71Z"/><path class="cls-2" d="M38.2,67.33c0-.17.08-.35.12-.55C38.25,66.94,38.15,67.27,38.2,67.33Z"/><path class="cls-2" d="M38.31,63.61v0C38.26,63.67,38.28,63.65,38.31,63.61Z"/><path class="cls-2" d="M38.31,63.61a3.44,3.44,0,0,0,.14.42,4,4,0,0,0-.08-.53A.24.24,0,0,1,38.31,63.61Z"/><path class="cls-2" d="M39.79,71.08c-.2-.06-.38-.89-.17-1.6-.15-.71-.8-.25-1.16.37.08,0,.16,0,.28.75.11-.26.25-1.62.43-1,.11,1-.07.78-.17,1.25.25-.4.36,1.23.72,1L39.59,71C39.65,71,39.74,71.31,39.79,71.08Z"/><path class="cls-2" d="M38.48,68.46l0-.29a3.84,3.84,0,0,1-.27,1c.1.5.17.6.24.63l0-1.47Z"/><path class="cls-2" d="M38.45,66.82c.22.24.31,1,.54.52,0-.88-.18-.62-.27-1.14.05,1.41-.12-.41-.24.61a7,7,0,0,1-.06-.76c0,.25-.06.5-.1.73v0h0c0-.06,0-.08,0,0a0,0,0,0,1,0,0s.05,0,.08.06c-.05.41-.06.07-.08-.06l0,0h0l.12,1.42A9.71,9.71,0,0,0,38.45,66.82Z"/><path class="cls-2" d="M39.53,59.72s0,0-.05,0S39.53,59.89,39.53,59.72Z"/><path class="cls-2" d="M39.4,60.3a1,1,0,0,1-.09-.53c.06-.29.1,0,.17,0,0-.2-.15-.71-.26-.07l0,.1a2.84,2.84,0,0,1-.37,1.2A2,2,0,0,0,39.4,60.3Z"/><path class="cls-2" d="M39,63.6l.11,1.18.19-.6-.12,0C39.21,63.54,39.07,63.69,39,63.6Z"/><polygon class="cls-2" points="38.31 70.04 38.08 69.89 38.4 70.57 38.31 70.04"/><polygon class="cls-2" points="38.34 71.58 38.14 71.52 38.26 71.92 38.34 71.58"/><path class="cls-2" d="M69.13,62l-.06-.35A2.67,2.67,0,0,0,69.13,62Z"/><path class="cls-2" d="M69.12,64.46l.1.06C69.16,64.41,69.12,64.36,69.12,64.46Z"/><path class="cls-2" d="M50.35,63.6c.25.77.42,1.63.31,1L50.52,64S50.43,63.82,50.35,63.6Z"/><path class="cls-2" d="M64.21,78.87l-.15-.07-.34.21Z"/><path class="cls-2" d="M64.57,78l.66.14A3.62,3.62,0,0,0,64.57,78Z"/><path class="cls-2" d="M68.9,48.24l-.22-.4C68.68,48.47,68.79,48.19,68.9,48.24Z"/><path class="cls-2" d="M48.57,80.11c.66.07,1.22.11,1.69.12V80l0,.17C49.32,80.09,48.69,79.94,48.57,80.11Z"/><path class="cls-2" d="M71.44,62.94c0-.21-.08-.3-.13-.3C71.34,62.86,71.39,63,71.44,62.94Z"/><path class="cls-2" d="M50.26,77.92l0,.36a16.43,16.43,0,0,1,0,1.76A6,6,0,0,0,50.26,77.92Z"/><path class="cls-2" d="M52.64,51l0-.11S52.6,51,52.64,51Z"/><path class="cls-2" d="M43.82,41.35l.59,0A3.29,3.29,0,0,0,43.82,41.35Z"/><path class="cls-2" d="M38.24,78.29c0-.55,0-.08,0,0Z"/><path class="cls-2" d="M39.1,76.16c0,.07.06.13.11.13A.21.21,0,0,1,39.1,76.16Z"/><path class="cls-2" d="M48.91,74.3v0C48.87,74.37,48.87,74.35,48.91,74.3Z"/><path class="cls-2" d="M38.34,77.44a6.52,6.52,0,0,0-.06.71C38.29,78,38.31,77.81,38.34,77.44Z"/><path class="cls-2" d="M38.24,77.56l0-.48C38.22,77,38.2,77.07,38.24,77.56Z"/><path class="cls-2" d="M38.25,79.05q0-.47,0-.9c0,.11,0,.16,0,.14Z"/><path class="cls-2" d="M61.63,50.09l0,.07C61.7,50.48,61.68,50.34,61.63,50.09Z"/><path class="cls-2" d="M54.6,66.31l0,0v0Z"/><path class="cls-2" d="M55.34,67.23a1.61,1.61,0,0,1-.75-.9l-.34.66Z"/><path class="cls-2" d="M69.07,55.94l-.2.82c-.32-1-.21-1.71-.48-.94.68.12.07,3.19.75,3.31l-.15.54c0-.16,0-.18,0-.34-.33,1.06.49.79.39,2.14,0,.47-.15.8-.23.48l.17,1c0,.31-.13.23-.12-.07l.06,1.6h0c.1.23.27.75.34,1-.1.41-.07-.2-.16-.1l.17.89c-.18.36-.35-.37-.33-1-.68.83.17.74-.22,2.53L68.93,67c-.39.54-.25,1.2-.49,2.15.13-.23.61-1.9.78-.94a2.46,2.46,0,0,0,.06,1.15c-.24,0-.18.51-.17,1.15l-.32,0c.09.68.26.63.4,1a1.2,1.2,0,0,1-.49,1.11c0,1.22.4-.85.46.6a9.94,9.94,0,0,0,.2,3c-.11.71-.19-.13-.29.13l.26.63c0,.12-.09.06-.12.06.09.26.32,0,.4.57.17.14.06.4-.06.58-.48-.13-.79-.27-1.06-.06-.14-.09.05-.2,0-.32l-.11,0-.22,0-.34.06-.48.09c-.28.06-.52.13-1.1.31l-1-.21c.73.24-.2.52-1,.76.26.11.48.21.63.26l-1.31.17c-.15,0,0-.16.19-.29l-.24.07c-.46-.11-.22-.3.11-.48l.47.2c.33-.2.63-.41.56-.6a1.57,1.57,0,0,1-.43.09c.09-.06.14-.1.1-.13s-.18,0-.39.11l-.3-.35-.07.14L62.67,78l-.42-.06-.2,0-.09,0q-.21.12-.54.27A5.82,5.82,0,0,1,59.27,76c.47.27.42-.14.7-.27a1.67,1.67,0,0,0,.5,1l.45.54.21.3a.93.93,0,0,1,.11.19c-.07-.15,0-.2,0-.25s.11,0,.14,0c-.35-.39-.77-.91-1.16-1.35.24-.1,0-.42-.18-.88-.25.56-1-1-1.48-1.52.12-.13.36-.07.78.72-.18-1-1.16-.79-1.38-1.78.12.18.16.3.27.33-.39-.36-.92-1.49-.64-1.31l.11.18C57,70.57,55.43,68.07,55,68.1a1.88,1.88,0,0,1,.66-.07l-2.56-1.48c.43,0,.73-1.18,1.53-.26A4.39,4.39,0,0,0,53.8,65c.07.23-.16.78-.35.52a3.57,3.57,0,0,0-.14-.82l-.1-.33-.31-.87c.11.26,0,.36-.22.33a.8.8,0,0,1-.58-.43c.1,0,.27-.66.46-.46a7.09,7.09,0,0,0-1.19-.88c.24.2.17-.65-.06-1.35.1.39-1-1.59-1.23-2l.47,1c-.6-1.08-.83-1.08-1-.91s-.2.48-.63-.26a11,11,0,0,0-.91-3,.54.54,0,0,0,0,.08c.14.78.49,2.56.83,4.11s.67,2.89.78,3.53a1.1,1.1,0,0,0-.16-.15l.18,1a18.55,18.55,0,0,1-.88-2.94c-.32-1.42-.64-3.3-.82-4.63-.13.48-.19-.35-.18,1.08-.15.11-.23-1.42-.24-1.9l-.1,3.31c.33.55.33,3.18.62,3.36l-.35-4a14.36,14.36,0,0,1,.59,2.44,14.09,14.09,0,0,1,.3,2.84c-.06.15-.21-.05-.36-.33a6.57,6.57,0,0,0-.35-.71A10,10,0,0,1,48,65l-.18-1A6.16,6.16,0,0,0,48,65.7a2.18,2.18,0,0,1,0,1.24c0,.33-.44,1-.24,1,.39-.54,1.57-.65,1.86-.29a16.05,16.05,0,0,1-.55,2.13c-.31.55-.72-.82-1-.35.09,0,.2.32.24.44-.08.35-.28-.14-.24.62.34.13,0,1.55.29.36a12.19,12.19,0,0,1-.06,1.66c.22-.27.75.79.85,1.53-.09,0-.2.13-.25.21,0,.76-.06,1.35-.11,1.92l0,.86c0,.27,0,.55,0,.86-.08.09-.18.55-.33.19l.11.35a.87.87,0,0,1-.34.07c-.84-.3.69,0-.09-.4.16.2-.55.27-1.06.4.15.28,1.18.08,1.52,0l0-.13a.85.85,0,0,1,.22.33c.06.17-.09.34-.49.48a4.49,4.49,0,0,1-.79.2l-1,.15c-1.18.11-.51-.27-.71-.21-2.22-.07-1.89.74-3.74.43-.73-.27,0-.53-.19-.73a13.33,13.33,0,0,1,2.13.16l-.81-.13a3.52,3.52,0,0,1,1.3-.07c-.51-.22-3.21-.09-4.73-.22,0-.21,0-.4.06-.58s-.19-.7-.29-.4l0,.54c-.11.33-.18.13-.24-.11s-.11-.48-.16,0L39,77.52l-.12-.73a5.39,5.39,0,0,1,0-1.4l.31-.19a1.5,1.5,0,0,0-.09,1c-.14-.43.42-1.57,0-2l-.21.72a8.07,8.07,0,0,1-.38-2.54c-.31.41,0,.21-.32.85.44-.55,0,2.32.44,1.43-.41.66-.17,1.14-.53,2,.11,0,.2-.34.15.5a1.71,1.71,0,0,1,.09.27v0s0,0,0,0a2.18,2.18,0,0,1,.07-.38.5.5,0,0,1,.08-.15.61.61,0,0,1,.08.18q0,.17.06.36c0,.25.05.54.08.82a11.29,11.29,0,0,0,.13,1.35l0,.16c.12,0,0,0-.07.08s-.08-.18-.14.06l0,.06,1-.17c0,.11.34.21.56.29s.23.15-.7.22h1.6c.57.06.78.1,1.13.12a3.49,3.49,0,0,0,.88,0c.45,0,1.14-.25.75-.07l1.5-.14v.05c.6,0,1.1,0,1.81-.09,1,0,1.87-.08,2.89,0,0-.57.08-1.13.17-1.74L50.13,77a9.68,9.68,0,0,1,0-1l.19-.16c-.07-.64.2-1.93,0-2.2.53-.69.12-3.11.21-4.24l-.25,0a21.05,21.05,0,0,0-.16-2.48l-.23.06a3.12,3.12,0,0,1,0-.7c0-.12,0-.3,0-.38l0-.21a3.11,3.11,0,0,0,.13-.79c.09.14.06.24,0,.29.26-.07.16-.33.05-.92s-.23-1.38-.05-1.09a1.87,1.87,0,0,1,0-.4c0,.08.08.19.13.31s0,0,0,0l0,.06.2.56-.18-.54c0,.09.12.14.18.13l.17.76h0c.11.35,0-.2-.12-.79A.28.28,0,0,0,50.5,63c.11.57.15.58.22.64s.16.16.2.63c.08-.27.5.53.87.33,0,.05,0,.14-.08,0a2.07,2.07,0,0,0,.55.88l-.17.32.87.64c.14.61.18.88-.33.49,1,1,.72.93,1.65,1.8l-.2,0c.24.37.82.83.82,1.15.18,1,2.44,4.18,3.43,6.52.25-.72.38,1.14.82,1,0,.2.07.54-.25.25a4.74,4.74,0,0,1,.35.52l.32.56c.25.46.48.89.73,1.28a6,6,0,0,0,1.23-.18c.21.14-.48.2-.29.28a2.13,2.13,0,0,1,.87,0c.06,0,0,.07-.09.09l-.56.08h.7l.34-.06a1.13,1.13,0,0,0,.44-.2.92.92,0,0,0,.32-.57,1.62,1.62,0,0,0,1.47-.1c.23.13.62.27-.19.32.45,0,2.8.19,2.84-.13a1.76,1.76,0,0,0,.76,0l1.36,0c.38,0,.76,0,1.42,0l-.42,0a.38.38,0,0,1,.26-.18c-.07-.45.08-.82,0-1.6l0,0,.08-.73,0-.39a1.85,1.85,0,0,0,0-.39A3.72,3.72,0,0,1,71,75l-.24.1c-.52-.17.3-1.63.11-2.7l-.14.38c-.18-.58.7-1.63.77-2.21,0-.13.07.2.1.38.31-1.54-.31-.2-.39-1.35.17-.21.44.28.47-.49.14-.39-.55-2.24-.23-3.29-.13.24-.26.47-.36-.07,0-.81.5-2.2.08-2.93,0-.11.07-.14.11-.15a13.3,13.3,0,0,0-.4-2.4c.83-.57-.41-3.86.36-3.85l0-1.92.08.05A4,4,0,0,0,71,52.44c.05-.28.12-.08.16,0a7.29,7.29,0,0,0-.26-3.47l.25-.15c-.14-.41.39-2.59.1-4.34,0,0,.08,0,.11.19a10.66,10.66,0,0,1,0-1.51c0-.59,0-1.22.09-1.87-1-.07-2.06-.15-3-.14a1.52,1.52,0,0,0-1.24.39l-1.3.22c1.68.07-.25.39.44.55-.66.05-1.71-.28-.9-.32l.13,0c.3-.47-2.09-.17-2.05-.49H62l-1.82,0-.07,2.6L60,45.9c0,1.19-.09,2.36-.09,3.51l.36-.36,0,1.08c-.08.29-.28.38-.27-.39a1.69,1.69,0,0,0,.26,1.32c-.15,1.51-.43-.59-.44-.13l0,.63,0-.14a3,3,0,0,1,.29,1.49c-.07.58-.23.3-.24.53,0,0,0,.07,0,.35l0,1.37.29-.55c.14.61,0,1.28.31.66a2.7,2.7,0,0,0-.24.84,6.38,6.38,0,0,0-.06,1,6.22,6.22,0,0,1,0,1.48,9.72,9.72,0,0,1,.19,1.62c-.11-.17-.24-.4-.37-.65.12.33.46,1.53,0,.74a6.17,6.17,0,0,0-.52-1.75A4.4,4.4,0,0,1,59,57.15c.17.91-.68-1-.58.07-.24-.5.09-.33,0-.76a9.34,9.34,0,0,1-1.26-2.07,30,30,0,0,0-1.55-2.8c-.1,0,0,.4-.38.06L55,50.43c-.26-.35-.64-.08-.79-.92,0,.14,0,.34-.19.1a38.93,38.93,0,0,0-2.16-3.88l-1.19-1.9-.59-1-.8-1.35-1.48,0-1.07-.07a20.78,20.78,0,0,1-2.1-.28c.59.17.19.19-.26.19.3,0,0,.22.05.34l-1.82-.33c-.34.33-2,0-2.15.34l.58-.06c-.77.38,1.07.83,1,1.31.86-.42,2.27.63,3.68,0,.32.09-.26.15-.09.26a2.52,2.52,0,0,1,1.59-.16l-.09.06a11.77,11.77,0,0,1,1.29,0l.57,1.2c.28.56.58,1.18,1,2l.1-.28a3.18,3.18,0,0,1,.33.87c.63.35-.77-1.32-.13-1-.05.87,2,3.3,1.73,4,.43.72.11-.35.54.37v.26l.27.09c.25.48.24.82.14.9-.06-.12-.23-.31-.31-.43A13.52,13.52,0,0,0,53.8,53l-.34-.73c.65.94,1.29,2,1.94,3.11.32.54.65,1.08,1,1.58l.7,1.06c.24.36.47.69.7,1l-.07-.33a10.11,10.11,0,0,1,1.11,1.8A17.93,17.93,0,0,0,60,62.57h0a4,4,0,0,1,.9,1.2c-.12-.07.08.38.28.84s.4.94.22.77c.28.38.46.6.56.71a11.79,11.79,0,0,0-.16-1.32l-.32-2,.19.18a14.84,14.84,0,0,1-.31-2.5c.08.63.15.62.23.61s.16,0,.27.81a12.88,12.88,0,0,0,0-3.28A3.81,3.81,0,0,1,62,56.47c-.51-1.39-.28,2.22-.39,1.45-.09.2-.18-.14-.25-.57a6.72,6.72,0,0,1-.09-1.3,1.93,1.93,0,0,1,.11-.52l.23-.51a3.85,3.85,0,0,0,.31-1.65c0,.15,0,.16,0,.32.13-.58-.18-1.14,0-1.86-.31-.4,0-.93-.38-1l.1,1.43a7.29,7.29,0,0,1-.35-2.91,3.1,3.1,0,0,1,.25.78c.11-.39-.08-.75,0-1.16.4.12.09,1.74.39,2.6.17-.41-.29-1.64.14-1.2-.55-.63.07-1.53-.35-2.59l.24.07A3.14,3.14,0,0,1,62,47l.3.56c-.26-.86.23-1.65.09-2.47,0,1.72-.29.39-.46,1.11a2.21,2.21,0,0,1,.18-1.69l.13-.27a.63.63,0,0,0,.12-.1.32.32,0,0,0,.08-.32c0,.08-.14.28-.25.06s.09-.22.16-.23a.77.77,0,0,1,.18.1c.18,0,.16-.09.06-.16s-.29-.16-.19-.23c.21.14.25.11.32,0a.58.58,0,0,1,.5-.25v.24c1.79.15.48-.51,2.09-.32l-.69.34.84-.09-.17.28a5.1,5.1,0,0,1,2.09-.08c-.21-.17.12-.44.91-.44.28.07.15.12.17.16s0,.05.32,0a1.8,1.8,0,0,1-.24.2.16.16,0,0,1-.12,0,1.73,1.73,0,0,1-.33-.1c-.05.08-.25.15-.3.23a1.84,1.84,0,0,0,1,0,.14.14,0,0,1-.11,0,4.22,4.22,0,0,1,.63-.24l.09.14c-.09.2-.16.14-.23.12s.14.13.16.36c-.2,0-.4.07-.5,0a.36.36,0,0,1,.11.13l.06.1a.14.14,0,0,1,0,.07l0,.19c-.08.1-.23.79-.3.59-.12.86.38,2.11.22,3.25a1,1,0,0,1,.11.42A11.27,11.27,0,0,0,69,52l-.35.72c.08,1,.44-1,.58.68.11,1.17-.31.44-.4.85a4.77,4.77,0,0,1,.25,2.67A6.45,6.45,0,0,1,69.07,55.94Zm.15,12.26c0-.24-.2-.71-.06-.89C69.44,67.58,69.3,67.79,69.22,68.2ZM62.41,78.4a1.18,1.18,0,0,1,.75,0A2.49,2.49,0,0,1,62.41,78.4ZM42,80.08h0C42.56,80.17,42.37,80.13,42,80.08ZM40.55,80c-.18,0-.19.07-.12.1a3.51,3.51,0,0,1,1,0A1.63,1.63,0,0,0,40.55,80ZM60,53.56l.06-.21C60.13,53.83,60.07,53.69,60,53.56Z"/><path class="cls-2" d="M64.52,78.07a.19.19,0,0,1,.1.13C64.71,78.16,64.72,78.11,64.52,78.07Z"/><path class="cls-2" d="M68.94,48.32v0s0,0,0,0Z"/><path class="cls-2" d="M48,69.91a1.29,1.29,0,0,1,.13-.43C48,69.46,48,69.57,48,69.91Z"/><path class="cls-2" d="M38.13,74.38l.07.71a1.93,1.93,0,0,1,.07-.64C38.22,74.47,38.14,74.6,38.13,74.38Z"/><path class="cls-2" d="M39.63,68.26c0-.1,0-.21,0-.32l-.12,0C39.49,68.41,39.58,68.72,39.63,68.26Z"/><path class="cls-2" d="M38.94,73.73c.2-.06.13-.5.09-1v.08C38.75,72.68,38.84,73.2,38.94,73.73Z"/><path class="cls-2" d="M39,72.62a3.42,3.42,0,0,1,0-.45C38.91,72.11,39,72.35,39,72.62Z"/><path class="cls-2" d="M38.41,80c.05-.42-.26,0-.18-.31-.11-.1-.07.31,0,.65.64-.09,1.22-.24.19-.19Z"/><polygon class="cls-2" points="39.61 73.33 39.35 73.5 39.56 73.78 39.61 73.33"/><path class="cls-2" d="M39.42,77.25l.07-.81s-.07-.09-.08-.21C39.4,76.7,39.35,77.26,39.42,77.25Z"/><path class="cls-2" d="M39.41,76.23a2.29,2.29,0,0,0,0-.64C39.37,75.73,39.38,76,39.41,76.23Z"/><polygon class="cls-2" points="39.68 74.41 39.63 74.64 39.61 75.2 39.68 74.41"/><path class="cls-2" d="M46.4,79.15l.88-.07c.08-.09-.17-.14-.49-.11S46.27,79.07,46.4,79.15Z"/><path class="cls-2" d="M43.79,78.46a.79.79,0,0,1,.38.19l0-.31Z"/><path class="cls-2" d="M46.3,78.39c.09-.09,1.25-.25.16-.23C46.38,78.25,45.51,78.32,46.3,78.39Z"/><polygon class="cls-2" points="48.81 68.58 48.81 68.8 49.32 68.77 48.81 68.58"/><path class="cls-2" d="M49,56.34c-1-1.87,0,.62-.88-1.15-.08.1.71,1.43.59,1.43C49.14,57,49.46,57.7,49,56.34Z"/><path class="cls-2" d="M48.75,56.62a.73.73,0,0,0-.18-.14C48.68,56.59,48.73,56.62,48.75,56.62Z"/><polygon class="cls-2" points="41.41 41.08 40.76 40.97 41.18 41.14 41.41 41.08"/><path class="cls-2" d="M40.16,41.46,40,41.13l-.39.29A1.12,1.12,0,0,1,40.16,41.46Z"/><path class="cls-2" d="M68.57,70l.08,0c.08-.1.09-.25.1-.56Z"/><polygon class="cls-2" points="68.81 61.12 68.81 61.28 69.1 60.99 68.81 61.12"/><path class="cls-2" d="M68.44,53.66c0,.3,0,.66,0,1C68.42,54,68.8,53.58,68.44,53.66Z"/><path class="cls-2" d="M70.32,42.3H101v9H90.73V78.92H80.62V51.34H70.32Z"/><path class="cls-3" d="M70.32,42.3H101v9H90.73V78.92H80.62V51.34H70.32Z"/><path class="cls-2" d="M69.1,42.46c0-.2-.19-.13-.23-.16C68.92,42.64,69.16,42.45,69.1,42.46Z"/><polygon class="cls-2" points="69.58 45.74 69.49 45.69 69.7 46.17 69.58 45.74"/><path class="cls-2" d="M69.57,48.81c.36-.29,0-1.11.07-1.66l.09-.09-.29-.24A10.38,10.38,0,0,1,69.57,48.81Z"/><path class="cls-2" d="M68.8,51.26c.14-.25.12.56,0-.69l0,.13C68.81,50.82,68.81,51,68.8,51.26Z"/><path class="cls-2" d="M68.81,50.7c0-.58-.12.43,0,0Z"/><path class="cls-2" d="M69.38,52.78l-.57.08,0-.22c0,.08,0,.2-.06.32.21,0,.47.06.25.1C69.84,53,69.7,52.91,69.38,52.78Z"/><path class="cls-2" d="M70.25,52.52l-.39,0S70,52.62,70.25,52.52Z"/><path class="cls-2" d="M69,52.68l.87-.11c-.06-.06,0-.17-.39,0C69.63,52.5,69.39,52.61,69,52.68Z"/><path class="cls-2" d="M69,52.18c.08-.47.13-1,.25-.4C69.24,50.57,69,50.83,69,52.18Z"/><path class="cls-2" d="M69.94,49l.11-.32-.12-.28C70,48.51,69.83,49,69.94,49Z"/><path class="cls-2" d="M73.26,53c0-.07-.15-.2-.18-.3l-.31.09C72.93,52.8,73.23,52.85,73.26,53Z"/><path class="cls-2" d="M73.08,52.66l.47-.13C73.13,52.52,73.05,52.58,73.08,52.66Z"/><polygon class="cls-2" points="70.61 52.12 69.28 52.39 69.27 52.38 69.28 52.39 70.82 52.12 70.61 52.12"/><polygon class="cls-2" points="75.05 52.97 74.79 53.15 75.26 52.88 75.05 52.97"/><path class="cls-2" d="M76.24,52.94c-.19.15.27.25.07.34a2.37,2.37,0,0,0,.84-.27A1.55,1.55,0,0,1,76.24,52.94Z"/><path class="cls-2" d="M77.57,52.85l-.42.16A1.35,1.35,0,0,0,77.57,52.85Z"/><path class="cls-2" d="M74.35,52.57a.52.52,0,0,0,.37.22l-.18-.22Z"/><path class="cls-2" d="M74.53,52.57h0l.4,0Z"/><path class="cls-2" d="M74.31,52.57h0S74.32,52.54,74.31,52.57Z"/><path class="cls-2" d="M72.32,52.31c.27-.12.85-.24.29-.43C72.41,52,72.73,52.13,72.32,52.31Z"/><path class="cls-2" d="M74.08,52.3l-.5,0c0,.06.1.14,0,.2Z"/><polygon class="cls-2" points="74.32 52.23 74.08 52.3 74.26 52.32 74.32 52.23"/><path class="cls-2" d="M76.72,52.65a2.26,2.26,0,0,1,.72-.12,6.47,6.47,0,0,0-.87-.06C76.53,52.54,76.41,52.66,76.72,52.65Z"/><path class="cls-2" d="M75.65,52.59h0S75.65,52.55,75.65,52.59Z"/><polygon class="cls-2" points="79.22 52.54 79.23 52.5 79.2 52.53 79.22 52.54"/><path class="cls-2" d="M76.53,52.43a.62.62,0,0,0-.47.08,4.06,4.06,0,0,1,.51,0S76.59,52.42,76.53,52.43Z"/><path class="cls-2" d="M78.31,52.75l-.38-.12C78,52.7,78.27,52.81,78.31,52.75Z"/><path class="cls-2" d="M75.78,52.64h0C75.81,52.69,75.8,52.67,75.78,52.64Z"/><path class="cls-2" d="M75.78,52.64a1.82,1.82,0,0,0,.28-.13,1.91,1.91,0,0,0-.36.07A.24.24,0,0,1,75.78,52.64Z"/><path class="cls-2" d="M80.81,51.42a.14.14,0,0,1-.2-.06,1.15,1.15,0,0,1-.84,0c-.56.15-.42.8-.54,1.17.07-.09.1-.17.47-.29,0-.11-.5-.25-.11-.43s.41,0,.46.14L80,52c.13-.22.22-.16.32,0s.23.26.41.08l-.13-.49C80.67,51.49,80.76,51.63,80.81,51.42Z"/><path class="cls-2" d="M78.85,52.48l-.09,0a.28.28,0,0,1,.16.27,1.23,1.23,0,0,0,.28-.24l-.38,0Z"/><path class="cls-2" d="M78,52.5c.16-.21.65-.31.35-.54-.6,0-.42.18-.77.27,1,0-.28.12.42.25a3.37,3.37,0,0,1-.52.05l.49.1h0s-.06,0,0,0h0l0-.08c.28,0,.05.06,0,.08s0,0,0,0h0l.48-.06a1.78,1.78,0,0,0,.37-.06h-.25Z"/><path class="cls-2" d="M73.13,51.42s0,0,0,0S73.24,51.42,73.13,51.42Z"/><path class="cls-2" d="M73.52,51.55a.44.44,0,0,1-.35.09c-.2-.06,0-.1,0-.17s-.48.15,0,.26l.06,0c.39.07.89.34.82.37A1.48,1.48,0,0,0,73.52,51.55Z"/><path class="cls-2" d="M75.77,52l.8-.11-.41-.18,0,.11C75.73,51.75,75.83,51.88,75.77,52Z"/><path class="cls-2" d="M79.17,52.64l-.19.23a2.33,2.33,0,0,1,.4-.32Z"/><path class="cls-2" d="M79.35,52.81l-.2.13h.12Z"/><path class="cls-2" d="M89.53,57.16l0-.24A1.92,1.92,0,0,0,89.53,57.16Z"/><path class="cls-2" d="M89.52,58.86l.1,0C89.57,58.83,89.53,58.8,89.52,58.86Z"/><path class="cls-2" d="M79.38,77.89c-.19.6-.48,1.51-.25,1.29l.21-.32A3.34,3.34,0,0,1,79.38,77.89Z"/><path class="cls-2" d="M90.68,72.86l-.07.1.21.23Z"/><path class="cls-2" d="M89.78,72.61l.14-.45A1.85,1.85,0,0,0,89.78,72.61Z"/><path class="cls-2" d="M94.24,49.92l.27-.22C94.08,49.7,94.27,49.81,94.24,49.92Z"/><path class="cls-2" d="M79.43,62.6a3.5,3.5,0,0,0-.13.74C79.43,63,79.61,62.69,79.43,62.6Z"/><path class="cls-2" d="M91.84,57.83c0-.15-.08-.21-.13-.2S91.79,57.86,91.84,57.83Z"/><path class="cls-2" d="M79.3,64.19l0-.15a3.84,3.84,0,0,1,0-.7A1,1,0,0,0,79.3,64.19Z"/><path class="cls-2" d="M83,43.55l-.08,0S83,43.55,83,43.55Z"/><path class="cls-2" d="M73.19,41.35l.4,0A1.51,1.51,0,0,0,73.19,41.35Z"/><path class="cls-2" d="M79.26,56.11c0-.22,0,0,0,0Z"/><path class="cls-2" d="M80.12,55a.15.15,0,0,0,.1.09A.18.18,0,0,1,80.12,55Z"/><path class="cls-2" d="M80.66,66.4v0C80.7,66.35,80.69,66.36,80.66,66.4Z"/><path class="cls-2" d="M79.36,55.78a1.91,1.91,0,0,0-.07.28A1.51,1.51,0,0,0,79.36,55.78Z"/><path class="cls-2" d="M79.25,55.83l0-.2S79.22,55.63,79.25,55.83Z"/><path class="cls-2" d="M79.27,56.42c0-.13,0-.24,0-.36,0,0,0,.07,0,0Z"/><path class="cls-2" d="M100.37,43.05l0,0,0,0c-.07,0-.07,0,0,0Z"/><polygon class="cls-2" points="85 77.91 84.97 77.92 85.01 77.92 85 77.91"/><path class="cls-2" d="M85.79,77.74a.75.75,0,0,1-.78.18l.26.63Z"/><path class="cls-2" d="M89.47,52.93a3.83,3.83,0,0,1-.19.7c0-.09-.08-.17-.11-.25l0-.11,0-.19L89,52.49c0-.27-.09-.29-.23.21.09,0,.15.12.2.25a3.72,3.72,0,0,1,.11.41,4.16,4.16,0,0,1,.07.75c0,.55,0,1.09.37,1.13l-.14.36c0-.1,0-.12,0-.22-.32.71.49.53.4,1.45-.06.32-.15.55-.24.33l.17.71c0,.21-.13.16-.12,0l.06,1.09h0a4.32,4.32,0,0,1,.34.68c-.1.27-.07-.14-.16-.07l.17.6c-.18.25-.35-.25-.32-.67-.68.57.17.5-.23,1.72l-.09-.57c-.38.37-.24.81-.48,1.46.12-.15.6-1.29.77-.64a1.2,1.2,0,0,0,.07.79c-.25,0-.19.34-.17.78l-.32,0c.09.47.25.43.4.7a.78.78,0,0,1-.49.75c0,.84.39-.57.46.42a4.37,4.37,0,0,0,.2,2c-.11.48-.2-.09-.29.09l.25.43c0,.1-.08.07-.12,0,.1.36.32,0,.41.6.35.16-.52,1.17-.12,1.88-.09.17-.19-.09-.32,0a6.4,6.4,0,0,0,.55,1.62l-.21.68c.24-.5.52.14.76.7.11-.18.21-.33.26-.43l.17.89c0,.1-.16,0-.29-.13l.07.16c-.11.32-.3.15-.48-.07l.2-.32c-.2-.22-.41-.43-.6-.38a.76.76,0,0,1,.09.29c0-.06-.1-.1-.13-.07s0,.12.11.27l-.35.2.14,0-.22,1.16a8.47,8.47,0,0,1,1,2.87c-.26-.35-.43-.12-.74-.2a.19.19,0,0,0,.12-.2,1.58,1.58,0,0,0,0-.41,3.1,3.1,0,0,1-.14-1c0,.36-.18.28-.23.19l.3,1.22c-.26,0-.19.14-.3.26.49,0,.34.61.48,1.08h0a.6.6,0,0,1-.15-.18.65.65,0,0,1-.12-.47c-.16,0-.08.16,0,.38s0,.43-.35.24c.1,0,.17,0,.15-.07-.14.15-.78,0-.66-.11h.09a10.9,10.9,0,0,0-1.67,0c-.65.06-1.18.18-1.26.4a2.18,2.18,0,0,1,.19-.6L84.6,79.36c.15-.37-.44-1.24.37-1.44a1.78,1.78,0,0,0-1,0c.16,0,.4.53.18.57A4.82,4.82,0,0,0,83,77.93c.24.08,0,.65-.4.63.06-.08,0-.56.11-.62-.19.09-.21.19-.35.28a3.82,3.82,0,0,1-.42.28c.22-.1.19-.48.19-.64,0,.1-.3,0-.47,0,0,0,0,0,0,0l0,.09.07.09a.43.43,0,0,0-.16,0c-.08-.31-.79,0-.76-1,.11.12.71.16.78-.21a4.72,4.72,0,0,1-1.61-2l.17-.18L79.89,74a14.36,14.36,0,0,1,1.7,2.38c.13-.4.2-.11.18-.7.16-.21.24.32.25.5l.1-1.39c-.34.06-.34-1.06-.62-1l.35,1.51c-.34.06-1-.87-.9-1.85.13-.25.6.18.71.16a2,2,0,0,1-.14-1l.18.42c.13-.55-.44-.9-.12-1.55,0-.23.43-.68.23-.72a2.06,2.06,0,0,1-1.86.2,9.44,9.44,0,0,1,.56-1.45c.3-.38.72.56,1,.24-.1,0-.21-.22-.25-.31s.29.1.25-.41c-.34-.09,0-1.06-.29-.25-.1-.51.07-.54,0-1.13-.22.19-.75-.54-.85-1,.09,0,.2-.09.26-.14,0-1,.18-1.6.19-2.56.08-.09.18-.56.33-.36a1.11,1.11,0,0,1-.19-.57c.3-.57.05.67.4.23-.2,0-.27-.77-.4-1.2-.3.13-.06,1,.07,1.41-.42,0-.87-.74-1.06-1.75-.11-.8.27-.35.21-.49.07-1.51-.74-1.28-.43-2.54.27-.5.53,0,.73-.13.1.65-.17,1-.16,1.45l.12-.55a1.58,1.58,0,0,1,.08.89c.25-.42,0-2.55.27-3.72-.09-.21-.18-.56-.29-.39l0,.36c-.22.34-.3-.69-.4-.22a3.34,3.34,0,0,1-.27-1.75l.3-.13a.74.74,0,0,0-.08.65c-.14-.29.41-1.06,0-1.38l-.21.48c-.08-.24-.2-.52-.29-.81s-.15-.26-.1-.42c-.3.22,0,.08-.32.3.11,0,.17,0,.19,0s0,0,0,.09v.27c0,.36,0,.7.23.4-.41.45-.18.77-.53,1.36.1,0,.2-.21.15.31a1.25,1.25,0,0,1,.08.12v0s0,0,0,0a.61.61,0,0,1,.16-.26c.23.25.22,1.08.34,1.36,0,.3-.11-.13-.22,0l.18.41c-.23,0-.38.82-.51.09V58a2.5,2.5,0,0,0-.08,1.23c0,.31.25.78.07.51l.14,1h0c0,1,.37,2.08,0,3.23a4,4,0,0,1,.07,1.26l-.2.11c.07.43-.19,1.31,0,1.49-.52.47-.11,2.12-.21,2.88l.26,0a8.13,8.13,0,0,0,.16,1.69l.22,0c.19.56-.16,1.45-.14,2.34-.08-.06-.06-.28,0-.44-.51,1.06.37,2.25,0,3.21a1.16,1.16,0,0,1,0,.69s0-.07,0-.09v.15c0,.18-.08.36-.11.57.05-.18.09-.35.12-.48a10,10,0,0,0,.08,1.13l-.24.32V79c-.09.52.11.27.3-.07a1.34,1.34,0,0,0,.14.43,1,1,0,0,0-.15.58c.38,0,.88-.14,1,.13.4-.2,2.27-.15,2.24-.58,0,.06.09.09-.06.09a1.58,1.58,0,0,0,.89,0l.13.3.68-.41c.4.19.57.3.17.53,1-.36.79-.14,1.63-.5l0,.2c.29,0,.77-.27.95-.11a3.41,3.41,0,0,0,1.38.2l3,0a20.79,20.79,0,0,1,.17-2.16c-.3.18-.23-.09-.15-.44s.18-.58,0-.64c.13-.1.21-.34.33-.06-.13-.87.22-1.31-.16-1.91.14-.1.2.18.28.09s-.12-.27,0-.36.11.12.17.26c0-.89-.45-1-.85-1a.8.8,0,0,0-.1-1c.13-.16.27-.42.32.13,0-.31.19-1.9-.13-1.93.08-.1,0-.44,0-.52a14,14,0,0,0,0-1.45l0,.19c-.38-.27-.08-.57-.13-1.12h0c.28-1.27-.13-.54.18-1.8l-.24.07c-.51-.11.31-1.11.11-1.83l-.14.26c-.17-.4.71-1.11.77-1.51,0-.09.07.14.11.26.3-1-.32-.14-.39-.92.17-.14.43.19.46-.33.14-.27-.55-1.52-.22-2.24-.13.16-.27.32-.36-.05,0-.55.49-1.49.08-2,0-.07.07-.1.1-.1a6.27,6.27,0,0,0-.4-1.63c.83-.39-.4-2.64.36-2.63l0-.73.08.06a1.14,1.14,0,0,0,0-.41c.09,0,.1-.17.14-.28.16.05.11.13.13.17a2.12,2.12,0,0,0,.72.07,5,5,0,0,0,1.11-.33l.1.24c.28-.14,1.76.39,3,.1,0,0,0,.08-.13.12a6.38,6.38,0,0,1,2.17.12l.28,0,.4,0a5.25,5.25,0,0,0,.7,0c.42,0,.69-.14.71-.37l.73-.16-.07-.41c0,.14,0,.25,0,.32-.58-.07-.35-.2-.32-.33s-.13-.24-.18-.17l0,0h0c0-.45.28-1,.33-.36l-.05.07c.47.6.17-1.69.49-1.62,0-1.17,0-2.25.11-3.35l.1-1.63,0-1.1,0-1.24c-.12.21-.25.4-.37.58l0-1a1,1,0,0,1,.07-.21s0-.1.15-.14a1.05,1.05,0,0,1,0,.49,1,1,0,0,0,0-.59,3.29,3.29,0,0,0-1,.29c-.66-.07-.5-.18-.15-.27s.85-.16.6-.16l-.7,0,.13.05a4.43,4.43,0,0,1-1.62.29c-.3,0-.3-.1-.33-.15s0-.09-.09-.09,0,0-.24,0l-.93,0,.37.29c-.41.15-.87,0-.44.32-.63-.51-3.47-.18-3.85-.34a4.64,4.64,0,0,1-1.85.18c.17.06.28.39-.33.35.22-.68-1.11-.3-1.6-.78.44.32-1.73.08-1,.54-.51-.06,0-.26-.42-.41-1.2.26-2.66-.17-4.15-.09,0,.09.23.23-.09.36l-.79-.44c-.29,0-.27.51-.81.2.08.08.19.19,0,.22-2.92-.43-6,.35-8.94-.46.41.17.14.19-.17.19.2,0,0,.22,0,.34l-1.25-.33c-.22.33-1.33,0-1.46.34l.39-.06c-.52.38.74.83.66,1.31.59-.42,1.55.63,2.51,0,.21.09-.18.15-.07.26a1.23,1.23,0,0,1,1.08-.16l-.06.06a30.85,30.85,0,0,1,3.91.28l-.13-.23a1.66,1.66,0,0,1,.62.16c.43-.36-1,0-.65-.42.49.49,2.61,0,2.94.56.57,0-.17-.27.4-.27l.15.15.15-.19c.37,0,.56.21.57.34a1.1,1.1,0,0,0-.35,0,6.27,6.27,0,0,0,1.53,0L84,43.45c1.55-.14,3.45.06,5-.24l-.11-.12c1.14-.2.91.13,2.17,0l0,0a2.21,2.21,0,0,1,.93-.16c-.32.13.6.26.18.4,1.24-.22.61-.17,1.43-.59l.19.19a1.42,1.42,0,0,1,.93-.31c-.51.16.41.28-.17.5,1.32.4,2-.41,2.56.18.61-.51-1.14-.29-.8-.4-.28-.16.5-.38.91-.33s.72.66,1.78.65c-.11,0-.12,0-.22,0a.71.71,0,0,0,.49,0c.1,0,.23-.06.3.05.3-.31.28,0,.64-.38l-.67.09a5.25,5.25,0,0,1,1.2-.39,1.83,1.83,0,0,1-.06.57c-.08,0-.18-.13-.24-.19-.12.27.08.28,0,.54-.24.09-.23-.12-.24-.35a1,1,0,0,0-.53.16c0,.12.39-.1.42,0a.52.52,0,0,1-.13.12l-.07.06,0,0c.24-.15.22,0,.18.18s-.07.29.13.45h-.23l.08.1a.81.81,0,0,1,.06.31c-.1-.1-.21-.3-.31-.33.26.48-.23,1.1-.09,1.63,0-1.17.29-.26.46-.75.32,1.43-.62.82-.5,2.43,0-.21.14-.82.25-.47a2.73,2.73,0,0,1-.27.9c0,1.06.25-.17.39.29-.29.36.12.52.22,1H100l0,.19v.07a.29.29,0,0,0,0,.1.51.51,0,0,0,.16.13c.13.06.24.15.15.44a2.39,2.39,0,0,0-.34-.41l.09.31c-.09-.09-.18-.16-.27-.24a.83.83,0,0,1,.14.39,1.46,1.46,0,0,1-.34-.07c.17.17.26.44-.09.44s0-.23-.34-.19c.09-.15.09-.34.3-.12a.9.9,0,0,0,0-.23c-.23-.16-.18,0-.64,0a1.05,1.05,0,0,1,.3.06L98,50.4c-.18-.09,0-.17.1-.24a5.52,5.52,0,0,1-.71.16c.08-.2.06-.4.53-.49l-1,.22c-.07-.09-.55-.24-.41-.31-.58-.12-1.43.38-2.21.23a.56.56,0,0,1-.28.1c-.37,0-.71-.09-1.07-.13a7.2,7.2,0,0,0-.82,0,6.8,6.8,0,0,0-1,.11L90,49.7c-.59,0-.18.15.1.27s.43.24-.38.31h0c.11,1.3-.3.2-.4.59.09.42.22,1,.3,1.47a5.29,5.29,0,0,1,.06.8,1.51,1.51,0,0,1-.11.59A5.43,5.43,0,0,1,89.47,52.93Zm.16,8.48c0-.16-.21-.49-.07-.6C89.84,61,89.71,61.13,89.63,61.41Zm.58,12.67c-.08-.12,0-.3.05-.51A1.16,1.16,0,0,1,90.21,74.08ZM79.45,58.54l0,0C79.37,58.92,79.41,58.79,79.45,58.54Zm.11-.75c0-.08-.07-.07-.1,0s.06.22.05.41C79.57,58.11,79.61,58,79.56,57.79ZM98.8,41.34l.14.06C98.61,41.47,98.71,41.41,98.8,41.34Z"/><path class="cls-2" d="M89.88,72.65a.21.21,0,0,1,.13-.07C90,72.51,89.92,72.51,89.88,72.65Z"/><path class="cls-2" d="M94.19,50h0a.13.13,0,0,0,0,0Z"/><path class="cls-2" d="M81.61,69.38a.73.73,0,0,1-.12.3C81.54,69.69,81.59,69.62,81.61,69.38Z"/><path class="cls-2" d="M79.15,53.82l.06.48a.91.91,0,0,1,.08-.43C79.23,53.88,79.15,54,79.15,53.82Z"/><path class="cls-2" d="M78.94,51.32c-.07,0-.15,0-.22,0l0,.11C79,51.46,79.25,51.37,78.94,51.32Z"/><path class="cls-2" d="M80,53.38c.21-.06.14-.28.1-.5v0C79.76,53,79.86,53.07,80,53.38Z"/><path class="cls-2" d="M80,52.82a.74.74,0,0,1,0-.21C79.92,52.64,80,52.7,80,52.82Z"/><path class="cls-2" d="M79.42,56.84c.06-.16-.26-.1-.17-.19C79,56.47,79.56,57.71,79.42,56.84Z"/><path class="cls-2" d="M80.62,53.11a1.15,1.15,0,0,1-.25.12l.2.19Z"/><path class="cls-2" d="M80.44,55.76l.07-.54s-.07-.06-.09-.14C80.41,55.41,80.36,55.77,80.44,55.76Z"/><path class="cls-2" d="M80.42,55.08a1.08,1.08,0,0,0,0-.43A2.45,2.45,0,0,0,80.42,55.08Z"/><polygon class="cls-2" points="80.7 53.84 80.65 54 80.63 54.38 80.7 53.84"/><path class="cls-2" d="M80.39,61.53l.07.58c.09.06.14-.1.11-.31S80.47,61.44,80.39,61.53Z"/><path class="cls-2" d="M81.08,59.76c0,.15-.11.17-.19.25l.31,0Z"/><path class="cls-2" d="M81.15,61.46c.09.06.25.85.23.11C81.29,61.51,81.22,60.93,81.15,61.46Z"/><polygon class="cls-2" points="80.76 70.29 80.75 70.14 80.24 70.16 80.76 70.29"/><path class="cls-2" d="M82,77.31c.12-.26-.32.07-.16-.22-.12,0-.13.25-.23.21C81.71,77.46,81.64,77.57,82,77.31Z"/><path class="cls-2" d="M81.59,77.3l-.08-.09A.18.18,0,0,0,81.59,77.3Z"/><polygon class="cls-2" points="71.55 41.08 71.11 40.97 71.39 41.14 71.55 41.08"/><path class="cls-2" d="M70.69,41.46l-.1-.33-.27.29C70.42,41.41,70.62,41.38,70.69,41.46Z"/><path class="cls-2" d="M89,62.65l.08,0c.09-.07.09-.17.11-.38Z"/><polygon class="cls-2" points="89.22 56.59 89.21 56.7 89.5 56.51 89.22 56.59"/><path class="cls-2" d="M88.84,49.8c0,.4,0,.93,0,1.32C88.83,50.18,89.21,50,88.84,49.8Z"/></g></g></svg>