<svg xmlns="http://www.w3.org/2000/svg" viewBox="0 0 161.18 66.99"><defs><style>.cls-1{fill:#f6babf;}.cls-2{fill:none;}.cls-3{fill:#f7babf;}</style></defs><g id="Layer_2" data-name="Layer 2"><g id="Layer_1-2" data-name="Layer 1"><path class="cls-1" d="M1.89,2H18.46l9.72,21.16L37.92,2H54.4L35.63,38.41V64.67H20.69V38.41Z"/><path class="cls-2" d="M1.89,2H18.46l9.72,21.16L37.92,2H54.4L35.63,38.41V64.67H20.69V38.41Z"/><path class="cls-3" d="M.42,3C.29,2.71.07,3,0,2.94.32,3.41.49,3,.42,3Z"/><polygon class="cls-3" points="3.6 7.66 3.45 7.63 4.1 8.22 3.6 7.66"/><path class="cls-3" d="M6,12.3c.24-.67-.94-1.64-1.2-2.55l0-.19-.57-.18A19.2,19.2,0,0,1,6,12.3Z"/><path class="cls-3" d="M6.26,15.3c.1-.25.43.45-.24-.61a.55.55,0,0,1,0,.13A5.14,5.14,0,0,1,6.26,15.3Z"/><path class="cls-3" d="M6,14.82c-.26-.48,0,.4,0,0Z"/><path class="cls-3" d="M7.29,17l-.49-.56c0,.19.23.77,0,.6C7.27,17.68,7.31,17.49,7.29,17Z"/><path class="cls-3" d="M8,17.46l-.24-.3C7.69,17.24,7.72,17.34,8,17.46Z"/><path class="cls-3" d="M7.2,16.53l.51.63c0-.13.17-.22-.22-.3C7.66,16.85,7.45,16.78,7.2,16.53Z"/><path class="cls-3" d="M7.06,16.09c-.08-.41-.26-.91.24-.35C6.6,14.54,6.36,14.89,7.06,16.09Z"/><path class="cls-3" d="M6.6,12.29l-.11-.55-.38-.34C6.3,11.57,6.47,12.4,6.6,12.29Z"/><path class="cls-3" d="M9.12,21.16c.12,0,.15-.35.25-.47L9,20.28C9.07,20.56,9.25,21.05,9.12,21.16Z"/><path class="cls-3" d="M9.37,20.69l.54.63C9.6,20.67,9.46,20.6,9.37,20.69Z"/><polygon class="cls-3" points="8.53 17.31 7.57 16.32 8.65 17.53 8.53 17.31"/><polygon class="cls-3" points="10.51 23.88 10.07 23.6 10.79 24.14 10.51 23.88"/><path class="cls-3" d="M11.48,25.67c-.35-.21-.11.57-.39.32a4.66,4.66,0,0,0,1,1.1A3.16,3.16,0,0,1,11.48,25.67Z"/><path class="cls-3" d="M12.63,27.61a5.44,5.44,0,0,0-.54-.52A3,3,0,0,0,12.63,27.61Z"/><path class="cls-3" d="M10.49,22.55a.9.9,0,0,0,0,.71l.14-.42Z"/><path class="cls-3" d="M10.63,22.82v0l.29.61Z"/><path class="cls-3" d="M10.45,22.48l0,.07S10.5,22.49,10.45,22.48Z"/><path class="cls-3" d="M9.24,19.3c.37.34,1,1.12.79.16C9.68,19.26,9.79,19.81,9.24,19.3Z"/><path class="cls-3" d="M10.62,22l-.32-.78c-.07,0-.11.24-.29.07Z"/><polygon class="cls-3" points="10.9 22.28 10.62 21.95 10.74 22.25 10.9 22.28"/><path class="cls-3" d="M12.23,26.18a4.32,4.32,0,0,1,.71,1,11.56,11.56,0,0,0-.59-1.34C12.23,25.83,12,25.73,12.23,26.18Z"/><path class="cls-3" d="M11.48,24.54l0,.06C11.53,24.54,11.52,24.51,11.48,24.54Z"/><polygon class="cls-3" points="14.98 31.16 15 31.07 14.95 31.08 14.98 31.16"/><path class="cls-3" d="M12.37,25.75a1.25,1.25,0,0,0-.47-.66,6.1,6.1,0,0,1,.45.76C12.4,25.85,12.43,25.84,12.37,25.75Z"/><path class="cls-3" d="M13.33,28.65A4.28,4.28,0,0,0,13.2,28C13.2,28.22,13.23,28.63,13.33,28.65Z"/><path class="cls-3" d="M11.51,24.75l0,0C11.47,24.85,11.49,24.82,11.51,24.75Z"/><path class="cls-3" d="M11.51,24.75a2.37,2.37,0,0,0,.39.34,5.21,5.21,0,0,0-.37-.49A.68.68,0,0,1,11.51,24.75Z"/><path class="cls-3" d="M17.4,31.44c-.29.08-1-.65-1.07-1.53-.57-.63-1.18.28-1.33,1.16.13,0,.23-.09.77.58,0-.33-.52-1.83,0-1.32.64.92.32.86.43,1.41.12-.57,1.12,1,1.49.56l-.62-.78C17.18,31.46,17.46,31.72,17.4,31.44Z"/><path class="cls-3" d="M14.3,29.64l-.19-.29a4,4,0,0,1,.19,1.24c.39.45.54.5.65.49l-.75-1.53Z"/><path class="cls-3" d="M13.39,28c.41.09.91.77,1,.16-.48-.89-.56-.51-1-1,.82,1.42-.37-.33,0,.8a6.64,6.64,0,0,1-.48-.75c.1.28.19.56.26.82v0h0c0-.08,0-.11,0,0s0,0,0,0a.34.34,0,0,1,.14,0c.16.45,0,.1-.14,0H13.2l.91,1.38A9.44,9.44,0,0,0,13.39,28Z"/><path class="cls-3" d="M11,19.92C11,20,11,20,11,20S11.12,20.1,11,19.92Z"/><path class="cls-3" d="M11.17,20.61a1,1,0,0,1-.4-.47c-.07-.35.14-.07.22-.14-.18-.17-.57-.62-.37.1l.09.09a3,3,0,0,1,.15,1.49A2.38,2.38,0,0,0,11.17,20.61Z"/><path class="cls-3" d="M12.38,24.29l.76,1.15-.07-.75-.13.11C12.64,24.08,12.53,24.32,12.38,24.29Z"/><polygon class="cls-3" points="14.92 31.38 14.54 31.37 15.32 31.85 14.92 31.38"/><polygon class="cls-3" points="15.77 32.93 15.48 33.01 15.85 33.34 15.77 32.93"/><path class="cls-3" d="M45.78,14.89l.11-.4A1.53,1.53,0,0,0,45.78,14.89Z"/><path class="cls-3" d="M44.43,17.46l.09.13C44.51,17.43,44.49,17.36,44.43,17.46Z"/><path class="cls-3" d="M30.89,66.51c.58.27,1.24.69,1.17.36l-.18-.32A2.42,2.42,0,0,1,30.89,66.51Z"/><path class="cls-3" d="M35.56,39.57l-.1.17.31.39Z"/><path class="cls-3" d="M34.24,39.15l.2-1,0,0,0,0A6.67,6.67,0,0,0,34.24,39.15Z"/><path class="cls-3" d="M50.86,4.05l-.56.33A2.14,2.14,0,0,0,50.86,4.05Z"/><path class="cls-3" d="M18.94,49.46a5.67,5.67,0,0,0-.19,1.26C18.93,50.11,19.21,49.62,18.94,49.46Z"/><path class="cls-3" d="M48.27,17.46c.06-.25,0-.37,0-.4C48.18,17.31,48.17,17.47,48.27,17.46Z"/><path class="cls-3" d="M18.75,52.18a2.68,2.68,0,0,0,.07-.27,6.35,6.35,0,0,1-.07-1.19A2,2,0,0,0,18.75,52.18Z"/><path class="cls-3" d="M18.92,7.33s0-.09,0-.13S18.88,7.26,18.92,7.33Z"/><path class="cls-3" d="M6.77.56c.16,0,.43,0,.69,0A3,3,0,0,0,6.77.56Z"/><path class="cls-3" d="M18.68,38.9h0c-.06-.07,0,0,0,0Z"/><path class="cls-3" d="M19.2,37.14c.07,0,.14.09.21.06A.29.29,0,0,1,19.2,37.14Z"/><path class="cls-3" d="M20.74,55.93v0C20.8,55.85,20.79,55.87,20.74,55.93Z"/><path class="cls-3" d="M18.74,38.69a1.11,1.11,0,0,0,0,.17S18.75,38.79,18.74,38.69Z"/><path class="cls-3" d="M18.61,38.77s0-.05-.05-.17,0,0,0,0l0,.08Z"/><path class="cls-3" d="M18.7,39.05a.55.55,0,0,1,0-.17v0s0,0,0,0h0Z"/><path class="cls-3" d="M34.34,12.05l-.06.06C34.24,12.52,34.29,12.35,34.34,12.05Z"/><path class="cls-3" d="M34.15,59.62a.05.05,0,0,0,0,0v0Z"/><path class="cls-3" d="M33.91,58.27a1.47,1.47,0,0,1,.27,1.34l.92-.45Z"/><path class="cls-3" d="M48.88,8.66l-.69.71c.1-1.23.63-1.9-.14-1.29.83.58-1.6,3.33-.77,3.9l-.47.46c.09-.15,0-.2.14-.36-1,.87.23,1.14-.62,2.47-.32.45-.62.72-.55.34l-.34,1.19c-.18.31-.3.15-.12-.15l-.78,1.69,0,0a8.88,8.88,0,0,1-.08,1.26c-.34.35,0-.26-.15-.21l-.26,1c-.42.25-.25-.62.1-1.24-1.32.4-.16.88-1.63,2.45l.33-.92c-.79.3-.95,1.07-1.77,1.88.28-.15,1.8-1.55,1.51-.44A2.36,2.36,0,0,0,42,22.63c-.32-.16-.51.4-.83,1.06l-.4-.26c-.24.77,0,.83,0,1.34a1.34,1.34,0,0,1-1.23.81c-.71,1.23,1-.61.28.93a8.88,8.88,0,0,0-1.3,3.18c-.53.66-.19-.26-.45-.06v.82c-.09.16-.17.05-.2,0-.16.61.39.26.06,1.18.34.47-1.59,1.43-1.61,2.76-.26.21-.19-.26-.4-.26A13.35,13.35,0,0,0,35.39,37c-.14.16-.25.26-.42.47l-.51.66c.5-.54.6-.26.61.18.17.39.34.89.49,1.3l.39-.71.26,1.49c-.08.18-.24,0-.44-.22l.11.28c-.17.54-.44.26-.71-.13l.29-.54c-.28-.38-.6-.73-.88-.65a1.33,1.33,0,0,1,.13.5c-.08-.1-.15-.16-.19-.12s0,.21.17.46l-.52.34.21.09-.33,2a16.12,16.12,0,0,1,1.52,4.9c-.38-.56-.63-.12-1.08-.15.48-.61-.21-1.74-.11-2.91-.05.61-.27.48-.35.32l.44,2.08c-.37,0-.28.44-.43,1,.74-.41.49,1.55.72,2.4-.25,0-.5-.15-.44-1.18-.56,1.13.86,1.47.39,2.58,0-.25,0-.38-.09-.48.22.58,0,2-.17,1.68V52.3c-.09,1.67,0,5.09.62,5.34a3.06,3.06,0,0,1-.88-.32l2.11,3c-.54-.26-1.82.75-2.12-.64a3.68,3.68,0,0,0,0,1.73c.08-.27.78-.67.83-.3-.3.48-.38.74-.45.83a1.53,1.53,0,0,1-.38.51c.05-.07.29,0,.51.19a1.08,1.08,0,0,1,.42.77c-.13-.15-.84-.53-.92-.71a7.87,7.87,0,0,1,.57,1.13.67.67,0,0,1-.13.25c.19-.15-.6-.7-.9-.93.18.16-.66,0-.82.06a3.5,3.5,0,0,0,.39.2,1.16,1.16,0,0,0-.65.12,3.56,3.56,0,0,0-.72.41,2.7,2.7,0,0,1-1.79.59c.22-.17.54-1.06-.37-1.16-.42.42-1.85,2-3.44,2.37l-.3-.24-1.22.27a24.09,24.09,0,0,1,4-2.5c-.67-.19-.18-.29-1.2-.27-.35-.22.56-.34.85-.36l-2.36-.14c.11.49-1.8.49-1.71.91L27,62.87c.11.5-1.48,1.41-3.15,1.32-.42-.19.32-.88.28-1a1.14,1.14,0,0,1-.34.12l-.26,0-.15,0c-.22,0-.44,0-.46,0a3.5,3.5,0,0,0,.42-.26c-.17-.09-.35,0-.61.17s-.59.23-.72.09,0-.12.08-.19a2.27,2.27,0,0,1,.3-.57c.12-.18.19-.28.05-.22-.57.46-2.32,2.13-2.74,1.8,0-.1.15-.87.32-1.58a5.33,5.33,0,0,1,.5-1.49c.44-.64,1.06.95,1.44.41-.14,0-.31-.37-.36-.52.12-.4.42.17.36-.71-.5-.15,0-1.79-.43-.42-.14-.86.11-.91.08-1.92-.32.32-1.1-.91-1.24-1.78.12.06.29-.14.37-.23,0-1.77.27-2.72.27-4.36.13-.15.27-1,.49-.61a2.17,2.17,0,0,1-.27-1c.43-1,.07,1.13.59.38-.29-.06-.4-1.31-.59-2-.45.23-.08,1.68.1,2.4-.62,0-1.27-1.26-1.56-3-.16-1.37.4-.59.31-.83.11-2.57-1.08-2.19-.64-4.32.4-.85.79,0,1.08-.23a11.69,11.69,0,0,1-.24,2.47l.19-.93a3.15,3.15,0,0,1,.12,1.5c.35-.71.07-4.34.39-6.32a2.43,2.43,0,0,0-.27-.7c-.07,0-.12,0-.14,0l0,0,.06.6c-.16.29-.27,0-.36-.23s-.16-.38-.23-.06L20,38.59l-.36-.32a5.92,5.92,0,0,1-.4-.49,4.51,4.51,0,0,1-.69-1.29l.3-.4c-.11.08.12.81.39,1-.4-.35-.29-1.89-1.06-2.1l.1.88a7.69,7.69,0,0,1-1.85-2.35c-.17.63.16.19,0,1.09.28-.87,1.2,2.4,1.33,1.16-.18,1,.38,1.3.38,2.42.12-.09.09-.44.43.37.06,0,.15.08.18.07v0s0,0,0,0,0-.38,0-.46a3.86,3.86,0,0,1,.61.52l.1.4a2.67,2.67,0,0,0,.11.54c-.07.52-.17-.22-.33.06l.26.71c-.33.07-.55,1.39-.74.16l0,1.11a4.75,4.75,0,0,0-.12,2.1c-.07.52.37,1.32.11.87L19,46.4l-.08,0c0,1.72.55,3.53-.05,5.49a7.34,7.34,0,0,1,.09,2.14l-.28.19c.1.74-.29,2.23,0,2.54-.77.8-.17,3.6-.3,4.91l.37.05v1.07l0,1.14c0,.76.11,1.54.18,2.36l.33-.42,0,.17a11.7,11.7,0,0,1,2.56,0l1.56.13a10.91,10.91,0,0,0,1.11.05c-.1.13-.48.09-.76,0,1.82.74,3.83-.55,5.48,0a1.66,1.66,0,0,1,1,0l-.1,0h.17l.57.18a2.41,2.41,0,0,0-.48-.18,9.92,9.92,0,0,0,1.27-.13l.2.35H32c.46.14.37-.16.12-.43a3.19,3.19,0,0,0,.62-.21c.22.28.75.23,1.21.19a2.46,2.46,0,0,1,1.51.22A5.48,5.48,0,0,1,37,66a5,5,0,0,0-.58-2.44c.09,0,.12-.15.13.19a5.59,5.59,0,0,0,0-2l.45-.22-.61-1.14c.28-.7.44-1,.78-.3-.53-1.66-.2-1.35-.73-2.77l.29.07c0-.51-.4-1.32-.16-1.62.56-1.14.08-5.61.59-8.52-.85.56.39-1.36-.28-1.47.21-.17.32-.58.5-.11-.2-1.48.32-2.23-.24-3.25.2-.17.3.31.42.16-.05-.12-.18-.47-.06-.62s.17.21.26.45c0-1.52-.66-1.67-1.25-1.78A1.51,1.51,0,0,0,36.34,39c.19-.19.39-.43.46.2,0-.16,0-.27.05-.49s.14-.21.27-.43.26-.5.36-.72c.21-.46.32-.83.17-.93.18-.09.37-.64.39-.79.57-1,.65-1.12,1.15-2.18L39,33.9c-.29-.67.33-.92.7-1.79l0,0c1.36-1.73.26-.92,1.65-2.6L41,29.5c-.58-.52,1.26-1.47,1.57-2.7l-.38.3c.08-.72,1.78-1.2,2.18-1.76.12-.11,0,.25-.07.46,1.21-1.38-.3-.42.21-1.65.33-.1.42.58.87-.2.38-.3.46-2.66,1.44-3.53-.29.15-.59.3-.43-.31.37-.87,1.81-1.93,1.66-3,.1-.08.17-.1.21-.08A11.94,11.94,0,0,0,49,14.32c1.39,0,1.52-4.25,2.51-3.72l1-2,.08.11a5.35,5.35,0,0,0,.62-1.43,8.27,8.27,0,0,0,.11-1c.27-.37.23,0,.26,0,1.57-2.55,1.84-3.18,2-4.76l.7-.55a.3.3,0,0,1,.06-.19c-.56,0-1.39-.12-2.63-.22-.61,0-1.32-.09-2-.09q-.55,0-1.11,0L50,.55l-.26,0-.18,0s0-.11.24-.16c-2.32.42-5.47-1-6.32.31L42,1.09c1.95.1-.29.58.52.8-.77.08-2-.4-1-.47l.15.07c.31-.7-2.3-.25-2.59-.72H37.16l-.78,1.62-.67,1.34c-.38.75-.77,1.48-1.15,2.21-.77,1.47-1.52,2.9-2.2,4.35l.66-.15-.55,1.12c-.25.25-.57.23-.17-.58-.48.3-.4,1.47-.3,1.55-.93,1.5-.29-.89-.52-.41l-.27.68.13-.12A2.92,2.92,0,0,1,31,14.11c-.38.57-.44.18-.57.41,0,0-.09.06-.19.37l-.7,1.41.65-.39c-.1.72-.64,1.34.1.88a2.45,2.45,0,0,0-.42.38,3.4,3.4,0,0,0-.34.4,7.1,7.1,0,0,0-.56,1c-.35.74-.69,1.63-.77,1.53l0,.11c-.24.16-.55-.53-.85-1.27,0,.3-.07,1.19-.42.3.63-1-.31-1.71.06-2.59-.11.88-1.33-2.62-1.45-1.28-.28-.81.32-.2.25-.89-1.2-1.71-1.66-4.22-2.84-6.47-.13,0-.13.49-.54.07l0-1.48c-.26-.43-.87-.11-.84-1.13,0,.16-.12.41-.29.12-.23-.72-.49-1.42-.78-2.11l-.24-.57-.33-.74L19.25.72c-2.9,0-4.28.11-6.15.09A24.19,24.19,0,0,1,7.75.25c.68.25.23.28-.29.28.34.06,0,.33.06.5L5.4.54C5,1,3.13.58,2.91,1L3.58,1c-.89.55,1.25,1.22,1.12,1.93,1-.63,2.63.92,4.26,0,.36.14-.3.22-.11.39a2.31,2.31,0,0,1,1.84-.23l-.1.07a25.91,25.91,0,0,1,3.2.11l1.54.16.89.08.45,0,.23,0c0-.12,0-.24,0-.35a.55.55,0,0,1,.46.24c.66-.53-.91,0-.45-.61a1,1,0,0,0,.8.34l.5,1.23c.24.62.38,1.15.21,1.44.4.88.25-.43.65.46l-.1.32.36.1c.23.6.11,1-.05,1.1a3.56,3.56,0,0,0-.31-.52A12.71,12.71,0,0,0,20,9.7l-.27-.9c1.29,2.31,2.38,5.36,3.85,7.5l.07-.25c1.12,1.73.35,1.21,1.78,4L25.37,20a6.61,6.61,0,0,1,1.06,1.75c-.2-.2-.11.23,0,.69s.2.91-.07.57c.75,1.24.91,1.43,1,1.47a1.06,1.06,0,0,1,.61,0l.16,1h0A13.21,13.21,0,0,1,29,22.75c-.2.71-.1.74,0,.77s.24.06,0,1a11.41,11.41,0,0,0,1.62-3.43c.36-1.05.56-1.7,1.25-2.15,0-1.74-1.47,2.18-1.25,1.32-.21.16-.17-.26-.06-.75A6.1,6.1,0,0,1,31,18.1c.19-.39.53-.55.93-.85a3.74,3.74,0,0,0,1.22-1.55c-.07.16,0,.19-.1.36.45-.54.31-1.31.94-1.93-.22-.62.47-1,0-1.33l-.57,1.55c.26-.91,0-2,1-3.26a3,3,0,0,1,0,1c.35-.33.26-.83.62-1.18.47.36-.73,1.87-.74,3,.42-.34.41-1.9.77-1.18-.43-1,.83-1.57.79-2.93l.28.22A3,3,0,0,1,36.27,9l.14.77c.06-1.06,1.1-1.59,1.31-2.54-.82,1.81-.57.23-1.15.89C37.17,5.7,38,7.22,39,4.66c-.11.36-.77,1.18-.68.58.14-.22.32-.47.49-.7s.15-.15.2-.16a.34.34,0,0,1,.14,0c.07-.23,0-.31-.1-.33s-.27,0-.28-.21c.22,0,.21-.06.18-.29a.46.46,0,0,1,.28-.36l.12.36a.63.63,0,0,0,.48,0,.44.44,0,0,0,.29-.23c.11-.18.2-.35,1.13-.22l-.79.5,1-.13-.2.4a4.75,4.75,0,0,1,2.42-.1c-.24-.25.14-.65,1-.66.63.21-.35.34,1,.29a.91.91,0,0,1-1.18.17c-.05.12-.29.22-.34.34a6.62,6.62,0,0,0,2.16.05,1.76,1.76,0,0,1-.51-.08l1.88-.5c.3.14.06.25-.17.35a11.52,11.52,0,0,1,1.21-.23c-.15.29-.11.58-.91.72l1.8-.32a1,1,0,0,0,.17.11.75.75,0,0,1,.07.12.25.25,0,0,1,0,.22c.07.09.18-.05.45-.19s.66-.26.7-.14a1.61,1.61,0,0,1,.32-.14,0,0,0,0,1,0,0,7.06,7.06,0,0,1-.53.62.43.43,0,0,0-.09.52,1.15,1.15,0,0,1-.31,0h-.14a.15.15,0,0,0-.16,0c-.42,1.08,1.1-.7.39,1.09-.47,1.28-.62.25-1,.6a4.39,4.39,0,0,1-1.08,2.92A7.33,7.33,0,0,1,48.88,8.66ZM42.59,21.38c.06-.28.1-.87.38-.95C43.19,20.89,42.91,21,42.59,21.38ZM34.88,41.65a1.09,1.09,0,0,1,.07-.87A2.23,2.23,0,0,1,34.88,41.65ZM19,42.55l0,0C18.85,43.2,18.9,43,19,42.55Zm.16-1.27c-.05-.13-.1-.12-.15-.07s.09.38.07.7C19.14,41.82,19.21,41.66,19.13,41.28ZM30.49,14.71l.18-.19C30.53,15.07,30.51,14.89,30.49,14.71Z"/><path class="cls-3" d="M34.39,39.21a.34.34,0,0,1,.19-.12C34.52,38.92,34.46,39,34.39,39.21Z"/><path class="cls-3" d="M51,4h0l-.11.06Z"/><path class="cls-3" d="M22.14,61a1.43,1.43,0,0,1-.18.5C22,61.53,22.12,61.41,22.14,61Z"/><path class="cls-3" d="M17,36l.45.68a1.82,1.82,0,0,1-.23-.71C17.14,36,17.11,36.18,17,36Z"/><path class="cls-3" d="M15.7,28.65c-.1-.08-.12-.22-.22-.3l-.13.1C15.59,28.9,15.87,29.15,15.7,28.65Z"/><path class="cls-3" d="M17.69,34.74c.24-.19-.09-.6-.4-1.08l.05.09C16.89,33.79,17.29,34.27,17.69,34.74Z"/><path class="cls-3" d="M17.22,33.54a4.09,4.09,0,0,1-.25-.46C16.79,33.1,17,33.28,17.22,33.54Z"/><path class="cls-3" d="M18.93,39.66c.07-.27-.38-.17-.26-.32C18.29,39,19.13,41.15,18.93,39.66Z"/><polygon class="cls-3" points="18.35 33.88 18.12 34.23 18.53 34.38 18.35 33.88"/><path class="cls-3" d="M20.18,38l-.33-.85c-.05,0-.13,0-.22-.16C19.87,37.5,20.1,38.09,20.18,38Z"/><path class="cls-3" d="M19.63,37a2.29,2.29,0,0,0-.39-.63A4.36,4.36,0,0,0,19.63,37Z"/><polygon class="cls-3" points="19.02 34.94 19.08 35.21 19.35 35.8 19.02 34.94"/><path class="cls-3" d="M20.35,47.64l.1,1c.13.1.21-.17.16-.55S20.47,47.49,20.35,47.64Z"/><path class="cls-3" d="M21.36,44.63c-.08.27-.16.28-.28.44l.45,0Z"/><path class="cls-3" d="M21.46,47.53c.13.1.37,1.45.34.18C21.67,47.61,21.57,46.62,21.46,47.53Z"/><path class="cls-3" d="M20.88,62.5v-.24l-.75.17A6.34,6.34,0,0,0,20.88,62.5Z"/><path class="cls-3" d="M31.8,62.68c-1.18-.18-.28.47-1.35.24-.28.18.87.18.59.34C31.75,63.07,32.12,63.18,31.8,62.68Z"/><path class="cls-3" d="M31,63.26a3,3,0,0,0-.37.11A1.93,1.93,0,0,0,31,63.26Z"/><polygon class="cls-3" points="3.99 0.16 3.23 0 3.72 0.25 3.99 0.16"/><path class="cls-3" d="M2.53.71,2.35.23,1.89.67C2.07.65,2.4.61,2.53.71Z"/><path class="cls-3" d="M40.76,22.81l.08.11c.17-.05.26-.2.44-.51Z"/><polygon class="cls-3" points="45.8 13.82 45.71 13.97 46.24 13.88 45.8 13.82"/><path class="cls-3" d="M49.26,5.88c-.17.31-.28.72-.46,1C49.09,6.19,49.79,6.05,49.26,5.88Z"/><path class="cls-1" d="M54.4,2H70.27L91,36.66V2h16V64.67H91L70.38,30.24V64.67h-16Z"/><path class="cls-2" d="M54.4,2H70.27L91,36.66V2h16V64.67H91L70.38,30.24V64.67h-16Z"/><path class="cls-3" d="M52.6,2.36c0-.5-.28-.32-.33-.4C52.34,2.8,52.68,2.34,52.6,2.36Z"/><polygon class="cls-3" points="53.3 10.62 53.18 10.47 53.49 11.69 53.3 10.62"/><path class="cls-3" d="M53.3,18.34c.52-.73-.09-2.79.1-4.17l.12-.23-.42-.62A44.08,44.08,0,0,1,53.3,18.34Z"/><path class="cls-3" d="M52.16,22.46c.21-.25.18.9.07-1,0,.1,0,.12-.06.18A7.14,7.14,0,0,1,52.16,22.46Z"/><path class="cls-3" d="M52.17,21.68c0-.82-.17.53,0,0Z"/><path class="cls-3" d="M52.29,25.43l-.18-1.07c-.12.23-.15,1.18-.24.83C52,26.29,52.09,26.06,52.29,25.43Z"/><path class="cls-3" d="M52.67,26.45l-.07-.55C52.55,26,52.53,26.14,52.67,26.45Z"/><path class="cls-3" d="M52.43,24.72l.17,1.18c.08-.16.25-.18-.06-.55C52.69,25.45,52.54,25.22,52.43,24.72Z"/><path class="cls-3" d="M52.51,24.05c.12-.6.19-1.38.37-.3C52.81,21.7,52.44,22,52.51,24.05Z"/><path class="cls-3" d="M53.84,18.74l.16-.8-.18-.7C53.91,17.59,53.68,18.79,53.84,18.74Z"/><path class="cls-3" d="M52,32.11c.11.07.3-.36.44-.44l-.13-.79C52.25,31.29,52.18,32.06,52,32.11Z"/><path class="cls-3" d="M52.46,31.67l.19,1.19C52.67,31.8,52.58,31.6,52.46,31.67Z"/><polygon class="cls-3" points="53.26 26.64 52.85 24.7 53.26 27.02 53.26 26.64"/><polygon class="cls-3" points="52.01 36.63 51.74 35.96 52.14 37.16 52.01 36.63"/><path class="cls-3" d="M52.05,39.64c-.21-.5-.36.68-.5.15a10.36,10.36,0,0,0,.39,2.14A6.79,6.79,0,0,1,52.05,39.64Z"/><path class="cls-3" d="M52.18,43a9.7,9.7,0,0,0-.24-1A5.68,5.68,0,0,0,52.18,43Z"/><path class="cls-3" d="M52.6,34.87a1.49,1.49,0,0,0-.32.93l.31-.46Z"/><path class="cls-3" d="M52.6,35.32v0l0,1Z"/><path class="cls-3" d="M52.6,34.76v.11S52.64,34.8,52.6,34.76Z"/><path class="cls-3" d="M53,29.75c.18.69.37,2.14.64.74C53.39,30,53.24,30.79,53,29.75Z"/><path class="cls-3" d="M53,34.18l.07-1.26c-.08,0-.2.25-.29-.09Z"/><polygon class="cls-3" points="53.09 34.79 52.99 34.18 52.97 34.64 53.09 34.79"/><path class="cls-3" d="M52.48,40.83a8.31,8.31,0,0,1,.17,1.81c.06-.72.09-1.47.09-2.18C52.65,40.37,52.47,40.05,52.48,40.83Z"/><path class="cls-3" d="M52.57,38.15v.12C52.61,38.2,52.62,38.14,52.57,38.15Z"/><polygon class="cls-3" points="52.65 49.25 52.7 49.14 52.65 49.12 52.65 49.25"/><path class="cls-3" d="M52.8,40.34a2.53,2.53,0,0,0-.11-1.17c0,.41.05.83.05,1.29C52.79,40.51,52.82,40.52,52.8,40.34Z"/><path class="cls-3" d="M52.33,44.83c.07-.29.12-.61.17-.94C52.4,44.16,52.25,44.73,52.33,44.83Z"/><path class="cls-3" d="M52.5,38.45l0-.08C52.42,38.55,52.45,38.53,52.5,38.45Z"/><path class="cls-3" d="M52.5,38.45a4.17,4.17,0,0,0,.19.72c0-.33-.06-.63-.11-.9A.61.61,0,0,1,52.5,38.45Z"/><path class="cls-3" d="M54.67,51.25c-.29-.1-.56-1.52-.25-2.75-.22-1.2-1.18-.41-1.72.64.13,0,.25,0,.42,1.28.16-.43.37-2.76.64-1.71a3.61,3.61,0,0,1-.26,2.15c.36-.68.53,2.1,1.06,1.74l-.18-1.45C54.46,51.13,54.59,51.65,54.67,51.25Z"/><path class="cls-3" d="M52.73,46.77l0-.51A8.16,8.16,0,0,1,52.3,48c.14.85.25,1,.35,1.09l0-2.52Z"/><path class="cls-3" d="M52.7,44c.31.4.45,1.63.79.88,0-1.5-.26-1.05-.4-2,.08,2.42-.18-.7-.36,1,0-.47-.07-.9-.08-1.3,0,.43-.09.85-.15,1.25l0-.06h0c0-.1.06-.14,0,0s0,0,0,.05a.4.4,0,0,1,.12.11c-.07.7-.09.11-.12-.11,0,0,0,0,0,0h0l.18,2.43C52.74,45.75,52.73,45.1,52.7,44Z"/><path class="cls-3" d="M54.29,31.78c0,.08,0,.08-.07.08C54.25,32,54.28,32.08,54.29,31.78Z"/><path class="cls-3" d="M54.1,32.78a1.75,1.75,0,0,1-.14-.89c.09-.5.15,0,.26,0-.09-.34-.23-1.21-.39-.12l.05.17A5.71,5.71,0,0,1,53.33,34,3.38,3.38,0,0,0,54.1,32.78Z"/><path class="cls-3" d="M53.48,38.44l.15,2,.28-1-.17.06C53.81,38.34,53.61,38.59,53.48,38.44Z"/><polygon class="cls-3" points="52.49 49.48 52.15 49.21 52.63 50.38 52.49 49.48"/><polygon class="cls-3" points="52.53 52.1 52.24 52.01 52.41 52.7 52.53 52.1"/><path class="cls-3" d="M105.26,35.61l-.08-.59A3.8,3.8,0,0,0,105.26,35.61Z"/><path class="cls-3" d="M105.24,39.91l.14.11C105.3,39.82,105.24,39.74,105.24,39.91Z"/><path class="cls-3" d="M72.49,37.34c.38,1.16.61,2.37.47,1.49l-.18-.92C72.7,37.9,72.62,37.68,72.49,37.34Z"/><path class="cls-3" d="M96.54,64.6l-.25-.1-.59.31Z"/><path class="cls-3" d="M97.15,63.28l1.14.2A7.68,7.68,0,0,0,97.15,63.28Z"/><path class="cls-3" d="M104.92,12.13l-.33-.69C104.6,12.52,104.76,12.05,104.92,12.13Z"/><path class="cls-3" d="M69.45,66.42c1.11.11,2.07.17,2.87.19v-.34l0,.3C70.75,66.39,69.71,66.18,69.45,66.42Z"/><path class="cls-3" d="M108.65,37.3c-.06-.36-.12-.51-.19-.5C108.51,37.17,108.57,37.38,108.65,37.3Z"/><path class="cls-3" d="M72.33,62.64l-.08.64c0,.92.1,1.89.08,3A12.56,12.56,0,0,0,72.33,62.64Z"/><path class="cls-3" d="M77,16.76a1.39,1.39,0,0,1-.06-.19S76.91,16.66,77,16.76Z"/><path class="cls-3" d="M61.61.56c.24,0,.64,0,1,0A6.53,6.53,0,0,0,61.61.56Z"/><path class="cls-3" d="M52.39,63.26c0-.94,0-.14,0,0Z"/><path class="cls-3" d="M53.65,60c0,.12.09.21.16.22A.34.34,0,0,1,53.65,60Z"/><path class="cls-3" d="M70.34,56.76v0C70.27,56.88,70.29,56.85,70.34,56.76Z"/><path class="cls-3" d="M52.54,61.83c0,.35-.08.76-.1,1.21C52.47,62.84,52.5,62.46,52.54,61.83Z"/><path class="cls-3" d="M52.38,62l0-.57s-.05,0-.06,0a.42.42,0,0,0,0,.16Z"/><path class="cls-3" d="M52.41,64.58c0-.54,0-1.06,0-1.54,0,.19,0,.27,0,.22Z"/><path class="cls-3" d="M92,15.29l0,.12C92.06,16,92,15.73,92,15.29Z"/><path class="cls-3" d="M79.88,43.21l0,0,0,.07Z"/><path class="cls-3" d="M81.11,44.81a3,3,0,0,1-1.25-1.57l-.45,1Z"/><path class="cls-3" d="M105.17,25.32l-.29,1.4c-.47-1.69-.31-2.92-.71-1.6,1,.2.1,5.46,1.1,5.66l-.21.92c0-.26,0-.31,0-.57-.48,1.8.72,1.34.58,3.66-.08.81-.22,1.37-.34.82l.25,1.81c0,.52-.2.39-.18-.13l.08,2.75,0,0c.16.39.4,1.28.51,1.71-.15.7-.11-.35-.24-.17l.25,1.52c-.26.62-.51-.64-.48-1.69-1,1.42.25,1.26-.33,4.33L105,44.28c-.56.93-.36,2-.71,3.68.18-.39.89-3.26,1.14-1.61a4.89,4.89,0,0,0,.09,2c-.36,0-.27.88-.25,2l-.47-.07c.14,1.17.38,1.08.59,1.77,0,1.32-.41,1.59-.72,1.9-.08,2.1.58-1.45.67,1a19.61,19.61,0,0,0,.3,5.07c-.16,1.22-.29-.22-.43.22l.38,1.09c0,.26-.12.18-.18.13a.79.79,0,0,0,.13.41l.17.08c.12,0,.23.14.3.62.25.21.08.67-.09,1a9.48,9.48,0,0,0-1-.22,1.34,1.34,0,0,0-.4,0l-.19,0-.27.09c-.44-.13.21-.29.08-.47a27.2,27.2,0,0,0-4.09.8l-1.71-.31c1.26.36-.35.78-1.75,1.12.45.17.83.32,1.08.39l-2.24.25c-.27-.07,0-.24.32-.43l-.41.11c-.8-.17-.38-.45.19-.71l.81.29c.55-.28,1.07-.6.95-.88a3,3,0,0,1-.73.13c.14-.08.24-.15.17-.19s-.31,0-.68.17l-.5-.52-.13.2-1.46-.16-.73-.08-.37,0-.28,0a8.38,8.38,0,0,1-.87.4A3.14,3.14,0,0,1,91,63.1a6.81,6.81,0,0,1-.89-.86,21.56,21.56,0,0,1-2.06-2.56c.75.51.63-.17,1-.37A3.27,3.27,0,0,0,90,60.94l.74.94c.13.16.25.33.37.51l.16.26.08.16c-.08-.19-.17-.48-.12-.52s.17,0,.26.07l-2-2.41c.36-.13-.09-.7-.37-1.47-.33.9-1.6-1.72-2.44-2.67.17-.2.55-.07,1.28,1.27-.39-1.73-1.86-1.42-2.31-3.08.2.31.27.51.45.57-.63-.64-1.57-2.55-1.13-2.23l.19.31c-1.19-2.16-3.86-6.46-4.58-6.46a2.66,2.66,0,0,1,1,0l-4.08-2.71c.66.06,1-1.88,2.31-.27A8,8,0,0,0,78.49,41c.15.39-.15,1.26-.47.82a16.9,16.9,0,0,0-.78-2.92c.1.28-.11.39-.41.33a1.54,1.54,0,0,1-1-.79c.2.09.6-.62.94-.23a22.11,22.11,0,0,0-2.17-2c.43.43.41-.68,0-1.75.15.57-1.61-2.72-2.11-3.4l.78,1.67c-1-1.81-1.46-2-1.75-1.88s-.44.45-1.16-.8a10.17,10.17,0,0,0-.31-1.62,14.19,14.19,0,0,0-1.06-2.89,1.09,1.09,0,0,0,0,.15c.21,1.21.72,3.95,1.22,6.32s1,4.35,1.15,5.35a.86.86,0,0,0-.24-.11q.14.87.27,1.56a20.67,20.67,0,0,1-1.29-4.26c-.48-2.15-1-5.08-1.21-7.21-.19,1-.29-.42-.27,2-.22.33-.34-2.22-.35-3L68.19,32a9,9,0,0,1,.48,2.83c.12,1.22.22,2.33.43,2.38q-.25-3-.52-6.59a17.67,17.67,0,0,1,.88,3.65,23.3,23.3,0,0,1,.44,4.6c-.1.32-.32.12-.53-.25a8.15,8.15,0,0,0-.51-.9,16.49,16.49,0,0,1,.21,2.07l0,1a1.41,1.41,0,0,1,0,.45l-.13-.52-.07-.27-.06-.41,0,.39v.26a3.42,3.42,0,0,0,0,.46c0,.3.12.59.19.89a4,4,0,0,1,0,2c0,.57-.64,1.71-.34,1.81.56-.93,2.31-1.12,2.73-.5a31.82,31.82,0,0,1-.82,3.65c-.44.94-1-1.41-1.43-.61.13,0,.3.56.35.77-.11.6-.42-.25-.36,1.06.51.21,0,2.65.43.61a23.7,23.7,0,0,1-.08,2.85c.32-.47,1.1,1.35,1.25,2.62-.13-.07-.3.22-.37.35,0,1.31-.1,2.31-.16,3.3l-.08,1.49c0,.52,0,1,0,1.51-.12.17-.27,1-.49.4.05.16.11.34.17.57a1.47,1.47,0,0,1-.6.1c-1.36-.43,1.19-.06-.07-.59.11.15-.12.25-.52.34s-.87.16-1.48.25c.37.42,2.06.13,2.71-.06l0-.22a1.28,1.28,0,0,1,.33.51c.07.26-.23.51-1,.72a9.49,9.49,0,0,1-1.39.29c-.53.09-1,.16-1.51.22-2,.16-.88-.4-1.23-.31-3.8-.11-3.24,1.09-6.39.64-1.26-.4-.06-.79-.34-1.08a26.84,26.84,0,0,1,3.65.24l-1.38-.19a6.61,6.61,0,0,1,2.23-.11,17.47,17.47,0,0,0-3.4-.21c-1.61,0-3.44,0-4.74-.11,0-.35,0-.68.08-1-.13-.36-.27-1.24-.43-.76l.06.93c-.16.55-.27.18-.36-.24s-.16-.85-.23-.1a17.53,17.53,0,0,1-.4-4.67l.45-.33A2.91,2.91,0,0,0,53.65,60c-.2-.73.61-2.69,0-3.49l-.31,1.23a15.86,15.86,0,0,1-.57-4.35c-.44.71.05.36-.47,1.46.65-.95,0,4,.66,2.44-.61,1.13-.26,2-.78,3.44.15,0,.29-.53.22.78,0,.06.09.2.13.28v0c0,.06,0,.06,0,0a1.62,1.62,0,0,1,.23-.66,2.73,2.73,0,0,1,.19.71c.05.39.09.92.12,1.4.06,1,.11,1.94.19,2.34l0,.28c.2,0,.07.07-.11.11,0-.13-.12-.32-.2.07l0,.1,1.6-.24c-.05.17.64.3,1,.42s.44.23-1.13.32l2.74,0a10.08,10.08,0,0,0,3.12.12c.77.07,1.95-.37,1.28-.11l2.57-.2,0,.08c1,0,2-.06,3-.13l.42,0,.61,0,1.23,0c.81,0,1.64,0,2.51,0,0-1,.11-2,.25-3a26.59,26.59,0,0,1-.09-3.74l.28-.28c-.1-1.09.29-3.29,0-3.76.77-1.19.17-5.33.31-7.26l-.38-.07a39.5,39.5,0,0,0-.23-4.25l-.33.1a10.12,10.12,0,0,1,0-2.64l.07-.78c0-.2.05-.27.06-.41a3.2,3.2,0,0,0,.06-.7A.44.44,0,0,1,72,40a.76.76,0,0,0,.24-.59,9.34,9.34,0,0,0-.17-1c-.16-.81-.34-2.16-.07-1.82A2.17,2.17,0,0,1,72,35.9l.19.47s0,0,0,0l.06.1.3.86c-.1-.33-.21-.63-.28-.81a.74.74,0,0,0,.34.3l.23,1.08,0,0c.16.53.06-.24-.14-1.08a.26.26,0,0,0,.19-.11c.14.8.23.85.35,1s.29.31.3.93c.09-.15.32.13.61.43.15.14.31.3.48.43s.43.33.6.31c0,.06,0,.26-.18-.06a6.91,6.91,0,0,0,1.18,1.91l-.22.51,1.4,1.14c.29,1,.37,1.48-.45.78,1.72,1.84,1.2,1.61,2.73,3.14l-.3.06c.39.64,1.34,1.47,1.37,2,.38,1.73,4.19,7.17,6,11.13.31-1.16.7,1.91,1.36,1.72-.05.32.16.89-.35.38a13.22,13.22,0,0,1,1.06,1.72c.43.79.82,1.52,1.25,2.18a10.86,10.86,0,0,0,2.09-.26c.38.2-.79.3-.46.42a6.78,6.78,0,0,1,.74-.09l.22,0h.14a.59.59,0,0,1,.21.05c.11.06,0,.1-.12.14a2.35,2.35,0,0,1-.29.06l-.5.06h.64l.35,0a4.1,4.1,0,0,0,.59-.09,2.11,2.11,0,0,0,.76-.29,1.24,1.24,0,0,0,.54-.83,3.27,3.27,0,0,0,2.53-.14c.39.19,1,.39-.34.46.78,0,4.79.28,4.87-.19a3.38,3.38,0,0,0,1.31,0l2.16,0c.65,0,1.29,0,2.44,0l-.71-.08a.75.75,0,0,1,.48-.27c-.11-.76.12-1.43.07-2.76l.06.06.11-1.15c0-.26,0-.46,0-.63a4.94,4.94,0,0,0,0-.67,7.37,7.37,0,0,1,.16-2.25l-.35.17c-.76-.29.44-2.79.15-4.62l-.2.66c-.26-1,1-2.79,1.13-3.8.07-.22.11.35.15.65.45-2.63-.46-.34-.57-2.3.25-.36.64.47.69-.85.2-.66-.82-3.82-.34-5.62-.19.39-.38.79-.53-.12-.06-1.4.73-3.77.13-5,0-.18.1-.25.15-.25a25,25,0,0,0-.59-4.11c1.22-1-.6-6.63.53-6.6l-.06-3.28.11.08a7.82,7.82,0,0,0-.46-3.57c.08-.48.18-.13.24-.09a14.46,14.46,0,0,0-.38-5.93l.36-.27c-.21-.7.58-4.43.15-7.43,0,0,.11.09.16.33,0-.31-.06-.63-.07-.95V3.58c0-1,.07-2.08.12-3.18L106,.25l-1.28,0h-.94a2.91,2.91,0,0,0-2.08.57l-2.23.33c2.88.1-.43.58.75.8-1.13.08-2.93-.4-1.54-.47l.22.07c.51-.7-3.58-.25-3.51-.72H92.87l-3.12,0-.09,4.34-.11,3.06c-.07,2-.13,4-.14,6l.54-.61,0,1.85c-.12.49-.42.65-.4-.67A3.4,3.4,0,0,0,89.89,17c-.21,2.59-.62-1-.64-.22l0,1.08.07-.24a5.91,5.91,0,0,1,.42,2.54c-.1,1-.33.52-.35.91,0,0-.06.13,0,.61l0,2.34.42-.94c.21,1,0,2.2.46,1.12a7.16,7.16,0,0,0-.36,2.05c-.06.67-.08,1.19-.08,1.84a14.29,14.29,0,0,1,0,2.56A16.77,16.77,0,0,1,90,33.22c-.19-.29-.41-.68-.64-1.1.19.51.69,2.27,0,1a8,8,0,0,0-.77-2.59,6.6,6.6,0,0,1-.73-2.14c.21,1.27-1.18-1.76-1.13-.36-.4-.82.25-.31.12-1-1.88-2.41-3.21-5.87-5.25-9-.14,0,0,.66-.57.06l-.46-2c-.43-.61-1-.2-1.3-1.6,0,.22,0,.55-.28.14a75,75,0,0,0-3.74-6.62l-2-3.27L72.24,3,70.93.81,68.46.76l-1.8-.1c-1.2-.09-2.4-.22-3.6-.41,1,.25.34.28-.43.28.5.06,0,.33.09.5L59.59.54C59,1,56.23.58,55.91,1l1-.08c-1.32.55,1.84,1.22,1.65,1.93,1.47-.63,3.89.92,6.31,0,.53.14-.46.22-.17.39a4.88,4.88,0,0,1,2.73-.23l-.16.07h1.52l.8,0c.14.28.27.54.39.8l.68,1.34c.48,1,1,2,1.74,3.35l.13-.46a7,7,0,0,1,.6,1.47c1,.65-1.32-2.26-.32-1.72,0,1.42,3.36,5.64,3.09,6.77.73,1.23.13-.57.86.66v.44l.43.17c.44.83.45,1.38.31,1.5a7,7,0,0,0-.52-.73,29.62,29.62,0,0,0,2,3.31l-.59-1.26c1.09,1.63,2.19,3.51,3.3,5.35.55.92,1.11,1.84,1.68,2.71s1.05,1.56,2,2.85l-.09-.48a20.48,20.48,0,0,1,1.91,3.12,33.44,33.44,0,0,0,2,3.6l-.07-.05a9.88,9.88,0,0,1,1.57,2.19c-.21-.17.1.54.43,1.28s.66,1.49.32,1.13c.5.69.81,1.11,1,1.32a18.69,18.69,0,0,0-.23-2.13c-.09-.58-.23-1.41-.47-3.12a1.46,1.46,0,0,0,.28.14,23.83,23.83,0,0,1-.45-4c.12,1,.22.93.33.84s.24-.2.4,1.16a19.14,19.14,0,0,0,.17-3c0-1-.08-1.89-.14-2.66a19,19,0,0,1-.09-2,4.67,4.67,0,0,1,.09-.82,2.23,2.23,0,0,1,.24-.58c-.38-.75-.49-.07-.52.79,0,1.08,0,2.3-.07,1.69-.24.78-.56-1.91-.48-2.76,0-1.06,1-1.8,1-4.47,0,.27,0,.29,0,.55.19-1-.26-2,0-3.18-.46-.69,0-1.59-.56-1.79l.14,2.45c-.15-1.39-.84-2.69-.51-5A5.47,5.47,0,0,1,92,15.29c.18-.67-.11-1.28.07-2,.58.2.12,3,.57,4.46.24-.72-.42-2.81.21-2.06-.81-1.08.1-2.63-.52-4.44l.35.12a6.84,6.84,0,0,1-.21-1.4l.46.95c-.39-1.46.33-2.82.12-4.22,0,2.94-.42.66-.67,1.9a4.32,4.32,0,0,1,.26-2.91c.07-.14.13-.29.2-.46s.06-.18.09-.28l0-.15s0,0,0-.07a.64.64,0,0,0,.11-.56.24.24,0,0,1-.1.25c-.08.07-.19.12-.27-.08a.73.73,0,0,1,.24-.44,1.92,1.92,0,0,1,.29.15c.32,0,.29-.13.13-.24s-.45-.23-.26-.34c.65.43.25-.17,1.65-.31v.36c3.06.23.81-.74,3.57-.47l-1.17.5,1.44-.13-.29.4a10.28,10.28,0,0,1,3.58-.1c-.36-.25.2-.65,1.55-.66.47.1.34.19.33.24s0,0,.18.05h.56a1.92,1.92,0,0,1-.38.29,1.79,1.79,0,0,1-1-.12c-.08.12-.43.22-.51.34a4.93,4.93,0,0,0,.82.11h.79c.17,0,.35-.07.46-.07a.33.33,0,0,1-.2-.08,5.79,5.79,0,0,1,1-.35,1.13,1.13,0,0,1,.14.27c-.13.31-.24.19-.34.15,0,.18.2.25.23.65-.29,0-.59,0-.72-.16a1.08,1.08,0,0,1,.16.25l0,.09,0,0L105,5l.08.67c-.13.18-.35,1.36-.45,1-.17,1.47.56,3.61.33,5.56a1.93,1.93,0,0,1,.15.72,23,23,0,0,0,0,5.63l-.52,1.23c.12,1.71.66-1.67.85,1.17.17,2-.44.75-.59,1.45a9.28,9.28,0,0,1,.38,4.58A13.43,13.43,0,0,1,105.17,25.32Zm.23,21c-.08-.4-.31-1.21-.1-1.51C105.71,45.26,105.51,45.62,105.4,46.31Zm-12,17.61a2.38,2.38,0,0,1,1.3.07A4.94,4.94,0,0,1,93.45,63.92ZM58.5,66.39l0,0C59.45,66.51,59.13,66.46,58.5,66.39Zm-2.23-.15c-.3.05-.3.1-.19.15a2.18,2.18,0,0,1,.63-.08h.85a.86.86,0,0,0-.31-.1A5.84,5.84,0,0,0,56.27,66.24Zm33.29-45,.09-.37C89.76,21.7,89.66,21.47,89.56,21.24Z"/><path class="cls-3" d="M97.07,63.43a.33.33,0,0,1,.17.19C97.4,63.56,97.41,63.49,97.07,63.43Z"/><path class="cls-3" d="M105,12.26V12.2a.14.14,0,0,0-.06-.07Z"/><path class="cls-3" d="M68.93,49.25a2.44,2.44,0,0,1,.19-.75C69,48.48,69,48.66,68.93,49.25Z"/><path class="cls-3" d="M52.23,56.9l.09,1.21A3.42,3.42,0,0,1,52.44,57C52.36,57.05,52.24,57.28,52.23,56.9Z"/><path class="cls-3" d="M54.43,46.43c0-.18,0-.38,0-.55l-.16,0C54.23,46.68,54.36,47.2,54.43,46.43Z"/><path class="cls-3" d="M53.41,55.79c.3-.1.2-.86.14-1.7a.75.75,0,0,1,0,.15C53.13,54,53.27,54.89,53.41,55.79Z"/><path class="cls-3" d="M53.54,53.89a6.77,6.77,0,0,1,0-.78C53.37,53,53.5,53.43,53.54,53.89Z"/><path class="cls-3" d="M52.64,66.16c.07-.72-.39-.09-.26-.58-.16-.21-.11.52,0,1.12,1.08-.14,2-.36.28-.28Z"/><polygon class="cls-3" points="54.4 55.1 54.03 55.41 54.32 55.88 54.4 55.1"/><path class="cls-3" d="M54.12,61.78l.11-1.35c-.06,0-.1-.15-.13-.36A7,7,0,0,0,54.12,61.78Z"/><path class="cls-3" d="M54.1,60.07A4.84,4.84,0,0,0,54,59C54,59.21,54.06,59.72,54.1,60.07Z"/><polygon class="cls-3" points="54.51 56.95 54.43 57.35 54.4 58.3 54.51 56.95"/><path class="cls-3" d="M66,65l1.47-.11c.15-.13-.25-.2-.8-.15C66.35,64.85,65.8,64.89,66,65Z"/><path class="cls-3" d="M61.57,64a1.36,1.36,0,0,1,.65.28l0-.46Z"/><path class="cls-3" d="M65.87,63.9c.14-.13,2.14-.37.27-.34C66,63.69,64.51,63.79,65.87,63.9Z"/><polygon class="cls-3" points="70.19 46.97 70.19 47.35 70.94 47.29 70.19 46.97"/><path class="cls-3" d="M70.88,27.2c-1.64-3.1-.07.78-1.54-2.11-.17.05,1.19,2.34,1,2.25C71,28.13,71.53,29.23,70.88,27.2Z"/><path class="cls-3" d="M70.3,27.34A2,2,0,0,0,70,27C70.16,27.25,70.25,27.32,70.3,27.34Z"/><polygon class="cls-3" points="57.49 0.16 56.37 0 57.1 0.25 57.49 0.16"/><path class="cls-3" d="M55.34.71,55.07.23,54.4.67A2.44,2.44,0,0,1,55.34.71Z"/><path class="cls-3" d="M104.43,49.44l.12.08a2,2,0,0,0,.15-1Z"/><polygon class="cls-3" points="104.79 34.2 104.78 34.46 105.21 33.97 104.79 34.2"/><path class="cls-3" d="M104.24,21.41c0,.52.08,1.13.06,1.66C104.22,21.93,104.78,21.27,104.24,21.41Z"/><path class="cls-1" d="M107,2h52.6V17.45H142V64.67h-17.3V17.45H107Z"/><path class="cls-2" d="M107,2h52.6V17.45H142V64.67h-17.3V17.45H107Z"/><path class="cls-3" d="M105.21,2.23c0-.34-.28-.22-.33-.27C105,2.53,105.29,2.22,105.21,2.23Z"/><polygon class="cls-3" points="105.92 7.85 105.79 7.75 106.1 8.58 105.92 7.85"/><path class="cls-3" d="M105.91,13.11c.53-.5-.09-1.91.1-2.84l.12-.16-.42-.42A19.5,19.5,0,0,1,105.91,13.11Z"/><path class="cls-3" d="M104.77,16.94c.21-.41.18,1,.07-1.19l-.06.23C104.79,16.18,104.79,16.46,104.77,16.94Z"/><path class="cls-3" d="M104.78,16c0-1-.17.69,0,0Z"/><path class="cls-3" d="M105.74,19.55l-1,.12-.06-.38a2.72,2.72,0,0,0-.09.54c.36.05.81.08.45.14C106.58,19.87,106.32,19.75,105.74,19.55Z"/><path class="cls-3" d="M107.17,19.17l-.66.08C106.58,19.3,106.74,19.31,107.17,19.17Z"/><path class="cls-3" d="M105,19.4l1.47-.15c-.12-.09,0-.26-.65.06C106.1,19.15,105.72,19.31,105,19.4Z"/><path class="cls-3" d="M105.13,18.57c.11-.79.18-1.63.36-.63C105.42,15.86,105.05,16.25,105.13,18.57Z"/><path class="cls-3" d="M106.45,13.38l.16-.55-.18-.47C106.52,12.59,106.29,13.41,106.45,13.38Z"/><path class="cls-3" d="M112,19.83c0-.12-.24-.3-.3-.45l-.53.13C111.47,19.59,112,19.66,112,19.83Z"/><path class="cls-3" d="M111.73,19.38l.81-.19C111.82,19.17,111.69,19.26,111.73,19.38Z"/><path class="cls-3" d="M107.7,18.59c-.68.13-1.43.26-2.23.39v0c.94-.13,1.8-.27,2.59-.4Z"/><polygon class="cls-3" points="115.11 19.84 114.66 20.1 115.47 19.71 115.11 19.84"/><path class="cls-3" d="M117.15,19.79c-.34.22.47.37.11.5a4.74,4.74,0,0,0,1.45-.39A3.2,3.2,0,0,1,117.15,19.79Z"/><path class="cls-3" d="M119.43,19.66a5.06,5.06,0,0,0-.72.24A2.9,2.9,0,0,0,119.43,19.66Z"/><path class="cls-3" d="M113.91,19.25a1,1,0,0,0,.64.32l-.32-.32Z"/><path class="cls-3" d="M114.22,19.24h0l.68,0Z"/><path class="cls-3" d="M113.83,19.25h.08S113.86,19.21,113.83,19.25Z"/><path class="cls-3" d="M110.43,18.87c.47-.18,1.46-.36.5-.63C110.59,18.45,111.14,18.61,110.43,18.87Z"/><path class="cls-3" d="M113.44,18.85l-.86-.07c0,.08.17.2-.06.29Z"/><polygon class="cls-3" points="113.86 18.75 113.44 18.85 113.76 18.88 113.86 18.75"/><path class="cls-3" d="M118,19.36a4.69,4.69,0,0,1,1.23-.17,12.21,12.21,0,0,0-1.47-.09C117.65,19.2,117.44,19.38,118,19.36Z"/><path class="cls-3" d="M116.14,19.28l.09,0S116.13,19.22,116.14,19.28Z"/><polygon class="cls-3" points="122.53 19.2 122.54 19.14 122.5 19.19 122.53 19.2"/><path class="cls-3" d="M117.64,19a1.29,1.29,0,0,0-.8.11,7.89,7.89,0,0,1,.88,0S117.75,19,117.64,19Z"/><path class="cls-3" d="M120.68,19.51l-.63-.17C120.23,19.44,120.62,19.59,120.68,19.51Z"/><path class="cls-3" d="M116.35,19.35h-.06C116.42,19.43,116.4,19.4,116.35,19.35Z"/><path class="cls-3" d="M116.35,19.35a2.78,2.78,0,0,0,.49-.2,4.48,4.48,0,0,0-.61.11Z"/><path class="cls-3" d="M124.93,17.61c-.11.07-.22,0-.29-.15a2.14,2.14,0,0,1-1.44,0c-.94.22-.53,1.18-.66,1.72.11-.13.13-.25.75-.42,0-.08-.2-.17-.36-.28s-.28-.22.06-.35c.88-.14.7.05.82.21l0,.13c.18-.33.31-.22.47,0s.33.51.59.25l-.19-.87C124.72,17.7,124.85,18,124.93,17.61Z"/><path class="cls-3" d="M121.89,19.11l-.07,0-.16,0,.14,0,.06,0a.25.25,0,0,1,.1.08.7.7,0,0,1,.13.26,1.56,1.56,0,0,0,.41-.35l-.66,0Z"/><path class="cls-3" d="M120.1,19.15c.27-.32,1.1-.46.59-.8-1,0-.71.27-1.32.4,1.64-.08-.48.18.71.36a7.34,7.34,0,0,1-.89.08c.3,0,.59.09.86.15l0,0h0c-.07,0-.09-.07,0-.05h0a.23.23,0,0,1,.08-.12c.47.06.07.08-.08.12,0,0,0,0,0,.05h0l1.65-.17A8.66,8.66,0,0,0,120.1,19.15Z"/><path class="cls-3" d="M111.81,17.55a.08.08,0,0,1,0,.08C112,17.59,112,17.56,111.81,17.55Z"/><path class="cls-3" d="M112.49,17.75a.91.91,0,0,1-.61.13c-.34-.09,0-.15,0-.25-.23.08-.82.23-.08.38l.12,0c.66.11,1.51.5,1.4.55A2.41,2.41,0,0,0,112.49,17.75Z"/><path class="cls-3" d="M116.34,18.37l1.38-.16-.7-.28,0,.17C116.27,18,116.44,18.24,116.34,18.37Z"/><path class="cls-3" d="M122.48,19.35l-.28.34a3.48,3.48,0,0,1,.61-.47Z"/><path class="cls-3" d="M122.79,19.65l-.29.18a.35.35,0,0,1,.17,0Z"/><path class="cls-3" d="M140.21,27.4l-.08-.4A1.83,1.83,0,0,0,140.21,27.4Z"/><path class="cls-3" d="M140.19,30.33l.14.07C140.25,30.26,140.2,30.21,140.19,30.33Z"/><path class="cls-3" d="M122.82,62.61c-.27,1-.69,2.47-.37,2.15l.32-.49A7.24,7.24,0,0,1,122.82,62.61Z"/><path class="cls-3" d="M141.89,54.29l-.1.18.3.39Z"/><path class="cls-3" d="M140.56,53.88l.21-.78A4.82,4.82,0,0,0,140.56,53.88Z"/><path class="cls-3" d="M148,15.36l.47-.33C147.71,15,148,15.2,148,15.36Z"/><path class="cls-3" d="M122.91,36.72a6.52,6.52,0,0,0-.2,1.27C122.9,37.38,123.17,36.89,122.91,36.72Z"/><path class="cls-3" d="M143.6,28.55c-.06-.24-.12-.35-.19-.34C143.46,28.46,143.52,28.61,143.6,28.55Z"/><path class="cls-3" d="M122.71,39.46a2.76,2.76,0,0,0,.08-.27,6.41,6.41,0,0,1-.08-1.2A2.12,2.12,0,0,0,122.71,39.46Z"/><path class="cls-3" d="M128.79,3.78l-.13,0S128.71,3.79,128.79,3.78Z"/><path class="cls-3" d="M111.92.56c.16,0,.43,0,.69,0A3,3,0,0,0,111.92.56Z"/><path class="cls-3" d="M122.65,25.61c0-.37,0-.06,0,0Z"/><path class="cls-3" d="M123.91,23.77c0,.08.08.14.16.15A.26.26,0,0,1,123.91,23.77Z"/><path class="cls-3" d="M124.7,43.23v0C124.76,43.15,124.75,43.17,124.7,43.23Z"/><path class="cls-3" d="M122.79,25a3.3,3.3,0,0,0-.09.49C122.72,25.45,122.75,25.3,122.79,25Z"/><path class="cls-3" d="M122.64,25.12l0-.33C122.62,24.74,122.59,24.78,122.64,25.12Z"/><path class="cls-3" d="M122.67,26.14a4,4,0,0,1,0-.61c0,.07,0,.1,0,.08Z"/><path class="cls-3" d="M158.64,3.08l0-.08a.13.13,0,0,0-.06,0c-.11,0-.1,0,0,0Z"/><path class="cls-3" d="M132.15,63.19h0l0,0Z"/><path class="cls-3" d="M133.51,63a1.49,1.49,0,0,1-1.35.27l.45.92Z"/><path class="cls-3" d="M140.12,20.4l-.29,1a4.69,4.69,0,0,1-.25-.79,3,3,0,0,1-.08-.32l-.05-.43c-.07-.45-.13-.47-.33.42,1,.18.1,3.73,1.1,3.87l-.21.63c0-.18,0-.21,0-.39-.48,1.23.72.92.58,2.49-.08.55-.22.94-.34.56l.25,1.23c0,.36-.2.27-.18-.09l.08,1.87h0a9.4,9.4,0,0,1,.51,1.17c-.15.47-.11-.24-.24-.12l.25,1c-.26.43-.51-.43-.48-1.15-1,1,.26.86-.33,3l-.13-1c-.56.63-.36,1.39-.71,2.5.18-.26.89-2.21,1.14-1.09a2.3,2.3,0,0,0,.09,1.34c-.36,0-.27.6-.25,1.34l-.47,0c.14.8.38.74.59,1.21a1.33,1.33,0,0,1-.72,1.28c-.08,1.43.58-1,.67.71a9.12,9.12,0,0,0,.3,3.44c-.16.84-.29-.14-.43.16l.38.74c0,.18-.12.12-.18.09.14.62.47.05.6,1,.52.26-.76,2-.17,3.21-.14.3-.29-.14-.47-.05a12.81,12.81,0,0,0,.8,2.78l-.31,1.16c.35-.85.77.24,1.12,1.19.17-.3.32-.56.39-.73l.25,1.52c-.08.19-.24,0-.44-.22l.12.28c-.18.55-.45.26-.71-.13l.29-.54c-.29-.38-.6-.73-.88-.65a1.77,1.77,0,0,1,.13.49c-.08-.09-.15-.16-.2-.11s.06.21.18.46l-.53.35.21.08-.33,2A16.25,16.25,0,0,1,141.9,62c-.39-.55-.63-.1-1.09-.15.48-.6-.21-1.75-.11-2.92,0,.61-.27.48-.34.32l.44,2.1c-.38-.1-.28.59-.44.7.72-.12.51,1,.71,1.73l0,0a.73.73,0,0,1-.2-.26,1.12,1.12,0,0,1-.19-.78c-.23.1-.12.29.05.65s0,.62-.66.34c.17,0,.29,0,.27-.09a1.11,1.11,0,0,1-.75.07c-.28,0-.45-.14-.35-.24h.15c-.15,0-.82,0-1.35,0s-1.16,0-1.71.07c-1.1.09-2,.27-2.15.58a3.39,3.39,0,0,1,.32-.88l-3,2.11c.27-.54-.75-1.82.65-2.13a3.9,3.9,0,0,0-1.74,0c.27.07.68.78.3.83a8.64,8.64,0,0,0-2-.84c.41.12,0,1-.7.94.11-.13,0-.84.19-.92a6.85,6.85,0,0,0-.77.41,3.48,3.48,0,0,1-.65.41c.36-.15.21-.7.18-.93,0,.14-.52,0-.8,0a.15.15,0,0,0,0-.08l0,.15.13.14a.82.82,0,0,0-.27,0c-.06-.3-.35-.31-.62-.49s-.52-.53-.5-1.34c.17.22,1.05.54,1.16-.38a7.76,7.76,0,0,1-2.37-3.46l.24-.3-.27-1.23a24.79,24.79,0,0,1,2.5,4.08c.19-.69.29-.19.27-1.21.22-.36.34.55.35.85l.15-2.37c-.5.1-.5-1.82-.91-1.73l.51,2.58c-.49.11-1.4-1.49-1.31-3.17.19-.43.88.32,1,.28a3.71,3.71,0,0,1-.2-1.75l.26.72c.19-.94-.65-1.53-.18-2.66,0-.39.64-1.16.34-1.22a2.64,2.64,0,0,1-2.73.33,15.74,15.74,0,0,1,.82-2.48c.44-.64,1.05,1,1.43.41-.13,0-.3-.37-.35-.52.11-.41.42.17.35-.72-.5-.15,0-1.8-.42-.42-.14-.86.1-.92.08-1.94-.32.33-1.1-.91-1.25-1.78.13.05.3-.14.37-.24,0-1.77.28-2.73.28-4.39.12-.15.27-1,.49-.61a2.34,2.34,0,0,1-.28-1c.44-1,.07,1.14.59.39-.29-.07-.4-1.32-.58-2-.45.22-.09,1.68.09,2.41-.62,0-1.27-1.27-1.56-3-.15-1.37.41-.59.32-.83.11-2.59-1.09-2.21-.64-4.35.4-.86.79,0,1.07-.23a12.6,12.6,0,0,1-.23,2.48l.19-.93a3.06,3.06,0,0,1,.11,1.51c.36-.72.07-4.37.4-6.37-.13-.35-.27-1-.43-.67l.06.63c-.32.58-.45-1.19-.6-.39a6.93,6.93,0,0,1-.39-3l.45-.22c-.13,0-.27.78-.13,1.11-.2-.49.61-1.83,0-2.37l-.31.84a8.55,8.55,0,0,1-.57-2.39c-.22.18-.21.18-.21.22s0,.11-.26.22c.65-.69,0,2.69.66,1.64-.61.77-.26,1.33-.78,2.34.15,0,.29-.36.21.53a.64.64,0,0,1,.13.19V25l0,0s0,0,0,0a1,1,0,0,1,.22-.45c.35.44.34,1.85.51,2.32-.07.53-.17-.22-.33.07l.27.71c-.33.07-.55,1.4-.75.16v1.12a4.65,4.65,0,0,0-.12,2.11c-.07.53.36,1.33.11.88l.2,1.75h-.08c0,1.73.55,3.56,0,5.53a8.18,8.18,0,0,1,.09,2.15l-.29.19c.1.75-.28,2.24,0,2.57-.77.8-.17,3.62-.31,4.93l.38,0a17.26,17.26,0,0,0,.23,2.89l.33-.07c.27,1-.23,2.49-.2,4-.13-.11-.09-.49,0-.77-.74,1.83.55,3.86,0,5.51a1.69,1.69,0,0,1,0,1,.36.36,0,0,0,0-.1v.17a6.66,6.66,0,0,0-.18.88,6.56,6.56,0,0,0,.18-.79,19,19,0,0,0,.13,2l-.36.49v.18c-.13.86.17.48.44,0a3.45,3.45,0,0,0,.21.76,1.77,1.77,0,0,0-.22,1c.64,0,1.48-.21,1.77.19a12.11,12.11,0,0,1,2.14-.3,3.87,3.87,0,0,0,.94-.19.76.76,0,0,0,.47-.36c0,.08.16.12-.1.13a3.15,3.15,0,0,0,1.53,0l.23.46,1.15-.61c.7.27,1,.43.29.78,1.68-.53,1.36-.2,2.79-.73l-.07.29c.51,0,1.33-.4,1.64-.16a7.2,7.2,0,0,0,2.36.3l4.87.05c0-1.29.1-2.55.24-3.74-.22.2-.3.16-.31,0a1.82,1.82,0,0,1,.1-.62c.12-.42.26-.93-.07-1,.2-.17.32-.58.49-.11-.2-1.49.33-2.24-.24-3.28.21-.17.3.32.42.17,0-.12-.17-.47,0-.63s.17.22.26.46c0-1.53-.66-1.68-1.25-1.8a1.57,1.57,0,0,0-.15-1.72c.19-.26.4-.71.46.23,0-.53.29-3.26-.18-3.31a1.67,1.67,0,0,0,0-.89c0-1.2.07-1.3,0-2.48l-.08.33c-.56-.47-.12-1-.19-1.93l.06,0c.41-2.18-.2-.94.27-3.09l-.35.12c-.76-.2.44-1.9.15-3.15l-.2.45c-.26-.68,1-1.9,1.13-2.58.07-.15.11.23.16.44.44-1.79-.47-.23-.58-1.56.25-.25.64.31.69-.58.2-.45-.81-2.6-.34-3.83-.19.27-.38.54-.52-.08-.07-.95.72-2.56.12-3.42.05-.12.1-.17.15-.17a12.06,12.06,0,0,0-.59-2.8c1.22-.67-.6-4.5.53-4.49l0-.88,0-.6.11.09a1.77,1.77,0,0,0-.05-.69c.18-.08.23-.25.33-.41.26.07.15.18.18.24a5.32,5.32,0,0,0,3.33-.38l.18.36c.47-.21,3,.57,5,.15a.31.31,0,0,1-.22.16,13.38,13.38,0,0,1,3.72.18c.3,0,.58.06.86.08a11.69,11.69,0,0,0,1.21,0c.72-.05,1.22-.21,1.3-.55l1.28-.23-.09-.69c0,.25,0,.43,0,.56-1-.1-.55-.3-.48-.48-.1-.24-.19-.39-.26-.26l-.08,0h0a2.19,2.19,0,0,1,.2-1c.11-.22.24-.23.28.34l-.07.13c.35.47.41-.26.44-1.12,0-.42,0-.86.07-1.19s.09-.42.21-.41c0-1.93.07-3.84.16-5.71s.2-3.27.22-6.54c-.18.33-.36.63-.54.91l0-1.75a2.17,2.17,0,0,1,.1-.33c-.05-.07,0-.16.22-.22a2.22,2.22,0,0,1,.08.87,2.32,2.32,0,0,0,.06-1,5.53,5.53,0,0,0-1.69.43c-1.15-.11-.89-.27-.32-.4s1.42-.23,1-.24l-1.2,0,.23.06c-.52.11-.81.23-1.16.31a4,4,0,0,1-.61.09,5.57,5.57,0,0,1-.82,0c-.69-.11-.35-.33-.62-.35,0,0-.09-.06-.42,0l-1.59,0,.64.43c-.71.21-1.5,0-.76.46-1.08-.74-5.93-.27-6.59-.5A9.26,9.26,0,0,1,144,1c.3.09.48.57-.56.51.38-1-1.91-.43-2.75-1.14.75.47-3,.12-1.78.78-.87-.08,0-.37-.71-.6-2.07.38-4.56-.25-7.11-.12,0,.13.38.33-.16.52L129.62.31c-.51.06-.47.74-1.39.29.13.11.33.28,0,.32-5-.63-10.23.52-15.32-.67.69.25.23.28-.29.28.34.06,0,.33.06.5L110.54.54c-.39.49-2.28,0-2.5.5l.67-.08c-.9.55,1.25,1.22,1.12,1.93,1-.63,2.65.92,4.3,0,.36.14-.31.22-.12.39a2.36,2.36,0,0,1,1.86-.23l-.11.07a60.46,60.46,0,0,1,6.7.43l-.22-.35a3,3,0,0,1,1.06.24c.73-.53-1.78,0-1.11-.61.84.71,4.46,0,5,.82,1,0-.29-.41.69-.4l.26.21.24-.28c.64,0,1,.32,1,.51a4.34,4.34,0,0,0-.61.06,12.43,12.43,0,0,0,2.62,0l-.93-.13c2.66-.21,5.9.08,8.47-.37l-.19-.16c2-.3,1.57.18,3.72,0l-.07,0A4.3,4.3,0,0,1,144,3c-.54.19,1,.38.31.59,2.13-.33,1.05-.26,2.46-.87l.32.27a2.74,2.74,0,0,1,1.6-.44c-.88.23.69.41-.3.72,2.26.6,3.35-.6,4.39.27,1-.75-2-.42-1.38-.58-.48-.25.86-.56,1.57-.49s1.22,1,3,1c-.18,0-.19.06-.37,0a2.34,2.34,0,0,0,1,0,2,2,0,0,1,.32-.05.37.37,0,0,1,.26.12.53.53,0,0,1,.48-.23c.13,0,.24,0,.52-.33l-1.12.13a8.77,8.77,0,0,1,1.95-.58,2.86,2.86,0,0,1-.07,1c-.12,0-.28-.26-.36-.38-.17.42.11.5-.06.91-.36.1-.33-.27-.35-.65a1.67,1.67,0,0,0-.86.22c0,.19.64-.14.69-.05s-.08.1-.18.18l-.11.08.08,0c.35-.21.32.1.27.35a1.29,1.29,0,0,0,0,.39c0,.15.08.19.23.46L158,4.84a3.36,3.36,0,0,1,.21,1l-.46-.64c.39,1-.33,1.91-.12,2.87,0-2,.42-.45.67-1.3.47,2.47-.91,1.42-.74,4.18-.05-.37.21-1.4.37-.82a5.31,5.31,0,0,1-.39,1.54c.07,1.83.36-.28.57.5-.42.62.18.9.31,1.7H158a1.84,1.84,0,0,0,0,.88.61.61,0,0,0,.24.18c.18.08.35.21.21.73A3.45,3.45,0,0,0,158,15l.13.5c-.14-.12-.27-.23-.41-.33a1.39,1.39,0,0,1,.21.62,2,2,0,0,1-.56-.1c.26.25.33.65-.27.66-.21-.11-.15-.19-.16-.24s0-.05-.07-.06h-.5a3.25,3.25,0,0,1,.43-.29c.08-.06.15-.05.31.12a2,2,0,0,0,0-.34.47.47,0,0,0-.4-.12c-.4,0-.77.07-1,.07a1.76,1.76,0,0,1,.51.08l-1.89.49c-.3-.13-.07-.24.17-.34a11.78,11.78,0,0,1-1.22.23c.15-.29.11-.59.91-.72l-1.8.32c-.12-.13-.93-.35-.69-.45-1-.17-2.46.56-3.79.33a1,1,0,0,1-.49.15c-.62,0-1.21-.13-1.83-.18l-.47,0c-.18,0-.25,0-.59,0a12.67,12.67,0,0,0-1.73.17c-.54-.17-1.13-.35-1.77-.52-1,.06-.35.22.09.4s.68.35-.72.45h0c.16,2.2-.44.41-.58,1.12.13.68.32,1.56.44,2.43a4.44,4.44,0,0,1-.07,2.1A7.33,7.33,0,0,1,140.12,20.4Zm.23,14.28c-.08-.27-.31-.83-.1-1C140.66,34,140.46,34.21,140.35,34.68Zm.85,21.72a1.11,1.11,0,0,1,.08-.89A2.36,2.36,0,0,1,141.2,56.4ZM122.94,29.77v0C122.82,30.41,122.87,30.2,122.94,29.77Zm.15-1.28c0-.13-.1-.12-.15-.07a1.15,1.15,0,0,1,.07.71C123.11,29,123.17,28.87,123.09,28.49ZM155.78.54l.25.09C155.47.73,155.63.64,155.78.54Z"/><path class="cls-3" d="M140.72,53.93a.29.29,0,0,1,.19-.11C140.85,53.71,140.78,53.7,140.72,53.93Z"/><path class="cls-3" d="M147.89,15.42h0a.13.13,0,0,0,0-.06Z"/><path class="cls-3" d="M126.11,48.34a1.31,1.31,0,0,1-.19.51C126,48.87,126.08,48.75,126.11,48.34Z"/><path class="cls-3" d="M122.49,21.69l.09.82a1.68,1.68,0,0,1,.12-.74C122.61,21.79,122.49,22,122.49,21.69Z"/><path class="cls-3" d="M121.77,17.41c-.12.05-.25,0-.37.05l0,.17C121.94,17.62,122.29,17.48,121.77,17.41Z"/><path class="cls-3" d="M123.67,20.93c.3,0,.2-.67.14-1V20c-.21,0-.28.06-.28.18s0,.07,0,.11l0,.2Z"/><path class="cls-3" d="M123.8,19.84a2.26,2.26,0,0,1,0-.37C123.63,19.49,123.76,19.62,123.8,19.84Z"/><path class="cls-3" d="M122.89,26.86c.08-.27-.38-.17-.26-.33C122.25,26.23,123.09,28.35,122.89,26.86Z"/><polygon class="cls-3" points="124.65 20.47 124.28 20.67 124.58 21 124.65 20.47"/><path class="cls-3" d="M124.38,25l.11-.92c-.07,0-.1-.1-.13-.25C124.35,24.41,124.27,25,124.38,25Z"/><path class="cls-3" d="M124.36,23.84a2.3,2.3,0,0,0-.06-.74A4.14,4.14,0,0,0,124.36,23.84Z"/><polygon class="cls-3" points="124.77 21.72 124.69 22 124.66 22.64 124.77 21.72"/><path class="cls-3" d="M124.31,34.89l.11,1c.12.1.2-.17.15-.54S124.43,34.74,124.31,34.89Z"/><path class="cls-3" d="M125.32,31.86c-.07.27-.16.28-.28.44l.46,0Z"/><path class="cls-3" d="M125.43,34.78c.13.1.36,1.46.33.18C125.64,34.86,125.53,33.86,125.43,34.78Z"/><polygon class="cls-3" points="124.85 49.9 124.84 49.64 124.09 49.68 124.85 49.9"/><path class="cls-3" d="M126.65,62.25c.18-.41-.47,0-.24-.41-.18-.13-.19.39-.34.3C126.26,62.45,126.15,62.61,126.65,62.25Z"/><path class="cls-3" d="M126.07,62.14A1.2,1.2,0,0,0,126,62,.32.32,0,0,0,126.07,62.14Z"/><polygon class="cls-3" points="109.11 0.16 108.35 0 108.84 0.25 109.11 0.16"/><path class="cls-3" d="M107.65.71l-.18-.48L107,.67C107.18.65,107.52.61,107.65.71Z"/><path class="cls-3" d="M139.38,36.81l.12,0c.12-.11.13-.29.15-.65Z"/><polygon class="cls-3" points="139.74 26.44 139.73 26.62 140.16 26.29 139.74 26.44"/><path class="cls-3" d="M139.19,15.25c0,.7.08,1.58.06,2.26C139.17,15.91,139.73,15.55,139.19,15.25Z"/></g></g></svg>