<svg xmlns="http://www.w3.org/2000/svg" viewBox="0 0 204.74 90.83"><defs><style>.cls-1{fill:#f6babf;}.cls-2{fill:#f6f6f6;}.cls-3{fill:none;}</style></defs><g id="Layer_2" data-name="Layer 2"><g id="Layer_1-2" data-name="Layer 1"><rect class="cls-1" width="204.74" height="90.83"/><path class="cls-2" d="M47.63,23h11.5l6.75,14.68L72.64,23H84.08l-13,25.29V66.52H60.68V48.28Z"/><path class="cls-3" d="M47.63,23h11.5l6.75,14.68L72.64,23H84.08l-13,25.29V66.52H60.68V48.28Z"/><path class="cls-2" d="M46.61,23.72c-.09-.22-.24,0-.29-.06C46.54,24,46.66,23.69,46.61,23.72Z"/><polygon class="cls-2" points="48.82 26.94 48.71 26.92 49.16 27.33 48.82 26.94"/><path class="cls-2" d="M50.48,30.17c.17-.48-.66-1.14-.84-1.78l0-.13-.4-.12A13.29,13.29,0,0,1,50.48,30.17Z"/><path class="cls-2" d="M50.66,32.25c.07-.18.3.31-.16-.43v.09A2.92,2.92,0,0,1,50.66,32.25Z"/><path class="cls-2" d="M50.5,31.91c-.18-.33,0,.28,0,0Z"/><path class="cls-2" d="M51.38,33.44,51,33.05c0,.14.16.54,0,.42C51.37,33.9,51.39,33.77,51.38,33.44Z"/><path class="cls-2" d="M51.84,33.74l-.17-.2C51.66,33.59,51.68,33.66,51.84,33.74Z"/><path class="cls-2" d="M51.31,33.1l.36.44c0-.09.12-.16-.15-.21C51.63,33.32,51.49,33.27,51.31,33.1Z"/><path class="cls-2" d="M51.22,32.79c-.06-.28-.18-.63.16-.24C50.9,31.72,50.73,32,51.22,32.79Z"/><path class="cls-2" d="M50.9,30.16l-.08-.39-.26-.23C50.69,29.66,50.81,30.23,50.9,30.16Z"/><path class="cls-2" d="M52.65,36.31c.08,0,.1-.24.18-.32l-.25-.29C52.62,35.89,52.74,36.24,52.65,36.31Z"/><path class="cls-2" d="M52.83,36l.37.43C53,36,52.89,35.92,52.83,36Z"/><polygon class="cls-2" points="52.24 33.64 51.57 32.96 52.32 33.79 52.24 33.64"/><polygon class="cls-2" points="53.61 38.2 53.31 38.01 53.81 38.38 53.61 38.2"/><path class="cls-2" d="M54.29,39.44c-.24-.14-.08.4-.28.22a3.52,3.52,0,0,0,.7.77A2.11,2.11,0,0,1,54.29,39.44Z"/><path class="cls-2" d="M55.09,40.79c-.11-.12-.24-.23-.38-.36A2.18,2.18,0,0,0,55.09,40.79Z"/><path class="cls-2" d="M53.6,37.28a.66.66,0,0,0,0,.49l.1-.29Z"/><path class="cls-2" d="M53.7,37.47h0l.2.42Z"/><path class="cls-2" d="M53.57,37.23l0,.05S53.61,37.24,53.57,37.23Z"/><path class="cls-2" d="M52.73,35c.26.24.69.78.55.11C53,35,53.12,35.38,52.73,35Z"/><path class="cls-2" d="M53.69,36.86l-.22-.54s-.08.17-.2,0Z"/><polygon class="cls-2" points="53.89 37.09 53.69 36.87 53.78 37.07 53.89 37.09"/><path class="cls-2" d="M54.81,39.8a2.89,2.89,0,0,1,.49.7,9.88,9.88,0,0,0-.41-.94C54.81,39.55,54.63,39.48,54.81,39.8Z"/><path class="cls-2" d="M54.28,38.66l0,0S54.31,38.63,54.28,38.66Z"/><polygon class="cls-2" points="56.72 43.26 56.73 43.19 56.69 43.2 56.72 43.26"/><path class="cls-2" d="M54.9,39.5a.84.84,0,0,0-.32-.46,5.1,5.1,0,0,1,.31.52S55,39.56,54.9,39.5Z"/><path class="cls-2" d="M55.57,41.51a4.31,4.31,0,0,0-.09-.44C55.48,41.21,55.5,41.5,55.57,41.51Z"/><path class="cls-2" d="M54.31,38.81l0,0C54.28,38.87,54.29,38.85,54.31,38.81Z"/><path class="cls-2" d="M54.31,38.81a1.84,1.84,0,0,0,.27.23,3.35,3.35,0,0,0-.26-.34A.37.37,0,0,1,54.31,38.81Z"/><path class="cls-2" d="M58.4,43.45c-.2,0-.68-.46-.75-1.07-.39-.43-.81.2-.92.81.09,0,.16-.06.54.41,0-.24-.37-1.27,0-.92.45.64.23.6.3,1,.08-.4.78.7,1,.38l-.42-.54S58.44,43.64,58.4,43.45Z"/><path class="cls-2" d="M56.24,42.2l-.13-.2a3.07,3.07,0,0,1,.14.86c.27.31.37.35.44.34l-.51-1.06Z"/><path class="cls-2" d="M55.61,41c.29.06.63.53.68.11-.33-.62-.39-.35-.66-.68.57,1-.26-.24,0,.55-.13-.18-.23-.36-.33-.52q.11.28.18.57v0h0c0-.05,0-.07,0,0l0,0a.14.14,0,0,1,.09,0c.11.31,0,.07-.09,0h0l.63,1A6,6,0,0,0,55.61,41Z"/><path class="cls-2" d="M54,35.45a.07.07,0,0,1,0,.06C54,35.56,54,35.58,54,35.45Z"/><path class="cls-2" d="M54.08,35.93a.6.6,0,0,1-.28-.33c0-.24.09-.05.15-.09-.13-.12-.4-.43-.26.07l.06.06a2.14,2.14,0,0,1,.11,1A1.8,1.8,0,0,0,54.08,35.93Z"/><path class="cls-2" d="M54.91,38.49l.53.79,0-.52-.09.08C55.09,38.34,55,38.51,54.91,38.49Z"/><polygon class="cls-2" points="56.67 43.4 56.41 43.4 56.95 43.73 56.67 43.4"/><polygon class="cls-2" points="57.26 44.48 57.06 44.54 57.32 44.77 57.26 44.48"/><path class="cls-2" d="M78.09,32l.08-.28A1.25,1.25,0,0,0,78.09,32Z"/><path class="cls-2" d="M77.16,33.74l.06.09C77.22,33.73,77.2,33.67,77.16,33.74Z"/><path class="cls-2" d="M67.76,67.79c.41.19.86.48.81.25l-.12-.22A1.69,1.69,0,0,1,67.76,67.79Z"/><path class="cls-2" d="M71,49.09l-.07.12.22.27Z"/><path class="cls-2" d="M70.08,48.8l.14-.72,0,0,0,0A5.73,5.73,0,0,0,70.08,48.8Z"/><path class="cls-2" d="M81.62,24.44a4.27,4.27,0,0,0-.38.22A1.35,1.35,0,0,0,81.62,24.44Z"/><path class="cls-2" d="M59.47,56a4.18,4.18,0,0,0-.14.87C59.46,56.41,59.65,56.07,59.47,56Z"/><path class="cls-2" d="M79.82,33.74c0-.17,0-.25,0-.27C79.77,33.64,79.76,33.75,79.82,33.74Z"/><path class="cls-2" d="M59.33,57.84l.05-.18a5.37,5.37,0,0,1-.05-.83A1.46,1.46,0,0,0,59.33,57.84Z"/><path class="cls-2" d="M59.45,26.72s0-.07,0-.1S59.42,26.66,59.45,26.72Z"/><path class="cls-2" d="M51,22h.47A1.49,1.49,0,0,0,51,22Z"/><path class="cls-2" d="M59.29,48.63h0s0,0,0,0Z"/><path class="cls-2" d="M59.65,47.4a.16.16,0,0,0,.14.05A.16.16,0,0,1,59.65,47.4Z"/><path class="cls-2" d="M60.71,60.45v0C60.76,60.39,60.75,60.4,60.71,60.45Z"/><path class="cls-2" d="M59.33,48.48a.25.25,0,0,0,0,.12A1.05,1.05,0,0,0,59.33,48.48Z"/><path class="cls-2" d="M59.24,48.54s0,0,0-.12,0,0,0,0S59.21,48.53,59.24,48.54Z"/><path class="cls-2" d="M59.3,48.73a.22.22,0,0,1,0-.11v0l0,0a0,0,0,0,1,0,0Z"/><path class="cls-2" d="M70.16,30l0,0C70.09,30.31,70.12,30.2,70.16,30Z"/><path class="cls-2" d="M70,63v0Z"/><path class="cls-2" d="M69.86,62.07A1,1,0,0,1,70,63l.64-.31Z"/><path class="cls-2" d="M80.25,27.64l-.48.49c.07-.86.43-1.32-.1-.9.58.41-1.11,2.31-.53,2.71l-.33.32c.06-.1,0-.14.1-.25-.69.6.16.79-.43,1.71-.22.32-.43.51-.39.24l-.23.83c-.13.21-.21.1-.08-.11l-.54,1.17,0,0a6.4,6.4,0,0,1,0,.88c-.24.24,0-.18-.11-.15l-.18.72c-.29.17-.18-.43.07-.86-.92.28-.11.61-1.13,1.7l.23-.64c-.55.21-.66.74-1.23,1.3.2-.1,1.25-1.07,1.05-.3a1.57,1.57,0,0,0-.37.85c-.22-.11-.35.28-.58.74l-.27-.18c-.17.53,0,.57,0,.93a.92.92,0,0,1-.85.56c-.5.85.67-.42.19.65a6.23,6.23,0,0,0-.9,2.2c-.36.46-.13-.18-.31,0v.57c-.06.11-.12,0-.14,0-.11.43.27.18,0,.82.24.33-1.1,1-1.12,1.92-.17.14-.13-.18-.27-.18a8.91,8.91,0,0,0-.39,2c-.09.11-.17.18-.28.32l-.36.46c.34-.37.41-.18.42.13s.24.62.34.9l.27-.49.18,1c0,.13-.17,0-.3-.15l.08.19c-.13.38-.31.18-.5-.08l.2-.38c-.19-.26-.41-.5-.61-.45a1.09,1.09,0,0,1,.09.34c0-.06-.1-.11-.13-.08s0,.15.12.32l-.37.24.15.06L70,51A11,11,0,0,1,71,54.41c-.27-.39-.44-.09-.75-.11.33-.42-.15-1.2-.08-2,0,.42-.18.33-.24.22L70.25,54c-.26,0-.2.31-.3.68.51-.28.34,1.08.49,1.67-.17,0-.34-.11-.3-.82-.39.78.6,1,.27,1.79,0-.17,0-.27-.06-.34.15.41,0,1.41-.12,1.17v-.17c-.07,1.16,0,3.53.43,3.71a2.26,2.26,0,0,1-.62-.23l1.47,2.07C71.13,63.3,70.24,64,70,63a2.68,2.68,0,0,0,0,1.2c0-.19.54-.47.57-.21-.41.69-.22.55-.57.93.08-.12.66.26.64.67-.08-.11-.57-.37-.63-.49a6.16,6.16,0,0,1,.4.78.56.56,0,0,1-.09.17c.12-.1-.42-.48-.63-.65.12.12-.46,0-.57,0l.27.13a.79.79,0,0,0-.45.09,2.4,2.4,0,0,0-.5.28,1.83,1.83,0,0,1-1.24.41c.15-.12.37-.73-.26-.8a5.39,5.39,0,0,1-2.39,1.64l-.21-.17-.84.2a16.17,16.17,0,0,1,2.8-1.74c-.47-.14-.13-.2-.83-.19-.25-.15.38-.24.59-.25L64.47,65c.08.35-1.25.35-1.19.63l1.78-.35c.07.34-1,1-2.19.91-.29-.13.22-.61.2-.72a.81.81,0,0,1-.24.08l-.18,0-.11,0c-.14,0-.3,0-.31,0a1.62,1.62,0,0,0,.29-.19c-.12-.06-.24,0-.42.12s-.41.17-.5.07l0-.14c0-.2.45-.65.24-.54-.39.32-1.6,1.48-1.9,1.25,0-.08.11-.61.22-1.1a4.12,4.12,0,0,1,.35-1c.31-.44.73.67,1,.29-.1,0-.21-.26-.25-.36.08-.28.29.12.25-.49-.35-.11,0-1.25-.29-.29-.1-.6.07-.64,0-1.34-.22.22-.76-.63-.86-1.23.08,0,.2-.1.25-.16,0-1.23.19-1.89.2-3,.08-.11.18-.66.33-.42a1.63,1.63,0,0,1-.19-.67c.31-.68.05.79.41.27-.2-.05-.28-.92-.4-1.42-.32.16-.06,1.16.06,1.67-.43,0-.88-.88-1.08-2.07-.11-1,.28-.41.22-.58.07-1.78-.76-1.52-.44-3,.27-.59.54,0,.74-.15a8,8,0,0,1-.16,1.71l.13-.65a2.14,2.14,0,0,1,.08,1c.25-.49,0-3,.27-4.38a1.85,1.85,0,0,0-.19-.49s-.08,0-.09,0v0l0,.42c-.11.2-.18,0-.24-.16s-.11-.26-.17,0l-.05-.13a3.47,3.47,0,0,1-1-1.45l.21-.29c-.07.06.08.57.27.73-.28-.24-.2-1.32-.74-1.46l.07.61a5.27,5.27,0,0,1-1.28-1.63c-.12.43.11.13,0,.76.2-.61.84,1.66.93.8-.13.67.26.9.26,1.68.09-.06.07-.31.3.26,0,0,.11.06.13,0h0s0,0,0,0,0-.26,0-.32a1.43,1.43,0,0,1,.24.19l.18.17.07.28a2.23,2.23,0,0,0,.07.37c0,.36-.11-.15-.22.05l.18.49c-.23.05-.38,1-.52.11v.77A3.19,3.19,0,0,0,59.26,52c0,.36.25.91.07.6l.15,1.21h-.06c0,1.19.38,2.45,0,3.81a5.44,5.44,0,0,1,.07,1.48l-.2.13c.07.52-.2,1.55,0,1.77-.54.56-.12,2.5-.21,3.4l.26,0a27.56,27.56,0,0,0,.16,3.17l.23-.29,0,.12a8.25,8.25,0,0,1,1.78,0l1.08.09a7.15,7.15,0,0,0,.78,0c-.08.09-.34.06-.53,0,1.26.52,2.66-.38,3.8,0a1.24,1.24,0,0,1,.69,0l-.07,0h.11l.4.12a1.34,1.34,0,0,0-.33-.12c.22,0,.55,0,.88-.09l.14.24h.07c.32.09.26-.12.09-.31a3.11,3.11,0,0,0,.43-.14c.15.19.52.16.83.13a1.65,1.65,0,0,1,1.06.16A3.21,3.21,0,0,1,72,67.47a3.55,3.55,0,0,0-.4-1.7c.06,0,.09-.1.09.13a3.76,3.76,0,0,0,0-1.38l.31-.16-.42-.79c.19-.48.3-.68.54-.2-.37-1.16-.14-.94-.51-1.93l.21.05c0-.35-.28-.91-.12-1.13.39-.78.06-3.89.42-5.91-.6.39.26-.94-.2-1,.14-.12.22-.4.34-.07-.14-1,.23-1.55-.16-2.26.14-.12.2.22.29.11s-.12-.33,0-.43.12.15.18.31c0-1.05-.46-1.16-.87-1.24a1,1,0,0,0-.1-1.16c.13-.13.27-.3.32.14,0-.11,0-.19,0-.34s.1-.15.18-.3.18-.35.26-.5c.14-.32.21-.58.11-.65.13-.06.26-.44.27-.55a15.61,15.61,0,0,0,.8-1.51l-.15.18c-.2-.47.23-.64.49-1.25l0,0c.93-1.2.17-.64,1.14-1.81l-.26,0c-.4-.36.88-1,1.09-1.87l-.26.21c.05-.5,1.23-.84,1.51-1.23.09-.07,0,.18,0,.32.84-1-.21-.29.14-1.14.24-.07.3.4.61-.14.26-.21.32-1.85,1-2.45-.2.11-.41.21-.3-.22.26-.6,1.26-1.34,1.15-2.06.08-.05.12-.06.15-.05a8.67,8.67,0,0,0,.52-1.9c1,0,1.06-2.95,1.75-2.59l.66-1.38.06.07A3,3,0,0,0,83.3,26c.19-.25.16,0,.18,0,1.09-1.77,1.28-2.21,1.41-3.3l.48-.39a.4.4,0,0,1,0-.13c-.39,0-1-.08-1.82-.15-.43,0-.92-.06-1.43-.06-.25,0-.51,0-.77,0a3.75,3.75,0,0,0-.68.07s0-.08.17-.12c-1.61.3-3.8-.7-4.39.22l-1,.23c1.35.07-.2.4.35.56-.53,0-1.37-.28-.72-.33l.1.05c.22-.48-1.6-.17-1.8-.5H72.11l-.54,1.12-.46.93-.8,1.53c-.53,1-1.06,2-1.53,3l.46-.11-.38.79c-.18.17-.4.15-.12-.41-.33.21-.28,1-.21,1.07-.65,1-.2-.61-.36-.27L68,30.3l.09-.09a2,2,0,0,1-.23,1.21c-.27.4-.31.12-.4.29,0,0-.06,0-.13.25l-.49,1,.45-.27c-.07.5-.44.93.07.61a1.39,1.39,0,0,0-.29.26,2.15,2.15,0,0,0-.23.28,5.4,5.4,0,0,0-.39.72c-.24.51-.48,1.13-.54,1.06v.07c-.16.12-.38-.36-.59-.87,0,.2-.05.82-.29.2.43-.69-.22-1.18,0-1.8-.08.61-.92-1.82-1-.88-.19-.57.22-.14.18-.62-.84-1.19-1.16-2.93-2-4.49-.1,0-.1.34-.38.05l0-1c-.18-.29-.6-.07-.58-.78,0,.12-.08.29-.21.09a15.13,15.13,0,0,0-.53-1.47l-.4-.91-.48-1c-2,0-3,.08-4.27.07a16.65,16.65,0,0,1-3.71-.39c.47.17.16.19-.21.2.24,0,0,.22,0,.34L50.07,22c-.27.34-1.58,0-1.73.35l.47-.06c-.62.38.86.85.77,1.34.69-.44,1.83.64,3,0,.25.1-.21.16-.08.27a1.64,1.64,0,0,1,1.28-.16l-.07,0a18.55,18.55,0,0,1,2.22.08L57,24l.62.05.31,0,.16,0a2,2,0,0,0,0-.24.43.43,0,0,1,.33.16c.45-.36-.64,0-.32-.42a.73.73,0,0,0,.56.24l.35.85a1.43,1.43,0,0,1,.14,1c.28.61.17-.3.45.32l-.07.22.25.07c.16.42.08.7,0,.77a1.93,1.93,0,0,0-.22-.36,9.32,9.32,0,0,0,.76,1.64L60,27.73c.9,1.61,1.65,3.73,2.67,5.21l.05-.17c.78,1.19.25.83,1.24,2.76l0,0a4.2,4.2,0,0,1,.73,1.21c-.29-.31.32,1.31,0,.88.52.86.63,1,.72,1a.63.63,0,0,1,.42,0l.12.7h0a9,9,0,0,1,.54-1.89c-.14.49-.07.51,0,.53s.16,0,0,.7a8.11,8.11,0,0,0,1.12-2.39c.25-.73.39-1.18.87-1.49,0-1.21-1,1.52-.87.92-.14.11-.12-.18,0-.52a4,4,0,0,1,.36-1c.25-.53,1-.51,1.5-1.67-.06.11,0,.14-.08.25.32-.37.22-.91.66-1.34-.16-.43.33-.67,0-.92l-.4,1.08a4.74,4.74,0,0,1,.66-2.27,2.28,2.28,0,0,1,0,.67c.23-.23.18-.58.42-.82.33.25-.5,1.3-.51,2.06.3-.23.28-1.32.54-.82-.3-.69.58-1.09.54-2l.2.15a2.11,2.11,0,0,1,.14-.66l.1.54c0-.74.77-1.11.91-1.77-.57,1.26-.39.16-.8.62.42-1.68,1-.62,1.68-2.4-.08.25-.54.82-.47.4a3.54,3.54,0,0,1,.34-.48c.07-.1.1-.11.13-.11a.18.18,0,0,1,.1,0c0-.16,0-.22-.07-.23s-.19,0-.19-.15c.15,0,.14,0,.12-.2a.3.3,0,0,1,.2-.24l.08.24a.45.45,0,0,0,.33,0,.31.31,0,0,0,.2-.16c.08-.13.14-.25.79-.15l-.55.34.67-.09-.13.28a3.43,3.43,0,0,1,1.68-.07c-.17-.18.09-.45.73-.46.43.15-.25.24.65.2a.61.61,0,0,1-.81.12c0,.08-.21.16-.25.24a4.25,4.25,0,0,0,1.5,0,1.63,1.63,0,0,1-.35-.05L79.39,24c.2.1,0,.17-.12.24.26,0,.45-.14.84-.16-.1.2-.08.41-.63.5l1.24-.22a.25.25,0,0,1,.18.31c0,.06.13,0,.31-.13s.46-.18.49-.1l.22-.09h0c-.1.15-.27.32-.36.43a.3.3,0,0,0-.06.37c-.16,0-.27,0-.43,0-.29.75.76-.48.27.76-.33.89-.43.17-.67.42a3.09,3.09,0,0,1-.75,2A4.62,4.62,0,0,1,80.25,27.64Zm-4.37,8.82c0-.19.07-.6.27-.66C76.3,36.13,76.1,36.21,75.88,36.46ZM70.53,50.54a.79.79,0,0,1,0-.61A1.66,1.66,0,0,1,70.53,50.54Zm-11,.62v0C59.4,51.61,59.44,51.46,59.49,51.16Zm.1-.88c0-.09-.06-.08-.1-.05a.81.81,0,0,1,0,.49C59.61,50.66,59.65,50.54,59.59,50.28Zm7.89-18.45.13-.13C67.51,32.09,67.5,32,67.48,31.83Z"/><path class="cls-2" d="M70.19,48.84a.23.23,0,0,1,.13-.08C70.28,48.64,70.24,48.68,70.19,48.84Z"/><path class="cls-2" d="M81.7,24.39h0l-.08.05Z"/><path class="cls-2" d="M61.69,64a1,1,0,0,1-.13.35C61.62,64.33,61.67,64.25,61.69,64Z"/><path class="cls-2" d="M58.11,46.58l.32.48a1.23,1.23,0,0,1-.17-.49S58.19,46.74,58.11,46.58Z"/><path class="cls-2" d="M57.21,41.51c-.06,0-.08-.15-.14-.21l-.1.07C57.14,41.68,57.34,41.86,57.21,41.51Z"/><path class="cls-2" d="M58.6,45.74c.16-.13-.06-.42-.28-.75l0,.06C58,45.08,58.32,45.41,58.6,45.74Z"/><path class="cls-2" d="M58.27,44.91a2.48,2.48,0,0,1-.17-.32C58,44.6,58.15,44.73,58.27,44.91Z"/><path class="cls-2" d="M59.46,49.16c0-.19-.27-.12-.18-.23C59,48.72,59.6,50.19,59.46,49.16Z"/><polygon class="cls-2" points="59.06 45.14 58.9 45.39 59.18 45.49 59.06 45.14"/><path class="cls-2" d="M60.32,48l-.22-.59s-.09,0-.16-.11C60.11,47.65,60.27,48.06,60.32,48Z"/><path class="cls-2" d="M59.94,47.31a1.53,1.53,0,0,0-.27-.44A4.07,4.07,0,0,0,59.94,47.31Z"/><polygon class="cls-2" points="59.52 45.88 59.56 46.07 59.75 46.47 59.52 45.88"/><path class="cls-2" d="M60.44,54.69l.07.69c.09.07.15-.11.11-.37S60.53,54.59,60.44,54.69Z"/><path class="cls-2" d="M61.14,52.6c0,.19-.11.2-.19.31l.32,0Z"/><path class="cls-2" d="M61.22,54.62c.09.07.25,1,.23.13C61.36,54.68,61.29,54,61.22,54.62Z"/><path class="cls-2" d="M60.82,65v-.17l-.52.12A4.75,4.75,0,0,0,60.82,65Z"/><path class="cls-2" d="M68.39,65.13c-.82-.12-.2.33-.94.17-.19.12.61.13.41.23C68.36,65.4,68.62,65.48,68.39,65.13Z"/><path class="cls-2" d="M67.86,65.53l-.25.08A.7.7,0,0,0,67.86,65.53Z"/><polygon class="cls-2" points="49.09 21.73 48.56 21.63 48.9 21.8 49.09 21.73"/><path class="cls-2" d="M48.07,22.12,48,21.79l-.32.3A.72.72,0,0,1,48.07,22.12Z"/><path class="cls-2" d="M74.61,37.46l.06.07c.11,0,.17-.14.3-.35Z"/><polygon class="cls-2" points="78.11 31.22 78.05 31.32 78.42 31.26 78.11 31.22"/><path class="cls-2" d="M80.51,25.71c-.12.21-.19.5-.32.71C80.39,25.92,80.88,25.82,80.51,25.71Z"/><path class="cls-2" d="M84.08,23h11l14.37,24.08V23H120.6V66.52H109.47l-14.3-23.9v23.9H84.08Z"/><path class="cls-3" d="M84.08,23h11l14.37,24.08V23H120.6V66.52H109.47l-14.3-23.9v23.9H84.08Z"/><path class="cls-2" d="M82.83,23.26c0-.35-.19-.22-.23-.27C82.65,23.57,82.89,23.25,82.83,23.26Z"/><polygon class="cls-2" points="83.32 29 83.23 28.89 83.45 29.74 83.32 29"/><path class="cls-2" d="M83.31,34.36c.37-.51,0-1.94.08-2.9l.08-.16-.29-.43A29.49,29.49,0,0,1,83.31,34.36Z"/><path class="cls-2" d="M82.53,37.22c.14-.18.12.62,0-.67l0,.12A4.83,4.83,0,0,1,82.53,37.22Z"/><path class="cls-2" d="M82.53,36.67c0-.56-.12.37,0,0Z"/><path class="cls-2" d="M82.62,39.28l-.13-.74c-.09.15-.1.81-.17.57C82.39,39.87,82.48,39.71,82.62,39.28Z"/><path class="cls-2" d="M82.88,40l0-.39C82.79,39.67,82.78,39.77,82.88,40Z"/><path class="cls-2" d="M82.71,38.78l.12.82c.06-.11.18-.12,0-.38C82.9,39.29,82.79,39.13,82.71,38.78Z"/><path class="cls-2" d="M82.77,38.32c.08-.42.13-1,.26-.21C83,36.69,82.72,36.9,82.77,38.32Z"/><path class="cls-2" d="M83.69,34.63l.11-.56-.12-.48C83.74,33.83,83.58,34.67,83.69,34.63Z"/><path class="cls-2" d="M82.43,43.91c.07.05.2-.25.3-.3l-.09-.55C82.59,43.34,82.54,43.88,82.43,43.91Z"/><path class="cls-2" d="M82.73,43.61l.14.82C82.88,43.7,82.82,43.56,82.73,43.61Z"/><polygon class="cls-2" points="83.29 40.12 83.01 38.77 83.29 40.38 83.29 40.12"/><polygon class="cls-2" points="82.42 47.05 82.24 46.59 82.51 47.42 82.42 47.05"/><path class="cls-2" d="M82.45,49.14c-.15-.35-.25.47-.35.11a7.53,7.53,0,0,0,.27,1.48A4.93,4.93,0,0,1,82.45,49.14Z"/><path class="cls-2" d="M82.54,51.46a5.82,5.82,0,0,0-.17-.73A4.81,4.81,0,0,0,82.54,51.46Z"/><path class="cls-2" d="M82.83,45.83a1,1,0,0,0-.22.65l.21-.33Z"/><path class="cls-2" d="M82.83,46.14h0v.7Z"/><path class="cls-2" d="M82.83,45.75v.08S82.86,45.78,82.83,45.75Z"/><path class="cls-2" d="M83.09,42.27c.12.49.25,1.49.44.52C83.38,42.44,83.27,43,83.09,42.27Z"/><path class="cls-2" d="M83.1,45.35l.05-.88c-.06,0-.14.18-.2-.06Z"/><polygon class="cls-2" points="83.17 45.78 83.1 45.35 83.08 45.67 83.17 45.78"/><path class="cls-2" d="M82.75,50a6.09,6.09,0,0,1,.11,1.26c0-.5.07-1,.07-1.51C82.86,49.64,82.74,49.43,82.75,50Z"/><path class="cls-2" d="M82.81,48.11v.08S82.84,48.1,82.81,48.11Z"/><polygon class="cls-2" points="82.86 55.81 82.9 55.73 82.86 55.72 82.86 55.81"/><path class="cls-2" d="M83,49.63a1.74,1.74,0,0,0-.08-.81c0,.28,0,.57,0,.89C83,49.74,83,49.75,83,49.63Z"/><path class="cls-2" d="M82.64,52.74a5.8,5.8,0,0,0,.12-.65A1.49,1.49,0,0,0,82.64,52.74Z"/><path class="cls-2" d="M82.76,48.32v-.06C82.7,48.38,82.72,48.37,82.76,48.32Z"/><path class="cls-2" d="M82.76,48.32a3.31,3.31,0,0,0,.13.5c0-.23,0-.45-.07-.63Z"/><path class="cls-2" d="M84.27,57.2c-.21-.07-.39-1.06-.18-1.91-.15-.84-.82-.29-1.19.44.09,0,.17,0,.29.89.11-.3.26-1.91.44-1.18a2.58,2.58,0,0,1-.17,1.49c.25-.47.36,1.45.73,1.2l-.13-1C84.12,57.11,84.21,57.48,84.27,57.2Z"/><path class="cls-2" d="M82.92,54.09l0-.36A5.84,5.84,0,0,1,82.62,55c.1.59.18.72.24.76l0-1.75Z"/><path class="cls-2" d="M82.9,52.14c.22.28.31,1.13.55.61,0-1-.18-.73-.28-1.35,0,1.68-.12-.49-.25.73,0-.33,0-.63-.06-.91,0,.3-.06.59-.1.87l0,0h0c0-.07,0-.09,0,0v0l.09.08c-.05.49-.06.08-.09-.08l0,0h0l.12,1.68C82.93,53.38,82.92,52.93,82.9,52.14Z"/><path class="cls-2" d="M84,43.69c0,.05,0,.05,0,.05S84,43.89,84,43.69Z"/><path class="cls-2" d="M83.87,44.38a1.28,1.28,0,0,1-.1-.62c.07-.35.11,0,.18,0-.06-.24-.16-.84-.26-.09l0,.12a4,4,0,0,1-.38,1.43A2.35,2.35,0,0,0,83.87,44.38Z"/><path class="cls-2" d="M83.44,48.31l.11,1.4.19-.71-.12,0C83.67,48.24,83.53,48.41,83.44,48.31Z"/><polygon class="cls-2" points="82.75 55.97 82.52 55.78 82.85 56.59 82.75 55.97"/><polygon class="cls-2" points="82.78 57.79 82.58 57.72 82.7 58.2 82.78 57.79"/><path class="cls-2" d="M119.38,46.34l-.06-.41A3.46,3.46,0,0,0,119.38,46.34Z"/><path class="cls-2" d="M119.37,49.33l.1.07C119.41,49.26,119.37,49.21,119.37,49.33Z"/><path class="cls-2" d="M96.64,47.54c.26.81.42,1.65.32,1l-.12-.64C96.78,47.93,96.72,47.78,96.64,47.54Z"/><path class="cls-2" d="M113.33,66.47l-.18-.07-.4.21Z"/><path class="cls-2" d="M113.75,65.55l.8.14A5.25,5.25,0,0,0,113.75,65.55Z"/><path class="cls-2" d="M119.15,30.05l-.23-.48C118.92,30.32,119,30,119.15,30.05Z"/><path class="cls-2" d="M94.53,67.73c.77.08,1.43.11,2,.13v-.23l0,.2C95.43,67.71,94.7,67.56,94.53,67.73Z"/><path class="cls-2" d="M121.74,47.52c0-.25-.09-.36-.14-.35C121.64,47.43,121.68,47.57,121.74,47.52Z"/><path class="cls-2" d="M96.52,65.11l0,.44c0,.64.07,1.31,0,2.08A8.16,8.16,0,0,0,96.52,65.11Z"/><path class="cls-2" d="M99.75,33.26l0-.13S99.7,33.19,99.75,33.26Z"/><path class="cls-2" d="M89.08,22h.71A3.38,3.38,0,0,0,89.08,22Z"/><path class="cls-2" d="M82.68,65.54c0-.66,0-.1,0,0Z"/><path class="cls-2" d="M83.56,63.25c0,.08.06.14.11.15A.28.28,0,0,1,83.56,63.25Z"/><path class="cls-2" d="M95.14,61v0C95.1,61.11,95.11,61.09,95.14,61Z"/><path class="cls-2" d="M82.78,64.55c0,.24,0,.52-.06.83C82.74,65.24,82.76,65,82.78,64.55Z"/><path class="cls-2" d="M82.68,64.68l0-.4S82.64,64.22,82.68,64.68Z"/><path class="cls-2" d="M82.7,66.45c0-.37,0-.73,0-1.07,0,.13,0,.19,0,.16Z"/><path class="cls-2" d="M110.15,32.24l0,.08C110.22,32.71,110.2,32.54,110.15,32.24Z"/><path class="cls-2" d="M101.76,51.62l0,0,0,0Z"/><path class="cls-2" d="M102.62,52.73a2.11,2.11,0,0,1-.87-1.09l-.31.72Z"/><path class="cls-2" d="M119.32,39.2l-.2,1c-.33-1.17-.22-2-.5-1.11.7.14.07,3.79.77,3.93l-.15.64c0-.18,0-.21,0-.4-.33,1.26.51.93.41,2.54-.06.57-.16,1-.24.57l.17,1.26c0,.36-.13.27-.12-.09l.06,1.91,0,0c.11.27.27.89.35,1.19-.1.49-.08-.24-.16-.12l.16,1.06c-.18.43-.35-.45-.32-1.18-.7,1,.17.88-.23,3l-.09-1c-.4.65-.25,1.42-.5,2.55.13-.27.62-2.26.79-1.11a3.48,3.48,0,0,0,.06,1.37c-.24,0-.18.61-.17,1.36l-.32-.05c.09.82.26.75.4,1.24,0,.91-.28,1.09-.5,1.31,0,1.46.41-1,.47.72a13.52,13.52,0,0,0,.21,3.51c-.12.85-.2-.14-.3.16l.26.75c0,.19-.08.13-.12.1.05.33.13.29.21.33s.16.1.2.43c.18.15.06.47-.06.7-.26-.06-.5-.13-.7-.16a1,1,0,0,0-.59.11c-.31-.1.14-.2,0-.33a19.11,19.11,0,0,0-2.84.55l-1.18-.21c.87.25-.25.54-1.22.78.31.11.57.22.75.27l-1.55.17c-.19,0,0-.16.22-.3l-.29.08c-.55-.12-.26-.31.14-.49l.55.2c.39-.2.75-.42.67-.61a2.26,2.26,0,0,1-.51.09c.1-.06.16-.11.12-.14s-.22,0-.47.12l-.36-.36-.08.14-2-.23a5.09,5.09,0,0,1-.61.29,3.45,3.45,0,0,1-1.06-.87,14.54,14.54,0,0,1-1.43-1.78c.52.35.44-.12.73-.26a2.09,2.09,0,0,0,.6,1.13l.51.65.25.36.12.18.06.11c-.06-.13-.13-.33-.09-.35s.11,0,.18,0l-1.36-1.67c.25-.09-.07-.49-.26-1-.22.62-1.11-1.19-1.69-1.86.12-.13.38,0,.89.89-.27-1.2-1.29-1-1.6-2.14.13.22.18.35.31.39-.44-.44-1.1-1.77-.79-1.55l.14.22c-.83-1.5-2.68-4.48-3.19-4.48a1.75,1.75,0,0,1,.7,0l-2.83-1.88c.46,0,.69-1.31,1.6-.19a5.41,5.41,0,0,0-.93-1.52c.1.27-.1.88-.33.57a11.47,11.47,0,0,0-.54-2c.14.38-.57.34-.94-.31.14.06.41-.44.65-.16a15.56,15.56,0,0,0-1.51-1.4c.3.3.29-.48,0-1.21.1.39-1.12-1.89-1.47-2.37l.54,1.17c-.71-1.27-1-1.39-1.21-1.31s-.31.31-.81-.56a10,10,0,0,0-1-3.13.28.28,0,0,0,0,.1c.14.85.5,2.75.84,4.39s.69,3,.8,3.71a.61.61,0,0,0-.17-.07c.06.4.13.76.19,1.09a15.21,15.21,0,0,1-.9-3c-.33-1.49-.65-3.53-.84-5-.13.66-.19-.29-.18,1.4-.16.23-.24-1.54-.25-2.11l-.1,4c.34.46.34,3.58.63,3.62l-.35-4.58a12.56,12.56,0,0,1,.6,2.54,16.15,16.15,0,0,1,.31,3.2c-.07.22-.22.08-.37-.18a3.74,3.74,0,0,0-.36-.62,9.55,9.55,0,0,1,.15,1.43l0,.71a1,1,0,0,1,0,.31l-.1-.36,0-.19-.05-.28v.45l0,.32c0,.21.09.41.13.62a2.73,2.73,0,0,1,0,1.42c0,.4-.44,1.19-.24,1.25.39-.64,1.61-.77,1.9-.34a23.36,23.36,0,0,1-.57,2.54c-.31.65-.73-1-1-.43.1,0,.21.39.25.54-.08.41-.29-.18-.25.73.35.15,0,1.84.3.43a15.13,15.13,0,0,1-.06,2c.23-.33.77.94.87,1.82-.09-.05-.21.15-.26.25,0,.9-.06,1.6-.11,2.28S95,64.68,95,65.39c-.09.12-.19.68-.34.29l.11.39a.88.88,0,0,1-.41.07c-1-.3.83,0,0-.41.13.21-.64.28-1.4.41.26.29,1.44.09,1.89,0l0-.15a1,1,0,0,1,.23.35c0,.18-.16.35-.67.5a8.51,8.51,0,0,1-1,.2l-1,.16c-1.41.1-.61-.28-.86-.22-2.64-.08-2.24.75-4.44.44-.86-.27,0-.55-.23-.75a18.39,18.39,0,0,1,2.53.17l-1-.13a4.63,4.63,0,0,1,1.54-.08,11.9,11.9,0,0,0-2.35-.14c-1.12,0-2.4,0-3.3-.08,0-.25,0-.47.06-.68s-.19-.86-.3-.53l0,.65c-.11.38-.19.12-.25-.17s-.11-.59-.16-.07a12.31,12.31,0,0,1-.27-3.24l.31-.23a2,2,0,0,0-.09,1.14c-.14-.51.42-1.87,0-2.42l-.21.85a10.88,10.88,0,0,1-.4-3c-.31.49,0,.25-.32,1,.45-.67,0,2.75.45,1.69-.42.78-.18,1.36-.54,2.38.11,0,.2-.36.15.54a1.21,1.21,0,0,1,.09.2v.07l0-.06s0,.05,0,0A1.46,1.46,0,0,1,83,64a2,2,0,0,1,.14.5c0,.27.06.64.08,1,0,.68.07,1.35.13,1.63l0,.19c.14,0,.06,0-.07.07s-.08-.22-.14,0l0,.08,1.11-.17c0,.11.44.21.71.29s.31.16-.78.22H86a7.33,7.33,0,0,0,2.17.09c.53,0,1.35-.26.89-.08l1.78-.14,0,.06c.68,0,1.37,0,2.08-.09l.72,0,.85,0c.57,0,1.14,0,1.75,0a19.58,19.58,0,0,1,.17-2.09,17.75,17.75,0,0,1-.06-2.6l.19-.19a17.21,17.21,0,0,0,0-2.61c.53-.83.11-3.7.21-5l-.26,0c0-.92-.06-1.8-.16-3l-.23.07a7,7,0,0,1,0-1.83l0-.54c0-.14,0-.19.05-.28a4,4,0,0,0,0-.5.34.34,0,0,1,0,.35c.26-.25.16-.49,0-1.13s-.24-1.5,0-1.26a1.65,1.65,0,0,1,0-.45c0,.08.09.2.14.33s0,0,0,0l0,.07.22.59c-.07-.23-.15-.44-.2-.56a.56.56,0,0,0,.23.21l.17.75h0c.12.37,0-.16-.09-.75a.14.14,0,0,0,.12-.07c.1.55.16.59.25.67a.83.83,0,0,1,.21.65c.06-.1.22.09.42.3a2.51,2.51,0,0,0,.34.3c.1.06.3.23.41.21,0,.05,0,.18-.12,0a4.45,4.45,0,0,0,.82,1.33l-.16.35,1,.8c.2.71.26,1-.31.53,1.2,1.28.83,1.13,1.9,2.19l-.22,0c.28.44.94,1,1,1.37.26,1.2,2.91,5,4.14,7.72.21-.8.48,1.33.94,1.2,0,.22.11.62-.24.27a9.59,9.59,0,0,1,.73,1.19c.3.55.57,1.05.87,1.51a7.37,7.37,0,0,0,1.45-.18c.26.14-.55.21-.32.29s.31,0,.52-.06a.72.72,0,0,1,.39,0c.08,0,0,.07-.08.1a1.58,1.58,0,0,1-.21,0l-.34,0h.44l.25,0a2.12,2.12,0,0,0,.4-.06,1.5,1.5,0,0,0,.53-.2.9.9,0,0,0,.38-.57A2.24,2.24,0,0,0,114,67c.28.14.74.28-.23.33.54,0,3.32.19,3.38-.14a2.14,2.14,0,0,0,.91,0l1.5,0h1.69l-.49-.06A.51.51,0,0,1,121,67c-.07-.53.08-1,0-1.92l0,0c.07-.76.1-1,.1-1.24a2.7,2.7,0,0,0,0-.46,5.31,5.31,0,0,1,.11-1.57l-.25.12c-.52-.2.31-1.94.11-3.21l-.14.46c-.18-.69.72-1.94.79-2.64,0-.15.07.24.1.46.31-1.83-.32-.24-.39-1.6.17-.25.44.32.47-.59.14-.46-.56-2.66-.23-3.9-.13.27-.27.54-.37-.09,0-1,.51-2.61.09-3.49,0-.12.07-.17.1-.17a17.05,17.05,0,0,0-.41-2.85c.85-.69-.41-4.6.37-4.59l0-2.27.08.06a5.59,5.59,0,0,0-.32-2.48c0-.34.12-.1.16-.07a10.05,10.05,0,0,0-.26-4.12l.25-.18c-.15-.48.4-3.08.1-5.16,0,0,.08.06.12.23a4.65,4.65,0,0,1-.05-.66v-1c0-.71,0-1.45.09-2.21l-1.82-.1-.89,0h-.65a2.08,2.08,0,0,0-1.45.4l-1.54.23c2,.07-.3.4.52.56-.79,0-2-.28-1.07-.33l.15.05c.36-.48-2.48-.17-2.43-.5l-3.88,0c0,1-.05,2-.07,3l-.07,2.12c0,1.41-.09,2.8-.1,4.17l.38-.42,0,1.28c-.08.34-.29.46-.27-.46a2.34,2.34,0,0,0,.26,1.57c-.15,1.8-.44-.71-.45-.15l0,.74,0-.16a4,4,0,0,1,.3,1.76c-.08.7-.23.36-.25.63,0,0,0,.1,0,.43l0,1.62.3-.65c.14.72,0,1.52.32.78a4.47,4.47,0,0,0-.25,1.42,11,11,0,0,0-.06,1.27,9.28,9.28,0,0,1,0,1.78,11.66,11.66,0,0,1,.2,1.81c-.13-.2-.29-.47-.45-.76.14.35.49,1.58,0,.67a5.72,5.72,0,0,0-.53-1.8,4.24,4.24,0,0,1-.51-1.49c.14.88-.82-1.22-.78-.24-.28-.57.17-.22.08-.68-1.31-1.67-2.23-4.08-3.65-6.27-.1,0,0,.46-.39,0l-.32-1.42c-.3-.42-.69-.14-.9-1.1,0,.15,0,.38-.2.09-.76-1.56-1.66-3.08-2.59-4.59l-1.41-2.27-.7-1.14-.91-1.55-1.71,0-1.25-.07c-.84-.06-1.67-.15-2.5-.28.71.17.24.19-.3.2.35,0,0,.22.06.34L87.68,22c-.4.34-2.33,0-2.55.35l.68-.06c-.91.38,1.28.85,1.15,1.34,1-.44,2.7.64,4.38,0,.37.1-.32.16-.12.27a3.43,3.43,0,0,1,1.89-.16l-.1,0h1l.56,0,.26.55.48.93,1.2,2.32.1-.31a4.72,4.72,0,0,1,.41,1c.7.45-.91-1.57-.22-1.2,0,1,2.33,3.92,2.15,4.7.5.86.09-.39.6.46v.31l.3.11c.3.58.31,1,.21,1.05a4.3,4.3,0,0,0-.36-.51,18.69,18.69,0,0,0,1.38,2.29l-.41-.87c.75,1.13,1.51,2.43,2.29,3.72.38.64.77,1.27,1.16,1.88s.73,1.08,1.36,2l-.07-.33a14.7,14.7,0,0,1,1.33,2.17,25.5,25.5,0,0,0,1.42,2.49l0,0a7.21,7.21,0,0,1,1.1,1.52c-.15-.12.07.38.29.89s.46,1,.23.78c.34.49.56.77.68.92a14.74,14.74,0,0,0-.15-1.48L110,47a.82.82,0,0,0,.19.09,16.9,16.9,0,0,1-.31-2.78c.08.69.15.65.23.58s.16-.13.27.81a17.08,17.08,0,0,0,0-3.91c0-.54-.07-1-.06-1.4a3,3,0,0,1,.07-.57,1.24,1.24,0,0,1,.16-.4c-.26-.52-.34,0-.36.54,0,.76,0,1.6,0,1.17-.18.55-.4-1.32-.34-1.91s.67-1.25.66-3.1c0,.18,0,.2,0,.38.14-.69-.18-1.36,0-2.21-.32-.47,0-1.1-.39-1.24l.1,1.7a9.89,9.89,0,0,1-.35-3.45,4.14,4.14,0,0,1,.25.92c.12-.46-.08-.89,0-1.37.4.13.09,2.06.4,3.09.17-.5-.3-2,.14-1.43-.56-.75.07-1.83-.35-3.08l.24.08a4.84,4.84,0,0,1-.15-1l.32.66c-.27-1,.23-2,.09-2.93,0,2-.3.46-.47,1.32a3,3,0,0,1,.18-2l.14-.32.06-.19c0-.08,0-.15.06-.15a.49.49,0,0,0,.07-.4c0,.09-.14.36-.25.12s.09-.27.16-.3a.75.75,0,0,1,.2.1c.22,0,.2-.09.1-.16s-.32-.17-.19-.24c.45.3.18-.12,1.15-.21v.24c2.12.16.56-.51,2.47-.32l-.81.34,1-.09-.21.28a7.46,7.46,0,0,1,2.49-.07c-.25-.18.14-.45,1.08-.46.32.08.23.13.23.17s0,0,.12,0h.39c-.1.08-.16.17-.27.21a1.26,1.26,0,0,1-.71-.09c-.06.08-.29.16-.35.24a3.17,3.17,0,0,0,.57.07h.55c.11,0,.24,0,.32,0a.33.33,0,0,1-.15-.05,4.08,4.08,0,0,1,.71-.25c0,.06.07.12.1.19-.09.22-.17.13-.24.1,0,.13.14.18.16.46-.2,0-.41,0-.5-.12l.11.18,0,.06s0,0,0,.14l.06.46c-.09.13-.24.95-.31.71-.12,1,.39,2.51.23,3.86a1.4,1.4,0,0,1,.11.5,15.42,15.42,0,0,0,0,3.91l-.36.86c.08,1.18.45-1.16.59.81.11,1.39-.31.52-.41,1a6.57,6.57,0,0,1,.26,3.18A9,9,0,0,1,119.32,39.2Zm.16,14.57c-.06-.28-.21-.84-.07-1.05C119.69,53,119.56,53.29,119.48,53.77ZM111.19,66a1.68,1.68,0,0,1,.9.05A3.54,3.54,0,0,1,111.19,66ZM86.92,67.71h0C87.58,67.79,87.36,67.75,86.92,67.71Zm-1.54-.11c-.21,0-.21.07-.13.1a1.89,1.89,0,0,1,.44,0h.58a.46.46,0,0,0-.22-.08A4.12,4.12,0,0,0,85.38,67.6Zm23.11-31.23.06-.26C108.62,36.69,108.56,36.53,108.49,36.37Z"/><path class="cls-2" d="M113.7,65.65a.25.25,0,0,1,.12.14C113.93,65.75,113.93,65.7,113.7,65.65Z"/><path class="cls-2" d="M119.19,30.14v-.05s0,0,0,0Z"/><path class="cls-2" d="M94.17,55.81a1.88,1.88,0,0,1,.12-.52C94.23,55.28,94.18,55.4,94.17,55.81Z"/><path class="cls-2" d="M82.57,61.12l.07.84a2.28,2.28,0,0,1,.08-.75C82.66,61.23,82.58,61.39,82.57,61.12Z"/><path class="cls-2" d="M84.1,53.85c0-.12,0-.26,0-.38l-.12,0C84,54,84.05,54.39,84.1,53.85Z"/><path class="cls-2" d="M83.39,60.35c.21-.07.14-.59.1-1.18v.1C83.2,59.1,83.3,59.73,83.39,60.35Z"/><path class="cls-2" d="M83.48,59a4.86,4.86,0,0,1,0-.54C83.36,58.42,83.45,58.71,83.48,59Z"/><path class="cls-2" d="M82.85,67.55c.06-.5-.26-.06-.18-.4-.11-.15-.07.36,0,.77.75-.09,1.41-.24.2-.19Z"/><polygon class="cls-2" points="84.08 59.87 83.82 60.08 84.03 60.41 84.08 59.87"/><path class="cls-2" d="M83.89,64.51l.07-.94s-.07-.11-.09-.25C83.86,63.9,83.81,64.53,83.89,64.51Z"/><path class="cls-2" d="M83.87,63.32a3.36,3.36,0,0,0,0-.76A7.32,7.32,0,0,0,83.87,63.32Z"/><polygon class="cls-2" points="84.15 61.16 84.1 61.43 84.08 62.09 84.15 61.16"/><path class="cls-2" d="M92.15,66.75l1-.07c.11-.09-.17-.14-.55-.11S92,66.67,92.15,66.75Z"/><path class="cls-2" d="M89.05,66.05a1.1,1.1,0,0,1,.46.2l0-.32Z"/><path class="cls-2" d="M92,66c.1-.09,1.48-.25.19-.23C92.12,65.83,91.1,65.91,92,66Z"/><polygon class="cls-2" points="95.04 54.23 95.04 54.49 95.56 54.45 95.04 54.23"/><path class="cls-2" d="M95.52,40.5c-1.14-2.14,0,.55-1.07-1.46-.12,0,.82,1.62.66,1.56C95.59,41.15,96,41.92,95.52,40.5Z"/><path class="cls-2" d="M95.11,40.6a1.14,1.14,0,0,0-.22-.22C95,40.54,95.08,40.59,95.11,40.6Z"/><polygon class="cls-2" points="86.23 21.73 85.45 21.63 85.95 21.8 86.23 21.73"/><path class="cls-2" d="M84.73,22.12l-.18-.33-.47.3A1.55,1.55,0,0,1,84.73,22.12Z"/><path class="cls-2" d="M118.81,55.94l.08.06a1.36,1.36,0,0,0,.1-.67Z"/><polygon class="cls-2" points="119.06 45.36 119.05 45.54 119.35 45.2 119.06 45.36"/><path class="cls-2" d="M118.67,36.48c0,.37.06.79,0,1.16C118.66,36.85,119.05,36.39,118.67,36.48Z"/><path class="cls-2" d="M120.6,23h36.51V33.74H144.86V66.52h-12V33.74H120.6Z"/><path class="cls-3" d="M120.6,23h36.51V33.74H144.86V66.52h-12V33.74H120.6Z"/><path class="cls-2" d="M119.35,23.17c0-.23-.19-.15-.23-.18C119.16,23.38,119.41,23.16,119.35,23.17Z"/><polygon class="cls-2" points="119.84 27.07 119.75 27.01 119.96 27.58 119.84 27.07"/><path class="cls-2" d="M119.83,30.72c.37-.34-.06-1.32.07-2l.09-.11-.3-.29A12.85,12.85,0,0,1,119.83,30.72Z"/><path class="cls-2" d="M119,33.38c.15-.28.13.69,0-.82l0,.16Z"/><path class="cls-2" d="M119.05,32.72c0-.69-.12.48,0,0Z"/><path class="cls-2" d="M119.72,35.2l-.67.08,0-.26a2,2,0,0,0-.07.37c.25,0,.57.06.32.1C120.3,35.42,120.12,35.34,119.72,35.2Z"/><path class="cls-2" d="M120.71,34.93l-.46,0S120.41,35,120.71,34.93Z"/><path class="cls-2" d="M119.23,35.09l1-.11c-.08,0,0-.17-.45.05C120,34.92,119.7,35,119.23,35.09Z"/><path class="cls-2" d="M119.29,34.51c.08-.54.13-1.13.25-.43C119.49,32.64,119.24,32.9,119.29,34.51Z"/><path class="cls-2" d="M120.21,30.91l.11-.38-.12-.33C120.26,30.37,120.1,30.93,120.21,30.91Z"/><path class="cls-2" d="M124.08,35.39c0-.08-.17-.21-.2-.31l-.38.09C123.69,35.22,124.06,35.27,124.08,35.39Z"/><path class="cls-2" d="M123.88,35.08l.56-.13C123.94,34.93,123.84,35,123.88,35.08Z"/><polygon class="cls-2" points="121.07 34.53 119.53 34.8 119.53 34.79 119.53 34.8 121.32 34.52 121.07 34.53"/><polygon class="cls-2" points="126.22 35.4 125.9 35.58 126.47 35.3 126.22 35.4"/><path class="cls-2" d="M127.64,35.36c-.24.15.32.26.07.35a3.63,3.63,0,0,0,1-.27A2.18,2.18,0,0,1,127.64,35.36Z"/><path class="cls-2" d="M129.22,35.27a4.23,4.23,0,0,0-.5.17A2.46,2.46,0,0,0,129.22,35.27Z"/><path class="cls-2" d="M125.39,35a.7.7,0,0,0,.44.22l-.22-.22Z"/><path class="cls-2" d="M125.6,35h.48Z"/><path class="cls-2" d="M125.33,35h.06S125.35,35,125.33,35Z"/><path class="cls-2" d="M123,34.72c.33-.12,1-.25.35-.44C123.08,34.43,123.46,34.54,123,34.72Z"/><path class="cls-2" d="M125.06,34.71l-.59-.05c0,.06.11.14,0,.2Z"/><polygon class="cls-2" points="125.35 34.64 125.06 34.71 125.28 34.73 125.35 34.64"/><path class="cls-2" d="M128.2,35.07a2.57,2.57,0,0,1,.85-.12,8.89,8.89,0,0,0-1-.07C128,35,127.84,35.07,128.2,35.07Z"/><path class="cls-2" d="M126.94,35l0,0S126.93,35,126.94,35Z"/><polygon class="cls-2" points="131.37 34.95 131.38 34.91 131.35 34.95 131.37 34.95"/><path class="cls-2" d="M128,34.84a.84.84,0,0,0-.55.08,5.68,5.68,0,0,1,.61,0S128.05,34.83,128,34.84Z"/><path class="cls-2" d="M130.09,35.17a2.83,2.83,0,0,0-.44-.12C129.78,35.12,130,35.23,130.09,35.17Z"/><path class="cls-2" d="M127.08,35.05h0C127.13,35.11,127.12,35.09,127.08,35.05Z"/><path class="cls-2" d="M127.08,35.05a1.71,1.71,0,0,0,.34-.13L127,35Z"/><path class="cls-2" d="M133,33.85c-.07,0-.15,0-.2-.1a1.55,1.55,0,0,1-1,0c-.65.15-.37.82-.45,1.19.07-.09.09-.17.52-.29,0-.11-.65-.26-.21-.44.61-.1.49,0,.57.14l0,.1c.13-.23.22-.16.33,0s.23.36.41.18l-.13-.61C132.89,33.91,133,34.1,133,33.85Z"/><path class="cls-2" d="M130.93,34.89a.47.47,0,0,1-.16,0c.17,0,.14.05.2.1a.38.38,0,0,1,.09.18,1.13,1.13,0,0,0,.29-.24l-.46,0Z"/><path class="cls-2" d="M129.68,34.92c.19-.22.77-.32.41-.56-.7,0-.49.19-.92.28,1.15,0-.32.13.5.25a4.63,4.63,0,0,1-.62.06l.6.1h0c-.05,0-.07,0,0,0h0a.22.22,0,0,1,.05-.08c.33,0,0,0-.05.08v0h0l1.15-.13A6.64,6.64,0,0,0,129.68,34.92Z"/><path class="cls-2" d="M123.93,33.81s0,0,0,0S124.07,33.82,123.93,33.81Z"/><path class="cls-2" d="M124.4,33.94a.63.63,0,0,1-.42.1c-.24-.07,0-.11,0-.18-.17.06-.57.16-.06.27l.08,0c.46.07,1.05.35,1,.38A1.61,1.61,0,0,0,124.4,33.94Z"/><path class="cls-2" d="M127.07,34.37l1-.11-.49-.19,0,.12C127,34.14,127.14,34.28,127.07,34.37Z"/><path class="cls-2" d="M131.34,35.06c-.07.08-.14.15-.2.23a2.29,2.29,0,0,1,.43-.33Z"/><path class="cls-2" d="M131.55,35.26l-.2.13h.12Z"/><path class="cls-2" d="M143.64,40.65l-.06-.28A2.13,2.13,0,0,0,143.64,40.65Z"/><path class="cls-2" d="M143.63,42.68l.1,0C143.67,42.63,143.63,42.59,143.63,42.68Z"/><path class="cls-2" d="M131.57,65.09c-.19.68-.48,1.71-.25,1.48l.22-.33A4.67,4.67,0,0,1,131.57,65.09Z"/><path class="cls-2" d="M144.8,59.31l-.06.12.21.28Z"/><path class="cls-2" d="M143.89,59l.14-.54A2.74,2.74,0,0,0,143.89,59Z"/><path class="cls-2" d="M149,32.29l.33-.23C148.85,32.06,149.07,32.17,149,32.29Z"/><path class="cls-2" d="M131.63,47.12a4.06,4.06,0,0,0-.13.88C131.62,47.57,131.82,47.23,131.63,47.12Z"/><path class="cls-2" d="M146,41.44c0-.17-.09-.24-.14-.23C145.9,41.38,145.94,41.48,146,41.44Z"/><path class="cls-2" d="M131.5,49l.05-.18a3.67,3.67,0,0,1-.05-.83A1.36,1.36,0,0,0,131.5,49Z"/><path class="cls-2" d="M135.72,24.25l-.09,0S135.66,24.26,135.72,24.25Z"/><path class="cls-2" d="M124,22h.48A1.55,1.55,0,0,0,124,22Z"/><path class="cls-2" d="M131.45,39.4c0-.26,0,0,0,0Z"/><path class="cls-2" d="M132.33,38.13a.16.16,0,0,0,.11.1A.18.18,0,0,1,132.33,38.13Z"/><path class="cls-2" d="M132.88,51.63v0C132.92,51.58,132.91,51.59,132.88,51.63Z"/><path class="cls-2" d="M131.55,39a2.63,2.63,0,0,0-.06.34A3.37,3.37,0,0,0,131.55,39Z"/><path class="cls-2" d="M131.45,39.06l0-.23S131.41,38.83,131.45,39.06Z"/><path class="cls-2" d="M131.46,39.77a2.77,2.77,0,0,1,0-.42s0,.07,0,0Z"/><path class="cls-2" d="M156.43,23.76l0-.06,0,0c-.08,0-.08,0,0,0Z"/><path class="cls-2" d="M138.05,65.49h0Z"/><path class="cls-2" d="M139,65.32a1,1,0,0,1-.93.18l.31.64Z"/><path class="cls-2" d="M143.58,35.79l-.2.66a4.35,4.35,0,0,1-.18-.55l0-.22,0-.3c-.05-.31-.09-.32-.23.29.7.13.07,2.59.77,2.69l-.15.44c0-.13,0-.15,0-.27-.33.85.51.63.41,1.73-.06.38-.16.65-.24.39l.17.85c0,.24-.13.18-.12-.06l.06,1.3h0a6.59,6.59,0,0,1,.35.81c-.1.33-.08-.17-.16-.09l.16.72c-.18.3-.35-.3-.32-.8-.7.68.17.6-.23,2.05l-.09-.68c-.4.44-.25,1-.5,1.73.13-.18.62-1.53.79-.75a1.63,1.63,0,0,0,.06.93c-.24,0-.18.41-.17.93l-.32,0c.09.56.26.51.4.84a.93.93,0,0,1-.5.9c0,1,.41-.69.47.48a6.38,6.38,0,0,0,.21,2.4c-.12.57-.2-.11-.3.1l.26.51c0,.13-.08.09-.12.07.1.43.32,0,.41.71.36.18-.52,1.39-.11,2.23-.1.21-.21-.1-.33,0a9.49,9.49,0,0,0,.55,1.93l-.21.8c.25-.59.54.17.77.83.12-.21.23-.39.28-.51l.17,1.06c-.05.13-.16,0-.3-.15l.08.19c-.12.38-.31.18-.49-.09l.2-.38c-.2-.26-.42-.5-.61-.45a1.44,1.44,0,0,1,.09.35c-.06-.07-.11-.12-.14-.08s0,.14.12.32l-.36.24.14,0-.23,1.39a11.08,11.08,0,0,1,1.06,3.41c-.27-.38-.43-.07-.75-.11.33-.41-.14-1.21-.08-2,0,.43-.18.33-.23.23l.3,1.45c-.26-.07-.19.41-.3.49.5-.09.35.67.49,1.2h0a.52.52,0,0,1-.14-.18.8.8,0,0,1-.13-.54c-.16.07-.08.2,0,.45s0,.43-.46.24c.11,0,.2,0,.19-.07-.19.15-.94,0-.77-.12h.1c-.1,0-.57,0-.93,0s-.81,0-1.19,0c-.76.06-1.4.18-1.49.4a2.16,2.16,0,0,1,.22-.61L137.57,67c.18-.37-.52-1.26.45-1.47a2.55,2.55,0,0,0-1.21,0c.19.06.47.54.21.58a5.64,5.64,0,0,0-1.37-.58c.29.08,0,.67-.48.65.07-.09,0-.58.13-.64a3.23,3.23,0,0,0-.53.29,4.42,4.42,0,0,1-.45.28c.24-.1.14-.48.11-.65,0,.1-.35,0-.55,0,0,0,0,0,0,0l0,.1.09.09a1.08,1.08,0,0,0-.18,0c-.09-.38-.81-.11-.78-1.26.12.15.73.37.8-.27a5.45,5.45,0,0,1-1.64-2.4l.17-.21-.19-.85a17.12,17.12,0,0,1,1.73,2.83c.14-.48.2-.13.19-.84.16-.25.24.38.25.59l.1-1.65c-.35.08-.35-1.26-.63-1.19l.35,1.79c-.34.07-1-1-.91-2.21.14-.29.61.23.73.2a2.61,2.61,0,0,1-.15-1.21l.19.49c.13-.65-.46-1.06-.13-1.84,0-.27.44-.81.24-.85a1.84,1.84,0,0,1-1.9.23,10.35,10.35,0,0,1,.57-1.72c.3-.45.73.66,1,.29-.09,0-.21-.27-.24-.37.08-.28.29.12.25-.5-.35-.1,0-1.25-.3-.29-.1-.6.07-.64.06-1.34-.23.22-.77-.64-.87-1.24.09,0,.21-.1.26-.17,0-1.23.19-1.89.19-3,.09-.11.19-.66.34-.43a1.54,1.54,0,0,1-.19-.67c.3-.69.05.79.41.27-.2,0-.28-.92-.41-1.42-.31.15-.06,1.16.07,1.67-.43,0-.88-.88-1.08-2.08-.11-1,.27-.42.21-.58.08-1.8-.75-1.53-.44-3,.28-.59.55,0,.75-.16a8.57,8.57,0,0,1-.17,1.72l.13-.65a2.18,2.18,0,0,1,.08,1c.25-.49,0-3,.28-4.41-.09-.25-.19-.67-.3-.47l0,.44c-.22.4-.31-.83-.41-.27a4.78,4.78,0,0,1-.28-2.08l.32-.15c-.09,0-.19.54-.09.77-.14-.35.42-1.27,0-1.65l-.22.58a6,6,0,0,1-.39-1.65c-.31.21,0,.1-.33.3.46-.48,0,1.87.46,1.14-.42.53-.18.93-.54,1.62.11,0,.2-.24.15.37a.67.67,0,0,1,.09.14v0s0,0,0,0a.68.68,0,0,1,.16-.31c.23.3.23,1.28.35,1.61-.05.37-.12-.15-.23.05l.18.5c-.23,0-.38,1-.51.11v.77a3.39,3.39,0,0,0-.09,1.47c0,.37.26.92.08.6l.14,1.22h-.06c0,1.2.38,2.47,0,3.84a5.2,5.2,0,0,1,.06,1.49l-.2.13c.07.52-.19,1.56,0,1.78-.53.56-.11,2.52-.21,3.43l.26,0a13.83,13.83,0,0,0,.16,2l.23-.05a17.14,17.14,0,0,1-.14,2.79c-.08-.07-.06-.34,0-.53-.52,1.26.38,2.67,0,3.82a1.18,1.18,0,0,1,0,.7s0-.05,0-.07v.11a6.26,6.26,0,0,0-.12.62,4,4,0,0,0,.12-.55c0,.34,0,.88.09,1.36l-.24.34v.12c-.1.6.11.34.3,0a2.12,2.12,0,0,0,.15.54,1.11,1.11,0,0,0-.16.66c.45,0,1-.15,1.23.14a7.13,7.13,0,0,1,1.49-.21,2.82,2.82,0,0,0,.65-.14.55.55,0,0,0,.33-.25c0,.06.1.09-.07.09a2.23,2.23,0,0,0,1.06,0l.15.31.8-.42c.49.19.69.3.21.54,1.16-.37.94-.14,1.93-.5l0,.2c.35,0,.92-.28,1.13-.11a5,5,0,0,0,1.64.2l3.38,0c0-.9.07-1.77.17-2.6-.15.14-.21.11-.22,0a1.42,1.42,0,0,1,.07-.43c.08-.29.18-.65-.05-.69.14-.12.22-.4.35-.07-.14-1,.22-1.56-.17-2.28.14-.12.21.22.29.12s-.12-.33,0-.44.12.15.18.32c0-1.06-.46-1.17-.86-1.25a1.1,1.1,0,0,0-.11-1.19c.14-.19.28-.5.32.16,0-.37.2-2.27-.13-2.3a1,1,0,0,0,0-.62c0-.83,0-.9,0-1.72l-.06.23c-.39-.33-.08-.68-.13-1.34l0,0c.28-1.51-.14-.65.19-2.14l-.25.08c-.52-.14.31-1.32.11-2.19l-.14.32c-.18-.48.72-1.32.79-1.8,0-.1.07.16.1.31.31-1.24-.32-.16-.39-1.09.17-.17.44.22.47-.4.14-.31-.56-1.81-.23-2.65-.13.18-.27.37-.37-.06,0-.66.51-1.78.09-2.38,0-.08.07-.11.1-.11a8.14,8.14,0,0,0-.41-1.94c.85-.47-.41-3.13.37-3.12l0-.62,0-.41.08.06a1.29,1.29,0,0,0,0-.48c.13-.06.16-.17.23-.28.18,0,.11.12.12.16a3.61,3.61,0,0,0,2.31-.26l.13.25c.33-.15,2.09.4,3.51.1,0,0,0,.08-.16.12a9,9,0,0,1,2.58.12,4.28,4.28,0,0,0,.6.05,7.64,7.64,0,0,0,.84,0c.5,0,.85-.15.91-.38l.89-.16-.07-.48c0,.17,0,.3,0,.38-.69-.07-.38-.2-.33-.33s-.13-.27-.18-.18h0a1.46,1.46,0,0,1,.14-.72c.08-.15.17-.16.19.24l0,.09c.48.69.17-2.15.49-1.89,0-1.34,0-2.67.12-4s.14-2.27.15-4.54c-.13.23-.25.44-.38.64l0-1.22c0-.08,0-.17.07-.23s0-.11.15-.15a1.34,1.34,0,0,1,.06.6,1.53,1.53,0,0,0,0-.7,3.88,3.88,0,0,0-1.17.3c-.8-.08-.62-.19-.22-.28s1-.16.69-.17l-.84,0,.16.05c-.36.07-.56.15-.8.21a3.66,3.66,0,0,1-.42.07,5.56,5.56,0,0,1-.58,0c-.47-.07-.24-.23-.43-.24,0,0-.06,0-.29,0l-1.1,0,.44.3c-.49.15-1,0-.53.32-.74-.52-4.11-.19-4.57-.35a6.48,6.48,0,0,1-2.2.19c.21.06.33.39-.39.35.26-.68-1.32-.3-1.91-.79.52.33-2.05.08-1.23.55-.61-.06,0-.26-.5-.42-1.43.26-3.16-.17-4.93-.08,0,.09.27.22-.11.36l-.94-.45c-.35,0-.32.52-1,.2.09.08.22.19,0,.22-3.48-.44-7.1.36-10.63-.46.48.17.16.19-.21.2.24,0,0,.22,0,.34L123.05,22c-.27.34-1.59,0-1.74.35l.47-.06c-.63.38.87.85.78,1.34.69-.44,1.83.64,3,0,.25.1-.22.16-.08.27a1.64,1.64,0,0,1,1.28-.16l-.07,0a41.38,41.38,0,0,1,4.65.3l-.15-.24a2.35,2.35,0,0,1,.74.16c.5-.36-1.24,0-.78-.42.58.49,3.1,0,3.5.57.67,0-.2-.28.47-.28l.18.15.17-.19c.45,0,.67.22.69.35a2,2,0,0,0-.42,0,9,9,0,0,0,1.82,0l-.65-.09c1.84-.15,4.1.05,5.88-.25l-.14-.12c1.37-.21,1.1.13,2.59,0l-.05,0a2.71,2.71,0,0,1,1.1-.16c-.37.13.71.26.22.41,1.48-.23.73-.18,1.71-.61l.22.19a1.87,1.87,0,0,1,1.11-.31c-.61.16.47.29-.21.51,1.57.41,2.33-.42,3,.18.72-.52-1.35-.29-1-.4-.34-.17.6-.39,1.09-.34s.85.67,2.11.66c-.13,0-.14,0-.26,0a1.71,1.71,0,0,0,.71,0c.19,0,.29-.06.4.05.31-.32.34,0,.7-.38l-.78.09a5.8,5.8,0,0,1,1.36-.4,2.39,2.39,0,0,1-.06.66c-.08,0-.19-.17-.25-.26-.12.3.08.35,0,.64-.24.06-.23-.19-.24-.46a1.2,1.2,0,0,0-.6.16c0,.13.45-.1.48,0s-.05.07-.12.13l-.08,0,.06,0c.24-.14.22.07.18.25a.62.62,0,0,0,.13.59L156,25a2.47,2.47,0,0,1,.15.67l-.32-.45c.27.69-.23,1.33-.09,2,0-1.39.3-.31.47-.9.33,1.71-.63,1-.52,2.9,0-.26.15-1,.26-.57a3.55,3.55,0,0,1-.27,1.07c.05,1.27.25-.19.4.35-.29.43.12.62.22,1.18H156c0,.36,0,.6,0,.61a.38.38,0,0,0,.16.12c.13.06.25.15.15.51A2.4,2.4,0,0,0,156,32l.09.35-.28-.23a1,1,0,0,1,.14.43,1.4,1.4,0,0,1-.39-.07c.18.18.23.45-.18.46-.15-.07-.11-.13-.12-.17s0,0,0,0h-.35a2.58,2.58,0,0,1,.3-.2c.05,0,.1,0,.22.08,0-.08,0-.16,0-.24a.33.33,0,0,0-.27-.08l-.71,0a1.17,1.17,0,0,1,.36.06l-1.32.34c-.2-.09,0-.17.12-.24-.26,0-.45.14-.84.16.1-.2.08-.41.63-.5l-1.25.22c-.08-.09-.64-.24-.48-.31-.7-.12-1.71.39-2.63.23a.64.64,0,0,1-.34.1c-.43,0-.84-.09-1.27-.12l-.32,0h-.41a8.27,8.27,0,0,0-1.21.12q-.55-.18-1.23-.36c-.71,0-.24.15.07.27s.47.25-.5.32h0c.11,1.52-.31.28-.41.77.09.48.23,1.09.31,1.7a3.08,3.08,0,0,1,0,1.45A4.21,4.21,0,0,1,143.58,35.79Zm.16,9.91c-.06-.19-.21-.58-.07-.72C144,45.2,143.82,45.37,143.74,45.7Zm.59,15.07a.79.79,0,0,1,0-.61A1.66,1.66,0,0,1,144.33,60.77ZM131.65,42.29v0C131.57,42.74,131.61,42.58,131.65,42.29Zm.11-.89c0-.09-.07-.09-.1,0a.89.89,0,0,1,.05.49C131.77,41.78,131.82,41.66,131.76,41.4ZM154.45,22l.18.06C154.23,22.13,154.34,22.07,154.45,22Z"/><path class="cls-2" d="M144,59.06a.23.23,0,0,1,.14-.08C144.09,58.9,144,58.9,144,59.06Z"/><path class="cls-2" d="M149,32.33h0a.05.05,0,0,0,0,0Z"/><path class="cls-2" d="M133.85,55.18a.8.8,0,0,1-.13.36C133.78,55.55,133.84,55.46,133.85,55.18Z"/><path class="cls-2" d="M131.34,36.68l.06.57a1.22,1.22,0,0,1,.09-.51C131.43,36.75,131.34,36.86,131.34,36.68Z"/><path class="cls-2" d="M130.85,33.71c-.09,0-.18,0-.26,0l0,.11C131,33.85,131.21,33.76,130.85,33.71Z"/><path class="cls-2" d="M132.16,36.15c.21,0,.14-.46.1-.69v0C132,35.49,132.06,35.66,132.16,36.15Z"/><path class="cls-2" d="M132.25,35.39a1,1,0,0,1,0-.25C132.13,35.16,132.22,35.25,132.25,35.39Z"/><path class="cls-2" d="M131.62,40.27c.06-.19-.26-.12-.18-.23C131.18,39.83,131.76,41.31,131.62,40.27Z"/><polygon class="cls-2" points="132.84 35.83 132.59 35.98 132.79 36.2 132.84 35.83"/><path class="cls-2" d="M132.66,39l.07-.63s-.07-.08-.09-.17C132.63,38.57,132.58,39,132.66,39Z"/><path class="cls-2" d="M132.64,38.18a1.92,1.92,0,0,0,0-.52A3.56,3.56,0,0,0,132.64,38.18Z"/><polygon class="cls-2" points="132.92 36.7 132.87 36.89 132.85 37.34 132.92 36.7"/><path class="cls-2" d="M132.61,45.84l.07.7c.09.07.14-.12.11-.38S132.69,45.74,132.61,45.84Z"/><path class="cls-2" d="M133.31,43.74a.63.63,0,0,1-.2.3l.32,0Z"/><path class="cls-2" d="M133.38,45.77c.09.07.26,1,.24.13C133.53,45.82,133.45,45.13,133.38,45.77Z"/><polygon class="cls-2" points="132.98 56.26 132.98 56.08 132.46 56.11 132.98 56.26"/><path class="cls-2" d="M134.23,64.83c.12-.28-.32,0-.17-.28-.12-.09-.13.27-.23.21C134,65,133.88,65.08,134.23,64.83Z"/><path class="cls-2" d="M133.83,64.76l-.08-.12A.34.34,0,0,0,133.83,64.76Z"/><polygon class="cls-2" points="122.06 21.73 121.53 21.63 121.87 21.8 122.06 21.73"/><path class="cls-2" d="M121,22.12l-.13-.33-.31.3A.72.72,0,0,1,121,22.12Z"/><path class="cls-2" d="M143.07,47.17l.08,0c.08-.08.09-.2.1-.45Z"/><polygon class="cls-2" points="143.32 39.98 143.31 40.1 143.61 39.87 143.32 39.98"/><path class="cls-2" d="M142.93,32.21c0,.48.06,1.1,0,1.57C142.92,32.67,143.31,32.42,142.93,32.21Z"/></g></g></svg>